<svg width="156" height="147" viewBox="0 0 156 147" fill="none" xmlns="http://www.w3.org/2000/svg">
<path fill-rule="evenodd" clip-rule="evenodd" d="M132.392 10.9728V138.556H0.145508V10.9728H42.2322V0.351562H90.3055V10.9728H132.392ZM84.3008 5.66217H48.2368V16.2994H84.3008V5.66217ZM114.425 32.6211H18.4253V44.6211H114.425V32.6211ZM18.4253 51.6211H114.425V63.6211H18.4253V51.6211ZM114.425 70.6211H18.4253V82.6211H114.425V70.6211ZM18.4253 89.6211H114.425V101.621H18.4253V89.6211ZM114.425 108.621H18.4253V120.621H114.425V108.621Z" fill="#F85266"/>
<path d="M111.903 146.006C135.735 146.006 155.054 128.92 155.054 107.843C155.054 86.7659 135.735 69.6797 111.903 69.6797C88.0721 69.6797 68.7529 86.7659 68.7529 107.843C68.7529 128.92 88.0721 146.006 111.903 146.006Z" fill="#F85266"/>
<path d="M103.304 118.369L90.5554 107.094L86.2998 110.857L103.304 125.896L137.294 95.8185L133.039 92.0547L103.304 118.369Z" fill="white"/>
</svg>
