<svg width="253" height="139" viewBox="0 0 253 139" fill="none" xmlns="http://www.w3.org/2000/svg">
<path fill-rule="evenodd" clip-rule="evenodd" d="M132.247 10.6213V138.204H0V10.6213H42.0867V0H90.16V10.6213H132.247ZM84.1553 5.31061H48.0913V15.9478H84.1553V5.31061ZM114.28 32.2695H18.2798V44.2695H114.28V32.2695ZM18.2798 51.2695H114.28V63.2695H18.2798V51.2695ZM114.28 70.2695H18.2798V82.2695H114.28V70.2695ZM18.2798 89.2695H114.28V101.27H18.2798V89.2695ZM114.28 108.27H18.2798V120.27H114.28V108.27Z" fill="white"/>
<path d="M218.667 59.3338L208 70.0002M208 70.0002L197.333 80.6671M208 70.0002L197.333 59.3333M208 70.0002L218.667 80.6666M248 70C248 92.0914 230.091 110 208 110C185.909 110 168 92.0914 168 70C168 47.9086 185.909 30 208 30C230.091 30 248 47.9086 248 70Z" stroke="white" stroke-width="10" stroke-linecap="round" stroke-linejoin="round"/>
</svg>
