<svg width="193" height="171" viewBox="0 0 193 171" fill="none" xmlns="http://www.w3.org/2000/svg">
<path d="M46.2489 90.2422C27.7572 90.2422 12.7595 103.573 12.7595 120.01C12.7595 136.448 27.7572 149.779 46.2489 149.779C64.7406 149.779 79.7382 136.448 79.7382 120.01C79.7382 103.573 64.7406 90.2422 46.2489 90.2422ZM46.2489 139.856C33.9415 139.856 23.9226 130.95 23.9226 120.01C23.9226 109.071 33.9415 100.165 46.2489 100.165C58.5562 100.165 68.5751 109.071 68.5751 120.01C68.5751 130.95 58.5562 139.856 46.2489 139.856Z" fill="#F85266"/>
<path d="M146.716 90.2422C128.224 90.2422 113.227 103.573 113.227 120.01C113.227 136.448 128.224 149.779 146.716 149.779C165.208 149.779 180.205 136.448 180.205 120.01C180.205 103.573 165.208 90.2422 146.716 90.2422ZM146.716 139.856C134.409 139.856 124.39 130.95 124.39 120.01C124.39 109.071 134.409 100.165 146.716 100.165C159.023 100.165 169.042 109.071 169.042 120.01C169.042 130.95 159.023 139.856 146.716 139.856Z" fill="#F85266"/>
<path d="M169.045 80.3281H135.555V85.2895H169.045V80.3281Z" fill="#F85266"/>
<path d="M169.045 70.4141H135.555V75.3754H169.045V70.4141Z" fill="#F85266"/>
<path d="M169.045 60.5H135.555V65.4614H169.045V60.5Z" fill="#F85266"/>
<path d="M169.045 50.582H135.555V55.5434H169.045V50.582Z" fill="#F85266"/>
<path d="M129.972 80.336L102.064 35.6836L79.7379 45.6064L40.667 70.4133L46.2485 75.3747L86.8377 61.845L95.3663 81.3232L79.7379 95.2202L96.4826 144.834L107.646 139.873L102.064 100.182L129.972 80.336Z" fill="#F85266"/>
<path d="M68.5747 23.2746C68.5747 30.1262 74.8205 35.678 82.5286 35.678C90.2368 35.678 96.4825 30.1262 96.4825 23.2746C96.4825 16.4229 90.2368 10.8711 82.5286 10.8711C77.9797 10.8711 73.9777 12.8358 71.4325 15.8325H57.4116V20.7939H68.8594C68.6752 21.5976 68.5747 22.4212 68.5747 23.2746Z" fill="#F85266"/>
</svg>
