<svg width="134" height="134" viewBox="0 0 134 134" fill="none" xmlns="http://www.w3.org/2000/svg">
<path d="M89.5234 90.9165L102.155 102.919L127.418 78.914M121.102 54.9272V42.9248C121.099 40.82 120.515 38.7528 119.406 36.9305C118.297 35.1083 116.704 33.595 114.786 32.5426L70.5755 8.53771C68.6553 7.48428 66.4771 6.92969 64.2598 6.92969C62.0425 6.92969 59.8642 7.48428 57.944 8.53771L13.7337 32.5426C11.8154 33.595 10.222 35.1083 9.11351 36.9305C8.00497 38.7528 7.42024 40.82 7.41797 42.9248V90.9346C7.42024 93.0394 8.00497 95.1066 9.11351 96.9289C10.222 98.7511 11.8154 100.264 13.7337 101.317L57.944 125.322C59.8642 126.375 62.0425 126.93 64.2598 126.93C66.4771 126.93 68.6553 126.375 70.5755 125.322L83.207 118.48M92.6803 51.3014L36.1543 20.3351M9.24899 36.9092L64.2592 66.9153L119.269 36.9092M64.259 126.923V66.9104" stroke="#F85266" stroke-width="13" stroke-linecap="round" stroke-linejoin="round"/>
</svg>
