<svg width="40" height="40" viewBox="0 0 40 40" fill="none" xmlns="http://www.w3.org/2000/svg">
<rect x="0.2" y="0.199847" width="39.6" height="39.6" rx="19.8" fill="white"/>
<path fill-rule="evenodd" clip-rule="evenodd" d="M28 25.4013V19.1128C27.9999 18.7502 27.9201 18.3916 27.7659 18.0603C27.6116 17.729 27.3864 17.4323 27.1046 17.1894L21.7778 12.6244C21.2819 12.2165 20.6478 11.9946 19.9935 12C19.341 11.9938 18.7086 12.216 18.2157 12.6244L12.8824 17.1582C12.6037 17.4009 12.3811 17.6966 12.2288 18.0262C12.0786 18.3596 12.0008 18.7186 12 19.0816V25.4325C12.0013 25.8497 12.1076 26.2604 12.3101 26.63C12.5126 26.9995 12.8053 27.3171 13.1634 27.5557C13.6247 27.8569 14.1734 28.012 14.732 27.9991H16.9608C17.1322 27.9991 17.2954 27.9991 17.4507 27.999L17.4894 21.0382C17.4939 20.2363 18.1308 19.5795 18.9351 19.5702C19.8273 19.5599 20.8991 19.5581 21.7653 19.5589C22.4257 19.5595 22.7873 20.3123 22.381 20.8367L21.925 21.425C21.7853 21.6053 21.7834 21.8549 21.9201 22.0338C22.0757 22.2373 22.2909 22.5196 22.507 22.8051C22.8786 23.2962 22.5478 23.934 21.927 23.9381C20.9299 23.9447 19.6613 23.9531 19.0302 23.9578C18.7268 23.9601 18.7144 24.2297 18.7144 24.2297L18.7003 27.9981C20.4533 27.9955 20.5213 27.9885 20.5857 27.9819C20.6566 27.9747 20.7232 27.9679 23.0392 27.9679H25.3333C26.042 27.9672 26.7214 27.6977 27.2222 27.2185C27.7197 26.7329 27.9988 26.0808 28 25.4013Z" fill="#8E95A5"/>
<rect x="0.2" y="0.199847" width="39.6" height="39.6" rx="19.8" stroke="#8E95A5" stroke-width="0.4"/>
</svg>
