<svg id="Layer_1" data-name="Layer 1" xmlns="http://www.w3.org/2000/svg" viewBox="0 0 676.42 680.73"><defs><style>.cls-1{fill:#ffda73;}.cls-2{fill:#e6e6e6;}.cls-20,.cls-21,.cls-3,.cls-8{fill:#f2f2f2;}.cls-4{fill:#b3b3b3;}.cls-5{fill:#ccc;}.cls-6{fill:#60bdb1;}.cls-7{fill:#3baea0;}.cls-8{opacity:0.76;}.cls-9{fill:#de2841;}.cls-10{fill:#159e8e;}.cls-11{fill:#9e5e4e;}.cls-12{fill:#ae5c51;opacity:0.55;}.cls-13{fill:#bb6357;}.cls-14{fill:#e28c7b;}.cls-15{fill:#733d36;opacity:0.26;}.cls-16{fill:#a15a54;}.cls-17{fill:#e09080;}.cls-18{fill:#703c3b;}.cls-19{fill:#ffd3b8;}.cls-20{opacity:0.49;}.cls-21{opacity:0.8;}</style></defs><title>service</title><circle class="cls-1" cx="265.96" cy="389.92" r="30.39"/><path class="cls-2" d="M579.21,540.62s-35.84-55.26-47-59.41c-37-13.83-49.1-34.92-49.1-34.92-12.09,3.3-41.27,29.09-57.63,27.76S331.58,345.77,305.25,352.53s-44.07,45.31-55.13,48.61-18.88-8.81-30.26,1.1S96.75,539.88,96.75,539.88Z"/><path class="cls-3" d="M343.67,411.05c-7.68,2-13.35-5.1-19.17-11.25-3.62-3.82-13.61-15.9-17.79-15.23-3.71.6-4,7.89-7.32,8.61-3.9.86-5.66-6.27-7.68-9.79-6.52,7.58-21.38,16.52-26.9,3.54,10.31-12.79,23.62-30.08,40.44-34.4,11.55-3,32.95,19.8,54.73,46.4C351.73,397.08,350.8,409.22,343.67,411.05Z"/><path class="cls-4" d="M241.22,415.27c-6.24,5.3-6.84,4.3-13.61,3.65-12.45-1.18-18,16.6-29,19.06a10.18,10.18,0,0,1-9.17-2.92C204.55,418,216.33,404.94,219.66,402c11.5-10.19,19.42,2.26,30.59-1.13a11.4,11.4,0,0,0,3.61-2.09,11.55,11.55,0,0,1,2.37,8.68A37.92,37.92,0,0,0,241.22,415.27Z"/><path class="cls-5" d="M214.87,530.89c4.63-12.64,9.8-24.82,14.54-37.2,5.3-13.85,12.3-26.35,16.28-41.46,2.95-11.23,5-21.51,9.05-32.2,3.56-9.46,1.93-14.84,0-21.35,5.09-3.72,11.35-12.51,18.94-21.57a6.34,6.34,0,0,1-.15,1.81l1.07-2.48c.76,11.11,20.25,6.46,10.28,24.16-5.48,9.73-14.18,15.25-12.43,31.17,1.69,15.45,8.56,20.73,0,35.49-6.09,10.52-14.68,15.89-21.78,24.16C239.93,504,235.39,524,227.23,539.25l-15.68,0C212.56,536.34,213.88,533.58,214.87,530.89Z"/><path class="cls-5" d="M200.05,423.61c5.53,7.63-10.67,17.88-12.55,23-6.45,17.62,8.71,31.24,14.16,41.95,6,11.71,3.5,24.93-4.41,31.79-4.36,3.79-7.37,3.37-9.08,11.36-.6,2.79-.9,5.26-1.25,7.49l-89.1-.14S164.46,462.87,200.05,423.61Z"/><path class="cls-4" d="M456.75,522.57c-6.14-12.85-12.07-16.41-20.95-23.26-3.33-2.58-8.8-7.33-10.14-13-1.65-7.09,1.52-8.21,3.53-12.2,15.09.74,40.52-20.52,53.87-26.55.13,8.89-8.2,19.84-8.71,28.84-1,16.41,13.22,28.91,19.09,40.23,3,5.73,7.5,15.38,4.41,22.71a10.82,10.82,0,0,1-.59,1.18l-28,0C464.06,537.51,461,531.41,456.75,522.57Z"/><path class="cls-5" d="M540.84,540.56C531.4,532,517.1,516.28,517.45,502c.36-14.57,16.73-8.07,16.62-19.41,13.1,9.48,44.61,58.06,44.61,58.06Z"/><path class="cls-5" d="M334.41,507.75c-.83-15.19-5.38-31.69,1.72-45.47,2.77-5.37,7.77-10.39,12.15-12.16,4-1.59,10.42.56,13.22-4.5,5.45-9.82-.14-23.85-2.41-32.18-1.59-5.82-.77-10.68,1.31-14.16C380.59,424,401,451.79,414,465.17a16.72,16.72,0,0,1,1.52,7.89c-1.06,9.57-9.84,6.24-14.27,5-6.18-1.74-33.6-10.43-29.07,9.91,2.43,10.9,11.84,26.66,17.19,34.71,2.77,4.16,9.26,9.46,9.15,16.86l-58.46-.09C333.87,531.74,335,519.45,334.41,507.75Z"/><path class="cls-6" d="M313,575.85c6.6.45,15.17,2.92,15.19,9.54,0,3.68-2.9,7.68-.78,10.69,1.11,1.56,3.17,2.07,5.05,2.42a155.19,155.19,0,0,0,64.3-1.52c10.49-2.49,21.12-6.33,28.59-14.1,2.38-2.48,4.43-5.34,7.26-7.28,3.78-2.58,8.51-3.23,13.05-3.81l102-13c6.43-.82,13-1.69,18.75-4.7s10.56-8.65,10.7-15.13l-279.41-4.34-70-1.08c-46.42-.72-91.37.06-137.61,4.41-3,.28-6,.58-8.62,2C75.58,543,75.78,550,80.34,554.2c3.81,3.52,8.91,5.21,13.89,6.64,38.54,11.09,80.46,9.07,120.28,10.48C247.37,572.48,280.23,573.59,313,575.85Z"/><path class="cls-7" d="M119.56,554.7a1220.6,1220.6,0,0,0,133.35,1.35c4.49-.2,4.51-7.2,0-7a1220.6,1220.6,0,0,1-133.35-1.35c-4.5-.29-4.48,6.71,0,7Z"/><path class="cls-7" d="M295.3,555.94h86.84c4.5,0,4.51-7,0-7H295.3c-4.51,0-4.51,7,0,7Z"/><path class="cls-8" d="M573,261.29a10.3,10.3,0,0,0-6.34,2.17,19.73,19.73,0,0,0-19.39-16h-.4a31.45,31.45,0,0,0-62-.54,19.74,19.74,0,0,0-34.65,12.93c0,.14,0,.28,0,.42a15.75,15.75,0,1,0,5.33,28.3,20.7,20.7,0,0,0,36.09,8.56,20.7,20.7,0,0,0,36.15-3.58,15.6,15.6,0,0,0,21.71-5.1,12.19,12.19,0,0,0,23.37-6.37H573a10.39,10.39,0,0,0,0-20.77Z"/><g id="ioS"><path id="Path_132" data-name="Path 132" class="cls-9" d="M473.11,268.08a55.78,55.78,0,0,0-100.67-23.51,51,51,0,0,0-9.57,37.9,96.05,96.05,0,0,0,10.82,28.79,448.25,448.25,0,0,0,35.09,56c2.89,4.09,5.92,8,9.08,12.38.67-.76,1-1.19,1.36-1.62,8.9-12.86,18-25.56,26.56-38.59a242.56,242.56,0,0,0,22.9-42.13A53.2,53.2,0,0,0,473.11,268.08Zm-27.9,8.41a15.06,15.06,0,0,1-2,6.22,29,29,0,0,1-5.5,7l-18.93,18.2a2,2,0,0,1-2.05.61,2.11,2.11,0,0,1-.9-.53l-8.61-8.28c-3.59-3.46-7.14-6.94-10.62-10.36a28.92,28.92,0,0,1-5-6.22,16.23,16.23,0,0,1-.16-16.44,12.29,12.29,0,0,1,6.56-5.15,18,18,0,0,1,8.73-.76,10.46,10.46,0,0,1,3.17,1.09,30.92,30.92,0,0,1,7.09,5.08l.29.34c.58-.52,1.11-1,1.64-1.48a28.09,28.09,0,0,1,5.31-3.74,13.84,13.84,0,0,1,8-1.46,16.78,16.78,0,0,1,5.31,1.19,12.39,12.39,0,0,1,7.2,8.74,17.88,17.88,0,0,1,.49,6Z"/></g><path class="cls-10" d="M493.87,484.86c1.15,4.45.75,9.09.21,13.59-.52,4.28-1.16,8.59-.77,12.9a20.41,20.41,0,0,0,1.7,6.7c0,.09.17,0,.13-.08-1.78-3.87-2-8.21-1.69-12.39.31-4.43,1.17-8.81,1.3-13.26a26.67,26.67,0,0,0-.74-7.5c0-.09-.17-.05-.14,0Z"/><path class="cls-10" d="M450.42,523.59c1.59-5.09,1.42-10.49,1.05-15.75-.36-5.06-.89-10.16-.23-15.22a24.31,24.31,0,0,1,2.38-7.94.09.09,0,1,0-.15-.08c-2.3,4.41-2.8,9.46-2.72,14.36.09,5.24.87,10.46.79,15.71a31.43,31.43,0,0,1-1.29,8.88c0,.11.14.15.17,0Z"/><path class="cls-10" d="M508.9,526.22c-1.44-4.62-1.28-9.51-.95-14.27.33-4.59.81-9.21.21-13.8A21.82,21.82,0,0,0,506,491a.08.08,0,0,1,.14-.08c2.08,4,2.54,8.58,2.46,13-.08,4.76-.78,9.48-.71,14.24a28.87,28.87,0,0,0,1.17,8c0,.1-.13.14-.16,0Z"/><path class="cls-10" d="M433.8,475.52c1.5,5.19,1.18,10.67.69,16-.47,5.05-1.09,10.14-.49,15.2a24,24,0,0,0,2.21,7.83c.05.1.21,0,.16-.1-2.22-4.49-2.59-9.59-2.39-14.52.22-5.23,1.09-10.41,1.1-15.65a31.41,31.41,0,0,0-1.11-8.79c0-.12-.2-.06-.17,0Z"/><path class="cls-10" d="M444.2,474.63q-.52,6.39-.71,12.8t-.06,12.78c.05,2.41.14,4.81.25,7.21,0,.12.19.11.18,0q-.32-6.41-.3-12.82t.34-12.77q.18-3.6.48-7.2c0-.12-.17-.11-.18,0Z"/><path class="cls-10" d="M501.47,480.1q-.59,5.41-.89,10.85c-.21,3.62-.33,7.23-.35,10.85,0,2.05,0,4.09,0,6.13a.08.08,0,0,0,.16,0q-.12-5.44,0-10.89c.1-3.62.3-7.23.58-10.84.17-2,.36-4.07.58-6.1,0-.1-.15-.1-.16,0Z"/><path class="cls-11" d="M496.86,481.05c-1.61,1.08-7.78,8.7-9.29,11.32s-2.41,5.42-4,6.07-6,2.41-6.81,4.56c0,0-.81.54-.91-1.4s-.86-8.74-5.31-18.35-7.79-11.05-7.84-9.55,4.56,5.85,6.39,12,6.06,20.82,3.05,23.66-7.24-10.68-7.72-13.41-1.56-13.1-4.19-14.76-2.09.54-1.55,1.45,1.45.91,2,3.65c.21,1.05.45,4.47,1.13,8.6a19.71,19.71,0,0,1-7.57-16.54s-.75-3.55-1.82-.65,1.76,16.23,9.82,19.53c1.22,6.14,3.49,13.07,8,16.05,0,0,1.61,20.55-1.39,27.42h10s-1.61-18.35-1.93-24.47-.33-5.47,1.28-8.69,0-5.15,3.22-6.12,4.83-1.29,5.8-4.83,10.41-14.11,10.41-14.11S498.47,480,496.86,481.05Z"/><path class="cls-12" d="M476.43,540.67c0-.39,0-.77,0-1.16,0-3,0-6-.06-9.06-.06-2.71-.11-5.43-.41-8.13a26.23,26.23,0,0,0-2-7.94c-.73-1.61-1.72-3.1-2.55-4.67-2.92.39-6.55-11.27-7-13.79-.48-2.74-1.56-13.1-4.19-14.76s-2.09.54-1.55,1.45,1.45.91,2,3.65c.21,1.05.45,4.47,1.13,8.6a19.71,19.71,0,0,1-7.57-16.54s-.75-3.55-1.82-.65,1.76,16.23,9.82,19.53c1.22,6.14,3.49,13.07,8,16.05,0,0,1.61,20.55-1.39,27.42Z"/><path class="cls-13" d="M474.32,540.67c-.06-1-.12-2.09-.16-3.14-.16-3.76-.2-7.52-.4-11.28a43.74,43.74,0,0,0-1.57-10.3,17.84,17.84,0,0,0-2-4.41c-.46-.72-1-1.37-1.54-2.05s-1.16-1.55-1.7-2.35a40.61,40.61,0,0,1-4.65-9.58c1.24,6,3.51,12.76,7.92,15.69,0,0,1.61,20.55-1.39,27.42Z"/><path class="cls-14" d="M472.14,524.18c-.16-1.8-.33-3.59-.55-5.39-.11-.9-.23-1.81-.36-2.71a19.19,19.19,0,0,0-.44-2.26A8,8,0,0,0,470,512a26.06,26.06,0,0,1-3.58-3.77,20.34,20.34,0,0,1-1.75-2.66c1.32,3.25,3.12,6.09,5.6,7.73,0,0,1.61,20.55-1.39,27.42h2.8a.28.28,0,0,1,0-.09c.11-1.81.4-3.61.56-5.41a52.57,52.57,0,0,0,.13-5.47C472.32,527.86,472.3,526,472.14,524.18Z"/><path class="cls-13" d="M472,509.5a1,1,0,0,0,.3-.19,3.77,3.77,0,0,0,.83-1.28,9.67,9.67,0,0,0,.89-3.92,11.58,11.58,0,0,0-.24-2.2c-.13-.65-.33-1.28-.51-1.91-.34-1.2-.67-2.4-1.08-3.57-.13-.35-.26-.7-.4-1,1.38,6,2.27,12.19.42,13.94A1.57,1.57,0,0,1,472,509.5Z"/><path class="cls-15" d="M496.86,481.05c-1.61,1.08-7.78,8.7-9.29,11.32s-2.41,5.42-4,6.07-6,2.41-6.81,4.56c0,0-.81.54-.91-1.4s-.86-8.74-5.31-18.35-7.79-11.05-7.84-9.55,4.56,5.85,6.39,12,6.06,20.82,3.05,23.66-7.24-10.68-7.72-13.41-1.56-13.1-4.19-14.76-2.09.54-1.55,1.45,1.45.91,2,3.65c.21,1.05.45,4.47,1.13,8.6a19.71,19.71,0,0,1-7.57-16.54s-.75-3.55-1.82-.65,1.76,16.23,9.82,19.53c1.22,6.14,3.49,13.07,8,16.05,0,0,.11,1.38.22,3.56.4,1,.78,2,1.18,2.94a33.19,33.19,0,0,0,1.81,3.81,13.77,13.77,0,0,0,2.37,3.2,7.8,7.8,0,0,0,1.95,1.37c-.37-4.62-.74-9.36-.87-11.93-.33-6.12-.33-5.47,1.28-8.69s0-5.15,3.22-6.12,4.83-1.29,5.8-4.83,10.41-14.11,10.41-14.11S498.47,480,496.86,481.05Z"/><path class="cls-15" d="M485.94,499.22a6.73,6.73,0,0,0,1.26-2.66c1-3.54,10.41-14.11,10.41-14.11s.86-2.47-.75-1.4-7.78,8.7-9.29,11.32-2.41,5.42-4,6.07l-.51.21C484,498.87,485,499.06,485.94,499.22Z"/><path class="cls-15" d="M471.27,493.43a20.08,20.08,0,0,0,2.93,2l.77.41a64.41,64.41,0,0,0-4.4-12.57c-4.46-9.6-7.79-11.05-7.84-9.55s4.56,5.85,6.39,12C469.69,487.61,470.52,490.41,471.27,493.43Z"/><path class="cls-15" d="M462.47,498.29a19.71,19.71,0,0,0,3.14,1.82,36.72,36.72,0,0,1-1.16-4.19c-.48-2.74-1.56-13.1-4.19-14.76s-2.09.54-1.55,1.45,1.45.91,2,3.65c.21,1.05.45,4.47,1.13,8.6a19.71,19.71,0,0,1-7.57-16.54s-.75-3.55-1.82-.65,1.76,16.23,9.82,19.53C462.32,497.56,462.39,497.93,462.47,498.29Z"/><path class="cls-7" d="M530.3,466.91c-2.64-1.94-6.2-1.33-9.33-2a14.29,14.29,0,0,0,2.75-16.14c-.11-.22-.36-.65-.69-1.18-1.4-3.08-5-5.77-6.89-8.12a43.8,43.8,0,0,1-6-10.6c-3.14-7.45-5.23-15.48-10-22.15-3.66-5.14-8.76-6-13.63-9.62-6.08-4.57-18.83-6.24-24.92-1.78-8.52,6.24-17.14,18.42-17.14,29.25,0,5.36-3.49,5.1-7.66,5-6.62-.18-12.22,3.89-15.49,9.4-6.39,16.76,5.59,23.44,5.59,23.44-6.57,2-12.25,6.24-13.62,13.38-1.29,6.71,2.5,12.63,8.44,15.58,4.84,2.41,9.58-.8,14.29-1.86,8.67-1.94,17.38,1.11,26,1.32,6.67.16,13.4.07,20,1.05,1,.15,2.09.33,3.12.54,7.89,1.61,15.75,5.28,24,3.85,7.38-1.3,14.56-6.29,19.12-12.12C531.56,479.94,535.94,471.05,530.3,466.91Z"/><path class="cls-10" d="M426.93,462.38l-1.37.28A8.14,8.14,0,0,0,426.93,462.38Z"/><path class="cls-10" d="M518.75,488.67a40.27,40.27,0,0,1-12.25.42,65.39,65.39,0,0,1-13.93-3.3c-9-3-18.2-6.45-27.81-5.39a99.87,99.87,0,0,0-14.39,3.17c-4.55,1.19-9.1,2.46-13.67,3.54a66.87,66.87,0,0,1-6.72,1.28,56.53,56.53,0,0,1-6.76.42,48.87,48.87,0,0,1-5.27,0,17.31,17.31,0,0,0,3.8,2.55c4.84,2.41,9.58-.8,14.29-1.86,8.67-1.94,17.38,1.11,26,1.32,6.67.16,13.4.07,20,1.05,1,.15,2.09.33,3.12.54,7.89,1.61,15.75,5.28,24,3.85,6.45-1.13,12.75-5.1,17.28-10A40.18,40.18,0,0,1,518.75,488.67Z"/><path class="cls-10" d="M501.89,406.7c-3.8-5.14-9.1-6-14.16-9.62-6.33-4.57-19.58-6.24-25.91-1.78C453,401.54,444,413.72,444,424.55c0,5.35-3.62,5.1-7.95,5h0c-10.16-.27-18,8.72-19.14,17.92a22,22,0,0,0-.13,2.72,20.31,20.31,0,0,0,2.85-.76,1.43,1.43,0,0,1,2,1.43,5.47,5.47,0,0,0,3.95-.72l.3-.17a12.64,12.64,0,0,0,1.77-1.25c.13-.1.3.05.22.16l.15-.07a.13.13,0,0,1,.2.1c.1.91,1.13,2.84,2.19,3.1,1.85.45,1.77-1.18,2.59-2.52a6.49,6.49,0,0,1,3.08-3c.07,0,.14,0,.17.08,1.66,3.68,4.23,1.79,6.26-.57.64-.74,1.27-1.51,2-2.21a3.92,3.92,0,0,1,1.65-1.16.14.14,0,0,1,.17.09c.56,2-.37,4.31-.31,6.4,0,.87,0,2.4.79,3,1.39,1.07,1.78-.37,3.23-.66,2.28-.44,2.89,2.59,4.74,3,3,.7,2.89-3.58,5.29-4.24a3.6,3.6,0,0,1,3.29,1.19c1.29,1.15,2.33,2.63,3.65,3.7-.3-.25,2.25-3.2,2.59-3.39,2.37-1.37,2.8,1.29,4.33,2.23,3.3,2,4.48-2.84,5.22-4.83a5.87,5.87,0,0,1,2.78-3.62.15.15,0,0,1,.19,0c3.4,4.38,5.3-1.66,8.55-1.82,2.71-.14,4.26,2.64,5.57,4.49,1.16,1.62,2.13,4.32,4.11,5.2,2.73,1.2,5.56-1.53,7.39-3.15a3.68,3.68,0,0,1,.38-.31c1.59-1.09,3.78-1.64,5-3.19,1-1.29.77-3.51,2.23-4.46,1.94-1.28,7.93,2.59,3.58-2.49a36.7,36.7,0,0,1-3.06-4.18,62.08,62.08,0,0,1-4.73-9.74C508.39,419.38,506.17,412.48,501.89,406.7Z"/><path class="cls-6" d="M445.35,412.36A4.4,4.4,0,0,0,447,412a5,5,0,0,1,1.44-.3,3.32,3.32,0,0,1,1.46.37,4.48,4.48,0,0,1,1,.75,4.9,4.9,0,0,0,.84.72,5.1,5.1,0,0,0,1.36.4,1.26,1.26,0,0,0,.79,0,6.52,6.52,0,0,0,.87-.57c.47-.3,1-.54,1.44-.82a8.14,8.14,0,0,1,2.41-1.34,2.77,2.77,0,0,1,2.61.7c.48.56.54,1.31,1,1.87a1.92,1.92,0,0,0,2.45.17c.75-.49,1.28-1.21,2.06-1.66a2.94,2.94,0,0,1,2.51-.15,18.59,18.59,0,0,0,1.7.92,1.42,1.42,0,0,0,1-.19,2.79,2.79,0,0,0,1-.79,7.14,7.14,0,0,0,.67-2,3.26,3.26,0,0,1,.89-1.71,1.8,1.8,0,0,1,1.7-.18,1.82,1.82,0,0,1,1,1.2,7.84,7.84,0,0,1,.28,2c0,.75.05,1.49.13,2.24a2.77,2.77,0,0,0,.57,1.65,2.54,2.54,0,0,0,1.66.68,6.25,6.25,0,0,0,1.82-.35c.31-.08.61-.17.92-.23a6.48,6.48,0,0,0,.77-.1c.36-.11.56-.42.9-.55a1.34,1.34,0,0,1,1.06.05,1.33,1.33,0,0,1,.46.73,5.51,5.51,0,0,0,.32,1c.13.25.53.17.79.15a2.91,2.91,0,0,0,2.34-2c.18-.41.32-.84.53-1.24a1.06,1.06,0,0,1,.65-.64,1.37,1.37,0,0,1,1.07.47,7.22,7.22,0,0,1,1.56,1.89c.66,1.12,1,3,2.73,3.09a5.2,5.2,0,0,0,1.62-.22,4.53,4.53,0,0,0,1.56-.67,3.53,3.53,0,0,0,1.36-2.29,7.64,7.64,0,0,0,.13-1.51,5.24,5.24,0,0,0-.05-1.25,4.7,4.7,0,0,0-.28-.9,2.27,2.27,0,0,1-.2-.55c-.08-.43.36-.5.73-.49a8,8,0,0,1,1.38.12,1,1,0,0,1,.62.49,5.65,5.65,0,0,0,.8,1,1.38,1.38,0,0,0,1.32.2,8.86,8.86,0,0,0,1.34-.47,39,39,0,0,0-3.28-5c-4-5.14-9.62-6-15-9.62-6.68-4.57-20.68-6.24-27.37-1.78a48.91,48.91,0,0,0-15.4,17A.93.93,0,0,0,445.35,412.36Z"/><path class="cls-10" d="M496.4,465.78a5.74,5.74,0,0,0-1.94,4.31c.19,2.5.5,2.75.5,2.75S498.84,468.82,496.4,465.78Z"/><path class="cls-10" d="M498.25,466.39a4.32,4.32,0,0,0,.83,3.45c1.26,1.4,1.56,1.4,1.56,1.4S501.09,467.07,498.25,466.39Z"/><path class="cls-10" d="M500.69,465.44a3.27,3.27,0,0,0,1.56,2.23c1.29.64,1.51.56,1.51.56S502.9,465.13,500.69,465.44Z"/><path class="cls-10" d="M435.79,467.58a6.49,6.49,0,0,0-5.3.76c-2.27,1.71-2.31,2.16-2.31,2.16S434.37,471.75,435.79,467.58Z"/><path class="cls-10" d="M435.59,474.65a4.89,4.89,0,0,1,0-4c1-1.88,1.33-2,1.33-2S438.52,473.12,435.59,474.65Z"/><path class="cls-10" d="M439.51,471a3.75,3.75,0,0,0-.61,3c.48,1.57.72,1.68.72,1.68S441.5,472.61,439.51,471Z"/><path class="cls-10" d="M453.22,468.23a4.63,4.63,0,0,0-2.4,2.95c-.37,2-.17,2.25-.17,2.25S454.49,471.1,453.22,468.23Z"/><path class="cls-10" d="M454.53,469.09a3.43,3.43,0,0,0-.06,2.85c.69,1.35.93,1.41.93,1.41S456.6,470.2,454.53,469.09Z"/><path class="cls-10" d="M456.63,468.85a2.67,2.67,0,0,0,.75,2.06c.87.77,1.06.75,1.06.75S458.42,469.07,456.63,468.85Z"/><path class="cls-7" d="M457.6,424.13a4.61,4.61,0,0,0-2.56,2.8c-.48,2-.3,2.23-.3,2.23S458.7,427.05,457.6,424.13Z"/><path class="cls-7" d="M458.86,425.05a3.47,3.47,0,0,0-.23,2.84c.62,1.38.85,1.46.85,1.46S460.86,426.27,458.86,425.05Z"/><path class="cls-7" d="M456,423.06a3.42,3.42,0,0,0-2.79.43c-1.19.91-1.21,1.15-1.21,1.15S455.3,425.27,456,423.06Z"/><path class="cls-7" d="M438.5,435.87a3.6,3.6,0,0,0-2.39,1.77c-.67,1.43-.57,1.66-.57,1.66S438.9,438.28,438.5,435.87Z"/><path class="cls-7" d="M469.46,437a3.81,3.81,0,0,0,0,3.28c.85,1.7,1.12,1.82,1.12,1.82S471.9,438.66,469.46,437Z"/><path class="cls-7" d="M466.67,401.67a4.23,4.23,0,0,0-3.38.86c-1.36,1.26-1.36,1.55-1.36,1.55S466,404.47,466.67,401.67Z"/><path class="cls-7" d="M467.17,403a3.15,3.15,0,0,0-1.61,2.06c-.23,1.37-.09,1.55-.09,1.55S468.08,405,467.17,403Z"/><path class="cls-7" d="M484.65,402.22a2.49,2.49,0,0,1,1.36,1.52c.26,1.06.16,1.21.16,1.21S484,403.79,484.65,402.22Z"/><path class="cls-7" d="M483.89,404.2a2.49,2.49,0,0,1-.18,2c-.6.91-.78.94-.78.94S482.33,404.83,483.89,404.2Z"/><path class="cls-10" d="M515.43,502.06a24.8,24.8,0,0,0-.15,9.25,42.34,42.34,0,0,1,.53,8.78,14.12,14.12,0,0,1-1.16,4.56c0,.06-.12,0-.09,0a17.33,17.33,0,0,0,1.15-8.44c-.21-3-.8-6-.88-9a17.93,17.93,0,0,1,.5-5.11c0-.06.11,0,.1,0Z"/><path class="cls-10" d="M545,528.42c-1.08-3.46-1-7.14-.71-10.72a52,52,0,0,0,.16-10.36,16.24,16.24,0,0,0-1.63-5.4c0-.08.08-.13.11-.06a20.26,20.26,0,0,1,1.85,9.78c-.06,3.57-.59,7.12-.53,10.69a21.26,21.26,0,0,0,.87,6c0,.08-.09.11-.12,0Z"/><path class="cls-10" d="M505.19,530.21a26.23,26.23,0,0,0,.65-9.71,46.88,46.88,0,0,1-.14-9.4,14.55,14.55,0,0,1,1.47-4.9c0-.06-.07-.11-.1-.05A18.23,18.23,0,0,0,505.4,515c.05,3.24.53,6.46.48,9.7a19.23,19.23,0,0,1-.8,5.48c0,.06.09.09.11,0Z"/><path class="cls-10" d="M556.32,495.7c-1,3.53-.8,7.26-.47,10.88a49.79,49.79,0,0,1,.34,10.35,16.39,16.39,0,0,1-1.51,5.32c0,.08-.14,0-.11-.06a20.29,20.29,0,0,0,1.63-9.89c-.15-3.56-.74-7.08-.75-10.65a21.27,21.27,0,0,1,.76-6c0-.08.13,0,.11,0Z"/><path class="cls-10" d="M549.24,495.09q.36,4.35.48,8.72t0,8.7c0,1.63-.09,3.27-.17,4.91,0,.08-.12.07-.12,0q.21-4.35.21-8.72c0-2.9-.08-5.8-.24-8.7-.08-1.63-.19-3.27-.32-4.9,0-.08.12-.08.12,0Z"/><path class="cls-10" d="M510.25,498.81c.26,2.46.47,4.93.61,7.39s.22,4.93.24,7.39q0,2.08,0,4.17c0,.07-.11.07-.11,0,.05-2.47.05-4.94,0-7.41s-.2-4.92-.4-7.38c-.11-1.39-.24-2.77-.39-4.16,0-.06.1-.06.11,0Z"/><path class="cls-11" d="M513.39,499.46c1.1.73,5.3,5.92,6.32,7.71s1.64,3.69,2.7,4.13,4.1,1.64,4.64,3.11c0,0,.55.36.62-.95a36.57,36.57,0,0,1,3.62-12.5c3-6.54,5.3-7.52,5.33-6.5s-3.1,4-4.34,8.15-4.13,14.17-2.08,16.11,4.93-7.27,5.26-9.14,1.06-8.91,2.85-10,1.42.36,1.05,1-1,.62-1.35,2.49c-.14.71-.3,3-.77,5.85a13.39,13.39,0,0,0,5.16-11.26s.51-2.41,1.24-.44-1.2,11-6.69,13.3c-.83,4.18-2.38,8.89-5.44,10.92,0,0-1.1,14,1,18.67h-6.79s1.09-12.49,1.31-16.66.22-3.72-.88-5.92,0-3.5-2.19-4.16-3.29-.88-3.94-3.29-7.09-9.61-7.09-9.61S512.3,498.73,513.39,499.46Z"/><path class="cls-12" d="M527.3,540.05c0-.26,0-.52,0-.79,0-2,0-4.11,0-6.16,0-1.85.08-3.7.28-5.54a17.93,17.93,0,0,1,1.35-5.4c.5-1.1,1.17-2.12,1.73-3.18,2,.26,4.46-7.68,4.77-9.4s1.06-8.91,2.85-10,1.42.36,1.05,1-1,.62-1.35,2.49c-.14.71-.3,3-.77,5.85a13.39,13.39,0,0,0,5.16-11.26s.51-2.41,1.24-.44-1.2,11-6.69,13.3c-.83,4.18-2.38,8.89-5.44,10.92,0,0-1.1,14,1,18.67Z"/><path class="cls-13" d="M528.73,540.05c0-.71.08-1.42.11-2.14.12-2.55.14-5.12.28-7.67a29.24,29.24,0,0,1,1.07-7,12.23,12.23,0,0,1,1.34-3c.32-.49.7-.93,1.05-1.39s.79-1.06,1.16-1.6a27.93,27.93,0,0,0,3.16-6.53c-.84,4.12-2.38,8.69-5.39,10.68,0,0-1.1,14,1,18.67Z"/><path class="cls-14" d="M530.22,528.83c.11-1.23.23-2.45.37-3.67.08-.62.16-1.23.25-1.85a11.33,11.33,0,0,1,.3-1.54,5.17,5.17,0,0,1,.56-1.27,17.91,17.91,0,0,0,2.43-2.57,13.85,13.85,0,0,0,1.2-1.81,11.29,11.29,0,0,1-3.82,5.26s-1.1,14,1,18.67h-1.91V540c-.08-1.23-.28-2.45-.39-3.68a35.72,35.72,0,0,1-.08-3.73C530.09,531.33,530.11,530.07,530.22,528.83Z"/><path class="cls-13" d="M530.34,518.83a.63.63,0,0,1-.2-.13,2.53,2.53,0,0,1-.57-.87,6.67,6.67,0,0,1-.6-2.67,7.57,7.57,0,0,1,.16-1.5c.09-.44.22-.87.35-1.3.23-.81.45-1.63.74-2.43.08-.24.17-.47.27-.71-1,4.06-1.55,8.31-.29,9.5Z"/><path class="cls-15" d="M513.39,499.46c1.1.73,5.3,5.92,6.32,7.71s1.64,3.69,2.7,4.13,4.1,1.64,4.64,3.11c0,0,.55.36.62-.95a36.57,36.57,0,0,1,3.62-12.5c3-6.54,5.3-7.52,5.33-6.5s-3.1,4-4.34,8.15-4.13,14.17-2.08,16.11,4.93-7.27,5.26-9.14,1.06-8.91,2.85-10,1.42.36,1.05,1-1,.62-1.35,2.49c-.14.71-.3,3-.77,5.85a13.39,13.39,0,0,0,5.16-11.26s.51-2.41,1.24-.44-1.2,11-6.69,13.3c-.83,4.18-2.38,8.89-5.44,10.92,0,0-.07,1-.15,2.42-.27.67-.53,1.35-.8,2a23.63,23.63,0,0,1-1.23,2.59,9.36,9.36,0,0,1-1.62,2.18,5.3,5.3,0,0,1-1.32.94c.25-3.15.5-6.38.59-8.13.22-4.16.22-3.72-.88-5.92s0-3.5-2.19-4.16-3.29-.88-3.94-3.29-7.09-9.61-7.09-9.61S512.3,498.73,513.39,499.46Z"/><path class="cls-15" d="M520.82,511.83A4.49,4.49,0,0,1,520,510c-.66-2.41-7.09-9.61-7.09-9.61s-.58-1.68.51-1,5.3,5.92,6.32,7.71,1.64,3.69,2.7,4.13l.36.15C522.12,511.59,521.47,511.72,520.82,511.83Z"/><path class="cls-15" d="M530.81,507.89a13.39,13.39,0,0,1-2,1.35l-.53.28a43.53,43.53,0,0,1,3-8.56c3-6.54,5.3-7.52,5.33-6.5s-3.1,4-4.34,8.15C531.88,503.93,531.32,505.84,530.81,507.89Z"/><path class="cls-15" d="M536.8,511.2a13.84,13.84,0,0,1-2.14,1.24,25.34,25.34,0,0,0,.8-2.86c.32-1.86,1.06-8.91,2.85-10s1.42.36,1.05,1-1,.62-1.35,2.49c-.14.71-.3,3-.77,5.85a13.39,13.39,0,0,0,5.16-11.26s.51-2.41,1.24-.44-1.2,11-6.69,13.3C536.91,510.7,536.85,511,536.8,511.2Z"/><path class="cls-7" d="M490.62,489.83c1.8-1.31,4.22-.9,6.35-1.37a9.75,9.75,0,0,1-1.87-11c.08-.15.25-.44.47-.8.95-2.1,3.41-3.93,4.7-5.53a29.62,29.62,0,0,0,4.07-7.21c2.14-5.08,3.56-10.55,6.79-15.09,2.49-3.5,6-4.06,9.28-6.55,4.14-3.1,12.82-4.25,17-1.21,5.8,4.25,11.66,12.55,11.67,19.92,0,3.64,2.37,3.47,5.21,3.39,4.51-.12,8.32,2.65,10.54,6.4,4.35,11.41-3.8,16-3.8,16,4.47,1.36,8.34,4.25,9.27,9.11.88,4.57-1.7,8.6-5.74,10.61-3.3,1.64-6.53-.55-9.73-1.27-5.91-1.32-11.83.76-17.73.9a112.46,112.46,0,0,0-13.62.71c-.72.11-1.42.23-2.13.38-5.37,1.09-10.72,3.59-16.31,2.61-5-.88-9.91-4.28-13-8.25C489.76,498.71,486.78,492.66,490.62,489.83Z"/><path class="cls-10" d="M561,486.75l.93.19A4.66,4.66,0,0,1,561,486.75Z"/><path class="cls-10" d="M498.49,504.65a27.75,27.75,0,0,0,8.34.29,44.81,44.81,0,0,0,9.48-2.25c6.11-2,12.39-4.39,18.94-3.67a68.43,68.43,0,0,1,9.79,2.16c3.1.81,6.19,1.67,9.31,2.41a44.35,44.35,0,0,0,4.57.87,39.49,39.49,0,0,0,4.61.29,33,33,0,0,0,3.58,0,11.57,11.57,0,0,1-2.58,1.74c-3.3,1.64-6.53-.55-9.73-1.27-5.91-1.32-11.83.76-17.73.9a112.46,112.46,0,0,0-13.62.71c-.72.11-1.42.23-2.13.38-5.37,1.09-10.72,3.59-16.31,2.61A22.11,22.11,0,0,1,493.24,503,27.53,27.53,0,0,0,498.49,504.65Z"/><path class="cls-10" d="M510,448.84c2.59-3.5,6.2-4.06,9.64-6.55,4.31-3.1,13.33-4.25,17.64-1.21,6,4.25,12.13,12.55,12.13,19.92,0,3.64,2.46,3.47,5.41,3.39h0c6.91-.18,12.26,5.94,13,12.2a14.64,14.64,0,0,1,.09,1.86,12.9,12.9,0,0,1-1.94-.52,1.24,1.24,0,0,0-.89.07,1.18,1.18,0,0,0-.45.9,3.67,3.67,0,0,1-2.69-.49l-.21-.11a9.43,9.43,0,0,1-1.2-.85c-.09-.07-.21,0-.15.1l-.1-.05a.1.1,0,0,0-.14.07c-.07.62-.77,1.94-1.49,2.12-1.26.3-1.21-.81-1.76-1.72a4.41,4.41,0,0,0-2.1-2,.09.09,0,0,0-.11.06c-1.13,2.5-2.89,1.22-4.27-.39-.44-.51-.86-1-1.33-1.51a2.73,2.73,0,0,0-1.13-.79.1.1,0,0,0-.11.06c-.38,1.37.25,2.94.21,4.36,0,.59,0,1.63-.54,2.05-.94.73-1.21-.25-2.2-.44-1.55-.3-2,1.76-3.22,2.06-2.05.47-2-2.44-3.6-2.89a2.47,2.47,0,0,0-2.25.8c-.87.79-1.58,1.8-2.48,2.53.21-.17-1.54-2.18-1.76-2.31-1.62-.93-1.91.87-3,1.51-2.25,1.37-3-1.93-3.56-3.28a4,4,0,0,0-1.89-2.47.11.11,0,0,0-.13,0c-2.31,3-3.6-1.13-5.82-1.24-1.85-.09-2.9,1.8-3.79,3.06-.79,1.1-1.45,2.94-2.8,3.54-1.86.81-3.78-1-5-2.15l-.26-.21c-1.08-.74-2.57-1.11-3.4-2.17-.68-.87-.52-2.39-1.51-3-1.32-.87-5.4,1.77-2.44-1.69a24.15,24.15,0,0,0,2.08-2.85,41.41,41.41,0,0,0,3.22-6.63C505.54,457.47,507.05,452.78,510,448.84Z"/><path class="cls-6" d="M548.46,452.7a3.06,3.06,0,0,1-1.12-.22,3.24,3.24,0,0,0-1-.21,2.31,2.31,0,0,0-1,.25,3.16,3.16,0,0,0-.69.51,3.35,3.35,0,0,1-.57.49,3.16,3.16,0,0,1-.92.27.77.77,0,0,1-.54,0,6.1,6.1,0,0,1-.6-.38c-.31-.21-.65-.37-1-.57a5.58,5.58,0,0,0-1.64-.9,1.86,1.86,0,0,0-1.77.47c-.33.38-.37.89-.69,1.27a1.3,1.3,0,0,1-1.67.12c-.5-.33-.86-.82-1.4-1.13a2,2,0,0,0-1.7-.1,10.78,10.78,0,0,1-1.16.62.94.94,0,0,1-.71-.13,1.88,1.88,0,0,1-.65-.53,5.08,5.08,0,0,1-.46-1.36,2.23,2.23,0,0,0-.6-1.17,1.23,1.23,0,0,0-1.16-.12,1.2,1.2,0,0,0-.66.82,5.83,5.83,0,0,0-.2,1.39c0,.5,0,1-.08,1.52a1.9,1.9,0,0,1-.39,1.12,1.71,1.71,0,0,1-1.13.46,4,4,0,0,1-1.24-.23,6.45,6.45,0,0,0-.63-.16,4.63,4.63,0,0,1-.52-.07c-.24-.07-.38-.28-.61-.37a.9.9,0,0,0-.72,0,.89.89,0,0,0-.31.5,4.64,4.64,0,0,1-.22.66c-.09.17-.36.12-.54.1a2,2,0,0,1-1.6-1.39c-.12-.28-.21-.57-.35-.84a.69.69,0,0,0-.45-.43.91.91,0,0,0-.73.31,5.21,5.21,0,0,0-1.06,1.29c-.45.77-.7,2-1.86,2.1a3.43,3.43,0,0,1-1.1-.14,3.25,3.25,0,0,1-1.06-.46,2.41,2.41,0,0,1-.93-1.56,5.06,5.06,0,0,1-.09-1,4.07,4.07,0,0,1,0-.85,3.31,3.31,0,0,1,.19-.61,2.92,2.92,0,0,0,.14-.38c.05-.29-.25-.34-.5-.33a4.9,4.9,0,0,0-.94.08.73.73,0,0,0-.43.34,3.73,3.73,0,0,1-.54.65.94.94,0,0,1-.9.14,4.92,4.92,0,0,1-.91-.32,27.39,27.39,0,0,1,2.23-3.38c2.73-3.5,6.55-4.06,10.19-6.55,4.55-3.1,14.08-4.25,18.63-1.21a33.25,33.25,0,0,1,10.48,11.58A.58.58,0,0,1,548.46,452.7Z"/><path class="cls-10" d="M513.7,489.07A3.89,3.89,0,0,1,515,492c-.12,1.71-.34,1.88-.34,1.88S512,491.13,513.7,489.07Z"/><path class="cls-10" d="M512.44,489.48a2.92,2.92,0,0,1-.56,2.35c-.86.95-1.07.95-1.07.95S510.51,489.94,512.44,489.48Z"/><path class="cls-10" d="M510.78,488.84a2.22,2.22,0,0,1-1.06,1.51c-.88.44-1,.38-1,.38S509.27,488.62,510.78,488.84Z"/><path class="cls-10" d="M555,490.29a4.4,4.4,0,0,1,3.6.52c1.55,1.16,1.58,1.47,1.58,1.47S555.93,493.13,555,490.29Z"/><path class="cls-10" d="M555.1,495.11a3.33,3.33,0,0,0,0-2.74c-.68-1.28-.91-1.34-.91-1.34S553.11,494.07,555.1,495.11Z"/><path class="cls-10" d="M552.43,492.64a2.55,2.55,0,0,1,.42,2.06c-.33,1.06-.49,1.14-.49,1.14S551.08,493.72,552.43,492.64Z"/><path class="cls-10" d="M543.1,490.74a3.11,3.11,0,0,1,1.63,2c.26,1.35.12,1.52.12,1.52S542.24,492.69,543.1,490.74Z"/><path class="cls-10" d="M542.2,491.32a2.35,2.35,0,0,1,0,1.94c-.47.92-.63,1-.63,1S540.8,492.08,542.2,491.32Z"/><path class="cls-10" d="M540.78,491.16a1.82,1.82,0,0,1-.51,1.4c-.6.52-.72.51-.72.51S539.56,491.31,540.78,491.16Z"/><path class="cls-7" d="M540.12,460.71a3.15,3.15,0,0,1,1.74,1.91c.33,1.33.2,1.51.2,1.51S539.37,462.7,540.12,460.71Z"/><path class="cls-7" d="M539.26,461.34a2.37,2.37,0,0,1,.16,1.93c-.42.94-.58,1-.58,1S537.9,462.17,539.26,461.34Z"/><path class="cls-7" d="M541.19,460a2.34,2.34,0,0,1,1.9.3c.81.62.82.78.82.78S541.68,461.48,541.19,460Z"/><path class="cls-7" d="M553.12,468.7a2.45,2.45,0,0,1,1.63,1.21c.46,1,.39,1.13.39,1.13S552.85,470.35,553.12,468.7Z"/><path class="cls-7" d="M532,469.44a2.58,2.58,0,0,1,0,2.23c-.58,1.16-.77,1.24-.77,1.24S530.38,470.61,532,469.44Z"/><path class="cls-7" d="M533.94,445.42a2.89,2.89,0,0,1,2.3.58c.93.86.93,1.06.93,1.06S534.37,447.33,533.94,445.42Z"/><path class="cls-7" d="M533.6,446.34a2.14,2.14,0,0,1,1.1,1.4c.16.94.06,1.06.06,1.06S533,447.67,533.6,446.34Z"/><path class="cls-7" d="M521.71,445.8a1.67,1.67,0,0,0-.94,1c-.17.72-.1.82-.1.82S522.12,446.87,521.71,445.8Z"/><path class="cls-7" d="M522.22,447.15a1.66,1.66,0,0,0,.12,1.38c.41.62.53.64.53.64S523.28,447.57,522.22,447.15Z"/><path class="cls-10" d="M135.5,502.28a25.07,25.07,0,0,0-.14,9.38,42.81,42.81,0,0,1,.53,8.9,14.48,14.48,0,0,1-1.17,4.62c0,.06-.12,0-.1-.06a17.42,17.42,0,0,0,1.17-8.55c-.21-3.05-.81-6.08-.9-9.14a18.43,18.43,0,0,1,.51-5.18c0-.06.12,0,.1,0Z"/><path class="cls-10" d="M165.48,529c-1.1-3.51-1-7.24-.72-10.86a52.74,52.74,0,0,0,.15-10.51,16.34,16.34,0,0,0-1.64-5.47.06.06,0,1,1,.11-.06,20.54,20.54,0,0,1,1.87,9.91c-.06,3.62-.6,7.21-.54,10.84a21.83,21.83,0,0,0,.89,6.12.06.06,0,0,1-.12,0Z"/><path class="cls-10" d="M125.13,530.82a26.78,26.78,0,0,0,.65-9.85,47.35,47.35,0,0,1-.14-9.52,15.13,15.13,0,0,1,1.49-5c0-.06-.07-.12-.1-.05a18.72,18.72,0,0,0-1.7,9c.06,3.28.55,6.54.49,9.83a19.71,19.71,0,0,1-.8,5.55c0,.07.09.09.11,0Z"/><path class="cls-10" d="M177,495.83c-1,3.59-.81,7.36-.47,11a50.46,50.46,0,0,1,.33,10.49,16.39,16.39,0,0,1-1.53,5.4c0,.07-.14,0-.1-.07a20.57,20.57,0,0,0,1.64-10c-.14-3.6-.75-7.18-.75-10.79a21.42,21.42,0,0,1,.76-6.07c0-.08.14,0,.12,0Z"/><path class="cls-10" d="M169.78,495.22c.23,2.94.39,5.89.48,8.83s.1,5.88,0,8.82c0,1.66-.09,3.32-.17,5,0,.08-.13.07-.12,0q.21-4.41.21-8.84t-.24-8.81c-.09-1.66-.2-3.32-.33-5,0-.08.12-.08.13,0Z"/><path class="cls-10" d="M130.25,499q.41,3.74.62,7.49c.15,2.5.23,5,.24,7.49q0,2.12,0,4.23a.05.05,0,1,1-.1,0c.05-2.51,0-5,0-7.52s-.21-5-.41-7.47c-.11-1.41-.24-2.81-.39-4.22,0-.06.1-.06.1,0Z"/><path class="cls-11" d="M133.44,499.65c1.11.74,5.37,6,6.4,7.81s1.67,3.74,2.74,4.19,4.15,1.66,4.71,3.14c0,0,.55.37.63-1s.59-6,3.66-12.66,5.37-7.63,5.41-6.59-3.15,4-4.41,8.26-4.18,14.36-2.11,16.32,5-7.36,5.33-9.25,1.08-9,2.89-10.18,1.44.37,1.07,1-1,.62-1.37,2.51c-.14.73-.3,3.09-.78,5.94a13.57,13.57,0,0,0,5.23-11.42s.51-2.44,1.26-.44-1.22,11.2-6.78,13.48c-.84,4.23-2.41,9-5.52,11.07,0,0-1.11,14.18,1,18.92h-6.89s1.11-12.67,1.33-16.89.22-3.77-.89-6,0-3.55-2.22-4.22-3.33-.88-4-3.33-7.18-9.74-7.18-9.74S132.33,498.91,133.44,499.65Z"/><path class="cls-12" d="M147.53,540.79V540c0-2.08,0-4.17,0-6.25,0-1.87.07-3.75.28-5.61a18.16,18.16,0,0,1,1.37-5.48c.5-1.11,1.19-2.14,1.76-3.22,2,.27,4.51-7.78,4.82-9.52.33-1.89,1.08-9,2.89-10.18s1.44.37,1.07,1-1,.62-1.37,2.51c-.14.73-.3,3.09-.78,5.94a13.57,13.57,0,0,0,5.23-11.42s.51-2.44,1.26-.44-1.22,11.2-6.78,13.48c-.84,4.23-2.41,9-5.52,11.07,0,0-1.11,14.18,1,18.92Z"/><path class="cls-13" d="M149,540.79c0-.73.08-1.45.11-2.17.11-2.59.14-5.19.28-7.78a30,30,0,0,1,1.08-7.11,12.57,12.57,0,0,1,1.36-3c.32-.5.71-1,1.07-1.42s.8-1.06,1.17-1.62a28.07,28.07,0,0,0,3.21-6.61c-.85,4.17-2.42,8.81-5.47,10.83,0,0-1.11,14.18,1,18.92Z"/><path class="cls-14" d="M150.5,529.41c.11-1.24.22-2.48.37-3.72.08-.62.16-1.25.25-1.87a12,12,0,0,1,.31-1.56A5.31,5.31,0,0,1,152,521a17.36,17.36,0,0,0,2.47-2.6,13.27,13.27,0,0,0,1.21-1.84,11.43,11.43,0,0,1-3.87,5.34s-1.11,14.18,1,18.92h-1.94v-.07c-.08-1.25-.28-2.48-.39-3.73a33.9,33.9,0,0,1-.09-3.77C150.37,532,150.38,530.67,150.5,529.41Z"/><path class="cls-13" d="M150.62,519.28a1.2,1.2,0,0,1-.21-.13,2.57,2.57,0,0,1-.57-.88,6.7,6.7,0,0,1-.61-2.71,7.77,7.77,0,0,1,.16-1.52c.09-.44.23-.88.35-1.31.24-.83.46-1.66.75-2.47.09-.24.18-.48.28-.72-1,4.12-1.57,8.42-.3,9.62A.79.79,0,0,0,150.62,519.28Z"/><path class="cls-15" d="M133.44,499.65c1.11.74,5.37,6,6.4,7.81s1.67,3.74,2.74,4.19,4.15,1.66,4.71,3.14c0,0,.55.37.63-1s.59-6,3.66-12.66,5.37-7.63,5.41-6.59-3.15,4-4.41,8.26-4.18,14.36-2.11,16.32,5-7.36,5.33-9.25,1.08-9,2.89-10.18,1.44.37,1.07,1-1,.62-1.37,2.51c-.14.73-.3,3.09-.78,5.94a13.57,13.57,0,0,0,5.23-11.42s.51-2.44,1.26-.44-1.22,11.2-6.78,13.48c-.84,4.23-2.41,9-5.52,11.07,0,0-.07,1-.15,2.45-.27.68-.53,1.36-.81,2a23.27,23.27,0,0,1-1.25,2.62,9.33,9.33,0,0,1-1.64,2.21,5.44,5.44,0,0,1-1.34.95c.26-3.19.51-6.46.6-8.24.22-4.22.22-3.77-.89-6s0-3.55-2.22-4.22-3.33-.88-4-3.33-7.18-9.74-7.18-9.74S132.33,498.91,133.44,499.65Z"/><path class="cls-15" d="M141,512.19a4.71,4.71,0,0,1-.87-1.84c-.66-2.44-7.18-9.74-7.18-9.74s-.59-1.7.52-1,5.37,6,6.4,7.81,1.67,3.74,2.74,4.19l.36.14C142.29,511.94,141.63,512.08,141,512.19Z"/><path class="cls-15" d="M151.09,508.19a13.28,13.28,0,0,1-2,1.37l-.53.28a44.7,44.7,0,0,1,3-8.67c3.07-6.63,5.37-7.63,5.41-6.59s-3.15,4-4.41,8.26C152.18,504.17,151.61,506.11,151.09,508.19Z"/><path class="cls-15" d="M157.16,511.55A13.63,13.63,0,0,1,155,512.8a24.39,24.39,0,0,0,.8-2.89c.33-1.89,1.08-9,2.89-10.18s1.44.37,1.07,1-1,.62-1.37,2.51c-.14.73-.3,3.09-.78,5.94a13.57,13.57,0,0,0,5.23-11.42s.51-2.44,1.26-.44-1.22,11.2-6.78,13.48C157.27,511,157.22,511.29,157.16,511.55Z"/><path class="cls-7" d="M110.36,489.89c1.82-1.33,4.28-.91,6.44-1.39a9.87,9.87,0,0,1-1.9-11.14c.08-.15.25-.45.48-.81,1-2.13,3.45-4,4.76-5.6a30.15,30.15,0,0,0,4.12-7.32c2.17-5.14,3.61-10.68,6.89-15.29,2.52-3.54,6-4.12,9.4-6.63,4.2-3.15,13-4.31,17.2-1.23,5.88,4.31,11.82,12.71,11.82,20.18,0,3.7,2.41,3.52,5.29,3.45,4.57-.13,8.43,2.68,10.68,6.48,4.42,11.57-3.85,16.17-3.85,16.17,4.53,1.39,8.46,4.32,9.4,9.24.88,4.63-1.73,8.72-5.82,10.75-3.35,1.66-6.62-.55-9.86-1.28-6-1.34-12,.76-18,.9a113.51,113.51,0,0,0-13.8.73c-.72.11-1.44.23-2.16.38-5.44,1.11-10.86,3.64-16.53,2.65-5.09-.89-10-4.34-13.19-8.36C109.49,498.88,106.47,492.75,110.36,489.89Z"/><path class="cls-10" d="M181.69,486.76l.94.2A4.28,4.28,0,0,1,181.69,486.76Z"/><path class="cls-10" d="M118.33,504.91a28.24,28.24,0,0,0,8.46.29,45.42,45.42,0,0,0,9.61-2.28c6.19-2.05,12.55-4.45,19.19-3.72a70.39,70.39,0,0,1,9.93,2.19c3.14.82,6.27,1.69,9.43,2.44,1.53.36,3.08.68,4.64.89a40.34,40.34,0,0,0,4.66.29,34.12,34.12,0,0,0,3.64,0,12.14,12.14,0,0,1-2.62,1.76c-3.35,1.66-6.62-.55-9.86-1.28-6-1.34-12,.76-18,.9a113.51,113.51,0,0,0-13.8.73c-.72.11-1.44.23-2.16.38-5.44,1.11-10.86,3.64-16.53,2.65A22.36,22.36,0,0,1,113,503.25,28.42,28.42,0,0,0,118.33,504.91Z"/><path class="cls-10" d="M130,448.34c2.63-3.54,6.29-4.12,9.78-6.63,4.36-3.15,13.51-4.31,17.87-1.23,6.11,4.31,12.29,12.71,12.3,20.18,0,3.7,2.49,3.52,5.48,3.45h0c7-.19,12.43,6,13.2,12.36a14.81,14.81,0,0,1,.1,1.88,13.28,13.28,0,0,1-2-.52,1.17,1.17,0,0,0-.9.07,1.23,1.23,0,0,0-.46.91,3.82,3.82,0,0,1-2.73-.49l-.21-.12a10.52,10.52,0,0,1-1.22-.86c-.08-.07-.2,0-.15.11l-.1-.05a.09.09,0,0,0-.14.07c-.07.62-.78,2-1.51,2.13-1.28.32-1.22-.81-1.79-1.73a4.42,4.42,0,0,0-2.12-2,.1.1,0,0,0-.12.06c-1.14,2.53-2.92,1.23-4.32-.4-.44-.51-.87-1-1.35-1.52a2.67,2.67,0,0,0-1.14-.8.09.09,0,0,0-.12.06c-.39,1.38.26,3,.22,4.42,0,.59,0,1.65-.55,2.08-1,.74-1.23-.26-2.23-.45-1.57-.31-2,1.78-3.27,2.08-2.07.48-2-2.47-3.65-2.93a2.49,2.49,0,0,0-2.27.82c-.89.8-1.61,1.82-2.52,2.55.21-.16-1.55-2.2-1.78-2.33-1.64-1-1.93.88-3,1.53-2.28,1.39-3.1-2-3.61-3.33a4.06,4.06,0,0,0-1.92-2.5.09.09,0,0,0-.12,0c-2.35,3-3.66-1.15-5.9-1.27-1.88-.09-2.94,1.83-3.85,3.1-.8,1.12-1.46,3-2.83,3.59-1.88.83-3.84-1.05-5.1-2.17a1.78,1.78,0,0,0-.27-.21c-1.09-.76-2.6-1.14-3.44-2.21-.69-.88-.53-2.42-1.53-3.08-1.34-.88-5.48,1.8-2.48-1.71a26.15,26.15,0,0,0,2.12-2.89,42.52,42.52,0,0,0,3.26-6.72C125.48,457.09,127,452.33,130,448.34Z"/><path class="cls-6" d="M169,452.26a3.35,3.35,0,0,1-1.13-.23,3.37,3.37,0,0,0-1-.21,2.4,2.4,0,0,0-1,.25,3,3,0,0,0-.69.52,3.93,3.93,0,0,1-.58.5,3.38,3.38,0,0,1-.94.27.8.8,0,0,1-.55,0,4.12,4.12,0,0,1-.6-.39c-.32-.21-.67-.37-1-.57a5.79,5.79,0,0,0-1.67-.92,1.92,1.92,0,0,0-1.8.48c-.33.39-.37.9-.69,1.29a1.31,1.31,0,0,1-1.69.12c-.52-.34-.88-.83-1.42-1.14a2,2,0,0,0-1.73-.11c-.42.16-.74.52-1.18.63a.94.94,0,0,1-.71-.13,1.75,1.75,0,0,1-.66-.54,4.79,4.79,0,0,1-.47-1.38,2.21,2.21,0,0,0-.61-1.18,1.24,1.24,0,0,0-1.18-.12,1.26,1.26,0,0,0-.66.82,5.65,5.65,0,0,0-.2,1.41c0,.52,0,1-.09,1.54a1.87,1.87,0,0,1-.39,1.14,1.7,1.7,0,0,1-1.14.47,4.08,4.08,0,0,1-1.26-.24c-.21-.05-.42-.11-.64-.15a4.85,4.85,0,0,1-.53-.08c-.24-.07-.39-.28-.62-.37a.93.93,0,0,0-.73,0,.88.88,0,0,0-.31.51,5.16,5.16,0,0,1-.23.66c-.09.17-.36.12-.54.1a2,2,0,0,1-1.62-1.4c-.12-.29-.22-.58-.36-.86a.73.73,0,0,0-.45-.44,1,1,0,0,0-.74.32,5.63,5.63,0,0,0-1.08,1.31c-.45.78-.71,2.05-1.88,2.13a4.29,4.29,0,0,1-2.2-.61,2.45,2.45,0,0,1-.93-1.58,6.1,6.1,0,0,1-.1-1,4.13,4.13,0,0,1,0-.86,2.88,2.88,0,0,1,.2-.63,2.46,2.46,0,0,0,.14-.38c0-.29-.25-.34-.51-.34a6,6,0,0,0-.95.09.7.7,0,0,0-.43.34,3.92,3.92,0,0,1-.55.67,1,1,0,0,1-.91.13,5.11,5.11,0,0,1-.93-.32,27.43,27.43,0,0,1,2.26-3.43c2.77-3.54,6.64-4.12,10.33-6.63,4.61-3.15,14.27-4.31,18.88-1.23a33.81,33.81,0,0,1,10.63,11.74Z"/><path class="cls-10" d="M133.75,489.12a3.94,3.94,0,0,1,1.34,3c-.13,1.73-.35,1.9-.35,1.9S132.07,491.21,133.75,489.12Z"/><path class="cls-10" d="M132.48,489.53a3,3,0,0,1-.57,2.38c-.88,1-1.08,1-1.08,1S130.52,490,132.48,489.53Z"/><path class="cls-10" d="M130.8,488.88a2.31,2.31,0,0,1-1.08,1.54c-.89.44-1,.38-1,.38S129.27,488.66,130.8,488.88Z"/><path class="cls-10" d="M175.58,490.35a4.49,4.49,0,0,1,3.65.53c1.57,1.18,1.6,1.49,1.6,1.49S176.55,493.23,175.58,490.35Z"/><path class="cls-10" d="M175.72,495.23a3.37,3.37,0,0,0,0-2.77c-.69-1.3-.92-1.35-.92-1.35S173.69,494.18,175.72,495.23Z"/><path class="cls-10" d="M173,492.74a2.58,2.58,0,0,1,.42,2.08c-.33,1.08-.5,1.16-.5,1.16S171.64,493.83,173,492.74Z"/><path class="cls-10" d="M163.55,490.81a3.15,3.15,0,0,1,1.65,2c.26,1.37.13,1.55.13,1.55S162.67,492.78,163.55,490.81Z"/><path class="cls-10" d="M162.64,491.39a2.38,2.38,0,0,1,.05,2c-.48.93-.64,1-.64,1S161.22,492.16,162.64,491.39Z"/><path class="cls-10" d="M161.2,491.23a1.85,1.85,0,0,1-.52,1.42c-.6.53-.73.52-.73.52S160,491.38,161.2,491.23Z"/><path class="cls-7" d="M160.53,460.37a3.19,3.19,0,0,1,1.76,1.94c.33,1.35.21,1.53.21,1.53S159.77,462.39,160.53,460.37Z"/><path class="cls-7" d="M159.66,461a2.39,2.39,0,0,1,.16,2c-.43.95-.59,1-.59,1S158.28,461.85,159.66,461Z"/><path class="cls-7" d="M161.61,459.64a2.39,2.39,0,0,1,1.93.29c.82.63.83.8.83.8S162.11,461.16,161.61,459.64Z"/><path class="cls-7" d="M173.71,468.48a2.49,2.49,0,0,1,1.65,1.21c.46,1,.39,1.15.39,1.15S173.43,470.14,173.71,468.48Z"/><path class="cls-7" d="M152.34,469.22a2.64,2.64,0,0,1,0,2.26c-.59,1.18-.78,1.26-.78,1.26S150.66,470.4,152.34,469.22Z"/><path class="cls-7" d="M154.27,444.88a2.9,2.9,0,0,1,2.33.59c.94.87.94,1.07.94,1.07S154.71,446.81,154.27,444.88Z"/><path class="cls-7" d="M153.92,445.81a2.18,2.18,0,0,1,1.12,1.42c.15.95.06,1.07.06,1.07S153.29,447.15,153.92,445.81Z"/><path class="cls-7" d="M141.87,445.26a1.7,1.7,0,0,0-1,1.05c-.17.73-.1.83-.1.83S142.28,446.34,141.87,445.26Z"/><path class="cls-7" d="M142.39,446.62a1.74,1.74,0,0,0,.12,1.41c.42.63.54.65.54.65S143.46,447.06,142.39,446.62Z"/><g id="Elephant"><path class="cls-16" d="M230.94,545.54c3.24-.23,9.92-1.21,11.56-1.45.64-.1,1.25-.47,1.22-1.18-.06-1.23-1.58-1.73-2.22-2.39-2.83-2.92-1.55-7.42-2.5-10.92a7,7,0,0,0-1.61-2.58,20.11,20.11,0,0,1-3.62-6.88C233.17,518.3,229.38,545.65,230.94,545.54Z"/><path class="cls-16" d="M194.09,528.27s-18.67-3.29-16.45,3.48A50.36,50.36,0,0,1,179.83,544c.15,2,.07,4.06.28,6.09a2.73,2.73,0,0,0,2.62,2.71h8.85c2.62,0,1.48-2.2-.32-3-1-.49-2.1-4.21-2.41-6.79s-1.25-5.2-.74-7.58C188.57,533.23,189.4,530.56,194.09,528.27Z"/><path class="cls-17" d="M233.34,549.39c-1.3-.77-1-15.35-.14-22.95l.82-7.6a38.3,38.3,0,0,0,4.25-7.4l-15-29.21c-5.19,4-12.29,3.52-15.44,2.78-7.2-1.69-18.53,0-25,5.19-.89.71-1.76,1.47-2.6,2.27h0c-12.22,10.14-12.58,14-12.26,24.54s1.81.09,1.81-3.43a14.45,14.45,0,0,1,.71-3.8.65.65,0,0,1,1.28.23c-.48,7.23,1.27,15,2.32,21.74a48.13,48.13,0,0,1,.05,12.23c-.21,2-.64,4.06-.78,6.09-.1,1.41.56,2.71,2.15,2.71h8.85c2.62,0,1.86-2.2.21-3-1-.49-1.36-4.21-1.23-6.79s-.34-5.2.58-7.58a11.18,11.18,0,0,1,4.29-5.24c4.82-3.13,10-1.41,15.32-1.44a52.54,52.54,0,0,0,14.25-2.13c.87-.23,2.53-.92,3.19.17a3,3,0,0,1,.31.89,54.54,54.54,0,0,1,1.38,17.47,13.82,13.82,0,0,1-.82,4.75c-.4.89-1.09,2.58.45,2.7,3.22.25,10,.25,11.62.25S236.32,551.16,233.34,549.39Z"/><path class="cls-16" d="M219.79,489c-3.41,3.59-3.84,4-3.67,4.55s.87,5.42,3.58,8.65a14.64,14.64,0,0,0,7,4.55c1.48.61,2.62,2.44,5.93,5.33a15.6,15.6,0,0,0,4.08,2.67,23.8,23.8,0,0,0,1.58-3.26L224.64,485A23.92,23.92,0,0,0,219.79,489Z"/><path class="cls-16" d="M167.89,517c.32,10.54,1.81.09,1.81-3.43a14.45,14.45,0,0,1,.71-3.8.65.65,0,0,1,1.28.23c-.26-4.11-.55-7.58,1-10.47C167.78,505.17,167.65,509.31,167.89,517Z"/><path class="cls-17" d="M264.55,507.63c-.43-4.54-1.46-5.71-2.77-8.93s-1-5.57-2.2-8.35a19,19,0,0,0-8.33-9.23,12.75,12.75,0,0,0-13.46-.31C219.1,489,224.84,498.54,241,507.59c.82,0,3.55-.7,4.38-.25a8.07,8.07,0,0,0,4.17.77,7.67,7.67,0,0,0,5,5.59c-.14,2.22,1.17,6.24,1.46,11.38s1.61,9.36.3,10.09-3.8-1.61-3.8-3.22v-5.11s-2.93-1.49-4-.15.16,1.3.16,4.52c0,4.7,2,8.79,6.73,8.79,6.49,0,6.72-3.51,6.72-8.79s0-5.12.88-9.37S265,512.17,264.55,507.63Z"/><path class="cls-18" d="M239.25,491.39c-1.22-4.54-2.68-6.83-1.67-6.38,1.58.56,2.58-2.42.21-4.2a9.76,9.76,0,0,0-6.57-1.75c-3.86.17-8,2.62-11.43,6.21s-3.84,4-3.67,4.54.87,5.42,3.58,8.66a14.67,14.67,0,0,0,7,4.54c1.48.61,2.62,2.45,5.93,5.33s7.68,5,8.29.61S240.32,495.34,239.25,491.39Z"/><path class="cls-18" d="M251.33,495.72a2.42,2.42,0,1,0,2.42-2.42A2.42,2.42,0,0,0,251.33,495.72Z"/><path class="cls-16" d="M262.68,513c-1-.33-5.72-1-7.85-3.76s-4.43-5.62-3.65-1.18c0,0,1.3,4.79,7.69,5.61C263.66,514.27,263.65,513.32,262.68,513Z"/><path class="cls-19" d="M262.68,510.9c-1-.33-5.72-1.66-7.85-4.45s-4.28-.61-3.65,0c0,0,1.35,4,7.69,5.1C263.66,512.43,263.65,511.24,262.68,510.9Z"/></g><g id="Elephant-2" data-name="Elephant"><path class="cls-16" d="M301.68,548.52c-2.36-.17-7.23-.89-8.42-1.06-.47-.07-.91-.34-.89-.86,0-.9,1.15-1.26,1.62-1.74,2.06-2.13,1.13-5.41,1.82-8A5,5,0,0,1,297,535a14.86,14.86,0,0,0,2.63-5C300.06,528.67,302.82,548.6,301.68,548.52Z"/><path class="cls-16" d="M328.54,535.93s13.6-2.4,12,2.54a36.55,36.55,0,0,0-1.59,8.91c-.11,1.48-.05,3-.21,4.44a2,2,0,0,1-1.9,2h-6.46c-1.9,0-1.07-1.6.24-2.22.77-.36,1.53-3.07,1.76-5s.91-3.79.53-5.52C332.56,539.54,332,537.6,328.54,535.93Z"/><path class="cls-17" d="M299.94,551.32c.94-.56.7-11.19.1-16.72l-.6-5.54a27.75,27.75,0,0,1-3.1-5.39l11-21.29c3.78,2.95,9,2.56,11.25,2,5.25-1.23,13.51,0,18.25,3.79q1,.78,1.89,1.65h0c8.91,7.39,9.17,10.21,8.94,17.89s-1.32.06-1.32-2.5a10.27,10.27,0,0,0-.52-2.77.47.47,0,0,0-.93.16c.35,5.27-.93,10.91-1.69,15.85a35.42,35.42,0,0,0,0,8.91c.15,1.48.47,3,.57,4.44.07,1-.4,2-1.56,2h-6.46c-1.9,0-1.35-1.6-.15-2.22.71-.36,1-3.07.9-5s.25-3.79-.43-5.52a8,8,0,0,0-3.12-3.82c-3.51-2.28-7.29-1-11.16-1a38.25,38.25,0,0,1-10.39-1.55c-.63-.17-1.84-.67-2.32.12a2.19,2.19,0,0,0-.23.65,39.9,39.9,0,0,0-1,12.73,9.91,9.91,0,0,0,.61,3.46c.28.65.79,1.88-.34,2-2.34.18-7.26.18-8.46.18S297.76,552.61,299.94,551.32Z"/><path class="cls-16" d="M309.81,507.28c2.48,2.61,2.8,2.93,2.67,3.31s-.63,3.95-2.61,6.31a10.77,10.77,0,0,1-5.08,3.31c-1.08.45-1.91,1.78-4.32,3.89a11.4,11.4,0,0,1-3,1.94,18.42,18.42,0,0,1-1.15-2.37l9.93-19.29A17.39,17.39,0,0,1,309.81,507.28Z"/><path class="cls-16" d="M347.63,527.73c-.24,7.68-1.32.06-1.32-2.5a10.27,10.27,0,0,0-.52-2.77.47.47,0,0,0-.93.16c.19-3,.4-5.52-.7-7.63C347.71,519.1,347.8,522.11,347.63,527.73Z"/><path class="cls-17" d="M277.19,520.89c.32-3.31,1.06-4.16,2-6.51s.75-4.06,1.6-6.08a13.84,13.84,0,0,1,6.07-6.73,9.34,9.34,0,0,1,9.81-.23c13.62,6,9.44,12.93-2.35,19.52-.6,0-2.59-.51-3.19-.18a6,6,0,0,1-3,.56,5.56,5.56,0,0,1-3.67,4.07c.11,1.62-.85,4.55-1.06,8.3s-1.17,6.81-.22,7.35,2.77-1.18,2.77-2.35v-3.72s2.14-1.08,2.89-.11-.12,1-.12,3.3c0,3.42-1.47,6.4-4.9,6.4-4.73,0-4.9-2.56-4.9-6.4a22.26,22.26,0,0,0-.64-6.84C277.61,528.15,276.87,524.2,277.19,520.89Z"/><path class="cls-18" d="M295.63,509.05c.89-3.31,1.95-5,1.21-4.65-1.15.41-1.87-1.76-.15-3.06a7.2,7.2,0,0,1,4.79-1.27c2.82.12,5.85,1.91,8.33,4.52s2.8,2.93,2.67,3.32-.63,3.94-2.61,6.3a10.61,10.61,0,0,1-5.08,3.31c-1.08.45-1.91,1.79-4.32,3.89s-5.6,3.63-6,.44S294.85,511.93,295.63,509.05Z"/><path class="cls-18" d="M286.82,512.21a1.76,1.76,0,1,1-1.76-1.76A1.76,1.76,0,0,1,286.82,512.21Z"/><path class="cls-16" d="M278.55,524.79c.7-.24,4.17-.71,5.72-2.74s3.23-4.1,2.67-.86c0,0-.95,3.49-5.61,4.09C277.84,525.73,277.85,525,278.55,524.79Z"/><path class="cls-19" d="M278.55,523.28c.7-.25,4.17-1.21,5.72-3.25s3.12-.44,2.67,0c0,0-1,2.89-5.61,3.71C277.84,524.39,277.85,523.52,278.55,523.28Z"/></g><path class="cls-20" d="M331.77,157.72h-.13a8.28,8.28,0,0,0,.13-1.5A8.93,8.93,0,0,0,317,149.46a18.58,18.58,0,0,0-35.35-5,12.62,12.62,0,0,0-7.85,3.8,9.7,9.7,0,0,0-15.42,11c-.24,0-.49,0-.74,0a7.12,7.12,0,1,0,1.74,14,9.59,9.59,0,0,0,16.83,5.28,8.38,8.38,0,0,0,6.69,3.33,8.5,8.5,0,0,0,1.14-.08,12.91,12.91,0,0,0,25.55-1.61,11.09,11.09,0,0,0,4.31.86,11.21,11.21,0,0,0,11.22-11.21,13,13,0,0,0-.09-1.4,7.45,7.45,0,1,0,6.74-10.61Z"/><path class="cls-21" d="M196.06,295.79a8.23,8.23,0,0,0-3.47.76,17.55,17.55,0,0,0-26.49-20,14.21,14.21,0,0,0-24,3.37,13.92,13.92,0,0,0-20.56,14.37,9.7,9.7,0,0,0-4.37-1,9.81,9.81,0,1,0,4.61,18.46,16.88,16.88,0,0,0,26.46,9.87,16.7,16.7,0,0,0,30.38-5.86,8.35,8.35,0,0,0,13.68-4.12,8.35,8.35,0,1,0,3.72-15.82Z"/></svg>