<svg id="Layer_1" data-name="Layer 1" xmlns="http://www.w3.org/2000/svg" viewBox="0 0 538.3 525.38"><defs><style>.cls-1{fill:#159c8c;}.cls-2{fill:#80d5cb;}.cls-3{fill:#dd1c24;}.cls-4{fill:none;stroke:#fff;stroke-linecap:round;stroke-linejoin:round;stroke-width:7px;}.cls-5{fill:#ffda73;}</style></defs><title>payment</title><polyline class="cls-1" points="348.28 159.03 376.16 153 403.89 251.84 393.64 446.65 356.71 468.75 138.56 447.38 141.56 240.47 169.4 168.75 238.54 230.2 324.44 217.66 364.38 168.75"/><path class="cls-2" d="M141.28,231.87c10.84,16,24.26,23.31,39.26,26.37a197.34,197.34,0,0,0,20.75,2.83c19.94,1.92,39.87,4.72,59.84,5.13,29.44.6,57.71-6.3,82.89-27.36,1.7-1.44,3.72-2.28,7.71-4.68-2.37,10.78-4.45,19.37-6.14,28.08-2.24,11.42-5.83,22.92-6,34.45-.63,55.31-.28,110.65-.28,166v11.51c-6.66-.58-12.59-.89-18.49-1.65-25.86-3.37-51.71-7-77.58-10.26-21.74-2.71-43.5-4.93-65.24-7.48-14.58-1.71-29.16-3.36-43.67-5.74-2-.31-5-4.69-5-7.2-.27-57.4-.56-114.81.17-172.2.12-9.22,5-18.39,7.85-27.52.9-2.92,2.15-5.67,3.91-10.27"/><path class="cls-2" d="M379.63,170.42c3.74,11.35,7.06,21.32,10.33,31.32,5.39,16.56,10.86,33.1,16.06,49.75,1.58,5.06,3.38,10.49,3.4,15.77.25,56.49,0,113,.33,169.46.05,7.89-3.48,9-7.68,10.9-16.53,7.53-33,15.23-49.55,22.81-.6.27-1.34,0-3.24,0V460.16c0-51.16-.23-102.32.2-153.48.08-11.16,1.87-22.49,4-33.36,3.12-15.63,7.33-30.91,11.07-46.34s7.44-30.88,11.28-46.27c.73-3,2.05-5.71,3.75-10.29"/><path class="cls-2" d="M372,154.68c-2.8,11.61-5.41,21.9-7.73,32.3-4.09,18.35-11.47,34-24.67,43.61-10.55,7.65-21.54,14.86-33,19.76-26.69,11.39-54.14,7.75-81.51,4.16-13.4-1.76-26.9-2.23-40.3-3.91-12-1.53-22.84-7.1-31.71-18-5.2-6.39-6.77-18.32-4-26.64,4.77-14.42,9.43-28.93,13.32-43.75,1.5-5.7,3.63-7.69,7.86-7.54,1.4.05,2.81,0,4.2,0H372Zm-115.82,6.07c-5.06.09-10.12.18-15.22.19-14.73,0-32-.61-44.45,11.09a12.74,12.74,0,0,0-3.43,4.68,12.52,12.52,0,0,0,1.29,10.39,19.45,19.45,0,0,0,7,6.43c15.74,9.32,32.84,7.36,49.66,7.92,12,.39,24.08.43,36.07-1.07,5.62-.71,11.37-1.11,16.87-2.86,6.24-2,18.26-9.08,16-20-1.33-6.54-8.23-9.31-12.67-11-14.29-5.41-30-5.77-44.85-5.87-2.1,0-4.21,0-6.31,0"/><path class="cls-3" d="M326.18,326.72c1.33-1.76,2.49-3.44,3.8-5,5.37-6.42,11.71-11.5,19.84-13.91,13.49-4,28.92-.08,36.77,15.85,6.78,13.74,6.64,27.8.64,41.8-4,9.35-10.1,17.32-17.18,24.52a175,175,0,0,1-42.71,31.48,2.1,2.1,0,0,1-2.25,0,180.63,180.63,0,0,1-35.78-24.82c-8.35-7.51-15.91-15.73-21.4-25.66-7.4-13.4-9.24-27.4-4.34-42,2.33-7,6.15-13,12.32-17.21,9.68-6.55,20-6.91,30.58-2.44,8,3.39,14,9.28,18.95,16.34.22.31.43.63.76,1.11"/><polyline class="cls-4" points="358.1 347.31 318.66 380.75 303.21 364.03"/><path class="cls-5" d="M129.05,67.64c4.85,26.73,5.69,27.59,31.53,32.07-8.32,1.42-17.23,1.47-23.6,8.06s-6.72,15.33-7.73,23.93c-1.62-8.33-1.45-17.3-7.93-23.85S106.09,101,97.53,99.77c8.36-1.52,17.27-1.54,23.7-8.13S127.86,76.13,129.05,67.64Z"/><path class="cls-5" d="M409.75,206.14c15.58-1.88,18.35-4.65,20.27-18.62,1.55,3.8,2.42,9.62,5.75,13s9.14,4.48,12.13,5.8c-2.79,1.2-8.68,2.17-12,5.61s-4.36,9.49-5.9,13.22C428.19,211.32,426.82,209.92,409.75,206.14Z"/><path class="cls-5" d="M91.52,381.2c22.41-2.7,26.4-6.69,29.17-26.79,2.23,5.47,3.48,13.84,8.27,18.76s13.15,6.44,17.45,8.35c-4,1.73-12.48,3.12-17.27,8.07s-6.27,13.66-8.48,19C118.06,388.66,116.09,386.64,91.52,381.2Z"/><path class="cls-5" d="M147.2,295.44c.92,9.32,6.07,13.74,15.18,14.41-9.19.6-14.32,5.08-14.62,14.19-1.63-3.52-2.43-7.64-4.92-10s-6.81-3.21-9.89-4.53C140.83,309.08,146.75,305.4,147.2,295.44Z"/><path class="cls-5" d="M74.16,421.92c8.09-.86,12.66-4.81,12.93-13.31.85,8.31,5.14,12.82,13.64,13.29-8.39.41-12.77,4.72-13.57,13C86.63,426.67,82.33,422.53,74.16,421.92Z"/><path class="cls-5" d="M460.54,281.13c-1.81-8.07-3.49-9.7-11.88-11.37,7-.73,11.29-4.09,11.77-11.71.76,7.08,4.47,11,11.71,11.77C464.89,270.35,461.36,274.34,460.54,281.13Z"/><path class="cls-5" d="M448,116.12c-1.81-8.07-3.5-9.7-11.89-11.38,7-.72,11.29-4.08,11.77-11.7.76,7.08,4.48,11,11.72,11.77C452.38,105.33,448.85,109.33,448,116.12Z"/><path class="cls-5" d="M50.82,43.58c-1.81-8.07-3.5-9.7-11.88-11.38,7-.72,11.29-4.08,11.76-11.7.77,7.08,4.48,11,11.72,11.77C55.16,32.79,51.63,36.79,50.82,43.58Z"/></svg>