<svg width="40" height="40" viewBox="0 0 40 40" fill="none" xmlns="http://www.w3.org/2000/svg">
<rect x="0.2" y="0.199847" width="39.5979" height="39.5009" rx="19.7504" fill="white"/>
<path d="M21.2573 24.1174C20.5225 23.5372 19.4835 23.5445 18.7568 24.1349L15.6306 26.6749C14.9771 27.2059 14 26.7408 14 25.8988L14.0002 15.9999C14.0002 14.3431 15.3433 13 17.0001 13L22.9979 12.9998C24.6555 12.9998 25.9991 14.3442 25.9979 16.0019L25.9913 25.7921C25.9908 26.6273 25.0272 27.0938 24.3717 26.5763L21.2573 24.1174Z" fill="#8E95A5"/>
<path fill-rule="evenodd" clip-rule="evenodd" d="M17 15.7498C17 15.3356 17.3358 14.9998 17.75 14.9998H22.25C22.6642 14.9998 23 15.3356 23 15.7498C23 16.164 22.6642 16.4998 22.25 16.4998H17.75C17.3358 16.4998 17 16.164 17 15.7498Z" fill="#8E95A5"/>
<rect x="0.2" y="0.199847" width="39.5979" height="39.5009" rx="19.7504" stroke="#8E95A5" stroke-width="0.4"/>
</svg>
