<svg xmlns="http://www.w3.org/2000/svg" xmlns:xlink="http://www.w3.org/1999/xlink" viewBox="0 0 640 1354"><defs><style>.cls-1{fill:none;}.cls-2{fill:url(#linear-gradient);}.cls-3{clip-path:url(#clip-path);}.cls-4{fill:url(#Emerald);}.cls-5{fill:url(#Emerald-2);}.cls-6{fill:#006837;}.cls-7{fill:#009245;}.cls-8{fill:#e0ceb5;}.cls-9{fill:#f5e9da;}</style><linearGradient id="linear-gradient" x1="318.16" y1="1365.93" x2="321.9" y2="-32.49" gradientUnits="userSpaceOnUse"><stop offset="0" stop-color="#fe8c9a"/><stop offset="0.07" stop-color="#fa7d8d"/><stop offset="0.28" stop-color="#f2596c"/><stop offset="0.47" stop-color="#eb3f55"/><stop offset="0.64" stop-color="#e73047"/><stop offset="0.77" stop-color="#e62a42"/></linearGradient><clipPath id="clip-path"><rect class="cls-1" y="-4.5" width="640" height="1353.97"/></clipPath><linearGradient id="Emerald" x1="8230.98" y1="9150.69" x2="8954.95" y2="9150.69" gradientTransform="matrix(0.5, -0.87, -0.87, -0.5, 3906.42, 12654.12)" gradientUnits="userSpaceOnUse"><stop offset="0" stop-color="#008145"/><stop offset="0.09" stop-color="#048346"/><stop offset="0.18" stop-color="#108a4b"/><stop offset="0.27" stop-color="#249552"/><stop offset="0.36" stop-color="#40a45d"/><stop offset="0.44" stop-color="#63b86a"/><stop offset="0.49" stop-color="#78c372"/><stop offset="0.53" stop-color="#64b86b"/><stop offset="0.63" stop-color="#40a45d"/><stop offset="0.72" stop-color="#249553"/><stop offset="0.81" stop-color="#108a4b"/><stop offset="0.91" stop-color="#048347"/><stop offset="1" stop-color="#008145"/></linearGradient><linearGradient id="Emerald-2" x1="8964.71" y1="8882.33" x2="8842.45" y2="8960.14" xlink:href="#Emerald"/></defs><title>android</title><g id="ioS"><rect class="cls-2" y="-0.5" width="640" height="1353.97"/><g class="cls-3"><path class="cls-4" d="M-60,898.59c35,17.17,76.73,18.71,109.51,39.78,14.4,9.25,26.41,21.91,41,30.8,19.59,11.92,42.67,16.41,65.2,20.69,10,1.9,20.33,3.81,30.34,1.84s18.7-7.55,26.76-13.64c10.94-8.27,21.55-18.46,24.8-31.78,4.28-17.56-5.3-35.4-16.08-49.91S198.05,867.7,194.54,850c-.61-3.1-.87-6.51.71-9.24,1.38-2.37,3.91-3.81,6.42-4.9,25.06-10.87,53.37,3.08,77,16.74s51.78,27.8,77,17.28c11.9-5,21-14.79,29.68-24.32l26.71-29.31c4.75-5.21,9.67-10.73,11.32-17.59s-.23-14.1.88-21.06c3-18.83,24.65-27,41.58-35.81,16.11-8.34,30.91-20.81,37.67-37.64s3.62-38.35-10.6-49.6c-5-4-11.36-6.74-14.92-12.11-6-9-1.42-21.76,6.83-28.67s19.14-9.54,29.48-12.53,21.12-7,27.7-15.49c7.09-9.17,7.81-21.58,8.24-33.16l1.18-31.74c.27-7.36,0-15.92-5.85-20.38s-14.28-2.42-21.33-.14l-22.33,7.2c-1.71.55-3.78,1.57-3.7,3.37s3.85.95,2.56-.3c2.81-7.65,17.17-14.16,22.29-20.5,8.88-11,.37-27-8.07-38.35l-65.81-88.24c-2.66-3.56-5.37-7.19-9-9.8-10.92-7.92-26-4.42-39-.58l-46.41,13.76c-16.32,4.84-34.15,10.81-42.8,25.47-5.94,10.06-6.32,22.35-9.84,33.48S289.43,448.27,277.82,447c-7.43-.81-13.26-6.54-18.39-12-12-12.72-25.38-26.54-42.79-28.24-25.46-2.49-45,21.6-57.27,44.07A424.92,424.92,0,0,0,122.69,542c-2,7.2-4.67,15.52-11.7,18-3.87,1.37-8.17.55-12-.81-16-5.61-27.49-19.4-40.77-30s-32.29-18.14-46.85-9.4C5.24,523.45,1,529.44-3,535.32-68.69,632-105.69,753.7-78.81,867.46-76.32,878-69.46,903.8-60,898.59Z"/><path class="cls-5" d="M-3.12,1049.85c15.28.71,32,5.56,47.39,5.21,19.88-.46,38.28-10,55.86-19.26,19.2-10.14,38.3-20.48,57.59-30.43,14.29-7.37,27.75-6,43-10.54a175.53,175.53,0,0,0,47.76-23.1c3.39-2.3,38.49-29.51,36.52-31.8-14.13-16.44-29.45-31.78-44.73-47.13-9.42-9.48-31.6-38.71-.17-26.32,26.28,10.36,40.62,42.67,68.25,48.54,18.08,3.85,36.33-5.08,51.76-15.26,40.76-26.89,69.28-59.17,90.21-103a16.47,16.47,0,0,1,3.76-5.7c2.72-2.31,6.56-2.56,10.08-3.11,13.07-2,24.81-9.42,34.24-18.69a353.24,353.24,0,0,0,42.8-50.7c7.6-11.16,15-23.1,16.55-36.52s-4.52-28.63-17.12-33.5c21.17-16,44.14-35,46.85-61.37,1.39-13.48-2.9-26.84-3.88-40.35-1.85-25.28,7.69-51.89-1.77-75.4-10.26-25.51-38.56-37.53-61.23-53.09a178.37,178.37,0,0,1-56.18-63.55c-5.95-11.22-11.53-23.88-22.82-29.69-9.86-5.08-21.68-3.62-32.61-1.78a742.26,742.26,0,0,0-77.4,17.29c-17.88,5-37.82,12.75-44.24,30.17-5.5,14.95.63,33.67-9.13,46.25-21.31-.35-18.95-41.13-39.81-45.46-4.81-1-9.76.39-14.48,1.77-31.79,9.25-66.42,20.61-83.75,48.82-17.76,28.93-11.88,67.44-28.15,97.24-29.24-2-20.5-63.73-49.8-64.69-5.7-.18-11.07,2.47-16.1,5.15C7.52,480.41-28.76,506.4-56.22,540.38c-15,18.56-27.47,39.1-33.62,62s-22,30.92-40.17,42.29c-20.14,12.62-36.32,33.14-55.55,47.51-12.82,9.57-26.68,19-34.13,33.1-4.2,8-6.06,17-9.63,25.24s-9.59,16.3-18.3,18.62c-7.72,2-15.93-.79-23.86.16S-286.57,775-293,779.91c-45.56,34.84-77.27,84.29-108,132.7-6.53,10.27-13.08,20.6-17.91,31.77-5.46,12.64-6.64,26.57-12.09,39-4.66,10.64-15.19,20.65-12.33,33.29.91,4,3.19,7.56,5,11.28a48.81,48.81,0,0,1,.26,41c-2.3,5-5.88,9.86-11.13,11.42-2.94.87-6.21.63-8.93,2-3.75,1.92-5.39,6.3-6.72,10.3q-13.78,41.61-27.58,83.21a71.59,71.59,0,0,1,41.77,42c1.58,4.32,3.74,9.64,8.32,10,2.33.15,4.48-1.15,6.44-2.41,15.51-9.93,30.76-21.4,46.93-30.18,13-7.07,24.53-2.09,37.41,4.78,4.45,2.37,9.29,4.37,11.14,9.12.56,1.43-.65,18.57-1,18.63,51.08-8.8,87.76-55.82,137.5-70.38,37.75-11.06,78-2.15,117.25.4,9,.59,18.51.75,26.68-3.15,7.12-3.41,12.49-9.54,17.65-15.5l45.12-52.17c2.28-2.62,4.71-5.91,3.71-9.24-.84-2.82-3.8-4.35-6.47-5.58l-32.11-14.71C-23.72,1050.87-13.76,1049.36-3.12,1049.85Z"/><path class="cls-6" d="M253.55,407.1C268.22,487.72,268.75,571,255.08,650c-1,6-8.75,4.34-7.71-1.7,13.55-78.28,13-160.4-1.5-240.28-1.12-6.14,6.56-7,7.68-.9Z"/><path class="cls-7" d="M-2.4,1014.19c12-.65,23.93-1,35.33-4.41A74,74,0,0,0,59.57,995a17.25,17.25,0,0,0,4.24-4.78c1.44-2.73,1.5-5.94,2.11-9,2.71-13.42,15.9-21.84,28.42-27.38,19.82-8.78,47.16-8.21,64.12-20.46,18-13,29.58-32.44,33.8-54.16,1.23-6.33,1.78-12.78,2.84-19.13a195.88,195.88,0,0,1,31.21-.18c19.48,1.83,38.88,4.32,58.43,5.61,8.17.54,16.45,1,24.59-.24,15.25-2.27,26.47-5.79,40.08-13.16,14.89-8.06,27.11-21,38.17-33.6,9.57-10.94,19.18-21.76,29.86-31.59,24-19.28,52.31-34.62,70-60.21,16.5-23.85,19.76-52.1,28.31-79,8.08-19.83,19.44-38.17,25.87-58.7,8.68-27.67-.08-55.55-5.31-82.83q1.2,6.36,2.39,12.73c-5.16-27.48-5.15-57.44-31.47-73.81-6.95-4.32-14.8-7.53-20.39-13.51-15.15-16.22-7.22-44.5-20.41-62.35a300.77,300.77,0,0,0,74.39,60.22c15.63,8.95,34.14,25.07,40.95,42,9.46,23.51-.08,50.12,1.77,75.4,1,13.51,5.27,26.87,3.88,40.35-2.71,26.38-25.68,45.39-46.85,61.37,12.6,4.87,18.66,20.09,17.12,33.5s-9,25.36-16.55,36.52a353.24,353.24,0,0,1-42.8,50.7C488.94,778.58,477.2,786,464.13,788c-3.52.55-7.36.8-10.08,3.11a16.47,16.47,0,0,0-3.76,5.7c-20.93,43.78-49.45,76.06-90.21,103-15.43,10.18-33.68,19.11-51.76,15.26-27.63-5.87-42-38.18-68.25-48.54-31.43-12.39-9.25,16.84.17,26.32,15.28,15.35,30.6,30.69,44.73,47.13,7,8.15-72.07,50.9-79.87,53.49-16,5.34-31.53,7.08-48.22,7-17.28-.07-25.39,10.78-37.8,22.46-37.26,35.07-93.21,41.79-144.17,37.17-3.81,3-1.85,9.55,2.12,12.33s9.06,3.27,13.61,4.95,9.11,5.62,8.49,10.43a12.79,12.79,0,0,1-2.49,5.38c-8.26,12.12-19,22.39-30.35,31.65-8.15,6.63-16.81,12.85-26.62,16.62-14.23,5.46-29.89,5.39-45.14,5.55-62.7.65-128.9,7.51-179.67,44.32-12.27,8.9-23.32,19.35-35.26,28.68,5-31.36,34.25-52.15,61-69.29,29.79-19.09,60.92-38.68,96-43,16.26-2,33.74-.84,47.83-9.2,19.05-11.3,25.16-35.68,39.08-52.92,14.6-18.07,37.72-27.67,60.8-30.35C-11.27,1014.72-6.83,1014.43-2.4,1014.19Z"/><path class="cls-6" d="M332.68,449.56A430.35,430.35,0,0,1,319.91,595c-1.27,4.81-8.58,2.28-7.31-2.52a419.46,419.46,0,0,0,12.5-141.42c-.41-4.9,7.17-6.47,7.58-1.51Z"/><path class="cls-6" d="M204.61,419.07c21.76,80.65,24.17,166.71,7,246.49-1.28,5.92-8.47,1.78-7.21-4.1,16.59-77.08,14.12-161.06-6.9-239-1.61-6,5.48-9.44,7.1-3.44Z"/><path class="cls-6" d="M472.5,482.72q-29.75,17.38-59,35.58C394,530.37,374.61,542.67,355.26,555q-58,37.14-115.14,75.67L211.56,650,183.1,669.47c-19,12.95-37.81,26.23-56.66,39.47s-37.51,26.81-56.16,40.45S33.23,777.06,14.75,791c-9.21,7-18.26,14.29-27.4,21.42s-18.27,14.28-27.25,21.67l-27,22.13q-13.36,11.24-26.61,22.64l-13.24,11.41-13.06,11.68q-13.06,11.65-26,23.51c-17,16.14-34.14,32-50.51,48.9l-12.38,12.52c-4.11,4.19-8.25,8.33-12.22,12.69-8,8.63-16.06,17.21-24,25.9l-6,6.5-5.81,6.68L-268.21,1052l-11.5,13.44c-3.88,4.43-7.58,9-11.25,13.69L-313,1107l-2.73,3.48-2.63,3.59-5.25,7.18L-334,1135.58l-10.38,14.4c-3.39,4.86-6.6,9.88-9.89,14.82-6.45,10-13,19.85-19.32,29.9,8.06-8.53,15.88-17.24,23.8-25.83,3.95-4.3,7.77-8.72,11.79-12.94l12.09-12.62,12-12.64,6-6.34,3-3.17,3.09-3.06,24.57-24.61c8-8.35,16.55-16.17,24.87-24.19l12.47-12,6.22-6,6.39-5.83c8.53-7.75,17-15.61,25.42-23.43,4.18-4,8.55-7.71,12.87-11.51l12.91-11.44,12.89-11.47c2.13-1.93,4.31-3.8,6.51-5.64l6.57-5.58L-124,953.91l26.51-22,13.22-11,13.42-10.77c9-7.14,17.8-14.48,26.76-21.65l27.05-21.26C-8.12,860.05,1,853,10,846s18.11-14.09,27.25-21l27.33-21c9.07-7,18.35-13.81,27.47-20.79s18.24-14,27.46-20.84,18.4-13.78,27.53-20.78L202.14,700l27.5-21,27.42-21.11Q311.8,615.51,365.83,572c18-14.57,35.9-29.2,53.69-44.07S455,498.05,472.5,482.72Z"/><path class="cls-6" d="M434.68,336.84A229,229,0,0,1,402.8,490.16c-2.62,4.22-9.31.34-6.68-3.9a220.77,220.77,0,0,0,31.11-147.37c-.71-4.87,6.74-7,7.45-2.05Z"/><path class="cls-6" d="M390.15,355.1A454.47,454.47,0,0,1,356.24,554c-1.88,4.53-9.36,2.55-7.45-2A449.42,449.42,0,0,0,382.42,355.1c-.28-5,7.45-5,7.73,0Z"/><path class="cls-6" d="M162.6,498.26c14.09,69.13,13.16,141-2.24,207.71-1.36,5.89-8.56,1.77-7.2-4.09,15-65.06,15.49-135.35,1.76-202.72-1.24-6.11,6.44-7,7.68-.9Z"/><path class="cls-6" d="M113.63,517.17a378.35,378.35,0,0,1-24,188.55,379.06,379.06,0,0,1-23.84,49c-2.5,4.3-9.18.41-6.68-3.91A372.53,372.53,0,0,0,105.9,517.17c-.64-4.92,7.1-4.87,7.73,0Z"/><path class="cls-6" d="M57.29,475.68a498.39,498.39,0,0,1,.63,256.93,494.2,494.2,0,0,1-24,69.13c-2,4.56-8.63.62-6.68-3.9C60.89,719.76,73.26,633,63.54,548.55a478.61,478.61,0,0,0-13.71-70.81c-1.3-4.81,6.15-6.86,7.46-2.06Z"/><path class="cls-6" d="M18.6,498.93A689,689,0,0,1,3.42,768.58a679.9,679.9,0,0,1-23.86,74c-1.77,4.6-9.25,2.6-7.45-2.05A681.56,681.56,0,0,0,17.56,577.44,672.27,672.27,0,0,0,11.15,501c-.69-4.87,6.76-7,7.45-2.06Z"/><path class="cls-6" d="M573.19,563.15a773.08,773.08,0,0,0-111-35.71c-4.84-1.16-2.79-8.62,2.05-7.46a774.86,774.86,0,0,1,111,35.71c4.54,1.85,2.56,9.34-2.06,7.46Z"/><path class="cls-6" d="M575.46,618.55a348.19,348.19,0,0,0-215-58.17c-5,.32-5-7.42,0-7.73a355.17,355.17,0,0,1,219,59.22c4.11,2.76.25,9.46-3.9,6.68Z"/><path class="cls-6" d="M504.93,762.25A568,568,0,0,0,246.15,655.42c-4.9-.71-2.81-8.16,2.06-7.46a576.85,576.85,0,0,1,208.24,72.9,572.17,572.17,0,0,1,52.38,34.71c3.95,2.93.1,9.65-3.9,6.68Z"/><path class="cls-6" d="M448.65,767.47A1988.88,1988.88,0,0,0,211,682.14c-5.52-1.6-3.17-9.83,2.39-8.23A2008.3,2008.3,0,0,1,453.19,760.1c5.25,2.27.69,9.63-4.54,7.37Z"/><path class="cls-6" d="M511.75,702.18a1656.71,1656.71,0,0,0-204.53-77.32c-4.75-1.45-2.72-8.91,2.06-7.46a1672.32,1672.32,0,0,1,206.37,78.11c4.52,2.06.59,8.72-3.9,6.67Z"/><path class="cls-6" d="M516.53,667.13A1656.71,1656.71,0,0,0,312,589.81c-4.75-1.45-2.72-8.91,2.06-7.46a1672.32,1672.32,0,0,1,206.37,78.11c4.52,2.06.59,8.72-3.9,6.67Z"/><path class="cls-6" d="M404.15,817.42A499.24,499.24,0,0,0,161.34,702.66c-4.9-.84-2.82-8.29,2-7.45A508.43,508.43,0,0,1,361.6,775a510.85,510.85,0,0,1,48,36.92c3.77,3.27-1.72,8.72-5.47,5.47Z"/><path class="cls-6" d="M362.52,851.86a387.2,387.2,0,0,0-188.11-103.1,378.56,378.56,0,0,0-61.24-8.5c-4.94-.28-5-8,0-7.73A394.59,394.59,0,0,1,320,805.67a390,390,0,0,1,48,40.72c3.52,3.52-1.94,9-5.47,5.47Z"/><path class="cls-6" d="M321.82,896.86A497.62,497.62,0,0,0,123.39,790.08,497.32,497.32,0,0,0,60,777.26c-4.91-.66-2.82-8.11,2.06-7.45a504.51,504.51,0,0,1,214.07,81.9,504.72,504.72,0,0,1,51.15,39.68c3.74,3.3-1.74,8.75-5.46,5.47Z"/><path class="cls-6" d="M251.17,945.28c-37.83-55-93.85-96.9-157-118.33a309.92,309.92,0,0,0-54.66-13.11c-4.9-.71-2.82-8.17,2.06-7.45,67.7,9.91,131.54,42.54,179.82,91a315.78,315.78,0,0,1,36.48,44c2.83,4.11-3.87,8-6.67,3.9Z"/><path class="cls-6" d="M214.69,957.29c-65.25-48.68-141.6-85-223.34-106.4-5.83-1.53-3.35-9.64,2.52-8.11,83.37,21.83,161,58.93,227.51,108.57,4.68,3.48-2.06,9.4-6.69,5.94Z"/><path class="cls-6" d="M190.74,994.69A575.22,575.22,0,0,0-54,890.78c-6.61-1.12-4.26-11.22,2.35-10.09A586.13,586.13,0,0,1,197.79,987.06c5.39,4-1.71,11.58-7,7.63Z"/><path class="cls-6" d="M95.65,1033c-68-48.11-147.59-80.27-231.16-93.78-6.24-1-4-10.17,2.24-9.16a564.77,564.77,0,0,1,235.6,96c5.08,3.6-1.64,10.5-6.68,6.93Z"/><path class="cls-6" d="M41.93,1056.92a516.28,516.28,0,0,0-219.06-92.36c-5.92-1-3.81-10,2.1-9a526.29,526.29,0,0,1,223.28,94.55c4.82,3.54-1.54,10.3-6.32,6.79Z"/><circle class="cls-8" cx="76.05" cy="728.49" r="84.94"/><circle class="cls-9" cx="82.13" cy="716.61" r="67.89"/><path class="cls-8" d="M64.5,715.13l-.72.68a1.5,1.5,0,0,0,2.12,2.12l.72-.68a1.5,1.5,0,0,0-2.12-2.12Z"/><path class="cls-8" d="M77.85,745.91a1.5,1.5,0,0,0,0-3,1.5,1.5,0,0,0,0,3Z"/><path class="cls-8" d="M48.54,746.12l-.7,0a1.5,1.5,0,0,0,0,3l.7,0a1.51,1.51,0,0,0,1.5-1.5,1.54,1.54,0,0,0-1.5-1.5Z"/><path class="cls-8" d="M50.86,720.69a1.5,1.5,0,0,0,0-3,1.5,1.5,0,0,0,0,3Z"/><path class="cls-8" d="M59.88,742.54a1.5,1.5,0,0,0,0-3,1.5,1.5,0,0,0,0,3Z"/><path class="cls-8" d="M85.29,730.85a1.5,1.5,0,0,0,0-3,1.5,1.5,0,0,0,0,3Z"/><path class="cls-8" d="M51.71,715.85a1.5,1.5,0,0,0,0-3,1.5,1.5,0,0,0,0,3Z"/><path class="cls-8" d="M21.46,726.68a1.5,1.5,0,0,0,0-3,1.5,1.5,0,0,0,0,3Z"/><path class="cls-8" d="M65.24,686.5c3.86,0,3.86-6,0-6s-3.87,6,0,6Z"/><path class="cls-8" d="M74.86,711.15c3.86,0,3.87-6,0-6s-3.87,6,0,6Z"/><path class="cls-8" d="M100.23,700.86c3.86,0,3.87-6,0-6s-3.87,6,0,6Z"/><path class="cls-8" d="M37.16,694.62c3.86,0,3.86-6,0-6s-3.87,6,0,6Z"/><path class="cls-8" d="M84.33,670.7l-2.78-.09a3,3,0,0,0-3,3,3.08,3.08,0,0,0,3,3l2.78.09a3,3,0,0,0,3-3,3.06,3.06,0,0,0-3-3Z"/><path class="cls-8" d="M97.59,696.6c3.86,0,3.86-6,0-6s-3.87,6,0,6Z"/><path class="cls-8" d="M111,733.19c3.86,0,3.87-6,0-6s-3.86,6,0,6Z"/><path class="cls-8" d="M99.24,752.28c3.87,0,3.87-6,0-6s-3.86,6,0,6Z"/><path class="cls-8" d="M75.87,765.42c3.86,0,3.87-6,0-6s-3.87,6,0,6Z"/><path class="cls-8" d="M112.77,763.85c3.86,0,3.87-6,0-6s-3.86,6,0,6Z"/><path class="cls-8" d="M68.15,746.4c3.86,0,3.86-6,0-6s-3.87,6,0,6Z"/><path class="cls-8" d="M75.8,767.51c3.86,0,3.87-6,0-6s-3.87,6,0,6Z"/><path class="cls-8" d="M96.62,768.88c3.86,0,3.86-6,0-6s-3.87,6,0,6Z"/><path class="cls-8" d="M123.87,743.35c3.86,0,3.87-6,0-6s-3.86,6,0,6Z"/><path class="cls-8" d="M136,727.32l-.69,0a3,3,0,0,0,0,6l.69,0a3,3,0,0,0,0-6Z"/><path class="cls-8" d="M53.73,761.92c3.86,0,3.87-6,0-6s-3.86,6,0,6Z"/><circle class="cls-8" cx="164.82" cy="807" r="81.49"/><circle class="cls-9" cx="170.28" cy="795.42" r="65.13"/><path class="cls-8" d="M153.32,794.48l-.67.67a1.5,1.5,0,1,0,2.12,2.12l.67-.67a1.53,1.53,0,0,0,0-2.12,1.51,1.51,0,0,0-2.12,0Z"/><path class="cls-8" d="M167,823.71a1.5,1.5,0,0,0,0-3,1.5,1.5,0,0,0,0,3Z"/><path class="cls-8" d="M139,824.71h-.66a1.5,1.5,0,0,0,0,3H139a1.5,1.5,0,0,0,0-3Z"/><path class="cls-8" d="M140.38,800.37a1.5,1.5,0,0,0,0-3,1.5,1.5,0,0,0,0,3Z"/><path class="cls-8" d="M149.71,821a1.5,1.5,0,0,0,0-3,1.5,1.5,0,0,0,0,3Z"/><path class="cls-8" d="M173.71,809a1.5,1.5,0,0,0,0-3,1.5,1.5,0,0,0,0,3Z"/><path class="cls-8" d="M141,795.71a1.5,1.5,0,0,0,0-3,1.5,1.5,0,0,0,0,3Z"/><path class="cls-8" d="M112.37,807a1.5,1.5,0,0,0,0-3,1.5,1.5,0,0,0,0,3Z"/><path class="cls-8" d="M153,767.2c3.86,0,3.87-6,0-6s-3.86,6,0,6Z"/><path class="cls-8" d="M163,790.54c3.86,0,3.87-6,0-6s-3.86,6,0,6Z"/><path class="cls-8" d="M187,779.87c3.87,0,3.87-6,0-6s-3.86,6,0,6Z"/><path class="cls-8" d="M126.37,775.87c3.87,0,3.87-6,0-6s-3.86,6,0,6Z"/><path class="cls-8" d="M171,751.2h-2.66a3,3,0,0,0,0,6H171a3,3,0,0,0,0-6Z"/><path class="cls-8" d="M184.38,775.87c3.86,0,3.87-6,0-6s-3.87,6,0,6Z"/><path class="cls-8" d="M198.38,810.54c3.86,0,3.87-6,0-6s-3.87,6,0,6Z"/><path class="cls-8" d="M187.71,829.21c3.86,0,3.87-6,0-6s-3.87,6,0,6Z"/><path class="cls-8" d="M165.71,842.54c3.86,0,3.87-6,0-6s-3.87,6,0,6Z"/><path class="cls-8" d="M201.05,839.87c3.86,0,3.86-6,0-6s-3.87,6,0,6Z"/><path class="cls-8" d="M157.71,824.54c3.86,0,3.87-6,0-6s-3.87,6,0,6Z"/><path class="cls-8" d="M165.71,844.54c3.86,0,3.87-6,0-6s-3.87,6,0,6Z"/><path class="cls-8" d="M185.71,845.21c3.86,0,3.87-6,0-6s-3.87,6,0,6Z"/><path class="cls-8" d="M211.05,819.87c3.86,0,3.86-6,0-6s-3.87,6,0,6Z"/><path class="cls-8" d="M222.38,803.87h-.67a3,3,0,1,0,0,6h.67a3,3,0,0,0,0-6Z"/><path class="cls-8" d="M144.38,839.87c3.86,0,3.86-6,0-6s-3.87,6,0,6Z"/></g></g></svg>