<svg id="Layer_1" data-name="Layer 1" xmlns="http://www.w3.org/2000/svg" viewBox="0 0 399.32 202.81"><defs><style>.cls-1{fill:none;stroke:#413f40;stroke-miterlimit:10;stroke-width:2px;}.cls-2{fill:#010101;}</style></defs><polyline class="cls-1" points="13.03 191.18 13.03 100.15 59.15 100.15 59.15 191.18"/><path class="cls-1" d="M135.67,192V87.89c-1.81-7.44-15.12-22.56-39-22.56S59.15,87.89,59.15,87.89V192"/><line class="cls-1" x1="97.41" y1="191.18" x2="97.41" y2="64.58"/><path class="cls-1" d="M337.46,192V87.64c-3-8-15.68-23.07-39.59-23.07s-36.93,23.31-36.93,23.31V192"/><line class="cls-1" x1="299.2" y1="191.18" x2="299.2" y2="64.57"/><line class="cls-1" x1="13.03" y1="137.12" x2="59.15" y2="137.12"/><polyline class="cls-1" points="337.46 191.18 337.46 100.15 383.58 100.15 383.58 191.18"/><line class="cls-1" x1="337.46" y1="137.12" x2="383.58" y2="137.12"/><polyline class="cls-1" points="135.67 87.89 135.67 35.84 118.19 35.84 118.19 28.7 143.81 10.92 253.23 10.92 275.54 27.2 275.69 35.84 261.07 35.84 261.07 87.89"/><path class="cls-2" d="M29,110.45c-4.15,0-4.67,3-4.67,3.86v12.06s.6,3.09,4.67,3.09,4.67-3.09,4.67-3.09V114.31C33.63,113.62,33,110.45,29,110.45Z"/><path class="cls-2" d="M44.18,110.45c-4.14,0-4.67,3-4.67,3.86v12.06s.6,3.09,4.67,3.09,4.67-3.09,4.67-3.09V114.31C48.85,113.62,48.19,110.45,44.18,110.45Z"/><path class="cls-2" d="M72.52,85.28c-4.15,0-4.68,3-4.68,3.86V101.2s.61,3.09,4.68,3.09,4.67-3.09,4.67-3.09V89.14C77.19,88.45,76.52,85.28,72.52,85.28Z"/><path class="cls-2" d="M85.33,85.28c-4.15,0-4.67,3-4.67,3.86V101.2s.6,3.09,4.67,3.09S90,101.2,90,101.2V89.14C90,88.45,89.34,85.28,85.33,85.28Z"/><path class="cls-2" d="M109.9,85.28c-4.15,0-4.68,3-4.68,3.86V101.2s.61,3.09,4.68,3.09,4.67-3.09,4.67-3.09V89.14C114.57,88.45,113.9,85.28,109.9,85.28Z"/><path class="cls-2" d="M122.71,85.28c-4.15,0-4.68,3-4.68,3.86V101.2s.61,3.09,4.68,3.09,4.67-3.09,4.67-3.09V89.14C127.38,88.45,126.71,85.28,122.71,85.28Z"/><path class="cls-2" d="M153.2,79.4c-4.14,0-4.67,2.95-4.67,3.87v12s.6,3.09,4.67,3.09,4.68-3.09,4.68-3.09v-12C157.88,82.58,157.21,79.4,153.2,79.4Z"/><path class="cls-2" d="M166.77,79.4c-4.15,0-4.67,2.95-4.67,3.87v12s.6,3.09,4.67,3.09,4.67-3.09,4.67-3.09v-12C171.44,82.58,170.77,79.4,166.77,79.4Z"/><path class="cls-2" d="M179.58,79.4c-4.15,0-4.67,2.95-4.67,3.87v12s.6,3.09,4.67,3.09,4.67-3.09,4.67-3.09v-12C184.25,82.58,183.59,79.4,179.58,79.4Z"/><path class="cls-2" d="M274,85.28c-4.15,0-4.68,3-4.68,3.86V101.2s.61,3.09,4.68,3.09,4.67-3.09,4.67-3.09V89.14C278.64,88.45,278,85.28,274,85.28Z"/><path class="cls-2" d="M287.53,85.28c-4.14,0-4.67,3-4.67,3.86V101.2s.6,3.09,4.67,3.09,4.67-3.09,4.67-3.09V89.14C292.2,88.45,291.54,85.28,287.53,85.28Z"/><path class="cls-2" d="M311.19,85.28c-4.14,0-4.67,3-4.67,3.86V101.2s.61,3.09,4.67,3.09,4.68-3.09,4.68-3.09V89.14C315.87,88.45,315.2,85.28,311.19,85.28Z"/><path class="cls-2" d="M323.86,85.28c-4.15,0-4.68,3-4.68,3.86V101.2s.61,3.09,4.68,3.09,4.67-3.09,4.67-3.09V89.14C328.53,88.45,327.86,85.28,323.86,85.28Z"/><path class="cls-2" d="M352.64,110.6c-4.14,0-4.67,3-4.67,3.87v12s.6,3.09,4.67,3.09,4.67-3.09,4.67-3.09v-12C357.31,113.77,356.65,110.6,352.64,110.6Z"/><path class="cls-2" d="M367.71,110.6c-4.14,0-4.67,3-4.67,3.87v12s.61,3.09,4.67,3.09,4.68-3.09,4.68-3.09v-12C372.39,113.77,371.72,110.6,367.71,110.6Z"/><path class="cls-2" d="M193.14,79.4c-4.14,0-4.67,2.95-4.67,3.87v12s.6,3.09,4.67,3.09,4.68-3.09,4.68-3.09v-12C197.82,82.58,197.15,79.4,193.14,79.4Z"/><path class="cls-2" d="M205.8,79.4c-4.14,0-4.67,2.95-4.67,3.87v12s.61,3.09,4.67,3.09,4.68-3.09,4.68-3.09v-12C210.48,82.58,209.81,79.4,205.8,79.4Z"/><path class="cls-2" d="M219.37,79.4c-4.15,0-4.67,2.95-4.67,3.87v12s.6,3.09,4.67,3.09S224,95.32,224,95.32v-12C224,82.58,223.38,79.4,219.37,79.4Z"/><path class="cls-2" d="M232.18,79.4c-4.14,0-4.67,2.95-4.67,3.87v12s.6,3.09,4.67,3.09,4.67-3.09,4.67-3.09v-12C236.85,82.58,236.19,79.4,232.18,79.4Z"/><path class="cls-2" d="M245.75,79.4c-4.15,0-4.68,2.95-4.68,3.87v12s.61,3.09,4.68,3.09,4.67-3.09,4.67-3.09v-12C250.42,82.58,249.75,79.4,245.75,79.4Z"/><path class="cls-1" d="M150,56.53c0-2.71,1.51-8.63,8.36-8.63,6.13,0,8.37,4.12,8.37,9.24V70.2H150Z"/><path class="cls-1" d="M177.37,56.53c0-2.71,1.51-8.63,8.36-8.63,6.13,0,8.37,4.12,8.37,9.24V70.2H177.37Z"/><path class="cls-1" d="M203.9,56.53c0-2.71,1.5-8.63,8.36-8.63,6.13,0,8.37,4.12,8.37,9.24V70.2H203.9Z"/><path class="cls-1" d="M229.82,56.53c0-2.71,1.51-8.63,8.36-8.63,6.13,0,8.37,4.12,8.37,9.24V70.2H229.82Z"/><path class="cls-1" d="M171.44,191.18V137.12c0-9.84,9.64-27,27-27s26.12,15.58,26.12,26.13v57.23"/><line class="cls-1" x1="198.02" y1="191.18" x2="198.02" y2="110.09"/></svg>