<?xml version="1.0" encoding="utf-8"?>
<!-- Generator: Adobe Illustrator 23.0.2, SVG Export Plug-In . SVG Version: 6.00 Build 0)  -->
<svg version="1.1" id="Layer_1" xmlns="http://www.w3.org/2000/svg" xmlns:xlink="http://www.w3.org/1999/xlink" x="0px" y="0px"
	 viewBox="0 0 100 100" style="enable-background:new 0 0 100 100;" xml:space="preserve">
<style type="text/css">
	.st0{fill:#ffa500;}
</style>
<path class="st0" d="M54.77,4.59l0.21,0.21c1.62,1.67,4.16,2.08,6.22,0.98l0.26-0.14c2.62-1.38,5.86-0.33,7.16,2.33l0.13,0.26
	c1.03,2.09,3.31,3.26,5.61,2.86l0.29-0.05c2.92-0.51,5.68,1.5,6.09,4.43l0.04,0.29c0.33,2.31,2.14,4.12,4.45,4.45l0.29,0.04
	c2.93,0.42,4.93,3.18,4.43,6.09l-0.05,0.29c-0.4,2.3,0.76,4.58,2.86,5.61l0.26,0.13c2.66,1.3,3.71,4.55,2.33,7.16l-0.14,0.26
	c-1.09,2.06-0.69,4.6,0.98,6.22l0.21,0.21c2.13,2.06,2.13,5.47,0,7.53l-0.21,0.21c-1.67,1.62-2.08,4.16-0.98,6.22l0.14,0.26
	c1.38,2.62,0.33,5.86-2.33,7.16l-0.26,0.13c-2.09,1.03-3.26,3.31-2.86,5.61l0.05,0.29c0.51,2.92-1.5,5.68-4.43,6.09l-0.29,0.04
	c-2.31,0.33-4.12,2.14-4.45,4.45l-0.04,0.29c-0.42,2.93-3.18,4.93-6.09,4.43l-0.29-0.05c-2.3-0.4-4.58,0.76-5.61,2.86l-0.13,0.26
	c-1.3,2.66-4.55,3.71-7.16,2.33l-0.26-0.14c-2.06-1.09-4.6-0.69-6.22,0.98l-0.21,0.21c-2.06,2.13-5.47,2.13-7.53,0l-0.21-0.21
	c-1.62-1.67-4.16-2.08-6.22-0.98l-0.26,0.14c-2.62,1.38-5.86,0.33-7.16-2.33l-0.13-0.26c-1.03-2.09-3.31-3.26-5.61-2.86l-0.29,0.05
	c-2.92,0.51-5.68-1.5-6.09-4.43l-0.04-0.29c-0.33-2.31-2.14-4.12-4.45-4.45l-0.29-0.04c-2.93-0.42-4.93-3.18-4.43-6.09l0.05-0.29
	c0.4-2.3-0.76-4.58-2.86-5.61l-0.26-0.13c-2.66-1.3-3.71-4.55-2.33-7.16l0.14-0.26c1.09-2.06,0.69-4.6-0.98-6.22l-0.21-0.21
	c-2.13-2.06-2.13-5.47,0-7.53l0.21-0.21c1.67-1.62,2.08-4.16,0.98-6.22l-0.14-0.26c-1.38-2.62-0.33-5.86,2.33-7.16l0.26-0.13
	c2.09-1.03,3.26-3.31,2.86-5.61l-0.05-0.29c-0.51-2.92,1.5-5.68,4.43-6.09l0.29-0.04c2.31-0.33,4.12-2.14,4.45-4.45l0.04-0.29
	c0.42-2.93,3.18-4.93,6.09-4.43l0.29,0.05c2.3,0.4,4.58-0.76,5.61-2.86l0.13-0.26c1.3-2.66,4.55-3.71,7.16-2.33l0.26,0.14
	c2.06,1.09,4.6,0.69,6.22-0.98l0.21-0.21C49.29,2.47,52.71,2.47,54.77,4.59z"/>
</svg>
