<svg width="88" height="149" viewBox="0 0 88 149" fill="none" xmlns="http://www.w3.org/2000/svg">
<path d="M59.327 27.8049C51.6808 27.8049 45.5637 22.507 44.7991 15.8847H73.855C72.8992 22.507 66.7822 27.8049 59.327 27.8049ZM36.197 12.7391H44.608H73.6638C73.6638 4.62671 66.7822 -0.00892611 59.1359 0.156632C52.8277 0.156632 47.2841 3.96447 45.3726 9.26234H36.197V12.5735V12.7391ZM9.24391 51.8108C4.65614 51.8108 0.641846 54.7909 0.641846 59.0954C0.641846 63.3999 4.46499 66.38 9.24391 66.38V51.8108ZM49.578 67.5389V77.4724H38.2998L40.7848 142.537C40.7848 146.179 44.2256 148.994 48.4311 148.994C52.6365 148.994 56.0774 146.014 56.0774 142.371V90.8826H59.9005V142.371C59.9005 146.014 63.3413 148.994 67.5468 148.994C71.5611 148.994 75.0019 146.345 75.1931 142.702L78.8251 67.5389H49.7692H49.578ZM46.7107 64.2277H76.1489C78.0604 64.2277 79.7808 63.0688 80.3543 61.4132L86.8536 39.5595C87.4271 37.4073 86.8536 34.9239 84.9421 33.2683C83.4128 31.7783 81.1189 31.116 78.8251 31.116L41.7406 30.9505C38.2998 30.9505 35.2413 32.9372 34.2855 35.7517L31.9916 42.374H49.7692V50.6519H64.2971L67.3556 42.0429C67.7379 41.0495 68.8849 40.5529 69.8407 40.884C70.9876 41.2151 71.5611 42.2085 71.1788 43.0362L67.1645 54.1287H46.9018C44.0345 54.1287 41.5494 55.7842 40.976 58.1021C40.2113 61.4132 43.0787 64.2277 46.7107 64.2277ZM45.7549 45.8507H13.067V73.9957H45.7549V67.3733C40.7848 67.0422 36.7705 63.3999 36.7705 59.0954C36.7705 54.6253 40.7848 51.1486 45.7549 50.8175V45.8507Z" fill="white"/>
</svg>
