<svg width="134" height="134" viewBox="0 0 134 134" fill="none" xmlns="http://www.w3.org/2000/svg">
<path d="M89.3779 90.9868L102.009 102.989L127.272 78.9843M120.956 54.9975V42.9951C120.954 40.8903 120.369 38.8231 119.261 37.0008C118.152 35.1786 116.559 33.6653 114.64 32.6129L70.43 8.60802C68.5098 7.55459 66.3316 7 64.1143 7C61.897 7 59.7187 7.55459 57.7985 8.60802L13.5882 32.6129C11.6699 33.6653 10.0765 35.1786 8.968 37.0008C7.85946 38.8231 7.27473 40.8903 7.27246 42.9951V91.0049C7.27473 93.1097 7.85946 95.1769 8.968 96.9992C10.0765 98.8214 11.6699 100.335 13.5882 101.387L57.7985 125.392C59.7187 126.445 61.897 127 64.1143 127C66.3316 127 68.5098 126.445 70.43 125.392L83.0615 118.551M92.5348 51.3717L36.0088 20.4054M9.10348 36.9795L64.1137 66.9856L119.124 36.9795M64.1135 126.993V66.9807" stroke="white" stroke-width="13" stroke-linecap="round" stroke-linejoin="round"/>
</svg>
