<svg xmlns="http://www.w3.org/2000/svg" viewBox="0 0 69 65"><defs><style>.cls-1{fill:#db2841;}.cls-2{fill:#db2841;}</style></defs><title>screen</title><g id="ioS"><path class="cls-1" d="M18,24.07a7.93,7.93,0,0,0,5.09,2.82c.89.15,1.79.24,2.69.31,2.59.2,5.17.5,7.76.54a17.79,17.79,0,0,0,10.74-2.92,7.44,7.44,0,0,1,1-.5c-.31,1.15-.58,2.07-.8,3A17.7,17.7,0,0,0,43.68,31c-.08,5.92,0,11.84,0,17.76V50c-.86-.06-1.63-.1-2.39-.18-3.35-.36-6.7-.75-10.06-1.09-2.81-.3-5.64-.53-8.45-.81-1.89-.18-3.78-.36-5.66-.61a1,1,0,0,1-.65-.77c0-6.14-.08-12.28,0-18.42a9.78,9.78,0,0,1,1-2.95C17.58,24.86,17.75,24.56,18,24.07Z"/><path class="cls-2" d="M48.86,17.5c.49,1.21.92,2.28,1.34,3.35.7,1.77,1.41,3.54,2.08,5.32a4.86,4.86,0,0,1,.44,1.69c0,6,0,12.09.05,18.13,0,.84-.45,1-1,1.17-2.14.8-4.28,1.63-6.42,2.44a1.79,1.79,0,0,1-.42,0V48.5c0-5.48,0-11,0-16.42a16.56,16.56,0,0,1,.53-3.57c.41-1.68,1-3.31,1.44-5s1-3.31,1.46-4.95A9.24,9.24,0,0,1,48.86,17.5Z"/><path class="cls-2" d="M47.87,15.81c-.36,1.24-.7,2.35-1,3.46a7.36,7.36,0,0,1-3.2,4.66,24.34,24.34,0,0,1-4.28,2.12c-3.46,1.22-7,.83-10.56.44-1.74-.18-3.49-.23-5.22-.41a6.57,6.57,0,0,1-4.11-1.93A2.86,2.86,0,0,1,19,21.3c.62-1.54,1.23-3.1,1.73-4.68.2-.61.47-.82,1-.81H47.87Zm-15,.65-2,0c-1.91,0-4.15-.06-5.76,1.19a1.44,1.44,0,0,0-.45.5,1.14,1.14,0,0,0,.17,1.11,2.37,2.37,0,0,0,.91.69c2,1,4.25.79,6.43.85a36.53,36.53,0,0,0,4.68-.12,14.78,14.78,0,0,0,2.19-.3c.8-.22,2.36-1,2.07-2.14-.17-.7-1.07-1-1.64-1.17a19.93,19.93,0,0,0-5.81-.63Z"/></g></svg>