<svg xmlns="http://www.w3.org/2000/svg" viewBox="0 0 69 65"><defs><style>.cls-1{fill:#db2841;}</style></defs><title>screen</title><g id="ioS"><path class="cls-1" d="M33.67,22c.36-.48.68-.94,1-1.37a11.3,11.3,0,0,1,5.46-3.81,8.21,8.21,0,0,1,10.11,4.34,13.12,13.12,0,0,1,.18,11.47,22,22,0,0,1-4.73,6.72A48.13,48.13,0,0,1,34,47.94a.58.58,0,0,1-.62,0,49.42,49.42,0,0,1-9.85-6.81,27.59,27.59,0,0,1-5.88-7,13.81,13.81,0,0,1-1.19-11.54,9,9,0,0,1,3.38-4.72,8.42,8.42,0,0,1,8.42-.66,12.23,12.23,0,0,1,5.21,4.48Z"/></g></svg>