<svg xmlns="http://www.w3.org/2000/svg" viewBox="0 0 69 65"><defs><style>.cls-1{fill:#c6c6c6;}</style></defs><title>screen</title><g id="ioS"><path class="cls-1" d="M54.35,19l-.38.35L48.48,24.6a3,3,0,0,1-.33.29.66.66,0,0,1-.85-.05c-.44-.37-.45-.74,0-1.25l5.08-6,.23-.28-1-1.09-3.32,2.82-3.06,2.61a.7.7,0,0,1-1.09,0c-.36-.36-.33-.73.11-1.19L49.51,15l.31-.35a1.83,1.83,0,0,0-1.61-.48,4.42,4.42,0,0,0-1.34.62,47,47,0,0,0-5.16,4.82,6.17,6.17,0,0,0-.76.93,5.52,5.52,0,0,0-.59,5.84c.13.26,0,.38-.15.54L34,32.79c-1.91-1.78-5.06-4.53-6.7-6.09a5.85,5.85,0,0,0-.6-6.42,11.22,11.22,0,0,0-4.2-3.47,10.24,10.24,0,0,0-4.31-1.3,4.25,4.25,0,0,0-2.89.78A3.77,3.77,0,0,0,13.86,20a11.73,11.73,0,0,0,5.08,8.57,5.49,5.49,0,0,0,5.72.56c.25-.11.33,0,.46.16L29.66,34,31,35.59l-11.62,11a1,1,0,0,0-.32,1.11,4,4,0,0,0,2.53,2.61A1.07,1.07,0,0,0,22.88,50c1.43-1.56,2.9-3.08,4.36-4.62q3.29-3.45,6.56-6.92l1.32,1.34,9.79,10.32a.83.83,0,0,0,.87.27,4,4,0,0,0,2.78-2.65,1,1,0,0,0-.33-1.15c-3.39-3.19-6.77-6.41-10.15-9.62-.06-.05-.78-.81-1.44-1.5l6-6.33a.42.42,0,0,1,.54-.13,7,7,0,0,0,1.56.35,6,6,0,0,0,4.64-1.73C50.64,26.46,51.81,25.23,53,24a8.08,8.08,0,0,0,2-3v-.72Z"/></g></svg>