<svg xmlns="http://www.w3.org/2000/svg" viewBox="0 0 69 65"><defs><style>.cls-1{fill:#c6c6c6;}</style></defs><title>screen</title><g id="ioS"><path id="Path_99" data-name="Path 99" class="cls-1" d="M53.81,47.78l-8.1-8.11a16.87,16.87,0,0,0,3.44-10.3,17.08,17.08,0,0,0-17-17.17H32a17.07,17.07,0,0,0-17.18,17v.21a17.07,17.07,0,0,0,17,17.18H32a16.8,16.8,0,0,0,10.3-3.43l8.09,8.09ZM19.7,29.37a12.15,12.15,0,0,1,12-12.27H32a12.17,12.17,0,0,1,12.27,12v.23a12.15,12.15,0,0,1-12,12.27H32a12.14,12.14,0,0,1-12.27-12Z"/></g></svg>