<svg width="155" height="147" viewBox="0 0 155 147" fill="none" xmlns="http://www.w3.org/2000/svg">
<path fill-rule="evenodd" clip-rule="evenodd" d="M132.247 11.0431V138.626H0V11.0431H42.0867V0.421875H90.16V11.0431H132.247ZM84.1553 5.73249H48.0913V16.3697H84.1553V5.73249ZM114.28 32.6914H18.2798V44.6914H114.28V32.6914ZM18.2798 51.6914H114.28V63.6914H18.2798V51.6914ZM114.28 70.6914H18.2798V82.6914H114.28V70.6914ZM18.2798 89.6914H114.28V101.691H18.2798V89.6914ZM114.28 108.691H18.2798V120.691H114.28V108.691Z" fill="white"/>
<path d="M111.758 146.076C135.589 146.076 154.909 128.99 154.909 107.913C154.909 86.8362 135.589 69.75 111.758 69.75C87.9266 69.75 68.6074 86.8362 68.6074 107.913C68.6074 128.99 87.9266 146.076 111.758 146.076Z" fill="white"/>
<path d="M103.158 118.439L90.4099 107.164L86.1543 110.928L103.158 125.966L137.149 95.8888L132.893 92.125L103.158 118.439Z" fill="#F85266"/>
</svg>
