<svg width="41" height="41" viewBox="0 0 41 41" fill="none" xmlns="http://www.w3.org/2000/svg">
<rect x="0.7" y="0.7" width="39.6" height="39.5999" rx="19.7999" fill="white"/>
<path fill-rule="evenodd" clip-rule="evenodd" d="M20.0162 29.3623C20.0165 29.3624 20.0167 29.3626 20.5 28.6818L20.0162 29.3623C20.3089 29.5455 20.6906 29.5458 20.9833 29.3626L20.5 28.6818C20.9832 29.3625 20.9831 29.3627 20.9833 29.3626L20.9844 29.3619L20.9861 29.3608L20.9916 29.3574L21.01 29.3457L21.0761 29.303C21.1328 29.2662 21.2141 29.2126 21.3164 29.1432C21.5211 29.0044 21.8105 28.802 22.1566 28.5432C22.8474 28.0267 23.7706 27.2804 24.6969 26.3623C26.5137 24.5614 28.5 21.9446 28.5 19.0124C28.5 17.02 27.6571 15.1092 26.1569 13.7003C24.6566 12.2915 22.6217 11.5 20.5 11.5C18.3783 11.5 16.3434 12.2915 14.8431 13.7003C13.3429 15.1092 12.5 17.02 12.5 19.0124C12.5 21.9446 14.4863 24.5614 16.3031 26.3623C17.2294 27.2804 18.1526 28.0267 18.8434 28.5432C19.1895 28.802 19.4789 29.0044 19.6836 29.1432C19.7859 29.2126 19.8672 29.2662 19.9239 29.303L19.99 29.3457L20.0084 29.3574L20.0139 29.3608L20.0162 29.3623Z" fill="#676F81"/>
<path fill-rule="evenodd" clip-rule="evenodd" d="M20.632 17.2277C19.5092 17.2277 18.599 18.0824 18.599 19.1368C18.599 20.1911 19.5092 21.0459 20.632 21.0459C21.7548 21.0459 22.665 20.1911 22.665 19.1368C22.665 18.0824 21.7548 17.2277 20.632 17.2277ZM16.8564 19.1368C16.8564 17.1787 18.5468 15.5913 20.632 15.5913C22.7172 15.5913 24.4076 17.1787 24.4076 19.1368C24.4076 21.0949 22.7172 22.6822 20.632 22.6822C18.5468 22.6822 16.8564 21.0949 16.8564 19.1368Z" fill="white"/>
<rect x="0.7" y="0.7" width="39.6" height="39.5999" rx="19.7999" stroke="#E0E0E0" stroke-width="0.4"/>
</svg>
