<svg id="Layer_1" data-name="Layer 1" xmlns="http://www.w3.org/2000/svg" viewBox="0 0 16.8 24.1"><defs><style>.cls-1{fill:#60c0b4;}</style></defs><title>Artboard 118</title><path class="cls-1" d="M16.74,7.1A8.41,8.41,0,0,0,1.54,3.6,8.23,8.23,0,0,0,0,9.3a17.89,17.89,0,0,0,1.6,4.4,75.2,75.2,0,0,0,5.3,8.5c.4.6.9,1.2,1.4,1.9l.2-.2c1.3-1.9,2.7-3.9,4-5.8A35.93,35.93,0,0,0,16,11.7,9.44,9.44,0,0,0,16.74,7.1Zm-4.1,1.3a1.4,1.4,0,0,1-.3.9,7.63,7.63,0,0,1-.8,1.1l-2.9,2.8a.37.37,0,0,1-.3.1c-.1,0-.1,0-.1-.1l-1.3-1.3c-.5-.5-1.1-1-1.6-1.6-.3-.3-.5-.6-.8-.9a2.27,2.27,0,0,1,0-2.5,2,2,0,0,1,1-.8A2.08,2.08,0,0,1,6.64,6a1.14,1.14,0,0,1,.8.3,3.11,3.11,0,0,1,.9.7v.1l.2-.2a5.55,5.55,0,0,1,.8-.6,1.72,1.72,0,0,1,1.2-.2,2.35,2.35,0,0,1,.8.2,1.63,1.63,0,0,1,1.1,1.3,1.08,1.08,0,0,1,.2.8Z"/></svg>