<svg width="254" height="139" viewBox="0 0 254 139" fill="none" xmlns="http://www.w3.org/2000/svg">
<path fill-rule="evenodd" clip-rule="evenodd" d="M132.247 10.6213V138.204H0V10.6213H42.0867V0H90.16V10.6213H132.247ZM84.1553 5.31061H48.0913V15.9478H84.1553V5.31061ZM114.28 32.2695H18.2798V44.2695H114.28V32.2695ZM18.2798 51.2695H114.28V63.2695H18.2798V51.2695ZM114.28 70.2695H18.2798V82.2695H114.28V70.2695ZM18.2798 89.2695H114.28V101.27H18.2798V89.2695ZM114.28 108.27H18.2798V120.27H114.28V108.27Z" fill="white"/>
<path d="M219.667 59.3338L209 70.0002M209 70.0002L198.333 80.667M209 70.0002L198.333 59.3333M209 70.0002L219.667 80.6666M168 47.2202V38.6101C168 36.3266 168.936 34.1365 170.603 32.5218C172.27 30.9071 174.531 30 176.889 30H185.778M230.222 30H239.111C241.469 30 243.73 30.9071 245.397 32.5218C247.063 34.1365 248 36.3266 248 38.6101V47.2202M248 90.2659V98.876C248 101.16 247.063 103.35 245.397 104.964C243.73 106.579 241.469 107.486 239.111 107.486H230.222M185.778 107.486H176.889C174.531 107.486 172.27 106.579 170.603 104.964C168.936 103.35 168 101.16 168 98.876V90.2659" stroke="white" stroke-width="12" stroke-linecap="round" stroke-linejoin="round"/>
</svg>
