<svg id="Layer_1" data-name="Layer 1" xmlns="http://www.w3.org/2000/svg" viewBox="0 0 374.97 235.23"><defs><style>.cls-1{fill:none;stroke:#403e3f;stroke-miterlimit:10;}.cls-2{fill:#403e3f;}</style></defs><polyline class="cls-1" points="116.14 85.44 116.14 71.25 257.59 71.25 257.59 85.44 116.14 85.44"/><polyline class="cls-1" points="257.59 74.96 262.14 71.25 186.56 43.09 111.16 71.25 116.14 75.96"/><polyline class="cls-1" points="94.03 53.67 94.03 50.1 95.28 50.1 95.28 36.47 92.86 36.47 92.86 35.47 128.45 35.47 128.45 36.88 126.62 36.88 126.62 39.54 186.56 19.92"/><line class="cls-1" x1="124.01" y1="50.57" x2="92.86" y2="50.57"/><line class="cls-1" x1="125.17" y1="66.01" x2="125.17" y2="54.51"/><path class="cls-1" d="M92,70.72h10.39l-1.49-1.08s2-6.49,7.06-6.49,6.4,5.14,6.24,7"/><path class="cls-1" d="M98.27,70.72s1.08-9.48,9.31-10c5.4,0,9.25,5,9.25,8.39"/><polyline class="cls-1" points="96.44 91.25 96.44 73.05 101.76 73.05 101.09 74.13 101.09 91.25"/><line class="cls-1" x1="98.68" y1="90.84" x2="98.68" y2="73.05"/><polyline class="cls-1" points="279.1 53.67 279.1 50.1 277.85 50.1 277.85 36.47 280.26 36.47 280.26 35.47 244.68 35.47 244.68 36.88 246.51 36.88 246.51 39.54 186.56 19.92"/><polyline class="cls-1" points="250.72 35.47 250.72 43.09 250.17 43.09 186.56 22.75 186.56 43.09 242.69 61.99 242.69 54.51 279.1 54.51 279.1 91.25"/><line class="cls-1" x1="249.11" y1="50.57" x2="280.26" y2="50.57"/><path class="cls-1" d="M281.18,70.72H270.79l1.49-1.08s-2-6.49-7.06-6.49-6.4,5.14-6.24,7"/><path class="cls-1" d="M274.86,70.72s-1.08-9.48-9.31-10c-5.41,0-9.26,5-9.26,8.39"/><polyline class="cls-1" points="276.69 91.25 276.69 73.05 271.37 73.05 272.03 74.13 272.03 91.25"/><line class="cls-1" x1="274.44" y1="90.84" x2="274.44" y2="73.05"/><path d="M119.68,72c-.8,0-.91.58-.91.76v2.34a.84.84,0,0,0,.91.6c.81,0,.91-.6.91-.6V72.77A.83.83,0,0,0,119.68,72Z"/><path d="M122.32,72c-.81,0-.91.58-.91.76v2.34a.84.84,0,0,0,.91.6.81.81,0,0,0,.9-.6V72.77A.82.82,0,0,0,122.32,72Z"/><path d="M124.8,72c-.8,0-.9.58-.9.76v2.34a.82.82,0,0,0,.9.6c.81,0,.91-.6.91-.6V72.77A.83.83,0,0,0,124.8,72Z"/><path d="M128.08,72c-.81,0-.91.58-.91.76v2.34a.84.84,0,0,0,.91.6.83.83,0,0,0,.91-.6V72.77A.83.83,0,0,0,128.08,72Z"/><path d="M130.71,72c-.8,0-.9.58-.9.76v2.34a.82.82,0,0,0,.9.6c.81,0,.91-.6.91-.6V72.77A.83.83,0,0,0,130.71,72Z"/><path d="M133.42,72c-.8,0-.9.58-.9.76v2.34a.82.82,0,0,0,.9.6c.81,0,.91-.6.91-.6V72.77A.83.83,0,0,0,133.42,72Z"/><path d="M136.39,72c-.8,0-.9.58-.9.76v2.34a.82.82,0,0,0,.9.6c.81,0,.91-.6.91-.6V72.77A.83.83,0,0,0,136.39,72Z"/><path d="M139.28,72c-.81,0-.91.58-.91.76v2.34a.84.84,0,0,0,.91.6.81.81,0,0,0,.9-.6V72.77A.82.82,0,0,0,139.28,72Z"/><path d="M141.82,72c-.8,0-.91.58-.91.76v2.34a.84.84,0,0,0,.91.6c.81,0,.91-.6.91-.6V72.77A.83.83,0,0,0,141.82,72Z"/><path d="M144.82,72c-.81,0-.91.58-.91.76v2.34a.84.84,0,0,0,.91.6.83.83,0,0,0,.91-.6V72.77A.83.83,0,0,0,144.82,72Z"/><path d="M147.45,72c-.8,0-.91.58-.91.76v2.34a.84.84,0,0,0,.91.6c.81,0,.91-.6.91-.6V72.77A.83.83,0,0,0,147.45,72Z"/><path d="M150.41,72c-.8,0-.91.58-.91.76v2.34a.84.84,0,0,0,.91.6c.81,0,.91-.6.91-.6V72.77A.83.83,0,0,0,150.41,72Z"/><path d="M153.27,72c-.8,0-.91.58-.91.76v2.34a.84.84,0,0,0,.91.6c.81,0,.91-.6.91-.6V72.77A.83.83,0,0,0,153.27,72Z"/><path d="M155.9,72c-.8,0-.9.58-.9.76v2.34a.82.82,0,0,0,.9.6c.81,0,.91-.6.91-.6V72.77A.83.83,0,0,0,155.9,72Z"/><path d="M158.39,72c-.8,0-.9.58-.9.76v2.34a.82.82,0,0,0,.9.6c.81,0,.91-.6.91-.6V72.77A.83.83,0,0,0,158.39,72Z"/><path d="M161.67,72c-.81,0-.91.58-.91.76v2.34a.84.84,0,0,0,.91.6.83.83,0,0,0,.91-.6V72.77A.83.83,0,0,0,161.67,72Z"/><path d="M164.3,72c-.8,0-.91.58-.91.76v2.34a.84.84,0,0,0,.91.6c.81,0,.91-.6.91-.6V72.77A.83.83,0,0,0,164.3,72Z"/><path d="M167,72c-.8,0-.91.58-.91.76v2.34a.84.84,0,0,0,.91.6c.81,0,.91-.6.91-.6V72.77A.83.83,0,0,0,167,72Z"/><path d="M170,72c-.8,0-.91.58-.91.76v2.34a.84.84,0,0,0,.91.6c.81,0,.91-.6.91-.6V72.77A.83.83,0,0,0,170,72Z"/><path d="M172.87,72c-.81,0-.91.58-.91.76v2.34a.84.84,0,0,0,.91.6.81.81,0,0,0,.9-.6V72.77A.82.82,0,0,0,172.87,72Z"/><path d="M175.41,72c-.81,0-.91.58-.91.76v2.34a.84.84,0,0,0,.91.6.83.83,0,0,0,.91-.6V72.77A.83.83,0,0,0,175.41,72Z"/><path d="M178.41,72c-.81,0-.91.58-.91.76v2.34a.84.84,0,0,0,.91.6.81.81,0,0,0,.9-.6V72.77A.82.82,0,0,0,178.41,72Z"/><path d="M181,72c-.8,0-.91.58-.91.76v2.34a.84.84,0,0,0,.91.6c.81,0,.91-.6.91-.6V72.77A.83.83,0,0,0,181,72Z"/><path d="M184,72c-.8,0-.91.58-.91.76v2.34a.84.84,0,0,0,.91.6c.81,0,.91-.6.91-.6V72.77A.83.83,0,0,0,184,72Z"/><path d="M186.83,72c-.8,0-.9.58-.9.76v2.34a.82.82,0,0,0,.9.6c.81,0,.91-.6.91-.6V72.77A.83.83,0,0,0,186.83,72Z"/><path d="M189.38,72c-.81,0-.91.58-.91.76v2.34a.84.84,0,0,0,.91.6.81.81,0,0,0,.9-.6V72.77A.82.82,0,0,0,189.38,72Z"/><path d="M192.37,72c-.8,0-.9.58-.9.76v2.34a.82.82,0,0,0,.9.6c.81,0,.91-.6.91-.6V72.77A.83.83,0,0,0,192.37,72Z"/><path d="M195,72c-.81,0-.91.58-.91.76v2.34a.84.84,0,0,0,.91.6.83.83,0,0,0,.91-.6V72.77A.83.83,0,0,0,195,72Z"/><path d="M198,72c-.81,0-.91.58-.91.76v2.34a.84.84,0,0,0,.91.6.83.83,0,0,0,.91-.6V72.77A.83.83,0,0,0,198,72Z"/><path d="M200.73,72c-.81,0-.91.58-.91.76v2.34a.84.84,0,0,0,.91.6.83.83,0,0,0,.91-.6V72.77A.83.83,0,0,0,200.73,72Z"/><path d="M203.36,72c-.8,0-.9.58-.9.76v2.34a.82.82,0,0,0,.9.6c.81,0,.91-.6.91-.6V72.77A.83.83,0,0,0,203.36,72Z"/><path d="M206.32,72c-.8,0-.9.58-.9.76v2.34a.82.82,0,0,0,.9.6c.81,0,.91-.6.91-.6V72.77A.83.83,0,0,0,206.32,72Z"/><path d="M209.16,72c-.81,0-.91.58-.91.76v2.34a.84.84,0,0,0,.91.6.81.81,0,0,0,.9-.6V72.77A.82.82,0,0,0,209.16,72Z"/><path d="M211.7,72c-.8,0-.91.58-.91.76v2.34a.84.84,0,0,0,.91.6c.81,0,.91-.6.91-.6V72.77A.83.83,0,0,0,211.7,72Z"/><path d="M214.7,72c-.81,0-.91.58-.91.76v2.34a.84.84,0,0,0,.91.6.83.83,0,0,0,.91-.6V72.77A.83.83,0,0,0,214.7,72Z"/><path d="M217.33,72c-.8,0-.91.58-.91.76v2.34a.84.84,0,0,0,.91.6c.81,0,.91-.6.91-.6V72.77A.83.83,0,0,0,217.33,72Z"/><path d="M220.29,72c-.8,0-.91.58-.91.76v2.34a.84.84,0,0,0,.91.6c.81,0,.91-.6.91-.6V72.77A.83.83,0,0,0,220.29,72Z"/><path d="M225.85,72c-.81,0-.91.58-.91.76v2.34a.84.84,0,0,0,.91.6.83.83,0,0,0,.91-.6V72.77A.83.83,0,0,0,225.85,72Z"/><path d="M228.68,72c-.8,0-.91.58-.91.76v2.34a.84.84,0,0,0,.91.6c.81,0,.91-.6.91-.6V72.77A.83.83,0,0,0,228.68,72Z"/><path d="M231.23,72c-.81,0-.91.58-.91.76v2.34a.83.83,0,0,0,.91.6.81.81,0,0,0,.9-.6V72.77A.82.82,0,0,0,231.23,72Z"/><path d="M234.22,72c-.8,0-.91.58-.91.76v2.34a.84.84,0,0,0,.91.6c.81,0,.91-.6.91-.6V72.77A.83.83,0,0,0,234.22,72Z"/><path d="M236.86,72c-.81,0-.91.58-.91.76v2.34a.84.84,0,0,0,.91.6.81.81,0,0,0,.9-.6V72.77A.82.82,0,0,0,236.86,72Z"/><path d="M239.82,72c-.81,0-.91.58-.91.76v2.34a.84.84,0,0,0,.91.6.81.81,0,0,0,.9-.6V72.77A.82.82,0,0,0,239.82,72Z"/><path d="M242.54,72c-.81,0-.91.58-.91.76v2.34a.84.84,0,0,0,.91.6.81.81,0,0,0,.9-.6V72.77A.82.82,0,0,0,242.54,72Z"/><path d="M245.17,72c-.8,0-.91.58-.91.76v2.34a.84.84,0,0,0,.91.6c.81,0,.91-.6.91-.6V72.77A.83.83,0,0,0,245.17,72Z"/><path d="M248.13,72c-.8,0-.91.58-.91.76v2.34a.84.84,0,0,0,.91.6c.81,0,.91-.6.91-.6V72.77A.83.83,0,0,0,248.13,72Z"/><path d="M250.78,72c-.8,0-.9.58-.9.76v2.34a.82.82,0,0,0,.9.6c.81,0,.91-.6.91-.6V72.77A.83.83,0,0,0,250.78,72Z"/><path d="M253.74,72c-.8,0-.91.58-.91.76v2.34a.84.84,0,0,0,.91.6c.81,0,.91-.6.91-.6V72.77A.83.83,0,0,0,253.74,72Z"/><polyline class="cls-1" points="125.71 70.72 186.65 48.19 247.22 70.72"/><line class="cls-1" x1="116.14" y1="80.95" x2="257.59" y2="80.95"/><path class="cls-1" d="M116.83,89.26s-2.18.83-2.18-1.2c0-.86,1-1.43,1.85-1.43h6.21c1.75,0,1.75,1,1.75,1.63,0,.92-1.36,1.4-2.28.78"/><polyline class="cls-1" points="117.25 89.43 117.25 144.8 122.19 144.8 122.19 89.43"/><rect x="114.59" y="144.8" width="9.76" height="1.27" rx="0.07"/><path class="cls-1" d="M127.82,89.26s-2.19.83-2.19-1.2c0-.86,1-1.43,1.86-1.43h6.21c1.75,0,1.75,1,1.75,1.63,0,.92-1.36,1.4-2.28.78"/><polyline class="cls-1" points="128.24 89.43 128.24 144.8 133.17 144.8 133.17 89.43"/><rect class="cls-1" x="125.9" y="144.8" width="9.76" height="1.27" rx="0.07"/><path class="cls-1" d="M149.54,89.26s-2.19.83-2.19-1.2c0-.86,1-1.43,1.86-1.43h6.21c1.74,0,1.74,1,1.74,1.63,0,.92-1.35,1.4-2.27.78"/><polyline class="cls-1" points="149.96 89.43 149.96 144.8 154.89 144.8 154.89 89.43"/><rect class="cls-1" x="147.62" y="144.8" width="9.76" height="1.27" rx="0.07"/><path class="cls-1" d="M171.68,89.26s-2.19.83-2.19-1.2c0-.86,1-1.43,1.86-1.43h6.21c1.74,0,1.74,1,1.74,1.63,0,.92-1.36,1.4-2.27.78"/><polyline class="cls-1" points="172.1 89.43 172.1 144.8 177.03 144.8 177.03 89.43"/><rect class="cls-1" x="169.76" y="144.8" width="9.76" height="1.27" rx="0.07"/><path class="cls-1" d="M196.05,89.26s-2.18.83-2.18-1.2c0-.86,1-1.43,1.85-1.43h6.21c1.75,0,1.75,1,1.75,1.63,0,.92-1.36,1.4-2.28.78"/><polyline class="cls-1" points="196.47 89.43 196.47 144.8 201.4 144.8 201.4 89.43"/><rect class="cls-1" x="194.13" y="144.8" width="9.76" height="1.27" rx="0.07"/><path class="cls-1" d="M217.47,89.26s-2.19.83-2.19-1.2c0-.86,1-1.43,1.86-1.43h6.21c1.74,0,1.74,1,1.74,1.63,0,.92-1.36,1.4-2.27.78"/><polyline class="cls-1" points="217.89 89.43 217.89 144.8 222.82 144.8 222.82 89.43"/><rect class="cls-1" x="215.55" y="144.8" width="9.76" height="1.27" rx="0.07"/><path class="cls-1" d="M239.71,89.26s-2.18.83-2.18-1.2c0-.86,1-1.43,1.85-1.43h6.21c1.75,0,1.75,1,1.75,1.63,0,.92-1.36,1.4-2.28.78"/><polyline class="cls-1" points="240.13 89.43 240.13 144.8 245.06 144.8 245.06 89.43"/><rect class="cls-1" x="237.79" y="144.8" width="9.76" height="1.27" rx="0.07"/><path class="cls-1" d="M250.92,89.26s-2.19.83-2.19-1.2c0-.86,1-1.43,1.86-1.43h6.21c1.74,0,1.74,1,1.74,1.63,0,.92-1.35,1.4-2.27.78"/><polyline class="cls-1" points="251.34 89.43 251.34 144.8 256.27 144.8 256.27 89.43"/><rect class="cls-1" x="249" y="144.8" width="9.76" height="1.27" rx="0.07"/><polyline class="cls-1" points="18.37 86.63 89.54 86.63 89.54 91.25"/><line class="cls-1" x1="20.03" y1="91.25" x2="116.83" y2="91.25"/><line class="cls-1" x1="21.86" y1="96.41" x2="116.83" y2="96.41"/><line class="cls-1" x1="23.19" y1="100.23" x2="116.83" y2="100.23"/><rect class="cls-1" x="89.79" y="88.03" width="4.24" height="1.4"/><polyline class="cls-1" points="122.41 35.47 122.41 43.09 122.96 43.09 186.56 22.75 186.56 43.09 130.44 61.99 130.44 54.51 94.03 54.51 94.03 91.25"/><polygon class="cls-1" points="21.2 120.27 32.34 120.27 30.76 123.18 30.76 126.01 22.53 126.01 22.53 123.14 21.2 120.27"/><polyline class="cls-1" points="23.64 126.01 23.64 129.61 29.79 129.61 29.79 126.01"/><rect class="cls-1" x="24.19" y="129.61" width="5.04" height="19.45"/><polygon class="cls-1" points="41.26 120.27 52.4 120.27 50.82 123.18 50.82 126.01 42.59 126.01 42.59 123.14 41.26 120.27"/><polyline class="cls-1" points="43.7 126.01 43.7 129.61 49.85 129.61 49.85 126.01"/><rect class="cls-1" x="44.25" y="129.61" width="5.04" height="19.45"/><polygon class="cls-1" points="61.44 120.27 72.58 120.27 71 123.18 71 126.01 62.77 126.01 62.77 123.14 61.44 120.27"/><polyline class="cls-1" points="63.88 126.01 63.88 129.61 70.03 129.61 70.03 126.01"/><rect class="cls-1" x="64.43" y="129.61" width="5.04" height="19.45"/><polygon class="cls-1" points="81.72 120.27 103.67 120.27 102.09 123.18 102.09 126.01 83.05 126.01 83.05 123.14 81.72 120.27"/><rect class="cls-1" x="84.72" y="126.01" width="15.71" height="23.06"/><rect class="cls-1" x="46.03" y="132.83" width="1.61" height="16.24" rx="0.08"/><rect class="cls-1" x="25.91" y="132.83" width="1.61" height="16.24" rx="0.08"/><rect class="cls-1" x="66.2" y="132.83" width="1.61" height="16.24" rx="0.08"/><rect class="cls-1" x="86.49" y="132.83" width="1.61" height="16.24" rx="0.08"/><rect class="cls-1" x="97.08" y="132.49" width="1.61" height="16.24" rx="0.08"/><polyline class="cls-1" points="84.55 129.61 87.29 129.61 87.29 127.17"/><polyline class="cls-1" points="100.62 129.61 97.88 129.61 97.88 127.17"/><path class="cls-1" d="M29.46,120.27a9,9,0,0,1,7.2-8.06c3,1.33,6.6,1.88,7,8.06"/><path class="cls-1" d="M27,119.8s1.05-9,9.64-10.36c3.38.83,9.37,3.71,9.81,10.83"/><path class="cls-1" d="M49.94,120.27a9,9,0,0,1,7.2-8.06c3,1.33,6.6,1.88,7,8.06"/><path class="cls-1" d="M47.5,119.8s1-9,9.64-10.36c3.38.83,9.37,3.71,9.81,10.83"/><path class="cls-1" d="M69.76,120.27a9,9,0,0,1,7.2-8.06c3,1.33,6.6,1.88,7,8.06"/><path class="cls-1" d="M67.32,119.8s1.05-9,9.64-10.36c3.38.83,9.37,3.71,9.81,10.83"/><rect x="36.11" y="107.38" width="1.27" height="5.6" rx="0.07"/><rect x="56.26" y="107.38" width="1.27" height="5.6" rx="0.07"/><rect x="76.41" y="107.38" width="1.27" height="5.6" rx="0.07"/><path class="cls-1" d="M100.26,120.27a9,9,0,0,1,7.21-8.06c3,1.33,6.59,1.88,7,8.06"/><path class="cls-1" d="M97.82,119.8s1.06-9,9.65-10.36c3.38.83,9.37,3.71,9.81,10.83"/><rect x="106.91" y="107.38" width="1.27" height="5.6" rx="0.07"/><path class="cls-1" d="M29.46,170.43a9,9,0,0,1,7.2-8.07c3,1.33,6.6,1.89,7,8.07"/><path class="cls-1" d="M27,170s1.05-9,9.64-10.37c3.38.83,9.37,3.72,9.81,10.84"/><path class="cls-1" d="M49.94,170.43a9,9,0,0,1,7.2-8.07c3,1.33,6.6,1.89,7,8.07"/><path class="cls-1" d="M47.5,170s1-9,9.64-10.37c3.38.83,9.37,3.72,9.81,10.84"/><path class="cls-1" d="M69.76,170.43a9,9,0,0,1,7.2-8.07c3,1.33,6.6,1.89,7,8.07"/><path class="cls-1" d="M67.32,170s1.05-9,9.64-10.37c3.38.83,9.37,3.72,9.81,10.84"/><rect x="36.11" y="157.54" width="1.27" height="5.6" rx="0.07"/><rect x="56.26" y="157.54" width="1.27" height="5.6" rx="0.07"/><rect x="76.41" y="157.54" width="1.27" height="5.6" rx="0.07"/><path class="cls-1" d="M134.07,170.43s.31-6.63,6.73-8.07c2.79,1.33,6.16,1.89,6.57,8.07"/><path class="cls-1" d="M131.79,170s1-9,9-10.37c3.15.83,8.74,3.72,9.16,10.84"/><path class="cls-1" d="M157,170.43s.32-6.63,6.86-8.07c2.85,1.33,6.28,1.89,6.7,8.07"/><path class="cls-1" d="M154.71,170s1-9,9.18-10.37c3.22.83,8.92,3.72,9.34,10.84"/><path class="cls-1" d="M179.28,170.43a9,9,0,0,1,7.2-8.07c3,1.33,6.6,1.89,7,8.07"/><path class="cls-1" d="M176.84,170s1-9,9.64-10.37c3.38.83,9.37,3.72,9.81,10.84"/><rect x="140.28" y="157.54" width="1.19" height="5.6" rx="0.06"/><rect x="163.05" y="157.54" width="1.21" height="5.6" rx="0.06"/><rect x="185.93" y="157.54" width="1.27" height="5.6" rx="0.07"/><path class="cls-1" d="M202.44,170.43s.32-6.63,6.88-8.07c2.86,1.33,6.3,1.89,6.72,8.07"/><path class="cls-1" d="M200.12,170s1-9,9.2-10.37c3.23.83,8.94,3.72,9.36,10.84"/><rect x="208.79" y="157.54" width="1.22" height="5.6" rx="0.06"/><path class="cls-1" d="M225.15,170.43s.32-6.63,6.87-8.07c2.86,1.33,6.3,1.89,6.72,8.07"/><path class="cls-1" d="M222.82,170s1-9,9.2-10.37c3.23.83,8.94,3.72,9.37,10.84"/><rect x="231.5" y="157.54" width="1.22" height="5.6" rx="0.06"/><path class="cls-1" d="M100.26,170.43a9,9,0,0,1,7.21-8.07c3,1.33,6.59,1.89,7,8.07"/><path class="cls-1" d="M97.82,170s1.06-9,9.65-10.37c3.38.83,9.37,3.72,9.81,10.84"/><rect x="106.91" y="157.54" width="1.27" height="5.6" rx="0.07"/><path class="cls-1" d="M117.64,120.27h-6.32a8.36,8.36,0,0,1,1.75,5.4h4.57Z"/><polyline class="cls-1" points="113.44 125.84 113.44 129.61 117.64 129.61"/><line class="cls-1" x1="114.06" y1="129.61" x2="114.06" y2="147.37"/><line class="cls-1" x1="102.68" y1="122.1" x2="112.54" y2="122.1"/><line class="cls-1" x1="19.59" y1="149.07" x2="110.6" y2="149.07"/><polyline class="cls-1" points="20.7 152.06 111.71 152.06 113.44 151.17 260.25 151.17 261.86 152.06 352.87 152.06"/><line class="cls-1" x1="21.5" y1="154.5" x2="112.51" y2="154.5"/><line class="cls-1" x1="22.3" y1="156.49" x2="113.32" y2="156.49"/><polygon class="cls-1" points="20.7 172.57 19.59 169.82 32.5 169.82 31.34 172.57 20.7 172.57"/><polygon class="cls-1" points="40.68 172.57 39.57 169.82 52.48 169.82 51.32 172.57 40.68 172.57"/><polygon class="cls-1" points="60.47 172.57 59.36 169.82 72.27 169.82 71.11 172.57 60.47 172.57"/><polygon class="cls-1" points="145.57 172.57 144.46 169.82 160.21 169.82 159.04 172.57 145.57 172.57"/><polygon class="cls-1" points="167.8 172.57 166.69 169.82 182.44 169.82 181.28 172.57 167.8 172.57"/><polygon class="cls-1" points="191.75 172.57 190.64 169.82 206.39 169.82 205.23 172.57 191.75 172.57"/><polygon class="cls-1" points="214.09 172.57 212.99 169.82 228.74 169.82 227.57 172.57 214.09 172.57"/><polygon class="cls-1" points="236.7 172.57 235.16 169.82 261.81 169.82 259.89 172.57 236.7 172.57"/><polygon class="cls-1" points="113.09 172.57 111.32 169.82 138.3 169.82 136.26 172.57 113.09 172.57"/><polygon class="cls-1" points="81.71 172.57 79.93 169.82 103.7 169.82 101.66 172.57 81.71 172.57"/><rect class="cls-1" x="21.5" y="172.57" width="8.84" height="27.52"/><rect class="cls-1" x="41.61" y="172.57" width="8.36" height="27.52"/><rect class="cls-1" x="61.64" y="172.57" width="8.36" height="27.52"/><rect class="cls-1" x="147.11" y="172.57" width="11.18" height="27.52"/><rect class="cls-1" x="168.97" y="172.57" width="11.18" height="27.52"/><rect class="cls-1" x="193.21" y="172.57" width="11.18" height="27.52"/><rect class="cls-1" x="215.07" y="172.57" width="11.18" height="27.52"/><rect class="cls-1" x="82.31" y="172.57" width="18.7" height="27.52"/><polyline class="cls-1" points="355.2 86.63 284.03 86.63 284.03 91.25"/><line class="cls-1" x1="353.54" y1="91.25" x2="256.74" y2="91.25"/><line class="cls-1" x1="351.71" y1="96.41" x2="256.74" y2="96.41"/><line class="cls-1" x1="350.38" y1="100.23" x2="256.74" y2="100.23"/><rect class="cls-2" x="279.54" y="88.03" width="4.24" height="1.4" transform="translate(563.32 177.45) rotate(-180)"/><polygon class="cls-1" points="352.37 120.27 341.23 120.27 342.81 123.18 342.81 126.01 351.04 126.01 351.04 123.14 352.37 120.27"/><polyline class="cls-1" points="349.94 126.01 349.94 129.61 343.78 129.61 343.78 126.01"/><rect class="cls-1" x="344.34" y="129.61" width="5.04" height="19.45" transform="translate(693.72 278.68) rotate(-180)"/><polygon class="cls-1" points="332.31 120.27 321.17 120.27 322.75 123.18 322.75 126.01 330.98 126.01 330.98 123.14 332.31 120.27"/><polyline class="cls-1" points="329.87 126.01 329.87 129.61 323.72 129.61 323.72 126.01"/><rect class="cls-1" x="324.27" y="129.61" width="5.04" height="19.45" transform="translate(653.59 278.68) rotate(-180)"/><polygon class="cls-1" points="312.13 120.27 300.99 120.27 302.57 123.18 302.57 126.01 310.8 126.01 310.8 123.14 312.13 120.27"/><polyline class="cls-1" points="309.69 126.01 309.69 129.61 303.54 129.61 303.54 126.01"/><rect class="cls-1" x="304.1" y="129.61" width="5.04" height="19.45" transform="translate(613.24 278.68) rotate(-180)"/><polygon class="cls-1" points="291.85 120.27 269.9 120.27 271.48 123.18 271.48 126.01 290.52 126.01 290.52 123.14 291.85 120.27"/><rect class="cls-1" x="273.14" y="126.01" width="15.71" height="23.06" transform="translate(561.99 275.07) rotate(-180)"/><rect class="cls-1" x="325.93" y="132.83" width="1.61" height="16.24" rx="0.08" transform="translate(653.48 281.89) rotate(180)"/><rect class="cls-1" x="346.05" y="132.83" width="1.61" height="16.24" rx="0.08" transform="translate(693.72 281.89) rotate(-180)"/><rect class="cls-1" x="305.76" y="132.83" width="1.61" height="16.24" rx="0.08" transform="translate(613.13 281.89) rotate(-180)"/><rect class="cls-1" x="285.47" y="132.83" width="1.61" height="16.24" rx="0.08" transform="translate(572.55 281.89) rotate(-180)"/><rect class="cls-1" x="274.89" y="132.49" width="1.61" height="16.24" rx="0.08" transform="translate(551.38 281.23) rotate(180)"/><polyline class="cls-1" points="289.02 129.61 286.28 129.61 286.28 127.17"/><polyline class="cls-1" points="272.95 129.61 275.69 129.61 275.69 127.17"/><path class="cls-1" d="M344.11,120.27a9,9,0,0,0-7.2-8.06c-3,1.33-6.6,1.88-7,8.06"/><path class="cls-1" d="M346.55,119.8s-1.05-9-9.64-10.36c-3.38.83-9.37,3.71-9.81,10.83"/><path class="cls-1" d="M323.63,120.27a9,9,0,0,0-7.2-8.06c-3,1.33-6.6,1.88-7,8.06"/><path class="cls-1" d="M326.07,119.8s-1.05-9-9.64-10.36c-3.38.83-9.37,3.71-9.81,10.83"/><path class="cls-1" d="M303.81,120.27a9,9,0,0,0-7.2-8.06c-3,1.33-6.6,1.88-7,8.06"/><path class="cls-1" d="M306.25,119.8s-1.05-9-9.64-10.36c-3.38.83-9.37,3.71-9.81,10.83"/><rect x="336.19" y="107.38" width="1.27" height="5.6" rx="0.07" transform="translate(673.65 220.37) rotate(-180)"/><rect x="316.04" y="107.38" width="1.27" height="5.6" rx="0.07" transform="translate(633.35 220.37) rotate(-180)"/><rect x="295.89" y="107.38" width="1.27" height="5.6" rx="0.07" transform="translate(593.05 220.37) rotate(180)"/><path class="cls-1" d="M273.31,120.27a9,9,0,0,0-7.21-8.06c-3,1.33-6.59,1.88-7,8.06"/><path class="cls-1" d="M275.75,119.8s-1.06-9-9.65-10.36c-3.38.83-9.37,3.71-9.81,10.83"/><path class="cls-1" d="M344.11,170.43a9,9,0,0,0-7.2-8.07c-3,1.33-6.6,1.89-7,8.07"/><path class="cls-1" d="M346.55,170s-1.05-9-9.64-10.37c-3.38.83-9.37,3.72-9.81,10.84"/><path class="cls-1" d="M323.63,170.43a9,9,0,0,0-7.2-8.07c-3,1.33-6.6,1.89-7,8.07"/><path class="cls-1" d="M326.07,170s-1.05-9-9.64-10.37c-3.38.83-9.37,3.72-9.81,10.84"/><path class="cls-1" d="M303.81,170.43a9,9,0,0,0-7.2-8.07c-3,1.33-6.6,1.89-7,8.07"/><path class="cls-1" d="M306.25,170s-1.05-9-9.64-10.37c-3.38.83-9.37,3.72-9.81,10.84"/><rect x="336.19" y="157.54" width="1.27" height="5.6" rx="0.07" transform="matrix(-1, 0, 0, -1, 673.65, 320.68)"/><rect x="316.04" y="157.54" width="1.27" height="5.6" rx="0.07" transform="matrix(-1, 0, 0, -1, 633.35, 320.68)"/><rect x="295.89" y="157.54" width="1.27" height="5.6" rx="0.07" transform="matrix(-1, 0, 0, -1, 593.05, 320.68)"/><path class="cls-1" d="M275.75,170s-1.06-9-9.65-10.37c-3.38.83-9.37,3.72-9.81,10.84"/><line class="cls-1" x1="270.89" y1="122.1" x2="261.03" y2="122.1"/><line class="cls-1" x1="351.26" y1="156.49" x2="260.25" y2="156.49"/><polygon class="cls-1" points="352.87 172.57 353.98 169.82 341.07 169.82 342.23 172.57 352.87 172.57"/><polygon class="cls-1" points="332.89 172.57 334 169.82 321.08 169.82 322.25 172.57 332.89 172.57"/><polygon class="cls-1" points="313.1 172.57 314.21 169.82 301.3 169.82 302.46 172.57 313.1 172.57"/><polygon class="cls-1" points="291.86 172.57 293.63 169.82 269.87 169.82 271.91 172.57 291.86 172.57"/><rect class="cls-1" x="343.23" y="172.57" width="8.84" height="27.52" transform="translate(695.3 372.65) rotate(-180)"/><rect class="cls-1" x="323.61" y="172.57" width="8.36" height="27.52" transform="translate(655.57 372.65) rotate(-180)"/><rect class="cls-1" x="303.58" y="172.57" width="8.36" height="27.52" transform="translate(615.51 372.65) rotate(-180)"/><rect class="cls-1" x="272.56" y="172.57" width="18.7" height="27.52" transform="translate(563.82 372.65) rotate(-180)"/><rect class="cls-1" x="114.06" y="172.57" width="21.59" height="27.52"/><rect class="cls-1" x="237.48" y="172.57" width="21.62" height="27.52"/><rect class="cls-2" x="237.48" y="174.27" width="21.62" height="1"/><path class="cls-1" d="M178,46s4.39-3.66,5-6.1c.11-2.55,0-7.53,0-7.53h7.2v7.42c0,1.11,2.67,5.07,4.9,6.21"/><rect class="cls-2" x="186.2" y="11.12" width="0.73" height="11.92"/><path class="cls-1" d="M114.06,169.82V155.61h145s.45,15.3,0,14.82c.45-6.18,4.05-6.74,7-8.07a9,9,0,0,1,7.21,8.07"/><polyline class="cls-1" points="112.51 154.5 114.59 153.28 258.75 153.28 261.06 154.5 352.07 154.5"/><polyline class="cls-1" points="109.83 149.06 111.32 147.96 261.81 147.96 262.97 149.06 353.98 149.06"/><line class="cls-1" x1="11.39" y1="200.09" x2="365.9" y2="200.09"/><line class="cls-1" x1="11.39" y1="212.22" x2="365.9" y2="212.22"/><line class="cls-1" x1="59.36" y1="206.16" x2="325.93" y2="206.16"/></svg>