<svg id="Layer_1" data-name="Layer 1" xmlns="http://www.w3.org/2000/svg" viewBox="0 0 28.77 28.77"><defs><style>.cls-1{fill:none;}.cls-2{fill:#80d5cb;}.cls-3{fill:#fff;}</style></defs><title>income icon</title><rect id="SVGID" class="cls-1" x="-266" y="-557.05" width="783.46" height="1588.12" transform="translate(251.46 474.01) rotate(-180)"/><path class="cls-2" d="M28.77,14.52A14.39,14.39,0,1,1,14.52,0,14.38,14.38,0,0,1,28.77,14.52Z"/><path class="cls-3" d="M27.06,14.5A12.68,12.68,0,1,1,14.5,1.71,12.67,12.67,0,0,1,27.06,14.5Z"/><path class="cls-2" d="M26.37,14.5A12,12,0,1,1,14.5,2.4,12,12,0,0,1,26.37,14.5Z"/><path class="cls-3" d="M19.67,10.5a.36.36,0,0,0-.27-.1l-2,0a4.17,4.17,0,0,0-.75-1.73l2.78,0a.41.41,0,0,0,.28-.11.37.37,0,0,0,.11-.27V7.08a.37.37,0,0,0-.11-.27.33.33,0,0,0-.27-.11L9.48,6.61a.33.33,0,0,0-.27.1A.37.37,0,0,0,9.1,7l0,1.59a.4.4,0,0,0,.11.27A.42.42,0,0,0,9.46,9h1.73c1.68,0,2.74.48,3.19,1.38l-4.93,0a.41.41,0,0,0-.28.11.37.37,0,0,0-.11.27V11.9a.38.38,0,0,0,.38.38l5.1.05a2.39,2.39,0,0,1-1.24,1.48,5.35,5.35,0,0,1-2.54.49H9.41a.4.4,0,0,0-.27.11.37.37,0,0,0-.11.27l0,1.51a.39.39,0,0,0,.11.27q2.27,2.44,5.88,6.86a.34.34,0,0,0,.29.15l2.33,0a.36.36,0,0,0,.35-.21.34.34,0,0,0,0-.41c-2.29-2.87-4.1-5-5.41-6.44a6.13,6.13,0,0,0,3.3-1.28,4.52,4.52,0,0,0,1.57-2.78l2,0a.41.41,0,0,0,.28-.11.37.37,0,0,0,.11-.27V10.78A.41.41,0,0,0,19.67,10.5Z"/></svg>