<svg id="Layer_1" data-name="Layer 1" xmlns="http://www.w3.org/2000/svg" viewBox="0 0 74.85 108.2"><defs><style>.cls-1,.cls-2{fill:#d2d3ce;}.cls-2{stroke:#666;stroke-miterlimit:10;stroke-width:0.09px;}.cls-3{fill:#9e9c9b;}.cls-4{fill:#543318;}.cls-5{fill:#734f2e;}.cls-6{fill:#ffc755;}.cls-7{fill:none;stroke:#e21c24;stroke-linecap:round;stroke-linejoin:round;stroke-width:8.28px;}</style></defs><title>cancelled order</title><path class="cls-1" d="M4,46.28H58.84a0,0,0,0,1,0,0v32.3A18.21,18.21,0,0,1,40.64,96.79H22.23A18.21,18.21,0,0,1,4,78.58V46.28A0,0,0,0,1,4,46.28Z"/><ellipse class="cls-2" cx="31.64" cy="42.56" rx="31.6" ry="11.81" transform="translate(-0.7 0.53) rotate(-0.95)"/><ellipse class="cls-3" cx="32.05" cy="42.07" rx="26.05" ry="9.74" transform="translate(-0.7 0.54) rotate(-0.95)"/><path class="cls-4" d="M6.29,4.63q5.7,17,11.44,34.06a2.53,2.53,0,0,1-.49,3,7.31,7.31,0,0,0-1.39,2.58,14.52,14.52,0,0,0-.66,6.86c1.62.4,3.26.73,4.91,1a57.4,57.4,0,0,0,12,.11c.67-.12,1.35-.26,2-.41a17.84,17.84,0,0,0-1.94-5.76c-1.72-3.28-4.1-5.93-7.84-6.94a1.91,1.91,0,0,1-1.52-1.49C20.91,31.83,19,26,17,20.25L11.73,4.55a23.56,23.56,0,0,0-.93-2.64A2.46,2.46,0,0,0,7.59.56,2.54,2.54,0,0,0,6,3.64C6.05,4,6.18,4.3,6.29,4.63Z"/><path class="cls-5" d="M8.61,4.24q5.72,17,11.44,34.06a2.55,2.55,0,0,1-.48,3,7.13,7.13,0,0,0-1.4,2.57,14.55,14.55,0,0,0-.66,6.87c1.63.39,3.26.72,4.92,1a58,58,0,0,0,12,.12c.68-.12,1.35-.27,2-.42a17.81,17.81,0,0,0-1.93-5.76c-1.73-3.27-4.11-5.93-7.85-6.93a2,2,0,0,1-1.52-1.5q-2.88-8.7-5.82-17.39Q16.69,12,14.06,4.16a26.67,26.67,0,0,0-.94-2.64A2.47,2.47,0,0,0,9.91.17,2.55,2.55,0,0,0,8.29,3.26C8.37,3.59,8.5,3.91,8.61,4.24Z"/><path class="cls-4" d="M28.88,52.44c1.77-.06,3.53-.17,5.29-.33a12.13,12.13,0,0,0-.36-3.18c-1.24-5.06-5.33-8.4-9.14-7.46-3.64.89-5.7,5.36-4.79,10.17C22.88,51.94,25.88,52.25,28.88,52.44Z"/><path class="cls-6" d="M45,58c.92.6,2.19-.08,2.77-1s.78-2.06,1.32-3a1,1,0,0,1,.39-.43.77.77,0,0,1,1,.52,2.79,2.79,0,0,1,0,1.22,7.54,7.54,0,0,0,1.33,5.11,2,2,0,0,0,1,.86,1.55,1.55,0,0,0,1.66-.95,4.48,4.48,0,0,0,.28-2l-.11-5.75c-.05-2.67-.08-5.44,1-7.86a4.11,4.11,0,0,0-3.85.29A21.29,21.29,0,0,0,50,46.57c-1.81,1.47-5.61,1.59-6,3.9C43.74,51.64,43.82,57.32,45,58Z"/><line class="cls-7" x1="36.67" y1="70" x2="70.71" y2="104.06"/><line class="cls-7" x1="70.71" y1="70" x2="36.67" y2="104.06"/></svg>