<svg id="Layer_1" data-name="Layer 1" xmlns="http://www.w3.org/2000/svg" viewBox="0 0 27.14 23.06"><defs><style>.cls-1{fill:#de1c24;}.cls-2{fill:none;stroke:#e2e2e2;}.cls-2,.cls-3{stroke-miterlimit:10;}.cls-3{fill:#fff;stroke:#160e09;}</style></defs><title>sortfilter</title><path class="cls-1" d="M17.14,8.94A.88.88,0,0,1,16,8.84l-.23.21c-.34.28-.59.24-.81-.14l-.25-.46c-.43.12-.84.37-1.23-.06a2.15,2.15,0,0,0-.52,1,14.8,14.8,0,0,1-.74,2.43,9,9,0,0,1-3.06,4A12.07,12.07,0,0,1,6.5,17.16a2.13,2.13,0,0,0-.5.25.23.23,0,0,0-.11.19c0,.06.1.13.16.15a4.8,4.8,0,0,0,.76.11A11.11,11.11,0,0,0,11,17.27a9.13,9.13,0,0,0,6.34-7,2,2,0,0,0-.17-1.34"/><path class="cls-1" d="M14,8.36a2.52,2.52,0,0,0,.47-.13c.26-.1.36-.07.5.18l.23.43a.18.18,0,0,0,.31.05,3.47,3.47,0,0,1,.29-.25c.14-.11.25-.14.39,0a.55.55,0,0,0,.81,0c.09-.1.11-.18,0-.26L16.49,8a.76.76,0,0,1-.27-.74c.05-.49.09-1,.13-1.49h0a2.29,2.29,0,0,0,0-.37,5.75,5.75,0,0,0-.14-.83c0-.17-.14-.19-.3-.09a1.32,1.32,0,0,0-.53.61.6.6,0,0,0,.06.59,1.47,1.47,0,0,1,.23.94c0,.69-.2.86-.88,1a5.2,5.2,0,0,0-.86.23.28.28,0,0,0-.19.34c0,.17.18.18.31.16"/><rect class="cls-2" x="0.58" y="0.51" width="25.71" height="22.11" rx="6.49"/><line class="cls-3" x1="6.64" y1="7.46" x2="20.24" y2="18.1"/></svg>