<svg id="Layer_1" data-name="Layer 1" xmlns="http://www.w3.org/2000/svg" viewBox="0 0 25.71 22.43"><defs><style>.cls-1{fill:#ff808d;}.cls-2{fill:#fff;}</style></defs><title>sortfilter</title><rect class="cls-1" y="-0.04" width="25.71" height="22.11" rx="6.49"/><path class="cls-2" d="M16.56,8.39a.88.88,0,0,1-1.15-.1l-.23.21c-.34.28-.59.24-.81-.14l-.26-.46c-.42.12-.83.37-1.23-.06a2.22,2.22,0,0,0-.51,1,14.8,14.8,0,0,1-.74,2.43,9,9,0,0,1-3.06,4,12.14,12.14,0,0,1-2.66,1.36,2.6,2.6,0,0,0-.5.25.24.24,0,0,0-.1.19c0,.06.1.13.16.15a4.8,4.8,0,0,0,.76.11,11,11,0,0,0,4.15-.59,9.1,9.1,0,0,0,6.34-7,2,2,0,0,0-.16-1.34"/><path class="cls-2" d="M13.44,7.81a2.42,2.42,0,0,0,.46-.13c.27-.1.36-.07.5.18l.24.43c.08.13.18.16.3.05l.3-.25c.13-.11.25-.14.38,0a.57.57,0,0,0,.82,0c.09-.1.11-.18,0-.26s-.35-.26-.51-.4a.79.79,0,0,1-.28-.74c.06-.49.09-1,.14-1.49h0a2.29,2.29,0,0,0,0-.37A7.56,7.56,0,0,0,15.6,4c0-.17-.14-.19-.3-.09a1.26,1.26,0,0,0-.53.61.62.62,0,0,0,.05.59,1.48,1.48,0,0,1,.24.94c0,.69-.2.86-.88,1a5.2,5.2,0,0,0-.86.23.29.29,0,0,0-.2.34c0,.17.19.18.32.16"/></svg>