<svg id="Layer_1" data-name="Layer 1" xmlns="http://www.w3.org/2000/svg" viewBox="0 0 48.14 22.04"><defs><style>.cls-1{fill:#ff808d;}.cls-2{fill:#fff;}</style></defs><title>sortfilter</title><path class="cls-1" d="M39.42,22H8.29C3.73,22,0,18.58,0,14.35V7.81C0,3.58,3.73.12,8.29.12H39.42c4.56,0,8.29,3.46,8.29,7.69v6.54C47.71,18.58,44,22,39.42,22Z"/><path class="cls-2" d="M22.17,8.9A.88.88,0,0,1,21,8.8L20.79,9c-.34.28-.59.24-.81-.14l-.26-.46c-.42.12-.83.37-1.23-.06a2.22,2.22,0,0,0-.51,1,14.84,14.84,0,0,1-.75,2.43,9,9,0,0,1-3.05,4,12.14,12.14,0,0,1-2.66,1.36,2.6,2.6,0,0,0-.5.25.24.24,0,0,0-.1.19c0,.06.09.13.16.15a4.85,4.85,0,0,0,.75.11A11.05,11.05,0,0,0,16,17.23a9.11,9.11,0,0,0,6.34-7,2,2,0,0,0-.16-1.34"/><path class="cls-2" d="M19.05,8.32a2.42,2.42,0,0,0,.46-.13c.27-.1.36-.07.5.18l.24.43c.08.13.18.16.3,0l.3-.25c.13-.11.24-.14.38,0a.57.57,0,0,0,.82,0c.09-.1.11-.18,0-.26s-.35-.26-.51-.4a.79.79,0,0,1-.28-.74c.06-.49.09-1,.14-1.49h0a2.29,2.29,0,0,0,0-.37,7.56,7.56,0,0,0-.14-.83c-.05-.17-.14-.19-.3-.09a1.26,1.26,0,0,0-.53.61.62.62,0,0,0,.05.59,1.48,1.48,0,0,1,.24.94c0,.69-.2.86-.88,1a5.2,5.2,0,0,0-.86.23.29.29,0,0,0-.2.34c0,.17.19.18.32.16"/><path class="cls-2" d="M34.76,9.3a.88.88,0,0,1-1.15-.1l-.23.21c-.34.28-.59.24-.81-.14-.09-.15-.17-.31-.25-.46-.43.13-.84.37-1.23-.05a2.07,2.07,0,0,0-.52,1,14.51,14.51,0,0,1-.74,2.43,9,9,0,0,1-3.06,4,11.92,11.92,0,0,1-2.66,1.36,2.82,2.82,0,0,0-.49.25.23.23,0,0,0-.11.19c0,.06.1.13.16.15a4.8,4.8,0,0,0,.76.11,11.11,11.11,0,0,0,4.16-.59,9.1,9.1,0,0,0,6.33-7,2,2,0,0,0-.16-1.34"/><path class="cls-2" d="M31.64,8.72a2.52,2.52,0,0,0,.47-.13c.26-.1.36-.07.5.18l.23.43c.08.14.18.16.31.05L33.44,9c.14-.11.25-.14.39,0a.55.55,0,0,0,.81,0c.09-.1.11-.17,0-.26l-.52-.4a.76.76,0,0,1-.27-.74c0-.49.09-1,.13-1.48h0a2.29,2.29,0,0,0,0-.37A5.62,5.62,0,0,0,33.8,5c0-.18-.14-.2-.3-.1a1.37,1.37,0,0,0-.53.61.6.6,0,0,0,.06.59,1.47,1.47,0,0,1,.23.94c0,.69-.2.86-.88,1a6.42,6.42,0,0,0-.86.23.28.28,0,0,0-.19.34c0,.17.18.18.31.16"/></svg>