<svg id="Layer_1" data-name="Layer 1" xmlns="http://www.w3.org/2000/svg" viewBox="0 0 48.76 22.96"><defs><style>.cls-1{fill:none;stroke:#e2e2e2;stroke-miterlimit:10;}.cls-2{fill:#de1c24;}</style></defs><title>sortfilter</title><path class="cls-1" d="M39.82,22.45H8.69C4.13,22.45.4,19,.4,14.76V8.23C.4,4,4.13.54,8.69.54H39.82c4.56,0,8.29,3.46,8.29,7.69v6.53C48.11,19,44.38,22.45,39.82,22.45Z"/><path class="cls-2" d="M22.57,9.31a.89.89,0,0,1-1.15-.09l-.23.2c-.34.28-.59.24-.81-.14-.09-.15-.17-.31-.25-.46-.43.13-.84.37-1.23-.05a2.07,2.07,0,0,0-.52,1,14.51,14.51,0,0,1-.74,2.43,9,9,0,0,1-3.06,4,11.92,11.92,0,0,1-2.66,1.36,2.82,2.82,0,0,0-.49.25.26.26,0,0,0-.11.19.24.24,0,0,0,.16.15,6.33,6.33,0,0,0,.76.12,11.31,11.31,0,0,0,4.16-.59,9.13,9.13,0,0,0,6.33-7,2,2,0,0,0-.16-1.34"/><path class="cls-2" d="M19.45,8.73a2.06,2.06,0,0,0,.47-.13c.26-.09.35-.06.5.19l.23.42c.08.14.18.16.3,0l.3-.25c.14-.11.25-.14.38,0a.56.56,0,0,0,.82,0c.09-.09.11-.17,0-.26a6.54,6.54,0,0,1-.52-.4.78.78,0,0,1-.28-.73c.06-.5.09-1,.14-1.49h0a2.41,2.41,0,0,0,0-.38A5.86,5.86,0,0,0,21.61,5c0-.18-.14-.2-.3-.1a1.31,1.31,0,0,0-.53.61.6.6,0,0,0,.06.59,1.5,1.5,0,0,1,.23.94c0,.69-.2.86-.88,1a6.42,6.42,0,0,0-.86.23.28.28,0,0,0-.19.35c0,.17.18.17.31.15"/><path class="cls-2" d="M35.16,9.71A.86.86,0,0,1,34,9.62l-.24.2c-.34.29-.58.24-.81-.14-.09-.15-.17-.31-.25-.46-.43.13-.83.37-1.23-.05a2.1,2.1,0,0,0-.52,1,14.4,14.4,0,0,1-.74,2.42,9.05,9.05,0,0,1-3.06,4,12.25,12.25,0,0,1-2.65,1.35,3.89,3.89,0,0,0-.5.25.26.26,0,0,0-.11.2.25.25,0,0,0,.16.14,6.66,6.66,0,0,0,.76.12A11.31,11.31,0,0,0,29,18.05a9.13,9.13,0,0,0,6.34-7,2,2,0,0,0-.17-1.34"/><path class="cls-2" d="M32,9.13A2.49,2.49,0,0,0,32.51,9c.26-.1.36-.07.5.18l.23.42c.08.14.18.17.31.06l.3-.26c.13-.11.24-.14.38,0a.56.56,0,0,0,.82,0c.09-.09.1-.17,0-.26a4.81,4.81,0,0,1-.52-.4.77.77,0,0,1-.27-.73c0-.5.09-1,.13-1.49h0c0-.13,0-.25,0-.38a7.85,7.85,0,0,0-.15-.82c0-.18-.13-.2-.29-.1a1.31,1.31,0,0,0-.53.61.57.57,0,0,0,0,.59,1.52,1.52,0,0,1,.23,1c0,.68-.2.85-.87,1a7.92,7.92,0,0,0-.87.23.29.29,0,0,0-.19.35c0,.17.18.18.31.15"/></svg>