<svg id="Layer_1" data-name="Layer 1" xmlns="http://www.w3.org/2000/svg" viewBox="0 0 64.85 23.56"><defs><style>.cls-1{fill:none;stroke:#e2e2e2;stroke-miterlimit:10;}.cls-2{fill:#de1c24;}</style></defs><title>sortfilter</title><path class="cls-1" d="M56,23H8.66A8.11,8.11,0,0,1,.37,15.16V8.48A8.11,8.11,0,0,1,8.66.61H56a8.11,8.11,0,0,1,8.29,7.87v6.68A8.11,8.11,0,0,1,56,23Z"/><path class="cls-2" d="M22.54,9.38a.89.89,0,0,1-1.15-.09l-.23.2c-.34.28-.59.24-.81-.14l-.26-.46c-.42.13-.83.37-1.23-.05a2.14,2.14,0,0,0-.51,1,14.54,14.54,0,0,1-.75,2.43,9,9,0,0,1-3.05,4,12.14,12.14,0,0,1-2.66,1.36,3.33,3.33,0,0,0-.5.25.24.24,0,0,0-.1.19c0,.06.09.13.16.15a4.85,4.85,0,0,0,.75.11,10.85,10.85,0,0,0,4.16-.59,9.11,9.11,0,0,0,6.34-7,2,2,0,0,0-.16-1.34"/><path class="cls-2" d="M19.42,8.8a2.42,2.42,0,0,0,.46-.13c.27-.09.36-.07.5.18l.24.43c.08.14.18.16.3.05l.3-.25c.13-.11.24-.14.38,0a.57.57,0,0,0,.82,0c.09-.09.11-.17,0-.26s-.35-.26-.51-.4a.78.78,0,0,1-.28-.73c.06-.5.09-1,.14-1.49h0a2.29,2.29,0,0,0,0-.37A7,7,0,0,0,21.58,5c0-.18-.14-.2-.3-.1a1.31,1.31,0,0,0-.53.61.62.62,0,0,0,.05.59,1.48,1.48,0,0,1,.24.94c0,.69-.2.86-.88,1a6.42,6.42,0,0,0-.86.23.3.3,0,0,0-.2.35c0,.16.19.17.32.15"/><path class="cls-2" d="M35.13,9.78A.89.89,0,0,1,34,9.69l-.23.2c-.34.28-.59.24-.81-.14-.09-.15-.17-.31-.25-.46-.43.13-.84.37-1.23,0a2.1,2.1,0,0,0-.52,1,14.69,14.69,0,0,1-.74,2.42,9,9,0,0,1-3.06,4A11.92,11.92,0,0,1,24.48,18a2.82,2.82,0,0,0-.49.25.26.26,0,0,0-.11.19.24.24,0,0,0,.16.15,6.33,6.33,0,0,0,.76.12A11.31,11.31,0,0,0,29,18.12a9.13,9.13,0,0,0,6.33-7,2,2,0,0,0-.16-1.34"/><path class="cls-2" d="M32,9.2a1.93,1.93,0,0,0,.47-.13c.26-.09.36-.06.5.19l.23.42c.08.14.18.16.31.05l.29-.25c.14-.11.25-.14.39,0a.55.55,0,0,0,.81,0c.09-.09.11-.17,0-.26a6.54,6.54,0,0,1-.52-.4.76.76,0,0,1-.27-.73c0-.5.09-1,.13-1.49h0a2.41,2.41,0,0,0,0-.38,5.86,5.86,0,0,0-.14-.82c0-.18-.14-.2-.3-.1a1.37,1.37,0,0,0-.53.61.6.6,0,0,0,.06.59,1.5,1.5,0,0,1,.23.94c0,.69-.2.86-.88,1a8.37,8.37,0,0,0-.86.23.28.28,0,0,0-.19.35c0,.17.18.17.31.15"/><path class="cls-2" d="M47.55,9.78a.89.89,0,0,1-1.15-.09l-.23.2c-.34.28-.59.24-.81-.14-.09-.15-.17-.31-.25-.46-.43.13-.84.37-1.23,0a2.1,2.1,0,0,0-.52,1,14.69,14.69,0,0,1-.74,2.42,9,9,0,0,1-3.06,4A11.92,11.92,0,0,1,36.9,18a2.82,2.82,0,0,0-.49.25.26.26,0,0,0-.11.19.24.24,0,0,0,.16.15,6.33,6.33,0,0,0,.76.12,11.31,11.31,0,0,0,4.16-.59,9.16,9.16,0,0,0,6.34-7,2,2,0,0,0-.17-1.34"/><path class="cls-2" d="M44.43,9.2a1.93,1.93,0,0,0,.47-.13c.26-.09.36-.06.5.19l.23.42c.08.14.18.16.31.05l.3-.25c.13-.11.24-.14.38,0a.55.55,0,0,0,.81,0c.1-.09.11-.17,0-.26a6.54,6.54,0,0,1-.52-.4.78.78,0,0,1-.27-.73c0-.5.09-1,.13-1.49h0a2.41,2.41,0,0,0,0-.38,5.86,5.86,0,0,0-.14-.82c0-.18-.14-.2-.29-.1a1.26,1.26,0,0,0-.53.61.57.57,0,0,0,0,.59,1.5,1.5,0,0,1,.23.94c0,.69-.2.86-.88,1a8.37,8.37,0,0,0-.86.23.29.29,0,0,0-.19.35c0,.17.18.17.31.15"/></svg>