<svg id="Layer_1" data-name="Layer 1" xmlns="http://www.w3.org/2000/svg" viewBox="0 0 53.45 53.24"><defs><style>.cls-1{fill:#e21c24;}</style></defs><title>CART PAGE</title><path class="cls-1" d="M26.29,51.42a5.33,5.33,0,0,1-3-1.77c-.68-.69-1.4-1.33-2.08-2a1.7,1.7,0,0,0-1.59-.49c-1.16.18-2.33.35-3.5.5a4.13,4.13,0,0,1-4.88-3.71c-.19-1.12-.39-2.24-.58-3.35a1.68,1.68,0,0,0-1-1.31c-1.07-.54-2.12-1.11-3.17-1.68a4.11,4.11,0,0,1-1.85-5.67c.52-1.08,1-2.15,1.58-3.22a1.72,1.72,0,0,0,0-1.66C5.69,26,5.18,24.93,4.67,23.86a4.11,4.11,0,0,1,1.88-5.73c1-.55,2-1.11,3.08-1.63a1.76,1.76,0,0,0,1-1.42c.19-1.18.38-2.36.62-3.53a4.12,4.12,0,0,1,5-3.42c1.16.18,2.33.34,3.5.5a1.55,1.55,0,0,0,1.38-.46l2.64-2.56a4.12,4.12,0,0,1,6,0c.86.83,1.73,1.65,2.58,2.5a1.75,1.75,0,0,0,1.63.5c1.16-.19,2.33-.37,3.5-.5a4.11,4.11,0,0,1,4.83,3.61c.2,1.12.4,2.23.58,3.35a1.77,1.77,0,0,0,1,1.43c1,.51,2,1.07,3,1.61a4.13,4.13,0,0,1,1.88,5.83c-.49,1-1,2-1.48,3a1.84,1.84,0,0,0,0,1.83c.53,1,1,2.09,1.53,3.14A4.11,4.11,0,0,1,47,37.59c-1,.56-2.07,1.13-3.13,1.65a1.84,1.84,0,0,0-1,1.47c-.18,1.16-.38,2.32-.61,3.48a4.13,4.13,0,0,1-5,3.44c-1.17-.19-2.33-.34-3.5-.51a1.57,1.57,0,0,0-1.39.45c-.71.7-1.45,1.37-2.14,2.08a5.33,5.33,0,0,1-3,1.77ZM38,45a1.37,1.37,0,0,0,1.51-1.14c.2-1.05.43-2.1.55-3.17a4.73,4.73,0,0,1,2.9-4c.93-.42,1.82-.94,2.73-1.43a1.41,1.41,0,0,0,.69-2.1c-.52-1.08-1-2.15-1.58-3.22a4.25,4.25,0,0,1,0-4c.53-1,1-2.09,1.54-3.14a1.45,1.45,0,0,0-.74-2.23l-3.16-1.67a4.1,4.1,0,0,1-2.22-3c-.24-1.28-.45-2.56-.69-3.84a1.39,1.39,0,0,0-1.69-1.22c-1.17.17-2.34.33-3.5.51a4.34,4.34,0,0,1-4-1.27c-.81-.81-1.64-1.6-2.47-2.4a1.44,1.44,0,0,0-2.32,0L23,10.13a4.05,4.05,0,0,1-3.47,1.2c-1.28-.17-2.55-.35-3.82-.54A1.41,1.41,0,0,0,13.94,12c-.19,1-.41,2-.52,3a4.76,4.76,0,0,1-2.93,4.08c-.91.41-1.79.93-2.68,1.4a1.43,1.43,0,0,0-.7,2.14c.52,1.08,1,2.15,1.57,3.22a4.17,4.17,0,0,1,0,4C8.16,30.91,7.65,32,7.13,33a1.43,1.43,0,0,0,.72,2.2c1,.56,2.08,1.12,3.12,1.66a4.25,4.25,0,0,1,2.35,3.31c.18,1.16.4,2.32.61,3.48A1.43,1.43,0,0,0,15.75,45l3.5-.51a4.36,4.36,0,0,1,3.89,1.31c.8.8,1.63,1.58,2.44,2.36a1.44,1.44,0,0,0,2.32,0c.8-.78,1.63-1.54,2.41-2.34a4.41,4.41,0,0,1,4.18-1.31C35.68,44.69,36.89,44.82,38,45Z"/><path class="cls-1" d="M37.13,18.94c-.12.27-.23.55-.37.81a1.65,1.65,0,0,1-.31.34L19,37.58a1.64,1.64,0,0,1-1.19.61,1.31,1.31,0,0,1-1.19-.73A1.29,1.29,0,0,1,16.7,36c.1-.13.23-.25.34-.37L34.53,18.17a1.62,1.62,0,0,1,1.19-.61A1.46,1.46,0,0,1,37.13,18.94Z"/><path class="cls-1" d="M21.29,25.6a5,5,0,1,1,5-4.94A5,5,0,0,1,21.29,25.6Zm0-7.22a2.26,2.26,0,0,0-2.28,2.22,2.31,2.31,0,0,0,2.27,2.3,2.28,2.28,0,0,0,2.25-2.26A2.25,2.25,0,0,0,21.33,18.38Z"/><path class="cls-1" d="M32.19,30.15a5,5,0,1,1-5,5A5,5,0,0,1,32.19,30.15Zm0,7.22a2.26,2.26,0,1,0-2.24-2.26A2.26,2.26,0,0,0,32.16,37.37Z"/></svg>