<svg id="Layer_1" data-name="Layer 1" xmlns="http://www.w3.org/2000/svg" viewBox="0 0 30.55 29.27"><defs><style>.cls-1{fill:#fff;}</style></defs><title>advance order</title><path class="cls-1" d="M7.85,4.66c0,.6,0,1.2,0,1.79A1.88,1.88,0,0,0,7.93,7a1.93,1.93,0,0,0,3.79-.48V4.66h7.13v.15c0,.55,0,1.1,0,1.65a1.93,1.93,0,0,0,3.83.38,2.56,2.56,0,0,0,0-.39V4.67l.06,0c.77,0,1.54,0,2.31,0a2.24,2.24,0,0,1,2.1,2.18V24.23a2.27,2.27,0,0,1-1.61,2.25,2.35,2.35,0,0,1-.64.09H5.63a2.27,2.27,0,0,1-2.25-2.21V7A2.26,2.26,0,0,1,5.17,4.71a2,2,0,0,1,.49-.06H7.85ZM5.2,11.11V23.57a1.14,1.14,0,0,0,1.2,1.21H24.15a1.14,1.14,0,0,0,1.22-1.22V11.11Z"/><path class="cls-1" d="M10.68,5.09V6.43a.9.9,0,1,1-1.79,0V3.74a.9.9,0,1,1,1.79,0Z"/><path class="cls-1" d="M21.67,5.09V6.43a.89.89,0,1,1-1.78,0V3.74a.89.89,0,1,1,1.78,0V5.09Z"/><path class="cls-1" d="M10.22,20.42v2H7.48v-2Z"/><path class="cls-1" d="M14.5,20.42v2H11.77v-2Z"/><path class="cls-1" d="M11.77,19v-2H14.5v2Z"/><path class="cls-1" d="M10.22,16.93v2H7.49v-2Z"/><path class="cls-1" d="M10.21,15.45H7.49v-2h2.72Z"/><path class="cls-1" d="M11.77,15.45v-2H14.5v2Z"/><path class="cls-1" d="M19.22,21.35a.27.27,0,0,1,.2.07.21.21,0,0,1,.07.18v.46H16.41v-.25a.35.35,0,0,1,0-.17.44.44,0,0,1,.1-.15l1.36-1.37c.11-.11.22-.22.31-.33a2,2,0,0,0,.22-.31,1.3,1.3,0,0,0,.14-.32,1.14,1.14,0,0,0,.05-.33.88.88,0,0,0-.05-.29.46.46,0,0,0-.13-.2.57.57,0,0,0-.21-.13.71.71,0,0,0-.26,0,.75.75,0,0,0-.26,0,.56.56,0,0,0-.2.11.81.81,0,0,0-.16.16.67.67,0,0,0-.09.21.33.33,0,0,1-.13.18.38.38,0,0,1-.25,0l-.4-.08a1.6,1.6,0,0,1,.18-.56,1.49,1.49,0,0,1,.33-.41,1.35,1.35,0,0,1,.46-.24,1.73,1.73,0,0,1,.56-.09,1.7,1.7,0,0,1,.57.1,1.14,1.14,0,0,1,.44.26,1,1,0,0,1,.28.4,1.27,1.27,0,0,1,.11.52,1.34,1.34,0,0,1-.08.46,2.17,2.17,0,0,1-.19.41,3.12,3.12,0,0,1-.29.37l-.34.36-1,1,.29-.07a1.37,1.37,0,0,1,.28,0Z"/><path class="cls-1" d="M23,21.49v.57H20.5v-.57h.91V18.87c0-.1,0-.21,0-.32l-.64.54-.11.06h-.1a.19.19,0,0,1-.09,0s0,0-.06-.05l-.24-.33,1.37-1.16h.63v3.92Z"/></svg>