<svg width="87" height="149" viewBox="0 0 87 149" fill="none" xmlns="http://www.w3.org/2000/svg">
<path d="M59.0543 27.7346C51.4081 27.7346 45.291 22.4367 44.5264 15.8144H73.5823C72.6265 22.4367 66.5095 27.7346 59.0543 27.7346ZM35.9243 12.6688H44.3352H73.3911C73.3911 4.5564 66.5095 -0.0792386 58.8632 0.0863197C52.555 0.0863197 47.0114 3.89416 45.0999 9.19203H35.9243V12.5032V12.6688ZM8.9712 51.7405C4.38344 51.7405 0.369141 54.7206 0.369141 59.0251C0.369141 63.3296 4.19228 66.3097 8.9712 66.3097V51.7405ZM49.3053 67.4686V77.4021H38.0271L40.5121 142.467C40.5121 146.109 43.9529 148.923 48.1584 148.923C52.3638 148.923 55.8047 145.943 55.8047 142.301V90.8123H59.6278V142.301C59.6278 145.943 63.0686 148.923 67.2741 148.923C71.2884 148.923 74.7292 146.274 74.9204 142.632L78.5523 67.4686H49.4965H49.3053ZM46.438 64.1574H75.8762C77.7877 64.1574 79.5081 62.9985 80.0816 61.3429L86.5809 39.4892C87.1544 37.3369 86.5809 34.8536 84.6694 33.198C83.1401 31.708 80.8462 31.0457 78.5523 31.0457L41.4679 30.8802C38.0271 30.8802 34.9686 32.8669 34.0128 35.6814L31.7189 42.3037H49.4965V50.5816H64.0244L67.0829 41.9726C67.4652 40.9792 68.6122 40.4826 69.568 40.8137C70.7149 41.1448 71.2884 42.1381 70.9061 42.9659L66.8918 54.0583H46.6291C43.7618 54.0583 41.2767 55.7139 40.7033 58.0317C39.9386 61.3429 42.806 64.1574 46.438 64.1574ZM45.4822 45.7804H12.7943V73.9253H45.4822V67.303C40.5121 66.9719 36.4978 63.3296 36.4978 59.0251C36.4978 54.555 40.5121 51.0783 45.4822 50.7472V45.7804Z" fill="white"/>
</svg>
