<svg width="88" height="149" viewBox="0 0 88 149" fill="none" xmlns="http://www.w3.org/2000/svg">
<path d="M59.4723 27.7346C51.826 27.7346 45.709 22.4367 44.9444 15.8144H74.0002C73.0444 22.4367 66.9274 27.7346 59.4723 27.7346ZM36.3423 12.6688H44.7532H73.8091C73.8091 4.5564 66.9274 -0.0792386 59.2811 0.0863197C52.973 0.0863197 47.4294 3.89416 45.5178 9.19203H36.3423V12.5032V12.6688ZM9.38917 51.7405C4.80141 51.7405 0.787109 54.7206 0.787109 59.0251C0.787109 63.3296 4.61025 66.3097 9.38917 66.3097V51.7405ZM49.7233 67.4686V77.4021H38.445L40.9301 142.467C40.9301 146.109 44.3709 148.923 48.5764 148.923C52.7818 148.923 56.2226 145.943 56.2226 142.301V90.8123H60.0458V142.301C60.0458 145.943 63.4866 148.923 67.6921 148.923C71.7063 148.923 75.1472 146.274 75.3383 142.632L78.9703 67.4686H49.9145H49.7233ZM46.8559 64.1574H76.2941C78.2057 64.1574 79.9261 62.9985 80.4996 61.3429L86.9989 39.4892C87.5724 37.3369 86.9989 34.8536 85.0873 33.198C83.5581 31.708 81.2642 31.0457 78.9703 31.0457L41.8859 30.8802C38.445 30.8802 35.3865 32.8669 34.4307 35.6814L32.1369 42.3037H49.9145V50.5816H64.4424L67.5009 41.9726C67.8832 40.9792 69.0302 40.4826 69.9859 40.8137C71.1329 41.1448 71.7064 42.1381 71.324 42.9659L67.3097 54.0583H47.0471C44.1797 54.0583 41.6947 55.7139 41.1212 58.0317C40.3566 61.3429 43.224 64.1574 46.8559 64.1574ZM45.9002 45.7804H13.2123V73.9253H45.9002V67.303C40.9301 66.9719 36.9158 63.3296 36.9158 59.0251C36.9158 54.555 40.9301 51.0783 45.9002 50.7472V45.7804Z" fill="#F85266"/>
</svg>
