<?xml version="1.0" standalone="no"?>
<!DOCTYPE svg PUBLIC "-//W3C//DTD SVG 20010904//EN"
 "http://www.w3.org/TR/2001/REC-SVG-20010904/DTD/svg10.dtd">
<svg version="1.0" xmlns="http://www.w3.org/2000/svg"
 width="531.000000pt" height="52.000000pt" viewBox="0 0 531.000000 52.000000"
 preserveAspectRatio="xMidYMid meet">

<g transform="translate(0.000000,52.000000) scale(0.100000,-0.100000)"
fill="#F85266" stroke="none">
<path d="M324 445 c-9 -23 3 -45 24 -45 29 0 48 26 32 45 -7 8 -21 15 -32 15
-10 0 -21 -7 -24 -15z"/>
<path d="M2957 423 c-9 -10 -32 -17 -49 -18 -27 0 -36 -6 -48 -32 -8 -17 -26
-40 -40 -51 -22 -17 -23 -23 -12 -46 8 -18 9 -34 1 -53 -9 -24 -6 -30 20 -55
17 -16 31 -38 31 -48 0 -20 40 -38 58 -26 5 3 21 -3 35 -14 31 -25 39 -25 62
0 12 14 25 18 42 14 27 -7 53 11 53 37 0 10 11 26 25 35 25 17 34 57 15 69 -7
4 -7 12 0 25 17 32 12 60 -15 72 -16 7 -25 19 -25 33 0 29 -24 48 -50 40 -13
-4 -29 1 -46 14 -32 25 -35 26 -57 4z m17 -95 c16 -26 -4 -53 -40 -53 -23 0
-30 5 -32 23 -7 47 47 69 72 30z m96 -6 c0 -13 -144 -152 -158 -152 -22 0 -13
14 60 87 65 66 98 87 98 65z m-10 -107 c10 -12 10 -21 2 -40 -13 -29 -43 -33
-66 -9 -19 18 -19 20 -6 45 13 23 52 25 70 4z"/>
<path d="M2922 308 c5 -15 28 -18 29 -3 0 6 -7 12 -17 13 -10 3 -15 -1 -12
-10z"/>
<path d="M3016 203 c-11 -11 -6 -23 9 -23 8 0 15 4 15 9 0 13 -16 22 -24 14z"/>
<path d="M1837 393 c-12 -11 -7 -33 8 -39 20 -8 45 13 38 32 -5 14 -34 19 -46
7z"/>
<path d="M311 372 c-5 -10 -13 -42 -17 -70 -6 -51 -6 -52 19 -52 14 0 28 -4
32 -9 8 -15 -6 -91 -16 -85 -5 3 -7 10 -4 15 4 5 -18 9 -49 9 -44 0 -57 -4
-66 -19 -16 -31 -12 -51 17 -82 32 -34 68 -38 83 -9 9 17 21 20 71 20 51 0 66
-4 91 -25 27 -23 33 -24 52 -12 14 9 22 27 24 51 3 29 -1 38 -20 47 -23 11
-78 87 -78 108 0 6 7 11 15 11 9 0 15 9 15 25 0 21 -5 25 -30 25 -39 0 -86 24
-100 50 -13 25 -26 25 -39 2z m74 -74 c25 -11 26 -14 23 -86 -2 -53 -7 -77
-17 -80 -11 -4 -12 9 -6 66 7 71 7 71 -19 78 -14 3 -26 12 -26 20 0 17 11 18
45 2z m150 -213 c0 -24 -30 -32 -51 -14 -14 12 -14 14 2 26 25 18 49 12 49
-12z m-237 -7 c-6 -17 -50 -17 -55 0 -3 8 6 12 27 12 21 0 30 -4 28 -12z"/>
<path d="M3523 380 c-12 -5 -25 -21 -29 -35 -3 -14 -10 -25 -15 -25 -5 0 -9
-9 -9 -20 0 -11 5 -20 10 -20 6 0 10 -27 10 -60 0 -57 1 -60 25 -60 24 0 25 3
25 60 0 33 4 60 10 60 14 0 12 37 -2 43 -10 4 -10 7 0 18 13 14 17 49 5 48 -5
0 -18 -4 -30 -9z"/>
<path d="M3634 380 c-38 -15 -52 -59 -46 -144 4 -72 6 -76 28 -76 23 0 24 4
24 60 0 47 3 60 15 60 8 0 15 9 15 20 0 11 -7 20 -15 20 -8 0 -15 5 -15 10 0
6 7 13 15 16 8 4 15 15 15 25 0 21 -5 22 -36 9z"/>
<path d="M4757 383 c-12 -11 -7 -33 8 -39 20 -8 45 13 38 32 -5 14 -34 19 -46
7z"/>
<path d="M1750 275 l0 -105 25 0 25 0 0 105 0 105 -25 0 -25 0 0 -105z"/>
<path d="M650 270 l0 -100 25 0 c23 0 25 4 25 40 0 38 2 40 30 40 23 0 30 4
30 20 0 16 -7 20 -30 20 -25 0 -30 4 -30 25 0 23 4 25 40 25 29 0 40 4 40 15
0 12 -14 15 -65 15 l-65 0 0 -100z"/>
<path d="M1360 270 l0 -100 44 0 c62 0 104 18 121 51 24 45 19 87 -14 120 -26
26 -36 29 -90 29 l-61 0 0 -100z m118 48 c17 -17 15 -68 -5 -90 -9 -10 -27
-18 -40 -18 -22 0 -23 4 -23 60 0 59 0 60 28 60 15 0 33 -5 40 -12z"/>
<path d="M3323 363 c-12 -2 -34 -18 -48 -34 -34 -41 -34 -97 -1 -136 21 -24
32 -28 76 -28 44 0 55 4 76 28 64 74 -5 188 -103 170z m75 -75 c25 -53 -25
-106 -76 -79 -28 15 -36 58 -17 88 23 34 75 29 93 -9z"/>
<path d="M4670 265 l0 -105 25 0 25 0 0 105 0 105 -25 0 -25 0 0 -105z"/>
<path d="M5130 333 c0 -29 -3 -34 -12 -25 -13 13 -57 16 -74 4 -17 -11 -34
-48 -34 -75 0 -56 73 -100 108 -65 9 9 12 9 12 0 0 -7 11 -12 25 -12 l25 0 0
105 0 105 -25 0 c-22 0 -25 -4 -25 -37z m-5 -87 c0 -16 -7 -33 -16 -39 -26
-16 -49 -1 -49 31 0 36 8 44 40 40 20 -2 25 -8 25 -32z"/>
<path d="M132 308 l3 -53 65 0 65 0 0 50 0 50 -68 3 -68 3 3 -53z"/>
<path d="M4115 348 c-2 -7 -18 -50 -35 -96 -16 -46 -30 -85 -30 -88 0 -2 11
-4 24 -4 15 0 26 7 29 20 4 16 14 20 45 20 32 0 42 -4 47 -20 4 -13 15 -20 30
-20 l24 0 -31 83 c-17 45 -33 90 -35 100 -6 20 -61 24 -68 5z m50 -90 c6 -25
5 -28 -19 -28 -30 0 -29 -2 -15 39 12 35 24 31 34 -11z"/>
<path d="M810 250 c0 -78 1 -80 24 -80 23 0 25 4 28 53 3 45 6 52 26 55 16 3
22 10 22 28 0 26 -18 32 -38 12 -9 -9 -12 -9 -12 0 0 7 -11 12 -25 12 -25 0
-25 -1 -25 -80z"/>
<path d="M957 318 c-52 -40 -36 -132 26 -143 44 -9 74 1 88 26 9 19 7 20 -42
17 -35 -2 -53 1 -56 10 -3 9 10 12 49 12 30 0 57 3 61 6 10 10 -14 64 -33 74
-26 14 -73 12 -93 -2z m73 -33 c11 -13 7 -15 -25 -15 -32 0 -36 2 -25 15 7 8
18 15 25 15 7 0 18 -7 25 -15z"/>
<path d="M1137 318 c-52 -40 -36 -132 26 -143 44 -9 74 1 88 26 9 19 7 20 -42
17 -35 -2 -53 1 -56 10 -3 9 10 12 49 12 30 0 57 3 61 6 10 10 -14 64 -33 74
-26 14 -73 12 -93 -2z m73 -33 c11 -13 7 -15 -25 -15 -32 0 -36 2 -25 15 7 8
18 15 25 15 7 0 18 -7 25 -15z"/>
<path d="M1581 304 c-59 -75 29 -173 107 -118 35 24 26 35 -24 32 -31 -2 -48
1 -51 10 -3 9 11 12 51 12 48 0 56 3 56 19 0 10 -9 30 -21 45 -16 20 -29 26
-59 26 -30 0 -43 -6 -59 -26z m73 -10 c26 -10 18 -24 -14 -24 -30 0 -41 14
-17 23 6 3 13 6 14 6 1 1 8 -2 17 -5z"/>
<path d="M1830 250 c0 -79 0 -80 25 -80 25 0 25 1 25 80 0 79 0 80 -25 80 -25
0 -25 -1 -25 -80z"/>
<path d="M1910 324 c0 -3 12 -39 26 -80 25 -68 29 -74 55 -74 24 0 30 6 48 55
11 30 23 66 27 80 6 24 4 26 -17 23 -19 -2 -26 -14 -40 -58 l-16 -55 -12 30
c-7 17 -15 42 -18 58 -4 20 -11 27 -29 27 -13 0 -24 -3 -24 -6z"/>
<path d="M2127 318 c-52 -40 -36 -132 26 -143 44 -9 74 1 88 26 9 19 7 20 -42
17 -35 -2 -53 1 -56 10 -3 9 10 12 50 12 29 0 56 3 60 6 10 10 -14 64 -33 74
-26 14 -73 12 -93 -2z m73 -33 c11 -13 7 -15 -25 -15 -32 0 -36 2 -25 15 7 8
18 15 25 15 7 0 18 -7 25 -15z"/>
<path d="M2280 250 c0 -78 1 -80 24 -80 23 0 25 4 28 53 3 45 6 52 26 55 16 3
22 10 22 28 0 27 -3 28 -31 14 -13 -7 -19 -7 -19 0 0 5 -11 10 -25 10 -25 0
-25 -1 -25 -80z"/>
<path d="M2425 253 l33 -76 -19 -44 -19 -44 26 3 c22 3 32 18 75 117 27 63 49
116 49 118 0 2 -11 3 -24 3 -19 0 -27 -10 -43 -52 l-20 -53 -19 53 c-16 45
-22 52 -46 52 l-27 0 34 -77z"/>
<path d="M3717 308 c-52 -40 -36 -132 26 -143 44 -9 74 1 88 26 9 19 7 20 -42
17 -35 -2 -53 1 -56 10 -3 9 10 12 50 12 29 0 56 3 60 6 10 10 -14 64 -33 74
-26 14 -73 12 -93 -2z m73 -33 c11 -13 7 -15 -25 -15 -32 0 -36 2 -25 15 7 8
18 15 25 15 7 0 18 -7 25 -15z"/>
<path d="M3870 240 c0 -78 1 -80 24 -80 23 0 25 4 28 53 3 45 6 52 26 55 16 3
22 10 22 28 0 26 -18 32 -38 12 -9 -9 -12 -9 -12 0 0 7 -11 12 -25 12 -25 0
-25 -1 -25 -80z"/>
<path d="M4272 203 c3 -114 4 -118 26 -121 20 -3 22 0 22 48 0 47 1 50 19 40
53 -28 101 6 101 70 0 27 -7 47 -20 60 -22 22 -69 27 -88 8 -9 -9 -12 -9 -12
0 0 7 -11 12 -25 12 l-26 0 3 -117z m118 57 c22 -40 -26 -80 -58 -48 -25 25
-6 68 30 68 9 0 22 -9 28 -20z"/>
<path d="M4470 198 c0 -118 0 -119 23 -116 19 3 23 11 27 53 3 31 8 45 13 38
5 -7 19 -13 31 -13 61 0 96 82 57 132 -19 24 -28 26 -86 26 l-65 0 0 -120z
m115 48 c0 -16 -7 -33 -16 -39 -26 -16 -49 -1 -49 31 0 36 8 44 40 40 20 -2
25 -8 25 -32z"/>
<path d="M4750 240 c0 -79 0 -80 25 -80 25 0 25 1 25 80 0 79 0 80 -25 80 -25
0 -25 -1 -25 -80z"/>
<path d="M4867 308 c-52 -40 -36 -132 26 -143 44 -9 74 1 88 26 9 19 7 20 -42
17 -35 -2 -53 1 -56 10 -3 9 10 12 50 12 29 0 56 3 60 6 10 10 -14 64 -33 74
-26 14 -73 12 -93 -2z m73 -33 c11 -13 7 -15 -25 -15 -32 0 -36 2 -25 15 7 8
18 15 25 15 7 0 18 -7 25 -15z"/>
<path d="M210 215 c0 -12 13 -15 60 -15 47 0 60 3 60 15 0 12 -13 15 -60 15
-47 0 -60 -3 -60 -15z"/>
</g>
</svg>
