<svg xmlns="http://www.w3.org/2000/svg" viewBox="0 0 641 150"><defs><style>.cls-1{fill:#e8e8e8;}.cls-2{fill:#d5d5d5;}.cls-3{fill:#2e2b2c;}.cls-4{fill:#404040;}.cls-5{fill:#cc342a;}.cls-6{fill:#df917d;}.cls-7{fill:#c6806b;}.cls-8{fill:#d8ca99;}.cls-9{fill:#2f1d15;}.cls-10{fill:#fff;}.cls-11{fill:#dd8774;}.cls-12{fill:#1d120d;}.cls-13{fill:#090000;}.cls-14{fill:#dc463a;}.cls-15{fill:#cb3c1b;}.cls-16{fill:#de463a;}.cls-17{fill:#159787;}.cls-18{fill:#60bdb1;}.cls-19{fill:#ffcb74;}.cls-20{fill:#e6625c;}.cls-21{fill:#ef807f;}.cls-22{fill:#c6c7c9;}.cls-23{fill:#545454;}.cls-24{fill:#d7a180;}.cls-25{fill:#605959;}.cls-26{fill:#caac8b;}.cls-27{fill:#ec5e5a;}.cls-28{fill:#ffbe47;}.cls-29{fill:#dadadc;}.cls-30{fill:silver;}</style></defs><title>VECTOR</title><g id="ioS"><polygon class="cls-1" points="599.83 121.21 599.83 81.81 578.33 81.81 578.33 55.23 558.76 55.23 558.76 61.94 549.04 61.94 549.04 41.73 529.47 41.73 529.47 67.35 509.53 67.35 509.53 47.31 502.23 38.61 494.93 47.31 494.93 85.7 473.77 85.7 473.77 74 459.27 74 459.27 47.31 443.81 35.49 443.81 57.05 433.61 57.05 433.61 92.28 418.88 92.28 418.88 105.08 409.56 105.08 409.56 89.83 395.71 89.83 395.71 54.54 383.88 70.87 383.88 96.78 372.59 96.78 372.59 121.21 599.83 121.21"/><polygon class="cls-2" points="592.28 95.68 592.28 111.18 582.62 111.18 582.62 117.97 568.54 117.97 568.54 95.68 563.67 90.63 558.81 95.68 558.81 107.31 545.53 107.31 545.53 92.44 532.51 92.44 532.51 104.17 526.03 104.17 526.03 100.28 513.01 100.28 513.01 115.71 498.69 115.71 498.69 116.33 496.03 116.33 496.03 92.75 483 92.75 483 98.7 476.53 98.7 476.53 80.77 463.5 80.77 463.5 103.5 450.22 103.5 450.22 85.73 445.36 78.01 440.5 85.73 440.5 119.77 426.42 119.77 426.42 109.4 416.76 109.4 416.76 85.73 403 79 404 137 602.57 137 602.57 88.82 592.28 95.68"/><path class="cls-1" d="M634.71,118.94a76,76,0,0,1,.21-7.86,45.49,45.49,0,0,1,.16-8h-.6V87.83H620.63V52.54L608.79,68.87V94.78H597.5v24.43h37.22A2.44,2.44,0,0,1,634.71,118.94Z"/><path class="cls-2" d="M635.87,135.62l0,1.5,4.36.25q.6-11.34.76-22.69c0-2.46,1.1-7.77-.34-9.88-1.25-1.82-4.33-1.29-6.21-1.31.33-5.86,0-11.87,0-17.76L629.65,78l-4.86,7.72v34H610.71V109.4h-9.66V85.73L590.76,75.25l.57,61.74h43c2.91,0,4.47-.53,5.16-2.19.39-.94-1.07-22.45.48-31.32"/><polygon class="cls-1" points="406.01 121.47 406.01 87.8 384.51 87.8 384.51 65.08 364.94 65.08 364.94 70.81 355.21 70.81 355.21 53.54 335.65 53.54 335.65 75.44 315.71 75.44 315.71 58.31 308.41 50.88 301.1 58.31 301.1 91.11 279.95 91.11 279.95 81.12 265.45 81.12 265.45 58.31 249.99 48.22 249.99 66.63 239.79 66.63 239.79 96.74 225.06 96.74 225.06 107.68 215.74 107.68 215.74 94.65 201.89 94.65 201.89 64.49 190.06 78.44 190.06 100.58 178.77 100.58 178.77 121.47 406.01 121.47"/><path class="cls-2" d="M393.5,87.64V106.1h-9.65v8.08H369.76V87.64l-4.86-6-4.86,6V101.5H346.76V83.78h-13v14h-6.48V93.12h-13V111.5H299.92v.73h-2.67V84.16h-13v7.08h-6.48V69.9h-13V97H251.45V75.79l-4.86-9.18-4.87,9.18v40.54H227.64V104H218V75.79L207.69,63.31v73.77l.58,0v-.2H403.8V79.48Z"/><polygon class="cls-1" points="11.08 122.05 11.08 83.97 32.58 83.97 32.58 58.28 52.15 58.28 52.15 64.76 61.88 64.76 61.88 45.23 81.44 45.23 81.44 69.99 101.38 69.99 101.38 50.62 108.68 42.22 115.99 50.62 115.99 87.72 137.14 87.72 137.14 76.42 151.64 76.42 151.64 50.62 167.1 39.2 167.1 60.03 177.3 60.03 177.3 94.08 192.03 94.08 192.03 106.46 201.35 106.46 201.35 91.72 215.2 91.72 215.2 57.61 227.03 73.39 227.03 98.43 238.32 98.43 238.32 122.05 11.08 122.05"/><path class="cls-2" d="M209.4,137V63.9l-11,12.48v28.18H188.1v12.36h-15V76.38l-5.19-9.19-5.19,9.19V97.54H148.5V70.48H134.59V91.83h-6.92V84.74h-13.9v28.08h-2.85v-.73H95.63V93.71H81.73v4.64H74.81v-14H60.9v17.72H46.73V88.23l-5.2-6-5.19,6v26.54h-15v-8.09H11V88.23L0,80.06v57.37H204.92A30.63,30.63,0,0,1,209.4,137Z"/><ellipse class="cls-3" cx="427.45" cy="137.6" rx="7.32" ry="7.39" transform="translate(-0.48 1.48) rotate(-0.2)"/><ellipse class="cls-3" cx="383.18" cy="138.07" rx="7.32" ry="7.39" transform="translate(-0.48 1.33) rotate(-0.2)"/><ellipse class="cls-4" cx="383.26" cy="137.66" rx="4.96" ry="5.01" transform="translate(-0.48 1.33) rotate(-0.2)"/><ellipse class="cls-4" cx="427.53" cy="137.19" rx="4.96" ry="5.01" transform="translate(-0.47 1.48) rotate(-0.2)"/><path class="cls-5" d="M398.25,94.53A7.5,7.5,0,0,1,399.92,96a30.86,30.86,0,0,1,3.33,4.55,25.13,25.13,0,0,0-6.09,4.25c-1.1-1.23-1.85-2.74-2.91-4a19.4,19.4,0,0,1-1.73-2.11,3,3,0,0,1-.36-2.62C393.07,93.93,396.45,93.44,398.25,94.53Z"/><path class="cls-6" d="M394.05,91.68a5.38,5.38,0,0,0,.63-1.15,8.15,8.15,0,0,0,.29-.83,9.32,9.32,0,0,0,.49-1.61l.31.1c.76.23,1.43.2,1.93.83a1.53,1.53,0,0,1,.3,1.66,8.91,8.91,0,0,0-.12,2.42,2.37,2.37,0,0,1-.29,1.68,8,8,0,0,1-.68.74,5.44,5.44,0,0,0-2.32-1.31,1.81,1.81,0,0,1-.69-.42c-.22-.23-.19-.43-.2-.72a2.37,2.37,0,0,0-.2-.71C393.69,92.14,393.88,91.92,394.05,91.68Z"/><path class="cls-7" d="M397.88,92.54c0,.2-1.37-.2-1.53-.26a2.83,2.83,0,0,1-1.11-.83c-.16-.2-.65-.84-.56-1.09s.14-.44.22-.66a8.94,8.94,0,0,0,.51-1.67l.33.11c.78.24,1.49.21,2,.85a1.56,1.56,0,0,1,.32,1.72A6.69,6.69,0,0,0,397.88,92.54Z"/><path class="cls-6" d="M399,78.66h-.18a8.1,8.1,0,0,0-2.05.2c-.32.07-.63.16-.94.26a5.18,5.18,0,0,0-.69.29,4.67,4.67,0,0,0-.56.34c-.21.14-.42.3-.63.47a7.32,7.32,0,0,0-1.16,1.22,3.73,3.73,0,0,0-.35.6,2.24,2.24,0,0,0-.2.62,1.84,1.84,0,0,0,0,.62,1.31,1.31,0,0,0,.11.29.79.79,0,0,0,0,.09,1.53,1.53,0,0,0-.65-.17.54.54,0,0,0-.18,0,1.5,1.5,0,0,0-.88.34,1.52,1.52,0,0,0-.3.37,1.15,1.15,0,0,0-.1.23,1.2,1.2,0,0,0-.07.26,1.62,1.62,0,0,0,.09.92,2,2,0,0,0,.31.52,2.22,2.22,0,0,0,.49.42,2.32,2.32,0,0,0,1.16.38h.07a4.28,4.28,0,0,0,.43.89,4.55,4.55,0,0,0,.74.9,6.42,6.42,0,0,0,1.46,1,6.91,6.91,0,0,0,1.67.59,7,7,0,0,0,.92.12,7.85,7.85,0,0,0,.84,0A5,5,0,0,0,400,90a4.51,4.51,0,0,0,.77-.44,4.78,4.78,0,0,0,.69-.6,4.69,4.69,0,0,0,.93-1.45,8,8,0,0,0,.49-1.8,11.68,11.68,0,0,0,.13-2,10.1,10.1,0,0,0-.21-1.93,6,6,0,0,0-.48-1.47,0,0,0,0,0,0,0,1.35,1.35,0,0,0-.35-.44l-.14-.12-.07-.06-.2-.16a4.73,4.73,0,0,0-.84-.46,5.41,5.41,0,0,0-1.78-.37"/><path class="cls-7" d="M391.63,84a.54.54,0,0,0-.07.13.58.58,0,0,0-.05.14,1.47,1.47,0,0,0-.08.3,2.37,2.37,0,0,0,0,.65,1.57,1.57,0,0,0,.5,1.08,0,0,0,0,0,.05,0s0,0,0,0l0,0h0a1.15,1.15,0,0,1-.14-.17h0a1.74,1.74,0,0,1-.14-.27,1.79,1.79,0,0,1-.09-.46h0a3.22,3.22,0,0,1,0-.62,2.47,2.47,0,0,1,.15-.46l.09-.14a.12.12,0,0,0,0-.16h0a.09.09,0,0,0-.1,0m.1.27h0m-.18,1h0m.37.9h0"/><path class="cls-7" d="M391.52,84a.55.55,0,0,0-.18,0,1,1,0,0,0-.34.12,1.51,1.51,0,0,0-.28.22,2.17,2.17,0,0,0-.24.29s0,0,0,.05h0a2.11,2.11,0,0,1,.19-.23h0a1,1,0,0,1,.23-.18,2,2,0,0,1,.22-.09l.22,0h.12l.13,0h.11a.09.09,0,0,0,.06-.06.14.14,0,0,0,0-.09.13.13,0,0,0-.09-.07h-.19m.09.22h0m-.45,0h0Zm-.21.09h0"/><polygon class="cls-8" points="393.48 82.1 393.48 82.1 393.48 82.1 393.48 82.1"/><polyline class="cls-8" points="394.26 83.36 394.27 83.36 394.27 83.36 394.26 83.36"/><polygon class="cls-8" points="394.26 83.36 394.26 83.36 394.26 83.36 394.26 83.36"/><polyline class="cls-8" points="394.26 83.36 394.26 83.36 394.26 83.36 394.26 83.36"/><polyline class="cls-8" points="394.26 83.36 394.26 83.36 394.26 83.36"/><polyline class="cls-8" points="394.26 83.36 394.26 83.36 394.26 83.36 394.26 83.36"/><polyline class="cls-8" points="394.55 83.41 394.55 83.41 394.55 83.41"/><polyline class="cls-8" points="394.55 83.41 394.55 83.41 394.55 83.41"/><polyline class="cls-8" points="395.09 81.52 395.09 81.52 395.09 81.52 395.09 81.52"/><path class="cls-6" d="M398.32,77.48a7.17,7.17,0,0,0-1.46,0,5.86,5.86,0,0,0-1.36.27,3.81,3.81,0,0,0-.66.27,5.36,5.36,0,0,0-.85.53,4.42,4.42,0,0,0-1.16,1.31,7,7,0,0,0-.68,1.62c-.08.27-.16.56-.25.92,0,.16-.07.32-.11.47l0,.08c0,.18-.08.36-.11.55a.11.11,0,0,0,0,.08v0a10,10,0,0,0,.09,2,6.94,6.94,0,0,0,.58,1.87,5.46,5.46,0,0,0,1.24,1.63,5.94,5.94,0,0,0,1.65,1,6.86,6.86,0,0,0,1.84.49h.08a6.25,6.25,0,0,0,1.94-.06,5.33,5.33,0,0,0,.9-.25,4.15,4.15,0,0,0,.76-.38,4.22,4.22,0,0,0,1.15-1.12,6.15,6.15,0,0,0,.73-1.45,8.76,8.76,0,0,0,.41-1.66,18.25,18.25,0,0,0,.19-3.25s0,0,0,0a4.21,4.21,0,0,0,0-1.07,4,4,0,0,0-.28-.93,4.12,4.12,0,0,0-.77-1.13,5.79,5.79,0,0,0-1.09-.87,6.53,6.53,0,0,0-1.32-.6,7.86,7.86,0,0,0-1.42-.32h0m4.73,5.09h0v0h0Z"/><path class="cls-9" d="M399.15,83.43c-.2,0-.38.3-.4.69s.12.72.33.73.38-.3.4-.69-.12-.72-.33-.73"/><path class="cls-9" d="M401.6,83.4c-.21,0-.39.3-.41.69s.13.73.33.74.38-.3.41-.69-.13-.73-.33-.74"/><path class="cls-10" d="M398.6,87.25a3.34,3.34,0,0,0,2.44.23.93.93,0,0,0,.62-.44c-.05.11,0,.41,0,.56A1.88,1.88,0,0,1,400.28,89a1.23,1.23,0,0,1-1.24-.51,2.41,2.41,0,0,1-.35-.65c-.07-.16-.1-.55-.27-.65Z"/><path class="cls-7" d="M400.82,86.43a.41.41,0,0,0,.12-.17.35.35,0,0,0-.25,0l-.25.07a.56.56,0,0,1-.47-.1c-.18-.13-.2,0-.08.13a.82.82,0,0,0,.42.2c.17,0,.85-.07.76-.38s-.18-.63-.25-.94a1.85,1.85,0,0,1,0-.62"/><ellipse class="cls-11" cx="396.84" cy="86.65" rx="1" ry="1.01" transform="translate(-0.3 1.38) rotate(-0.2)"/><path class="cls-12" d="M399.33,82.66c-.1.18-.31.16-.48.14a1.67,1.67,0,0,0-1.15.3,1.21,1.21,0,0,1,.66-.79,3.43,3.43,0,0,1,.52-.23C399.15,82,399.64,82.13,399.33,82.66Z"/><path class="cls-12" d="M401.38,82.8c.11.18.31.15.48.13a1.68,1.68,0,0,1,1.16.28,1.24,1.24,0,0,0-.68-.78,3.38,3.38,0,0,0-.52-.22C401.55,82.12,401.06,82.28,401.38,82.8Z"/><path class="cls-13" d="M397.37,80a.27.27,0,0,1-.15-.51.27.27,0,0,1,.15.51Z"/><path class="cls-14" d="M405.07,81.94a13.1,13.1,0,0,1-.41,1.61,5.79,5.79,0,0,0,0,1.5,3.84,3.84,0,0,1-.72,2.34,3.88,3.88,0,0,1-1.92,1.5c.34-1.3.77-2.6,1.12-3.9a5.65,5.65,0,0,0-.17-3.13.16.16,0,0,0,0-.1.23.23,0,0,0-.12,0c-2.07.15-4.22.16-6.28.47a7.08,7.08,0,0,1,1.15,4.67,3.74,3.74,0,0,1-.5,1.74,3.61,3.61,0,0,1-.84.86,4,4,0,0,1-1.47.77c-1.75.44-3.52-1.22-4.66-2.34-1.87-2.19-2.85-5.68-1.72-8.45,1.95-4.74,8.35-7.4,12.87-4.71A7.75,7.75,0,0,1,405.07,81.94Z"/><path class="cls-6" d="M399.42,95l.15.06A.47.47,0,0,1,399.42,95Z"/><polyline class="cls-15" points="393.58 80.92 393.59 80.92 393.59 80.92 393.58 80.92 393.58 80.92"/><path class="cls-16" d="M388.6,113.34a47.34,47.34,0,0,1,.78-5.3c.34-2.59.15-5.21.27-7.81a17.61,17.61,0,0,1,.79-4.73c.67-2,1.74-3.66,3.8-4.37l.12,1a1.92,1.92,0,0,0,.11.54,4.2,4.2,0,0,0,1.61,1.63,14.64,14.64,0,0,0,1.4.87,2.38,2.38,0,0,0,.35-1.25H398a31.28,31.28,0,0,1,1.85,4.48,15.62,15.62,0,0,1,.52,2.37l.09.17,0,0c.06.35.12.69.17,1l.12-.41c.19.88.38,1.76.56,2.64h-.54v0l-.45,0c-.17.93-.42,1.85-.5,2.8a7.86,7.86,0,0,0,0,1l-1.28-3.25-2.1,1.76c-1.05.7-1.44,0-1.67-.86-.47-1.72-.88-3.47-1.33-5.29a2.86,2.86,0,0,1,0,.58l0,.58v1.11a16.52,16.52,0,0,0,.17,2,8.45,8.45,0,0,0,1,3,5.49,5.49,0,0,0,2,1.94,7,7,0,0,0,1.34.58c.25.08.5.14.76.2a1.2,1.2,0,0,0,.41.06,1.06,1.06,0,0,0,.51-.32c.36.53,1.1.7,1.4,1.26a1.08,1.08,0,0,0,.19.31s.56.46.57.45l-.81.84c-.8.83-4.23,1-5.39,1.33-1.41.34-2.76.91-4.13,1.27C389.17,116,388.55,115.53,388.6,113.34Z"/><path class="cls-16" d="M399.89,110.08c-.08-.75-.17-1.5-.18-2.25l1.53,3.9A5.17,5.17,0,0,1,399.89,110.08Z"/><path class="cls-17" d="M401.15,128.34c-.17,3.23-2.6,6.06-2.56,9.29a1.4,1.4,0,0,0,.14.7,1.35,1.35,0,0,0,.88.53,10.53,10.53,0,0,0,3.5.12,25.82,25.82,0,0,0,7.62-1.37,5.87,5.87,0,0,0,1.74-1,7.71,7.71,0,0,0,1.27-1.51l2-2.81c.9-1.28,1.86-2.79,1.46-4.3a.49.49,0,0,0-.18-.3c-.18-.11-.41,0-.57.19-1.15,1.08-2.07,2.37-3.24,3.42a10.94,10.94,0,0,1-6.79,2.79,3.7,3.7,0,0,1-3.57-1.48,11.94,11.94,0,0,1-2-4.43A20.94,20.94,0,0,1,400,132"/><path class="cls-18" d="M421.05,115.43l4.08,11a9.77,9.77,0,0,0-5.3,4.64c-1.28,2.46-2.54,4.92-3.81,7.38a5.91,5.91,0,0,1-1.63.51c-3.7.06-7.41.05-11.11.06l3.5-1.27,3.55-1.81a8.72,8.72,0,0,0,3.61-2.67,17.2,17.2,0,0,0,1.38-2.53,13.42,13.42,0,0,0,.93-2.34,10.23,10.23,0,0,0,.17-2.41c.06-1.4.11-2.8.19-4.2.14-2.56.33-5.11.5-7.66l.18,0h.19a16.86,16.86,0,0,0,2.15,1.36C420,115.63,420.57,115.45,421.05,115.43Z"/><path class="cls-18" d="M406.78,137.74l-3.5,1.27a30,30,0,0,1-4.34.08c-.65-.07-1.22-.82-1.83-1.27.71-2.65,1.76-5.27,2-8,.3-3.09-2.6-6.12-5.62-6.62a28.21,28.21,0,0,0-16.59,2.28,4.22,4.22,0,0,1-1.52.09c0-.27,0-.54.07-.8l2.37-2.74.1.08.12,0c1.95-.06,3.9,0,5.83-.21.88-.07,2.14-.34.76-1.65a1.55,1.55,0,0,0,0-.43l.74-.18,9.31,0,8.47.51a50.21,50.21,0,0,1-1.55,6.73c-1.21,3.23-1,4.7,1.65,6.89,0,.36-.07.73-.15,1.09-.48,2.2,0,2.82,2.14,2.89Z"/><path class="cls-17" d="M416,138.44c1.27-2.46,2.53-4.92,3.81-7.38a9.77,9.77,0,0,1,5.3-4.64c3.13.48,6.13,1.28,8.56,3.48,1.31,1.18,1.57,2.29-.22,3.25l-4.34.82c-2.84.37-5.5,1.16-7.48,3.43l-3.89,1.18Z"/><path class="cls-17" d="M372,131c4.68-3.66,9.77-6.12,16.27-5.88-2.93,1.79-5.68,3.1-8,5-2,1.67-3.46,4-5.16,6.05a40.43,40.43,0,0,1-4.56-.35c-.57-.11-1-.86-1.54-1.31Z"/><path class="cls-17" d="M418,113.38a3.71,3.71,0,0,0-.7-2.69,4.1,4.1,0,0,0-1.18-.84c-.26-.14-1.18-.41-1.4-.18a2.58,2.58,0,0,0,.41-1.08,5.27,5.27,0,0,1,3.65-3.12c1-.32,2.89-.86,3.69.07a1.34,1.34,0,0,1,.26,1.22,2.06,2.06,0,0,0-.67-.39.73.73,0,0,0-.72.15,1.06,1.06,0,0,0-.17.89,13.49,13.49,0,0,0,.7,3c.08.24.69,1.5.48,1.71-.87.87-1.69,1.82-1.45,3.15l-1.46-.45a.16.16,0,0,1-.09,0s0-.11,0-.17a1.37,1.37,0,0,0-.23-1C418.8,113.24,418.35,113.37,418,113.38Z"/><path class="cls-19" d="M394.7,119.61l-9.31,0a5.58,5.58,0,0,1,2.89-4.45l.65,0,.49,0,.84.11c.34.7.51,1.59,1.05,2A29,29,0,0,0,394.7,119.61Z"/><path class="cls-6" d="M413,110.22c-.59.21-1.26.74-1.75.58-2.9-.93-5.8-1.92-8.61-3.13-.67-.29-1-1.51-1.43-2.31Z"/><path class="cls-7" d="M402.56,106.63a8,8,0,0,0,2.87,1.49c.7.24,1.41.44,2.12.62l.87.32a15.22,15.22,0,0,0,2.91.69l.59,0,1.09.44c-.59.21-1.26.74-1.75.58-2.9-.93-5.8-1.92-8.61-3.13-.67-.29-1-1.51-1.43-2.31l.35.15A7,7,0,0,0,402.56,106.63Z"/><path class="cls-17" d="M418,113.21h2.53l.16.46.3,1.16c0,.18.08.36.13.55l0,.06c-.48,0-1,.2-1.42,0a16.86,16.86,0,0,1-2.15-1.36,1.55,1.55,0,0,1,.12-.42c.12-.15.24-.3.35-.46Z"/><path class="cls-20" d="M374.13,127.39l-1.39,1.27Z"/><path class="cls-14" d="M400.67,101.49l-.12.41c-.05-.35-.11-.69-.17-1C400.48,101.07,400.58,101.28,400.67,101.49Z"/><path class="cls-14" d="M400.41,100.89l-.63-1.22,0,0,.26,0Z"/><path class="cls-21" d="M421.07,115.37c-.05-.19-.09-.37-.13-.55C421,115,421,115.18,421.07,115.37Z"/><path class="cls-16" d="M400.08,99.65l-.26,0c.11-.13.21-.27.32-.41A1,1,0,0,1,400.08,99.65Z"/><polygon class="cls-20" points="394.81 93.45 394.68 93.52 394.53 93.52 394.65 93.4 394.81 93.45"/><path class="cls-20" d="M374.22,127l.37,0-.47.41A1,1,0,0,1,374.22,127Z"/><path class="cls-20" d="M372.77,128.65l-.47.48Z"/><path class="cls-20" d="M372.33,129.1l-.47.48Z"/><path class="cls-20" d="M371.89,129.54l-.45.5Z"/><path class="cls-6" d="M413,133.89l.24.16a4.92,4.92,0,0,0-1,.8,1.29,1.29,0,0,1-.27.25,1.11,1.11,0,0,1-.7.1,8.26,8.26,0,0,1-2.07-.46.36.36,0,0,1-.15-.08.33.33,0,0,1,0-.22,5.63,5.63,0,0,0,0-.82,4.74,4.74,0,0,0-.1-.49,9.17,9.17,0,0,1,.09-1.73l3.34,0c0,.52,0,1,0,1.55,0,.18.31.5.39.67A.81.81,0,0,0,413,133.89Z"/><path class="cls-16" d="M408.66,134a2.56,2.56,0,0,1,.55,0,7.34,7.34,0,0,1,1.65.51,3.57,3.57,0,0,0,1.76.13l-1.77,1.22c-.42.27-.84.53-1.28.78l-.54.29-.11,0-.44.17a3.56,3.56,0,0,1,0-2.3A8.11,8.11,0,0,0,408.66,134Z"/><path class="cls-22" d="M379.15,101.2l.88-.46Z"/><path class="cls-23" d="M409.89,115.67l-.17-.09c-2-1-4.14-1.87-6.21-2.79L394.39,115l-1.85.32a6.38,6.38,0,0,0,1.09,2.11,31.75,31.75,0,0,0,3.53,2.34l8.81.52a2.36,2.36,0,0,1,1.14,0,2.5,2.5,0,0,1,.19,1.56l-1.17,10.89a.63.63,0,0,0,.05.41.61.61,0,0,0,.48.18,26.21,26.21,0,0,0,6.13-.32.67.67,0,0,0,.41-.16.74.74,0,0,0,.14-.46q.26-3.51.42-7a14.19,14.19,0,0,0-.24-4c-.19-.85,0-1.7-.25-2.55-.5-1.88-2.58-2.65-4.11-3.51a24.43,24.43,0,0,0-6.7-2.56,2.43,2.43,0,0,0-1.07-.07c-.67.16-1.23.83-1.9.67m-5.1,1.71"/><path class="cls-22" d="M380.88,99.85c.3-.15.6-.3.89-.46C381.48,99.55,381.18,99.7,380.88,99.85Z"/><path class="cls-22" d="M369,100l.46.46Z"/><path class="cls-22" d="M380,100.75l.45-.49Z"/><path class="cls-6" d="M404.22,131.46l3.34,0s0,.91,0,1a2.78,2.78,0,0,0,.17.82,3.54,3.54,0,0,0,.94,1.43,1.48,1.48,0,0,0-.36,0c-.13,0-.26,0-.39-.06a4.68,4.68,0,0,0-.75,0l-3.12,0C404.12,133.59,404.17,132.52,404.22,131.46Z"/><path class="cls-4" d="M390.26,115.29c.34.7.51,1.59,1.05,2a29,29,0,0,0,3.39,2.27l8.47.51c1.45-.33,1.33.93,1.22,2q-.54,5-1.07,10a.55.55,0,0,0,.05.4c.09.14.29.16.45.17a24.82,24.82,0,0,0,5.9-.31.67.67,0,0,0,.39-.15.7.7,0,0,0,.13-.45,81.37,81.37,0,0,0,.35-8.4c-.06-1.82.15-4.47-1.09-6a8.52,8.52,0,0,0-2.74-2c-1.93-1-4-1.81-6-2.7L392,115ZM392,115"/><path class="cls-5" d="M399.11,110.33c-4.46-.72-6.2-3.73-5.78-10.14.45,1.82.86,3.57,1.33,5.29.23.85.62,1.56,1.67.86Z"/><path class="cls-24" d="M400.69,104.1l-.93-.08Z"/><path class="cls-25" d="M389.42,115.18l-.49,0Z"/><path class="cls-17" d="M378.07,120.4l6.59-.15c1.38,1.31.12,1.58-.76,1.65-1.93.17-3.88.15-5.83.21l-.12,0-.1-.08-5.61.06-.26.59,3.5,2.09c0,.26-.05.53-.07.8-.27.46-.54.93-.82,1.39l-.37,0c-2-1.65-4.08-3.26-6-5-.4-.34-.45-1.08-.66-1.64Z"/><path class="cls-16" d="M403.61,134.82c.09-.4-.05-1.08.39-1.07.16,0,.44.29.59.36a3.81,3.81,0,0,0,.87.27,3.54,3.54,0,0,0,.86.09c.53,0,1-.21,1.57-.25,1-.07,1.9.94,2.68,1.52l-.43.24-.43.19-.42.21a5.65,5.65,0,0,1-.59,0,2.83,2.83,0,0,0-2.27,1.31l-.69,0C403.58,137.64,403.13,137,403.61,134.82Z"/><path class="cls-6" d="M398.51,104.51l1.25-.49.93.08v0h.54c0,.42,0,.84,0,1.26h0v0c.45.73.74,1.86,1.38,2.12,1.64.68,3.32,1.27,5,1.83l2.54.81a2.15,2.15,0,0,0,2,0,5,5,0,0,1,1.21-.59,3.77,3.77,0,0,1,1.38-.05,3.47,3.47,0,0,1,2.71,1.26,3,3,0,0,1,.46,1.15c0,.25.22,1.11.06,1.32l-.35.45a1.55,1.55,0,0,0-.12.42h-.19l-.18,0c-.05,0-1-.9-1.19-1a1.85,1.85,0,0,0-1.15-.23,2.6,2.6,0,0,0-1.38.76.38.38,0,0,0,0,.55c.09.07.22.06.32.11s.19.19.11.27l-.09,0a2.32,2.32,0,0,1-2.36-1,2.77,2.77,0,0,0-.31-.45,1.26,1.26,0,0,0-.41-.25,13.51,13.51,0,0,0-4.36-.81,28,28,0,0,1-4.39-.25,11.19,11.19,0,0,1-2.93-1.66,38,38,0,0,1-2.68-3.83Z"/><path class="cls-26" d="M411.8,112.84l-1.8-.41Z"/><path class="cls-27" d="M418,113.21c-.11.16-.23.31-.35.46C417.72,113.52,417.84,113.37,418,113.21Z"/><path class="cls-5" d="M398.78,96.7a7.53,7.53,0,0,1,1.37,1.79,32.14,32.14,0,0,1,2.44,5.09,24.93,24.93,0,0,0-6.77,3c-.86-1.42-1.32-3-2.13-4.5a20.7,20.7,0,0,1-1.31-2.4,3,3,0,0,1,.12-2.64C393.8,95.13,397.21,95.28,398.78,96.7Z"/><path class="cls-18" d="M369,132.63a16,16,0,0,1,2.3-2.77,27.22,27.22,0,0,1,3.21-3,20.5,20.5,0,0,1,9.61-3.72c3.46-.52,7.63-.88,10.91.56a6.32,6.32,0,0,1,4,5.31,14.7,14.7,0,0,1-.7,4.69l-.72,2.77a2.47,2.47,0,0,1-.49,1.12c-.93,1-4.08.64-5.34.59a150.32,150.32,0,0,1-16.52-1.94,19.83,19.83,0,0,1,5.57-6.48,56.87,56.87,0,0,1,7.26-4.58c-3.9-.38-7.78.87-11.29,2.63a18.59,18.59,0,0,0-4.71,3.18c-1.07,1.06-2.89,2.82-2.54,4.45-.09-.41-.59-.83-.7-1.31A2.24,2.24,0,0,1,369,132.63Z"/><path class="cls-17" d="M368.71,132.48h0a12.38,12.38,0,0,1,1.9-2.36l.45-.49a27.31,27.31,0,0,1,3.25-3,20.32,20.32,0,0,1,9.76-3.79c3.39-.51,7.71-.91,11.09.58A6.66,6.66,0,0,1,399.4,129a15.51,15.51,0,0,1-.71,4.8l-.72,2.76a2.8,2.8,0,0,1-.57,1.26,2.09,2.09,0,0,1-1,.58c.09-.26.17-.53.24-.8a.93.93,0,0,0,.29-.22,2.33,2.33,0,0,0,.42-1l.72-2.76a14.69,14.69,0,0,0,.69-4.59,6,6,0,0,0-3.85-5,14.13,14.13,0,0,0-5.79-1,34.59,34.59,0,0,0-4.94.45,19.72,19.72,0,0,0-9.46,3.65,26.08,26.08,0,0,0-3.17,2.93c-.14.16-.3.32-.46.49a19,19,0,0,0-1.33,1.52,6.61,6.61,0,0,0-.82,1.19,3.1,3.1,0,0,0-.32,1.09.65.65,0,0,0,0-.13A2.6,2.6,0,0,1,368.71,132.48Z"/><path class="cls-17" d="M414.59,116.85a1.63,1.63,0,0,1-1.73.87.68.68,0,0,1-.35-.06c-.29-.15-.27-.58-.2-.91a13.43,13.43,0,0,1,.74-2.41,2.73,2.73,0,0,1,.77-1.18,1.94,1.94,0,0,1,1.12-.33c.67,0,1.89.28,1.42,1.2S415.17,115.92,414.59,116.85Z"/><ellipse class="cls-17" cx="421.46" cy="109.33" rx="2.12" ry="4.02" transform="translate(-1.1 4.35) rotate(-0.59)"/><ellipse class="cls-28" cx="422.6" cy="109.44" rx="1.79" ry="3.41" transform="translate(-1.11 4.36) rotate(-0.59)"/><path class="cls-17" d="M395.29,132.07a41.64,41.64,0,0,1-9.25-.83c-.33-.07-.2-.58.13-.51a41,41,0,0,0,9.12.81.27.27,0,0,1,0,.53Z"/><path class="cls-17" d="M395.43,133.6a23.22,23.22,0,0,1-10.58-.43.27.27,0,0,1,.14-.52,22.42,22.42,0,0,0,10.3.43c.33-.06.47.45.14.52Z"/><path class="cls-17" d="M394.19,135.83a18.1,18.1,0,0,1-9.23-.69c-.32-.12-.19-.63.13-.52a17.39,17.39,0,0,0,9,.7c.33-.06.47.45.14.51Z"/><path class="cls-17" d="M410.6,135.79A17.1,17.1,0,0,1,399.19,139c-.33,0-.34-.56,0-.53a16.64,16.64,0,0,0,11.14-3.1c.27-.2.54.26.27.46Z"/><rect class="cls-29" x="365.97" y="101.02" width="19.2" height="19.38" transform="translate(752.29 217.49) rotate(179.4)"/><path class="cls-30" d="M370.61,119.45l1.33-.11a56.87,56.87,0,0,0,9.8-1.49c.55-.13,3.51-.62,3.5-1.4l0,3.86-19.2.2a10.65,10.65,0,0,1,0-1.13A16.29,16.29,0,0,0,370.61,119.45Z"/><rect class="cls-30" x="365.91" y="103.49" width="19.37" height="1.15" transform="translate(752.25 204.18) rotate(179.4)"/><rect class="cls-30" x="372.75" y="103.16" width="5.7" height="2.63" transform="translate(752.26 205) rotate(179.4)"/></g></svg>