<svg id="Layer_1" data-name="Layer 1" xmlns="http://www.w3.org/2000/svg" viewBox="0 0 20 20"><defs><style>.cls-1{fill:#00a6ec;}</style></defs><title>jain icon</title><path class="cls-1" d="M13.7,10.25a16.93,16.93,0,0,1,1.91-1.88,4.58,4.58,0,0,1,4-.69c.44.12.48.29.17.57-.62.55-1.25,1.09-1.82,1.67a2.46,2.46,0,0,0-.71,1.74,17.4,17.4,0,0,1-.16,2.7,6.45,6.45,0,0,1-3.63,4.46A9.88,9.88,0,0,1,8,20a8.91,8.91,0,0,1-6.24-2.82A6.44,6.44,0,0,1,0,12.53c0-1.89,0-3.78,0-5.66a1.08,1.08,0,0,1,.8-1A1.57,1.57,0,0,1,2.21,6a.92.92,0,0,1,.5.84c0,.7,0,1.39,0,2.09,0,.31.14.41.52.42s.45-.17.45-.42c0-1.86,0-3.73,0-5.59A1.29,1.29,0,0,1,5,2.13,1.23,1.23,0,0,1,6.35,3.3c0,1.63,0,3.26,0,4.89,0,.35.16.45.58.43s.39-.25.39-.47q0-3.53,0-7a1,1,0,0,1,.75-1,1.45,1.45,0,0,1,1.3,0,1,1,0,0,1,.67,1c0,2.34,0,4.68,0,7,0,.3.07.48.54.45s.41-.23.41-.45c0-1.62,0-3.24,0-4.85a1.22,1.22,0,0,1,1.34-1.18,1.28,1.28,0,0,1,1.35,1.19c0,2.15,0,4.29,0,6.44C13.66,9.94,13.69,10.11,13.7,10.25Zm-5,1.88c-2.23,0-4.14,1.46-4.11,3.23s1.73,3.2,4.05,3.22,4.1-1.32,4.12-3.2S10.91,12.13,8.67,12.13Z"/><path class="cls-1" d="M8.65,13.61c1.28,0,2.25.74,2.27,1.7a2,2,0,0,1-2.25,1.81c-1.29,0-2.32-.78-2.3-1.77A2.05,2.05,0,0,1,8.65,13.61Z"/></svg>