<svg id="Layer_1" data-name="Layer 1" xmlns="http://www.w3.org/2000/svg" viewBox="0 0 20.95 28.8"><defs><style>.cls-1{fill:#de2841;}</style></defs><title>location icon</title><g id="ioS"><path id="Path_132" data-name="Path 132" class="cls-1" d="M19.07,9.89A8.5,8.5,0,0,0,3.72,6.31a7.76,7.76,0,0,0-1.46,5.78,14.76,14.76,0,0,0,1.65,4.39A68.62,68.62,0,0,0,9.26,25c.44.62.9,1.21,1.38,1.89a2.5,2.5,0,0,0,.21-.25c1.36-2,2.75-3.9,4.05-5.89a36.64,36.64,0,0,0,3.5-6.42A8.14,8.14,0,0,0,19.07,9.89Zm-4.25,1.29a2.43,2.43,0,0,1-.31.94,4.62,4.62,0,0,1-.84,1.07L10.78,16a.29.29,0,0,1-.31.1.39.39,0,0,1-.14-.08L9,14.71c-.55-.52-1.09-1.05-1.62-1.58a4.29,4.29,0,0,1-.76-.94,2.48,2.48,0,0,1,0-2.51,1.87,1.87,0,0,1,1-.79A2.84,2.84,0,0,1,9,8.78a1.94,1.94,0,0,1,.48.16,4.65,4.65,0,0,1,1.08.78l.05,0,.25-.23A4.22,4.22,0,0,1,11.62,9a2.1,2.1,0,0,1,1.21-.22,2.8,2.8,0,0,1,.81.18,1.89,1.89,0,0,1,1.1,1.34,2.76,2.76,0,0,1,.08.91Z"/></g></svg>