<svg id="Layer_1" data-name="Layer 1" xmlns="http://www.w3.org/2000/svg" xmlns:xlink="http://www.w3.org/1999/xlink" viewBox="0 0 37.57 37.96"><defs><style>.cls-1{fill:none;}.cls-2{fill:#e21c24;}.cls-3{clip-path:url(#clip-path);}</style><clipPath id="clip-path"><rect class="cls-1" x="-19.8" y="-275.32" width="638.84" height="255.44"/></clipPath></defs><title>icon</title><path class="cls-2" d="M34.71,32.05,28.57,25.9a12.74,12.74,0,0,0,2.61-7.82,13,13,0,0,0-12.89-13h-.15A13,13,0,0,0,5.23,16.54a11.6,11.6,0,0,0-.13,1.55A13,13,0,0,0,18,31.12h.16A12.72,12.72,0,0,0,26,28.52l6.15,6.14Zm-17.3-23H18a9.16,9.16,0,0,1,9.13,9.13v.37a9.41,9.41,0,0,1-9.32,9.5H17.6a9.41,9.41,0,0,1-9.5-9.32v-.37A9.34,9.34,0,0,1,17.41,9.05Z"/></svg>