<?xml version="1.0" encoding="UTF-8" standalone="no" ?>
<!DOCTYPE svg PUBLIC "-//W3C//DTD SVG 1.1//EN" "http://www.w3.org/Graphics/SVG/1.1/DTD/svg11.dtd">
<svg xmlns="http://www.w3.org/2000/svg" xmlns:xlink="http://www.w3.org/1999/xlink" version="1.1" width="1080" height="1080" viewBox="0 0 1080 1080" xml:space="preserve">
<desc>Created with Fabric.js 5.2.4</desc>
<defs>
</defs>
<g transform="matrix(1 0 0 1 540 540)" id="b11b32e9-2d6e-496a-90de-3aab716c6f1a"  >
<rect style="stroke: none; stroke-width: 1; stroke-dasharray: none; stroke-linecap: butt; stroke-dashoffset: 0; stroke-linejoin: miter; stroke-miterlimit: 4; fill: #646478; fill-rule: nonzero; opacity: 1; visibility: hidden;" vector-effect="non-scaling-stroke"  x="-540" y="-540" rx="0" ry="0" width="1080" height="1080" />
</g>
<g transform="matrix(1 0 0 1 540 540)" id="c7e83abb-55c5-4dc1-aa0a-75573bf01fc8"  >
</g>
<g transform="matrix(1.33 0 0 1.33 540 555.08)"  >
<path style="stroke: none; stroke-width: 1; stroke-dasharray: none; stroke-linecap: butt; stroke-dashoffset: 0; stroke-linejoin: miter; stroke-miterlimit: 4; fill: #646478; fill-rule: nonzero; opacity: 1;" vector-effect="non-scaling-stroke"  transform=" translate(-361.98, -323.95)" d="M 515.98 295.86 L 494.863 234.477 C 489.8552 220.18 476.347 210.579 461.246 210.579 L 263.576 210.579 C 248.42000000000002 210.579 234.93500000000003 220.204 230.02900000000002 234.517 L 209.01300000000003 295.54 C 198.10300000000004 298.2705 189.96600000000004 308.083 189.96600000000004 319.833 C 189.96600000000004 330.72 196.96990000000002 339.91900000000004 206.67300000000003 343.39500000000004 L 230.74700000000004 413.37200000000007 C 235.67670000000004 427.70000000000005 249.16900000000004 437.32500000000005 264.32500000000005 437.32500000000005 L 462.02500000000003 437.32500000000005 C 477.17300000000006 437.32500000000005 490.66600000000005 427.70000000000005 495.595 413.37200000000007 L 520.091 342.1880000000001 C 528.298 338.0513000000001 533.993 329.6330000000001 533.993 319.8330000000001 C 533.993 308.4620000000001 526.3602000000001 298.9500000000001 515.985 295.86000000000007 z M 245.16000000000003 239.71200000000002 C 247.84750000000003 231.86040000000003 255.25400000000002 226.579 263.574 226.579 L 461.244 226.579 C 469.5565 226.579 476.994 231.8759 479.744 239.72 L 498.65000000000003 294.681 L 226.23000000000002 294.681 z M 215.08200000000002 310.712 L 508.87200000000007 310.712 C 513.8954000000001 310.712 517.9892000000001 314.8058 517.9892000000001 319.8292 C 517.9892000000001 324.75890000000004 514.0361000000001 328.7394 509.1415000000001 328.8917 L 214.81150000000014 328.8917 C 209.92090000000013 328.73936000000003 205.96380000000013 324.755 205.96380000000013 319.8292 C 205.96380000000013 314.80580000000003 210.05760000000012 310.712 215.08100000000013 310.712 z M 332.932 344.94599999999997 L 393.401 344.94599999999997 L 393.401 352.8132 C 393.401 355.9851 390.8229 358.5632 387.651 358.5632 L 338.69 358.5632 C 335.5181 358.5632 332.9322 355.9851 332.9322 352.8132 z M 480.462 408.16499999999996 C 477.7511 416.0322 470.337 421.32099999999997 462.017 421.32099999999997 L 264.317 421.32099999999997 C 255.9889 421.32099999999997 248.57500000000002 416.03189999999995 245.864 408.16499999999996 L 224.118 344.94599999999997 L 316.927 344.94599999999997 L 316.927 352.8132 C 316.927 364.8052 326.6848 374.5632 338.685 374.5632 L 387.646 374.5632 C 399.63800000000003 374.5632 409.396 364.8054 409.396 352.8132 L 409.396 344.94599999999997 L 502.212 344.94599999999997 z" stroke-linecap="round" />
</g>
</svg>