<svg xmlns="http://www.w3.org/2000/svg" xmlns:xlink="http://www.w3.org/1999/xlink" viewBox="0 0 460.8 518.4"><defs><style>.cls-1,.cls-15,.cls-16,.cls-8{fill:#d7d8d3;}.cls-1,.cls-15,.cls-16,.cls-17{stroke:#666;stroke-miterlimit:10;stroke-width:0.25px;}.cls-2{isolation:isolate;}.cls-3{fill:#fefefe;}.cls-4{fill:#a3a1a0;}.cls-5{fill:#724c37;}.cls-6{fill:#8b694c;}.cls-7{fill:#562c17;}.cls-9{fill:#543318;}.cls-10{fill:#734f2e;}.cls-11{fill:#fc5;}.cls-12{fill:#ffc27f;}.cls-13{fill:#aa4000;}.cls-14{clip-path:url(#clip-path);}.cls-15{opacity:0.3;}.cls-16{opacity:0.8;mix-blend-mode:multiply;}.cls-17{fill:none;}.cls-18{clip-path:url(#clip-path-2);}.cls-19{fill:#fff;}.cls-20{fill:#afafaf;}.cls-21{fill:#ffd03b;}.cls-22{fill:#fce002;}.cls-23{fill:#f9da55;}</style><clipPath id="clip-path"><path id="SVGID" class="cls-1" d="M381,410.41c-4,12.48-29.11,17.5-56,11.23s-45.39-21.48-41.35-34,29.12-17.51,56-11.23S385,397.93,381,410.41Z"/></clipPath><clipPath id="clip-path-2"><path id="SVGID-2" data-name="SVGID" class="cls-1" d="M381.57,408.64c-4,12.48-29.11,17.51-56,11.23s-45.4-21.48-41.36-34,29.12-17.5,56-11.23S385.62,396.16,381.57,408.64Z"/></clipPath></defs><title>emptycart</title><g class="cls-2"><g id="Layer_1" data-name="Layer 1"><path class="cls-3" d="M83,479.94l1,1Z"/><path class="cls-4" d="M400.84,402.25c-21.81-2.94-43.77-4.61-65.74-5.83-19.26-1.06-38.55-1.66-57.81-2.81-19.69-1.18-39.33-2.95-59-4.26s-39.11-1.93-58.7-2c-9.61,0-19.28-.11-28.88.49s-19.15,1.77-28.78,1.58a28.73,28.73,0,0,1-16.42-5.61,12.47,12.47,0,0,0-2.75,7.2c-.67,23.07,73.95,44,166.67,46.65s168.42-13.84,169.09-36.92a10.8,10.8,0,0,0-.47-3.45C413,400.61,406.28,403,400.84,402.25Z"/><ellipse class="cls-1" cx="251.16" cy="390.49" rx="25.49" ry="167.95" transform="translate(-146.44 630.23) rotate(-88.34)"/><ellipse class="cls-1" cx="258.72" cy="389.4" rx="20.43" ry="134.61" transform="translate(-138.02 636.72) rotate(-88.34)"/><path class="cls-4" d="M384.57,356c-22-.39-44,.49-66,1.83-19.26,1.17-38.48,2.8-57.75,3.89-19.69,1.11-39.41,1.62-59.1,2.6s-39.07,2.61-58.53,4.85c-9.55,1.1-19.17,2.12-28.63,3.83s-18.82,4-28.41,4.89a28.59,28.59,0,0,1-17-3.67,12.5,12.5,0,0,0-1.9,7.47c2,23,78.54,35.11,171,27.05S404,375.49,402,352.49a11,11,0,0,0-.87-3.37C396.41,353,390.05,356.09,384.57,356Z"/><ellipse class="cls-1" cx="234.53" cy="361.64" rx="167.95" ry="25.49" transform="translate(-30.54 21.75) rotate(-4.99)"/><ellipse class="cls-1" cx="241.91" cy="359.68" rx="134.61" ry="20.43" transform="translate(-30.34 22.38) rotate(-4.99)"/><path class="cls-4" d="M385.81,338.66c-21.89-2.3-43.89-3.34-65.88-3.92-19.29-.5-38.59-.54-57.87-1.14-19.72-.6-39.4-1.8-59.11-2.54s-39.15-.8-58.73-.26c-9.61.26-19.28.45-28.85,1.33s-19.09,2.32-28.73,2.41a28.69,28.69,0,0,1-16.58-5.13,12.58,12.58,0,0,0-2.54,7.27c0,23.09,75.2,41.8,168,41.8s168-18.71,168-41.8a11,11,0,0,0-.57-3.43C397.87,336.67,391.27,339.24,385.81,338.66Z"/><ellipse class="cls-1" cx="235.85" cy="331.25" rx="167.95" ry="25.49"/><ellipse class="cls-1" cx="243.37" cy="329.93" rx="134.61" ry="20.43"/><path class="cls-5" d="M368.44,191.54a3.44,3.44,0,0,1,1.49-.83c1.88-.35,2.68,1.92,2.54,3.57-1.08,13.61-10.59,26.5-9.7,40.06,8.42-13.51,15.69-29.62,17.2-44.85.42-4.22.71-12.65-4-15.15-4.91-2.59-11.06,6.85-13.53,9.47A132.85,132.85,0,0,0,350.12,199c-.39.56-.79,1.23-.54,1.83s1.14.89,1.88,1.12a12.92,12.92,0,0,1,5.82,4.11C360.1,200.63,363.26,195.82,368.44,191.54Z"/><path class="cls-5" d="M95.82,235.47a3.86,3.86,0,0,0-1.8-.34c-2,.27-2,2.8-1.25,4.4,3.83,8.34,9.86,15.73,16.23,22.69,6.23,6.79,13.63,13,18.49,20.64.35.56.67,1.32.15,1.81a1.8,1.8,0,0,1-1.18.36,13.33,13.33,0,0,1-6.56-1.92c-16.51-8.51-29.45-21.93-36.24-37.55A124.37,124.37,0,0,1,78,228.2a8.11,8.11,0,0,1-.32-4.64c1.24-3.81,8-4.42,11.42-3.2,3.67,1.31,6.59,3.66,9.93,5.41a147.14,147.14,0,0,1,17.94,11c.6.43,1.25,1,1.22,1.65s-.83,1.26-1.49,1.74a13,13,0,0,0-4.34,6C107.53,241.77,102.6,238,95.82,235.47Z"/><path class="cls-6" d="M364.64,216.85c11.6,29.41-32,116-112.3,127.4-74.76,15.42-132.28-43.14-138.87-73.81s54-48.9,117.48-61S354.31,190.65,364.64,216.85Z"/><path class="cls-5" d="M357.14,251a251.22,251.22,0,0,1-48.06,39.24c-19.21,12.21-40.17,23.08-62.68,29.68a255,255,0,0,1-69.06,10c-4.13,0-8.24-.08-12.32-.4,23.58,13.72,53.71,21.74,87.32,14.81,63-9,103.44-64.24,112.3-101.82Q361.06,246.8,357.14,251Z"/><path class="cls-5" d="M139.27,286.24C144.62,292,150.15,297.75,157,302a48.29,48.29,0,0,0,11,5.1,57,57,0,0,0,6,1.54c2.05.4,4.14.71,6.23.95a112.75,112.75,0,0,0,25.5-.27A196.82,196.82,0,0,0,231,304.65c8.39-2,16.67-4.37,24.83-7.06,2.06-.64,4.08-1.36,6.11-2.06,1-.36,2-.7,3-1.07l3-1.12,3-1.13,3-1.2,3-1.17c1-.4,2-.83,3-1.24a338.73,338.73,0,0,0,45.41-23.33,232.61,232.61,0,0,1-43.82,26.2c-1,.45-2,.92-2.94,1.36l-3,1.3-3,1.29-3,1.21-3,1.22c-1,.4-2,.76-3.06,1.15-2,.76-4.08,1.54-6.15,2.23-8.26,2.86-16.69,5.31-25.22,7.4a194.61,194.61,0,0,1-26.1,4.59,125.86,125.86,0,0,1-13.31.59,91.63,91.63,0,0,1-13.26-1c-2.18-.34-4.34-.74-6.48-1.25a49.07,49.07,0,0,1-17.51-7.91,59.78,59.78,0,0,1-8.94-8.17A100.5,100.5,0,0,1,139.27,286.24Z"/><ellipse class="cls-5" cx="237.18" cy="233.42" rx="124.9" ry="32.06" transform="translate(-35.44 42.59) rotate(-9.55)"/><ellipse class="cls-7" cx="241" cy="240.57" rx="113.49" ry="27.08" transform="translate(-36.61 43.38) rotate(-9.56)"/><path class="cls-8" d="M168.66,272.26c8.51-.63,17.06-.87,25.55-1.08,15.32-.38,30.46-1.65,45.64-3.54q11.35-1.65,22.5-4c1.5-.41,3-.82,4.48-1.25,13.66-3.91,27.5-8.11,40.78-13.29,4.89-2.32,9.6-5,14.33-7.59l-8.41-94.8a11.4,11.4,0,0,0-12.33-10.32L169.06,148.15a11.4,11.4,0,0,0-10.32,12.32Z"/><ellipse class="cls-1" cx="236.56" cy="158.34" rx="91.75" ry="34.3" transform="translate(-13.07 21.53) rotate(-5.07)"/><ellipse class="cls-4" cx="237.67" cy="156.82" rx="75.63" ry="28.28" transform="translate(-12.93 21.62) rotate(-5.07)"/><path class="cls-9" d="M163,48.19q16.58,49.47,33.23,98.91c1.16,3.43,1.32,5.92-1.42,8.75-1.9,2-3.09,4.82-4,7.48a42.37,42.37,0,0,0-1.92,19.93q7.08,1.73,14.27,2.87a167.27,167.27,0,0,0,34.87.33c2-.35,3.92-.76,5.86-1.21a51.55,51.55,0,0,0-5.61-16.71c-5-9.52-11.93-17.24-22.78-20.15-2.63-.7-3.65-2-4.43-4.34-5.56-16.86-11.24-33.67-16.9-50.49L178.77,48a76.75,76.75,0,0,0-2.72-7.68,7.18,7.18,0,0,0-9.32-3.92,7.4,7.4,0,0,0-4.7,9A28.84,28.84,0,0,0,163,48.19Z"/><path class="cls-10" d="M169.7,47.07c11.05,33,22.05,66,33.23,98.91,1.16,3.42,1.32,5.91-1.42,8.75-1.9,2-3.09,4.82-4,7.47a42.42,42.42,0,0,0-1.92,19.94q7.08,1.73,14.27,2.87a168,168,0,0,0,34.87.32c2-.34,3.92-.76,5.86-1.2a51.63,51.63,0,0,0-5.62-16.72c-5-9.52-11.92-17.23-22.77-20.14-2.63-.71-3.65-2-4.43-4.35-5.56-16.85-11.25-33.66-16.9-50.49q-7.65-22.79-15.31-45.59a76,76,0,0,0-2.71-7.68,7.18,7.18,0,0,0-9.32-3.91,7.4,7.4,0,0,0-4.71,9C169,45.18,169.38,46.12,169.7,47.07Z"/><path class="cls-9" d="M228.57,187c5.12-.18,10.24-.48,15.35-1a35.76,35.76,0,0,0-1-9.23c-3.61-14.68-15.5-24.38-26.56-21.66-10.56,2.59-16.54,15.58-13.91,29.53C211.13,185.59,219.85,186.48,228.57,187Z"/><path class="cls-11" d="M275.41,203.29c2.67,1.74,6.37-.24,8.07-2.94s2.24-6,3.81-8.75a2.81,2.81,0,0,1,1.13-1.25c1.08-.51,2.38.39,2.78,1.51a8.23,8.23,0,0,1,.05,3.53,21.85,21.85,0,0,0,3.87,14.85,5.74,5.74,0,0,0,3,2.49c1.94.5,4-.94,4.82-2.75a13.14,13.14,0,0,0,.8-5.92l-.32-16.69c-.15-7.74-.24-15.8,3-22.83a12,12,0,0,0-11.18.84c-2,1.28-3.54,3.12-5.37,4.6-5.27,4.27-16.3,4.61-17.55,11.33C271.72,184.71,271.94,201.21,275.41,203.29Z"/><path class="cls-12" d="M322.32,329.17l.3,1.14c3.62.67,8.16,1.19,10.65-.57a6.72,6.72,0,0,0,1.32-1.35l2.52-3.14c.93-1.16,1.69-2.79,0-3.54a6.73,6.73,0,0,0-2.46-.34,72.31,72.31,0,0,0-20,2.66c-.7,2.16-1,5,2.16,6,2.17.73,5,.18,7.23.8"/><path class="cls-12" d="M346.32,328.85c-3.16,3.25-3.51,12.84.94,15a9,9,0,0,0,4.79.47,102.77,102.77,0,0,0,18.47-3.45,12,12,0,0,0,3.08-1.2,10.27,10.27,0,0,0,3.36-3.91A25.79,25.79,0,0,0,380.15,325a1.51,1.51,0,0,0-.22-1.09,1.57,1.57,0,0,0-1.12-.39C370.46,323,352.63,322.35,346.32,328.85Z"/><path class="cls-13" d="M156,282.13c-.27,5.44-1.57,11.54,1.76,15.86,3.52,4.57,11.74,4,14.62-1L182,318.06c.9,2,1.91,4.07,3.79,5.14,3.08,1.77,7.22-.17,9.1-3.19s2.08-6.75,2.23-10.3l.75-17.38c3.41-.08,5.16,4,5.72,7.38s1.46,7.48,4.75,8.39c2.88.79,5.78-1.72,6.72-4.56s.52-5.91.51-8.9c0-8.79,4.38-18.16,12.54-21.41,4.58-1.82,10.12-1.73,13.7-5.12-26.36-4.4-53.56,5.81-79.89,1.25C148.24,267,156.45,273.66,156,282.13Z"/><path class="cls-1" d="M368,408q-6.51-2.73-13.2-5-7.65-2.18-15.42-3.73l-2-.39Q331.22,397.7,325,397c-12-1.42-24-2.14-35.91-3.93a27.51,27.51,0,0,1-5.41-1.38c-.06.18-.12.37-.17.56-5.87,21.84,5.42,53.14,35.44,61.2,33.43,9,55.48-13.36,61.35-35.2a34.07,34.07,0,0,0,1.13-7.77A32.66,32.66,0,0,1,368,408Z"/><path id="SVGID-3" data-name="SVGID" class="cls-8" d="M381,410.41c-4,12.48-29.11,17.5-56,11.23s-45.39-21.48-41.35-34,29.12-17.51,56-11.23S385,397.93,381,410.41Z"/><g class="cls-14"><path class="cls-15" d="M315.11,415.1c3.74,9.25,23.25,15.42,43.59,13.77s33.8-10.48,30.07-19.74-23.25-15.42-43.59-13.77S311.38,405.84,315.11,415.1Z"/><path class="cls-15" d="M322.19,409.91c3.73,9.25,23.25,15.42,43.59,13.77s33.8-10.48,30.06-19.73-23.25-15.43-43.59-13.78S318.45,400.65,322.19,409.91Z"/><path class="cls-16" d="M306.48,415.87c-11.82-8.8-8.16-16.62-11.3-28-.52-1.84,26.55-14.77,25.58-16.69-7-13.72-26.43-9.79-39.72-8.06s-18.42,14.25-11.46,28S318.87,425.1,306.48,415.87Z"/><path class="cls-16" d="M298.69,414.05c-11.82-8.8-8.17-16.62-11.31-28-.51-1.84,26.56-14.77,25.58-16.69-7-13.72-26.43-9.79-39.72-8.06s-18.42,14.25-11.45,28S311.07,423.28,298.69,414.05Z"/></g><path id="SVGID-4" data-name="SVGID" class="cls-17" d="M381,410.41c-4,12.48-29.11,17.5-56,11.23s-45.39-21.48-41.35-34,29.12-17.51,56-11.23S385,397.93,381,410.41Z"/><path class="cls-1" d="M381.57,408.64c-4,12.48-29.11,17.51-56,11.23s-45.4-21.48-41.36-34,29.12-17.5,56-11.23S385.62,396.16,381.57,408.64Z"/><path class="cls-1" d="M380.41,408.21c-3.91,12.08-28.12,17-54.08,10.89s-43.82-20.76-39.91-32.83,28.13-16.95,54.08-10.89S384.33,396.14,380.41,408.21Z"/><path id="SVGID-5" data-name="SVGID" class="cls-8" d="M381.57,408.64c-4,12.48-29.11,17.51-56,11.23s-45.4-21.48-41.36-34,29.12-17.5,56-11.23S385.62,396.16,381.57,408.64Z"/><g class="cls-18"><path class="cls-15" d="M386.39,404.34c-1.94,13.28-22,21.07-44.84,17.41s-39.76-17.41-37.82-30.69,22-21.07,44.84-17.4S388.33,391.06,386.39,404.34Z"/><path class="cls-15" d="M378.83,387.9c8.12,11.7,4.48,23.44-8.13,26.21s-29.42-4.47-37.54-16.17-4.47-23.44,8.14-26.21S370.71,376.19,378.83,387.9Z"/><path class="cls-16" d="M307.89,416.46c-11.14-7.54-16.81-18.37-14.36-27,.5-1.76,29.32-14.25,22.24-18.73-16.32-10.36-27.46-8-40.17-5.26S260,381.23,269,394.59,320.94,425.29,307.89,416.46Z"/><path class="cls-16" d="M301.3,415.65c-20.93-14.11-5.22-15.76-6.81-26.26-.28-1.85,19.18-15.4,13.36-19.91-14.68-11.36-27.46-8-40.17-5.26S252,380,261.12,393.32,314.37,424.46,301.3,415.65Z"/></g><path id="SVGID-6" data-name="SVGID" class="cls-17" d="M381.57,408.64c-4,12.48-29.11,17.51-56,11.23s-45.4-21.48-41.36-34,29.12-17.5,56-11.23S385.62,396.16,381.57,408.64Z"/><ellipse class="cls-1" cx="333.13" cy="398.12" rx="21.95" ry="48.26" transform="translate(-125.05 642.15) rotate(-78.12)"/><ellipse class="cls-4" cx="331.8" cy="401.09" rx="18.63" ry="40.97" transform="translate(-129.01 643.2) rotate(-78.12)"/><path class="cls-19" d="M329.92,430.52c.3,3.44.5,7,2.2,10s5.43,5.21,8.64,3.95c2.74-1.08,4.11-4.18,4.5-7.1s.1-5.91.82-8.76a5.44,5.44,0,0,1,1.31-2.61,6.93,6.93,0,0,1,3.93-1.47c2.84-.43,5.76-.83,8.31-2.17s4.71-3.81,4.81-6.69c.18-5-5.49-8.13-10.45-8.85-7.72-1.11-15.92.54-23.15-2.37-4.9-2-8.75-5.81-12.95-9-4.37-3.31-17-12.45-22.78-8.21-4.89,3.58.05,15.77,2.94,19.9C307.12,420.17,328.17,410.49,329.92,430.52Z"/><path class="cls-8" d="M37.23,462.21c57.52-9,122-20.53,130.54-24.36l28.86-34.77a10.13,10.13,0,0,1,7.85-4c5.52-.06,9.68,4.44,13.34,8.42a30.51,30.51,0,0,0,4.69,4.5c2.55,1.35,14.44.89,25.42-1l2.27,11.42c-7.68,1.32-26.34,3.9-33.65-.62a36.91,36.91,0,0,1-7.21-6.59,46,46,0,0,0-4.08-4.07L176.3,446c-1.92,2.32-4.11,4.95-71.79,16.81C72,468.51,39.66,473.61,39.34,473.66Zm168.68-51.83Z"/><path class="cls-8" d="M31.44,428c.32,0,32.86-4.16,65.71-7.75,68.84-7.51,71.72-5.66,74.76-3.7L210,441.15c.65-1.19,1.37-2.78,1.88-3.89a35.21,35.21,0,0,1,4.86-8.55c5.53-6.4,22.8-9.21,32.6-10.31l1.93,13.82c-10.59,1.2-21.77,3.92-23.92,5.82a31.11,31.11,0,0,0-2.7,5.21c-2.29,5-4.87,10.73-10.66,12.35a11.73,11.73,0,0,1-9.76-1.8l-38.76-25c-10.27-1.11-74.88,5.78-131.93,13Z"/><path class="cls-20" d="M31.54,426.93c39.24-5,131.19-16.11,137.3-12.17l39.72,25.59c1.3.84,1.91.67,2.11.61,1.74-.48,3.48-4.32,4.88-7.41a32.22,32.22,0,0,1,4.18-7.47c4.94-5.73,25.58-8.32,29.67-8.78l.64,4.61c-8.78,1-23.8,3.83-26.74,7.24l-.09.11a30.15,30.15,0,0,0-3.41,6.29c-2,4.34-4,8.82-7.77,9.88a7.18,7.18,0,0,1-5.93-1.21l-39.72-25.59c-6-2.19-85.5,6.74-134.13,12.9Z"/><path class="cls-21" d="M122,460.67h0a4.85,4.85,0,0,1,1.86,2.94h0a3.49,3.49,0,0,1-.12,1.92h0a6.46,6.46,0,0,1-2.48,3.25h0a16.51,16.51,0,0,1-2.49,1.4l-9.23,4.17Z"/><path class="cls-19" d="M120.38,461.44a25.23,25.23,0,0,1-3.76,6.2,19.24,19.24,0,0,1-6.65,5.17,16.75,16.75,0,0,1-6.24,1.54,18.59,18.59,0,0,1-8.4-1.54A17.68,17.68,0,0,1,88.85,468a21.68,21.68,0,0,1-4.51-8.78,27,27,0,0,1-.73-8.71A45.91,45.91,0,0,1,86.73,437l1.12-2.84L121,460l-.06.14Z"/><path class="cls-22" d="M82.4,450.46a47.67,47.67,0,0,1,3.22-13.9l1.24-3.14,1,.76L86.73,437a45.91,45.91,0,0,0-3.12,13.49,27,27,0,0,0,.73,8.71A21.68,21.68,0,0,0,88.85,468a17.68,17.68,0,0,0,6.48,4.81,18.59,18.59,0,0,0,8.4,1.54,16.75,16.75,0,0,0,6.24-1.54,19.24,19.24,0,0,0,6.65-5.17,25.23,25.23,0,0,0,3.76-6.2l.6-1.4,1,.63-.54,1.26a26.71,26.71,0,0,1-4,6.54A20.22,20.22,0,0,1,110.4,474a18,18,0,0,1-5.6,1.57c-.36,0-.71.06-1.07.08a19.77,19.77,0,0,1-8.9-1.62,19.1,19.1,0,0,1-6.89-5.12,23,23,0,0,1-4.77-9.29A28.32,28.32,0,0,1,82.4,450.46Z"/><path class="cls-23" d="M115.51,466.24a17.28,17.28,0,0,1-6.1,4.93,14.92,14.92,0,0,1-5.73,1.45h0A16.55,16.55,0,0,1,90,466.49a21,21,0,0,1-4.14-8.39,26.74,26.74,0,0,1-.68-8.29h0A45.19,45.19,0,0,1,88,437.13l.83-2.19,30.69,24-.59,1.46A24.25,24.25,0,0,1,115.51,466.24Z"/><path class="cls-19" d="M94.85,461.16c.17-.29.31,0,.19.23-1.35,2.33-2,4.95-3.49,7.25-.18.27-.32,0-.19-.24C92.84,466.1,93.51,463.49,94.85,461.16Z"/><path class="cls-19" d="M100.52,462.08c0-.16.31-.53.3-.25a29.69,29.69,0,0,1-.46,4.7,38.25,38.25,0,0,0-1.11,5.68c0,.16-.31.52-.3.25a17.85,17.85,0,0,1,.66-3.76A29.73,29.73,0,0,0,100.52,462.08Z"/><path class="cls-19" d="M95.58,448.73l-11.37,4.55.58,1.85,6-2.41A37.36,37.36,0,0,1,86,456c-.13.07-.25.54-.07.44a46.52,46.52,0,0,0,5.42-3.73.49.49,0,0,0,.11-.24l8.48-3.4a25.15,25.15,0,0,1-4.67,3.17,17.49,17.49,0,0,0-2.25.93c-2.64,1.64-4.81,4.52-7.24,6.5-.15.12-.18.58,0,.4,2.63-2.14,5.16-5.44,8.12-6.94a47.63,47.63,0,0,0,6.7-4.16.38.38,0,0,0,.11-.23l.35-.14-.53.94-.55.77a16.27,16.27,0,0,1-1.91,1.59,31.79,31.79,0,0,0-3.58,2.54c-2.7,2.38-4.73,5.55-6.89,8.44-.09.13-.14.56,0,.3,2.24-3,4.35-6.26,7.18-8.65a33,33,0,0,1,3.18-2.16,29.87,29.87,0,0,0-3,3.26,28.77,28.77,0,0,1-2.82,3.8c-.7.66-1.69,1-2.23,1.81-.69,1.09-.79,2.45-1.51,3.59-.12.19,0,.49.14.21a15.7,15.7,0,0,0,1.12-2.43c.66-1.54,1.89-2.13,2.94-3.28,2-2.18,3.4-4.67,5.52-6.75a.51.51,0,0,0,.09-.39c.23-.16.46-.3.68-.46l-10.36,14.4,1.45,1.16L96,459.13a7.15,7.15,0,0,0-.55,1.4c-.32,1.19-.23,2.42-.46,3.62a16,16,0,0,1-2.77,5.92c-.15.21,0,.5.18.23a15.57,15.57,0,0,0,2.82-5.83c.49-2.55.26-4.11,1.88-6.61.5-.78,1-1.49,1.46-2.28l2.66-3.71v.07s0,0,0,0a17.73,17.73,0,0,0-2.49,5.32c-.15.63-.15,1-.26,1.63-.16,1-.69,5.51-1.06,2.08-.19-1.81.6-3.25,1.27-4.94.1-.27-.06-.35-.16-.08s-3.49,8.11-1.42,7.49c.57-.17,1-2,1.16-2.55.38-1.25.39-2.54.71-3.79a17.65,17.65,0,0,1,2.28-4.85v.17c-1.22,2.6-1.53,5.08-2.12,8-.75,3.8-3.62,6.71-4.1,10.52,0,.32.27.05.29-.14.38-3.05,2.75-5.82,3.68-8.73s1-6,2.22-8.95l0,1.88a.38.38,0,0,0-.19.26c-.3,2.39-1.26,4.66-1.69,7a39.16,39.16,0,0,1-2.55,8.9c-.11.28.14.4.26.12a31.8,31.8,0,0,0,2.29-7c.49-2.75,1.38-5.48,1.84-8.22l-.49,16.4,1.73,0a5.4,5.4,0,0,0,.6,1c.15.19.41-.23.28-.4-1-1.23.75-9.07,1-11.42a42.1,42.1,0,0,0,1.16,11c0,.18.28-.23.25-.36a41.33,41.33,0,0,1-.91-9.62c.51,3.37,2.4,6.29,2.75,9.74,0,.3.37,0,.35-.22-.33-3.32-2.12-6.16-2.69-9.38.18.33.36.65.57,1a26.2,26.2,0,0,1,3.27,8.08c.08.29.43,0,.37-.22a34.39,34.39,0,0,0-1.55-5.12c-.75-1.76-2.19-3.3-2.81-5.13,0-.25,0-.49,0-.74s-.08-.17-.16-.15c0-.53,0-1.05.06-1.59,0-.13,0-.23,0-.36a.13.13,0,0,1,0-.06s0,0,0,0a5.45,5.45,0,0,0-.43-1.92,28,28,0,0,0-1-5.93c-.07-.23-.25-.08-.31.1l0-.85.93,1.88a.36.36,0,0,0-.17.37c1.19,2.85,1.21,5.93,2.25,8.76,1.3,3.49,3.22,6.19,4,10,.06.29.38,0,.34-.23-.74-3.4-2.2-6.08-3.61-9.13-1.29-2.77-1.43-6-2.47-9l1.32,2.67c0,.05-.07.08-.06.13,1.3,5.4,4.95,9.53,6.16,14.93.07.29.41,0,.36-.22-1.08-4.8-4.06-8.59-5.63-13.17l6,12.12,1.65-1-8.35-16.91c.38.53.79,1,1.23,1.54.34.8.67,1.61,1,2.41.43,1,.84,2.51,1.62,3.27a9.64,9.64,0,0,0,2.1,1.38,56.1,56.1,0,0,0,3.15,7.57c.14.23.42-.15.32-.33a46.21,46.21,0,0,1-2.91-6.89,4.15,4.15,0,0,1,.79.73,29.64,29.64,0,0,1,2.74,5c.11.22.38-.17.3-.33-1-2.05-2-4.8-3.82-6.22a5.35,5.35,0,0,0-.45-.31,24.51,24.51,0,0,0-1.09-2.32,26.21,26.21,0,0,0-3.49-4.35c0-.12-.1-.25-.16-.37a22.46,22.46,0,0,1,5.42,6.15,23,23,0,0,0,4.77,5.56c.18.16.43-.26.27-.4-2.49-2.14-4-4.69-5.85-7.46a13.08,13.08,0,0,0-3-2.88c-.7-.59-1.29-1.26-2-1.82l0,0c1.67,1.39,3.66,2.37,5.2,4,2.29,2.41,3.85,5.43,6.68,7.24.19.13.39-.32.2-.45-2.81-1.8-4.33-4.8-6.61-7.19a12,12,0,0,0-1.31-1.17l8,6.25.57-.81-15.37-12L102.66,448l.74-1.7L88.83,434.94l-.57.81,9.63,7.51c-.69-.38-1.31-.87-2-1.24a28.11,28.11,0,0,1-2.6-1.24c-1.93-1.24-3.47-3-5.47-4.14-.15-.08-.36.37-.2.46,2,1.14,3.54,2.89,5.47,4.14a7.69,7.69,0,0,0,1.19.58L87,438.54l-.79,1.82,13.14,5.92a33.14,33.14,0,0,1-7.39-2.21c-2-.87-3.68-2.26-5.74-3.06-.18-.07-.38.39-.2.46,2.29.88,4.17,2.44,6.46,3.33.76.29,1.53.53,2.3.79a28.8,28.8,0,0,1-3.41-1c-1.88-.72-3.26-1.85-5.27-.83-.11.06-.25.51-.09.43,2.29-1.17,4.9.84,7.11,1.49s4.3,1,6.47,1.42l-.28.11a8.35,8.35,0,0,0-1.87-.06c0-.12,0-.22-.17-.2-3.72.69-7.57-1.58-11.22-.34-.21.07-.27.55,0,.46,3.59-1.21,7.39,1,11.06.36,0,.1,0,.21.07.19a4.34,4.34,0,0,1,1.08,0l-.61.25a59.54,59.54,0,0,1-6.79.78.38.38,0,0,0,.12-.29c-.08-.72-.84-.93-1.41-1a32.19,32.19,0,0,0-5.4.54c-.16,0-.31.48-.13.46,1.06-.09,2.12-.2,3.18-.32.52-.06,2.58-.58,2.91-.06s-2,.41-2.38.41h-3c-.16,0-.32.46-.13.46h4l.45,0a12.41,12.41,0,0,0-4.71,1.65c-.12.07-.24.53-.09.44C87.66,448.88,91.7,449.19,95.58,448.73Zm12.32,4.93a18.9,18.9,0,0,1,2.6,3.32c.29.51.51,1,.75,1.58a4,4,0,0,1-1.46-1.38,14.83,14.83,0,0,1-1.68-3Zm-1.58-3.74s0-.07,0-.11l4.35,3.41A38.69,38.69,0,0,1,106.32,449.92Zm-.11,1a10.16,10.16,0,0,1-.9-1.47,8.54,8.54,0,0,0,.74.84c.07.19.16.37.23.56C106.25,450.9,106.23,450.89,106.21,450.94Zm-1.54-2.14h0l0,0Zm-.28,10c0-.37,0-.71,0-1.07a5.39,5.39,0,0,1,.06.8h0C104.4,458.61,104.41,458.69,104.39,458.79Zm-.12,1.84c0-.12,0-.24,0-.36v0Zm-.4-5.09a16,16,0,0,1-.9-2l.07-2.51A28.88,28.88,0,0,1,103.87,455.54Zm-1.31,12.68a.42.42,0,0,1,0,.12l.42-13.92c.31.61.66,1.2,1,1.83A29.76,29.76,0,0,1,102.56,468.22Zm-4.07-24.49,0,0h0Zm1.94,3.06h0l-.12,0,0-.06Z"/></g></g></svg>