<svg width="168" height="139" viewBox="0 0 168 139" fill="none" xmlns="http://www.w3.org/2000/svg">
<path d="M33.9766 79.4531C15.4849 79.4531 0.487305 92.7844 0.487305 109.221C0.487305 125.659 15.4849 138.99 33.9766 138.99C52.4683 138.99 67.466 125.659 67.466 109.221C67.466 92.7844 52.4683 79.4531 33.9766 79.4531ZM33.9766 129.067C21.6693 129.067 11.6504 120.161 11.6504 109.221C11.6504 98.2816 21.6693 89.3759 33.9766 89.3759C46.284 89.3759 56.3029 98.2816 56.3029 109.221C56.3029 120.161 46.284 129.067 33.9766 129.067Z" fill="white"/>
<path d="M134.443 79.4531C115.952 79.4531 100.954 92.7844 100.954 109.221C100.954 125.659 115.952 138.99 134.443 138.99C152.935 138.99 167.933 125.659 167.933 109.221C167.933 92.7844 152.935 79.4531 134.443 79.4531ZM134.443 129.067C122.136 129.067 112.117 120.161 112.117 109.221C112.117 98.2816 122.136 89.3759 134.443 89.3759C146.751 89.3759 156.77 98.2816 156.77 109.221C156.77 120.161 146.751 129.067 134.443 129.067Z" fill="white"/>
<path d="M156.773 69.5391H123.283V74.5004H156.773V69.5391Z" fill="white"/>
<path d="M156.773 59.625H123.283V64.5864H156.773V59.625Z" fill="white"/>
<path d="M156.773 49.7109H123.283V54.6723H156.773V49.7109Z" fill="white"/>
<path d="M156.773 39.793H123.283V44.7544H156.773V39.793Z" fill="white"/>
<path d="M117.699 69.547L89.7917 24.8945L67.4654 34.8173L28.3945 59.6242L33.9761 64.5856L74.5652 51.056L83.0938 70.5342L67.4654 84.4311L84.2101 134.045L95.3732 129.084L89.7917 89.3925L117.699 69.547Z" fill="white"/>
<path d="M56.3028 12.4855C56.3028 19.3372 62.5485 24.889 70.2567 24.889C77.9648 24.889 84.2105 19.3372 84.2105 12.4855C84.2105 5.63382 77.9648 0.0820312 70.2567 0.0820312C65.7077 0.0820312 61.7057 2.04674 59.1605 5.04342H45.1396V10.0048H56.5874C56.4032 10.8085 56.3028 11.6321 56.3028 12.4855Z" fill="white"/>
</svg>
