<svg width="168" height="139" viewBox="0 0 168 139" fill="none" xmlns="http://www.w3.org/2000/svg">
<path d="M33.8126 79.4531C15.3209 79.4531 0.323242 92.7844 0.323242 109.221C0.323242 125.659 15.3209 138.99 33.8126 138.99C52.3043 138.99 67.3019 125.659 67.3019 109.221C67.3019 92.7844 52.3043 79.4531 33.8126 79.4531ZM33.8126 129.067C21.5053 129.067 11.4864 120.161 11.4864 109.221C11.4864 98.2816 21.5053 89.3759 33.8126 89.3759C46.1199 89.3759 56.1388 98.2816 56.1388 109.221C56.1388 120.161 46.1199 129.067 33.8126 129.067Z" fill="#F85266"/>
<path d="M134.279 79.4531C115.788 79.4531 100.79 92.7844 100.79 109.221C100.79 125.659 115.788 138.99 134.279 138.99C152.771 138.99 167.769 125.659 167.769 109.221C167.769 92.7844 152.771 79.4531 134.279 79.4531ZM134.279 129.067C121.972 129.067 111.953 120.161 111.953 109.221C111.953 98.2816 121.972 89.3759 134.279 89.3759C146.587 89.3759 156.606 98.2816 156.606 109.221C156.606 120.161 146.587 129.067 134.279 129.067Z" fill="#F85266"/>
<path d="M156.608 69.5391H123.119V74.5004H156.608V69.5391Z" fill="#F85266"/>
<path d="M156.608 59.625H123.119V64.5864H156.608V59.625Z" fill="#F85266"/>
<path d="M156.608 49.7109H123.119V54.6723H156.608V49.7109Z" fill="#F85266"/>
<path d="M156.608 39.793H123.119V44.7544H156.608V39.793Z" fill="#F85266"/>
<path d="M117.535 69.547L89.6276 24.8945L67.3014 34.8173L28.2305 59.6242L33.812 64.5856L74.4011 51.056L82.9297 70.5342L67.3014 84.4311L84.046 134.045L95.2092 129.084L89.6276 89.3925L117.535 69.547Z" fill="#F85266"/>
<path d="M56.1387 12.4855C56.1387 19.3372 62.3845 24.889 70.0926 24.889C77.8007 24.889 84.0465 19.3372 84.0465 12.4855C84.0465 5.63382 77.8007 0.0820312 70.0926 0.0820312C65.5436 0.0820312 61.5417 2.04674 58.9965 5.04342H44.9756V10.0048H56.4234C56.2392 10.8085 56.1387 11.6321 56.1387 12.4855Z" fill="#F85266"/>
</svg>
