<svg id="Layer_1" data-name="Layer 1" xmlns="http://www.w3.org/2000/svg" viewBox="0 0 85.2 87"><defs><style>.cls-1{fill:#15a191;}.cls-2{fill:#80dad0;}.cls-3{fill:#e21c24;}.cls-4{fill:none;stroke:#fff;stroke-linecap:round;stroke-linejoin:round;stroke-width:2px;}.cls-5{fill:#ffda73;}</style></defs><title>order delivered</title><path class="cls-1" d="M58.72,19.53l6-1.32,5.87,21.1L68.43,81,60.52,85.8,13.9,81.25,14.5,37l6-15.34L35.23,34.87l18.34-2.75,8.5-10.43"/><path class="cls-2" d="M14.38,35.11a12.43,12.43,0,0,0,8.39,5.63c1.44.24,3,.48,4.43.6,4.32.36,8.51,1,12.82,1.08a25.65,25.65,0,0,0,17.74-5.87,7.65,7.65,0,0,1,1.68-1c-.48,2.28-1,4.2-1.32,6a52.24,52.24,0,0,0-1.32,7.31c-.12,11.87,0,23.73,0,35.47V87c-1.44-.12-2.75-.24-3.95-.36-5.52-.72-11-1.56-16.66-2.16-4.67-.6-9.35-1.08-13.9-1.55-3.12-.36-6.23-.72-9.35-1.2a2.11,2.11,0,0,1-1.08-1.56c-.12-12.22-.12-24.57,0-36.79,0-2,1.08-4,1.68-5.87.24-.72.48-1.32.84-2.4"/><path class="cls-2" d="M65.43,22.05c.72,2.4,1.56,4.55,2.16,6.71,1.2,3.6,2.27,7.07,3.47,10.67a16.57,16.57,0,0,1,.72,3.35c0,12.1,0,24.21.12,36.19,0,1.68-.72,1.92-1.68,2.28-3.47,1.56-7.07,3.23-10.54,4.91H59v-35A48.92,48.92,0,0,1,59.8,44c.72-3.36,1.56-6.59,2.39-9.95s1.56-6.59,2.4-9.94a4.36,4.36,0,0,1,.84-2"/><path class="cls-2" d="M63.75,18.69c-.6,2.52-1.2,4.68-1.68,7-.83,4-2.39,7.31-5.27,9.35a32.35,32.35,0,0,1-7.07,4.2C44,41.58,38.11,40.86,32.36,40c-2.88-.35-5.76-.47-8.63-.83a10.39,10.39,0,0,1-6.83-3.84,6.89,6.89,0,0,1-.84-5.75q1.62-4.68,2.87-9.35c.36-1.2.72-1.68,1.68-1.56ZM39,19.89H35.71c-3.11,0-6.83-.12-9.47,2.4a2.44,2.44,0,0,0-.48,3.23A4.14,4.14,0,0,0,27.2,27c3.36,2,7.07,1.56,10.67,1.68a54.67,54.67,0,0,0,7.67-.24,18.7,18.7,0,0,0,3.59-.6c1.32-.48,4-1.92,3.48-4.31-.24-1.44-1.8-2-2.76-2.4a26,26,0,0,0-9.59-1.2H39"/><path class="cls-3" d="M53.93,55.48a6.51,6.51,0,0,1,.83-1.08,8.84,8.84,0,0,1,4.2-3,6.42,6.42,0,0,1,7.91,3.35,10.28,10.28,0,0,1,.12,9A17.45,17.45,0,0,1,63.27,69a38.86,38.86,0,0,1-9.1,6.72.37.37,0,0,1-.48,0A37.58,37.58,0,0,1,46,70.46,22.34,22.34,0,0,1,41.46,65a11.28,11.28,0,0,1-1-9,7.36,7.36,0,0,1,2.64-3.71,6.49,6.49,0,0,1,6.59-.48,8.91,8.91,0,0,1,4.08,3.47l.12.24"/><path class="cls-4" d="M60.76,59.8,52.37,67,49,63.39"/><path class="cls-5" d="M11.74,0c1.08,5.75,1.2,5.87,6.71,7-1.79.36-3.71.36-5,1.68s-1.44,3.23-1.68,5c-.36-1.8-.36-3.71-1.67-5.15S6.83,7.07,5,6.83c1.8-.36,3.72-.36,5-1.8S11.5,1.8,11.74,0Z"/><path class="cls-5" d="M71.78,29.6c3.36-.36,4-1,4.32-4a7.85,7.85,0,0,0,1.19,2.76,6.64,6.64,0,0,0,2.64,1.2,6.14,6.14,0,0,0-2.52,1.2,7.74,7.74,0,0,0-1.2,2.87C75.74,30.8,75.5,30.44,71.78,29.6Z"/><path class="cls-5" d="M3.71,67.11c4.8-.6,5.64-1.44,6.24-5.75.48,1.19.72,3,1.79,4a11.71,11.71,0,0,0,3.72,1.8c-.84.36-2.64.72-3.72,1.68S10.43,71.66,10,72.86C9.47,68.67,9,68.31,3.71,67.11Z"/><path class="cls-5" d="M15.7,48.77a3.17,3.17,0,0,0,3.11,3.12h.12a2.93,2.93,0,0,0-3.11,2.63v.36a9.22,9.22,0,0,0-1.08-2.15,5.93,5.93,0,0,0-2.16-1,2.77,2.77,0,0,0,3-2.76C15.7,49,15.7,48.89,15.7,48.77Z"/><path class="cls-5" d="M0,75.86a2.69,2.69,0,0,0,2.76-2.64V73a2.81,2.81,0,0,0,2.75,2.88h.12a2.63,2.63,0,0,0-2.87,2.63v.24A2.58,2.58,0,0,0,.24,76c0-.12-.12-.12-.24-.12Z"/><path class="cls-5" d="M82.69,45.66c-.36-1.68-.72-2-2.52-2.4a2.43,2.43,0,0,0,2.52-2.4v-.12a2.45,2.45,0,0,0,2.51,2.52,2.43,2.43,0,0,0-2.51,2.4Z"/><path class="cls-5" d="M80.05,10.43c-.36-1.68-.72-2-2.52-2.4a2.43,2.43,0,0,0,2.52-2.4V5.51A2.46,2.46,0,0,0,82.57,8a2.3,2.3,0,0,0-2.52,2.4Z"/><path class="cls-5" d="M76.69,77.77c-1.31-5.87-2.63-7.07-8.62-8.27,5.27-.6,8.26-3,8.62-8.5a8.72,8.72,0,0,0,8.51,8.62A8.32,8.32,0,0,0,76.69,77.77Z"/></svg>