<svg width="328" height="130" viewBox="0 0 328 130" fill="none" xmlns="http://www.w3.org/2000/svg">
<path d="M187.002 7H27.0002C15.9544 7 7 15.6736 7 26.3729V103.865C7 114.564 15.9544 123.238 27.0002 123.238H187.002C198.048 123.238 207.002 114.564 207.002 103.865V26.3729C207.002 15.6736 198.048 7 187.002 7Z" fill="white" stroke="white" stroke-width="13" stroke-linecap="round" stroke-linejoin="round"/>
<path d="M132.395 64.7391C132.395 78.2554 121.083 89.2126 107.129 89.2126C93.1747 89.2126 81.8627 78.2554 81.8627 64.7391C81.8627 51.2228 93.1747 40.2656 107.129 40.2656C121.083 40.2656 132.395 51.2228 132.395 64.7391Z" fill="#F85266"/>
<path d="M174.504 64.7391C174.504 69.2445 170.734 72.8969 166.082 72.8969C161.431 72.8969 157.66 69.2445 157.66 64.7391C157.66 60.2337 161.431 56.5813 166.082 56.5813C170.734 56.5813 174.504 60.2337 174.504 64.7391Z" fill="#F85266"/>
<path d="M56.5969 64.7391C56.5969 69.2445 52.8262 72.8969 48.1749 72.8969C43.5236 72.8969 39.7529 69.2445 39.7529 64.7391C39.7529 60.2337 43.5236 56.5813 48.1749 56.5813C52.8262 56.5813 56.5969 60.2337 56.5969 64.7391Z" fill="#F85266"/>
<path d="M283 105.101C305.091 105.101 323 87.1927 323 65.1014C323 43.0101 305.091 25.1016 283 25.1016C260.909 25.1016 243 43.0101 243 65.1014C243 87.1927 260.909 105.101 283 105.101Z" fill="#F85266"/>
<path d="M295 53.0982L283 65.0979M283 65.0979L271 77.0981M283 65.0979L271 53.0977M283 65.0979L295 77.0976M323 65.1014C323 87.1927 305.091 105.101 283 105.101C260.909 105.101 243 87.1927 243 65.1014C243 43.0101 260.909 25.1016 283 25.1016C305.091 25.1016 323 43.0101 323 65.1014Z" stroke="white" stroke-width="10" stroke-linecap="round" stroke-linejoin="round"/>
</svg>
