<svg id="Layer_1" data-name="Layer 1" xmlns="http://www.w3.org/2000/svg" viewBox="0 0 41.14 32.85"><defs><style>.cls-1{fill:#dd1c24;}.cls-2{fill:#fff;}</style></defs><path class="cls-1" d="M38.58,32.85H7.79a2.56,2.56,0,0,1-2.56-2.56V13a2.56,2.56,0,0,1,2.56-2.56H38.58A2.56,2.56,0,0,1,41.14,13V30.29A2.56,2.56,0,0,1,38.58,32.85ZM7.79,11.48A1.54,1.54,0,0,0,6.25,13V30.29a1.54,1.54,0,0,0,1.54,1.54H38.58a1.54,1.54,0,0,0,1.53-1.54V13a1.54,1.54,0,0,0-1.53-1.54Z"/><rect class="cls-1" x="5.74" y="11.32" width="34.89" height="20.5"/><rect class="cls-1" x="7.21" y="16.62" width="31.89" height="2.64" rx="1.08"/><path class="cls-1" d="M33.35,22.39H2.56A2.56,2.56,0,0,1,0,19.83V2.56A2.56,2.56,0,0,1,2.56,0H33.35a2.56,2.56,0,0,1,2.56,2.56V19.83A2.56,2.56,0,0,1,33.35,22.39ZM2.56,1A1.54,1.54,0,0,0,1,2.56V19.83a1.53,1.53,0,0,0,1.54,1.53H33.35a1.53,1.53,0,0,0,1.54-1.53V2.56A1.54,1.54,0,0,0,33.35,1Z"/><path class="cls-1" d="M33.87,7.72A1.08,1.08,0,0,1,32.78,8.8H3.06A1.08,1.08,0,0,1,2,7.72V7.24A1.09,1.09,0,0,1,3.06,6.16H32.78a1.09,1.09,0,0,1,1.09,1.08Z"/><path class="cls-2" d="M36.28,20.81a7.08,7.08,0,0,0-.87-2.76,7.3,7.3,0,0,0-11.18-2c-.08.07-.13.07-.2,0l-1.12-.73-.11-.07c-.07,1.4-.15,2.77-.22,4.17l3.72-1.89-1.25-.82A6.26,6.26,0,0,1,33.44,26a6,6,0,0,1-4.7,1.83,6.25,6.25,0,0,1-5.08-3l-.87.53.1.16a7.29,7.29,0,0,0,7.44,3.19,7.05,7.05,0,0,0,4.11-2.3A7.21,7.21,0,0,0,36.28,20.81Z"/><path class="cls-2" d="M27.16,21.89h1.76a.89.89,0,0,1-.35.42,1.3,1.3,0,0,1-.67.15h-.73v.67h.69a.57.57,0,0,1,.22,0,.47.47,0,0,1,.14.14L29.34,25a.39.39,0,0,0,.37.2h.89l-1.33-2a.7.7,0,0,0-.18-.2.6.6,0,0,0-.21-.14,1.77,1.77,0,0,0,.67-.41,1.37,1.37,0,0,0,.34-.61h.82v-.7h-.82a1,1,0,0,0-.15-.33.91.91,0,0,0-.28-.27h1.25v-.7H27.17v.73h.74a1.36,1.36,0,0,1,.69.15.76.76,0,0,1,.35.42H27.16Z"/></svg>