<svg width="329" height="130" viewBox="0 0 329 130" fill="none" xmlns="http://www.w3.org/2000/svg">
<path d="M187.42 6.89844H27.4182C16.3724 6.89844 7.41797 15.572 7.41797 26.2714V103.763C7.41797 114.462 16.3724 123.136 27.4182 123.136H187.42C198.466 123.136 207.42 114.462 207.42 103.763V26.2714C207.42 15.572 198.466 6.89844 187.42 6.89844Z" fill="white" stroke="#F85266" stroke-width="13" stroke-linecap="round" stroke-linejoin="round"/>
<path d="M132.812 64.6375C132.812 78.1539 121.501 89.111 107.547 89.111C93.5926 89.111 82.2807 78.1539 82.2807 64.6375C82.2807 51.1212 93.5926 40.1641 107.547 40.1641C121.501 40.1641 132.812 51.1212 132.812 64.6375Z" fill="#F85266"/>
<path d="M174.922 64.6375C174.922 69.143 171.152 72.7954 166.5 72.7954C161.849 72.7954 158.078 69.143 158.078 64.6375C158.078 60.1321 161.849 56.4797 166.5 56.4797C171.152 56.4797 174.922 60.1321 174.922 64.6375Z" fill="#F85266"/>
<path d="M57.0148 64.6375C57.0148 69.143 53.2442 72.7954 48.5929 72.7954C43.9415 72.7954 40.1709 69.143 40.1709 64.6375C40.1709 60.1321 43.9415 56.4797 48.5929 56.4797C53.2442 56.4797 57.0148 60.1321 57.0148 64.6375Z" fill="#F85266"/>
<path d="M294.085 54.3338L283.418 65.0002M283.418 65.0002L272.751 75.6671M283.418 65.0002L272.751 54.3333M283.418 65.0002L294.085 75.6666M323.418 65C323.418 87.0914 305.509 105 283.418 105C261.327 105 243.418 87.0914 243.418 65C243.418 42.9086 261.327 25 283.418 25C305.509 25 323.418 42.9086 323.418 65Z" stroke="#F85266" stroke-width="10" stroke-linecap="round" stroke-linejoin="round"/>
</svg>
