<svg width="330" height="130" viewBox="0 0 330 130" fill="none" xmlns="http://www.w3.org/2000/svg">
<path d="M187.002 6.89844H27.0002C15.9544 6.89844 7 15.572 7 26.2714V103.763C7 114.462 15.9544 123.136 27.0002 123.136H187.002C198.048 123.136 207.002 114.462 207.002 103.763V26.2714C207.002 15.572 198.048 6.89844 187.002 6.89844Z" fill="white" stroke="#F85266" stroke-width="13.6855" stroke-linecap="round" stroke-linejoin="round"/>
<path d="M132.395 64.6375C132.395 78.1539 121.083 89.111 107.129 89.111C93.1747 89.111 81.8627 78.1539 81.8627 64.6375C81.8627 51.1212 93.1747 40.1641 107.129 40.1641C121.083 40.1641 132.395 51.1212 132.395 64.6375Z" fill="#F85266"/>
<path d="M174.504 64.6375C174.504 69.143 170.734 72.7954 166.082 72.7954C161.431 72.7954 157.66 69.143 157.66 64.6375C157.66 60.1321 161.431 56.4797 166.082 56.4797C170.734 56.4797 174.504 60.1321 174.504 64.6375Z" fill="#F85266"/>
<path d="M56.5969 64.6375C56.5969 69.143 52.8262 72.7954 48.1749 72.7954C43.5236 72.7954 39.7529 69.143 39.7529 64.6375C39.7529 60.1321 43.5236 56.4797 48.1749 56.4797C52.8262 56.4797 56.5969 60.1321 56.5969 64.6375Z" fill="#F85266"/>
<path d="M243.002 40.2163V31.6062C243.002 29.3227 243.938 27.1326 245.605 25.5179C247.272 23.9032 249.533 22.9961 251.891 22.9961H260.78M305.224 22.9961H314.113C316.471 22.9961 318.732 23.9032 320.398 25.5179C322.065 27.1326 323.002 29.3227 323.002 31.6062V40.2163M323.002 83.262V91.8721C323.002 94.1557 322.065 96.3457 320.398 97.9604C318.732 99.5751 316.471 100.482 314.113 100.482H305.224M260.78 100.482H251.891C249.533 100.482 247.272 99.5751 245.605 97.9604C243.938 96.3457 243.002 94.1557 243.002 91.8721V83.262M260.781 61.7406H305.225" stroke="#F85266" stroke-width="12" stroke-linecap="round" stroke-linejoin="round"/>
</svg>
