<svg id="Layer_1" data-name="Layer 1" xmlns="http://www.w3.org/2000/svg" viewBox="0 0 21.7 21.69"><defs><style>.cls-1{fill:#60c0b4;}</style></defs><title>Artboard 117</title><g id="Artboard_4" data-name="Artboard 4"><g id="Phone"><path id="Path_110" data-name="Path 110" class="cls-1" d="M12.61,15.49l2.32-2.12a.73.73,0,0,1,.58-.2l.39.2,5.42,2.53c.38.19.38.39.38.78a4.85,4.85,0,0,1-1.54,3.46,5.55,5.55,0,0,1-4.07,1.55,11.77,11.77,0,0,1-5.42-1.36,25.6,25.6,0,0,1-5.42-3.87,33.16,33.16,0,0,1-2.91-4.24A28.48,28.48,0,0,1,.4,8,12.09,12.09,0,0,1,0,4.24,5,5,0,0,1,1.39,1.36,5.84,5.84,0,0,1,5.05,0a1,1,0,0,1,.78.39l2.9,5.44a.64.64,0,0,0,.2.39.72.72,0,0,1-.2.58L6.21,9.1a.9.9,0,0,0,0,1,19,19,0,0,0,2.33,3.1,19.6,19.6,0,0,0,3.09,2.51C12,15.9,12.41,15.9,12.61,15.49Z"/></g></g></svg>