<svg width="180" height="154" viewBox="0 0 180 154" fill="none" xmlns="http://www.w3.org/2000/svg">
<path d="M154.26 48.4966C154.26 53.2127 149.954 57.0402 144.649 57.0402H35.7189C30.4134 57.0402 26.1074 53.2127 26.1074 48.4966C26.1074 43.7806 30.4134 39.9531 35.7189 39.9531H144.649C149.954 39.9531 154.26 43.7806 154.26 48.4966Z" fill="white"/>
<path d="M152.385 1.7562C149.879 -0.470815 145.83 -0.470815 143.324 1.7562L106.756 34.2614H124.877L152.385 9.8099C154.89 7.58288 154.89 3.98321 152.385 1.7562Z" fill="white"/>
<path d="M178.616 59.31C176.489 56.7982 172.484 56.2799 169.645 58.1709L148.635 72.1823C144.765 66.4638 141.445 62.7274 141.445 62.7274H38.9232C38.9232 62.7274 35.508 66.3954 31.5545 72.0569L10.7296 58.1709C7.90386 56.2799 3.88621 56.7982 1.77169 59.31C-0.35565 61.8218 0.22107 65.393 3.04684 67.2783L25.4223 82.2009C22.2185 88.4776 19.7003 95.6029 19.7003 102.597C19.7003 112.764 23.3269 124.799 35.0465 133.958C27.4022 141.362 23.9934 149.484 27.5112 152.611C31.266 155.949 41.3902 152.355 50.111 144.603C50.7838 144.005 51.3732 143.39 52.0011 142.78C61.7728 146.101 74.2037 148.163 90.1843 148.163C106.255 148.163 118.73 146.158 128.528 142.928C129.104 143.486 129.643 144.05 130.258 144.603C138.978 152.355 149.103 155.949 152.857 152.611C156.337 149.518 153.069 141.556 145.61 134.225C157.112 125.369 160.668 113.732 160.668 103.645C160.668 96.4515 158.016 88.9617 154.671 82.3832L177.328 67.284C180.167 65.3987 180.731 61.8275 178.616 59.31Z" fill="white"/>
</svg>
