<svg width="181" height="154" viewBox="0 0 181 154" fill="none" xmlns="http://www.w3.org/2000/svg">
<path d="M154.678 48.4966C154.678 53.2127 150.372 57.0402 145.067 57.0402H36.1369C30.8313 57.0402 26.5254 53.2127 26.5254 48.4966C26.5254 43.7806 30.8313 39.9531 36.1369 39.9531H145.067C150.372 39.9531 154.678 43.7806 154.678 48.4966Z" fill="#F85266"/>
<path d="M152.803 1.7562C150.297 -0.470815 146.248 -0.470815 143.742 1.7562L107.174 34.2614H125.295L152.803 9.8099C155.308 7.58288 155.308 3.98321 152.803 1.7562Z" fill="#F85266"/>
<path d="M179.034 59.31C176.907 56.7982 172.902 56.2799 170.063 58.1709L149.053 72.1823C145.183 66.4638 141.863 62.7274 141.863 62.7274H39.3412C39.3412 62.7274 35.9259 66.3954 31.9724 72.0569L11.1476 58.1709C8.32183 56.2799 4.30418 56.7982 2.18966 59.31C0.0623189 61.8218 0.639039 65.393 3.46481 67.2783L25.8403 82.2009C22.6365 88.4776 20.1183 95.6029 20.1183 102.597C20.1183 112.764 23.7449 124.799 35.4645 133.958C27.8202 141.362 24.4113 149.484 27.9291 152.611C31.684 155.949 41.8081 152.355 50.5289 144.603C51.2017 144.005 51.7911 143.39 52.4191 142.78C62.1907 146.101 74.6216 148.163 90.6023 148.163C106.673 148.163 119.148 146.158 128.946 142.928C129.522 143.486 130.061 144.05 130.676 144.603C139.396 152.355 149.521 155.949 153.275 152.611C156.755 149.518 153.487 141.556 146.028 134.225C157.53 125.369 161.086 113.732 161.086 103.645C161.086 96.4515 158.434 88.9617 155.089 82.3832L177.746 67.284C180.585 65.3987 181.149 61.8275 179.034 59.31Z" fill="#F85266"/>
</svg>
