<svg width="255" height="139" viewBox="0 0 255 139" fill="none" xmlns="http://www.w3.org/2000/svg">
<path fill-rule="evenodd" clip-rule="evenodd" d="M132.247 10.6213V138.204H0V10.6213H42.0867V0H90.16V10.6213H132.247ZM84.1553 5.31061H48.0913V15.9478H84.1553V5.31061ZM114.28 32.2695H18.2798V44.2695H114.28V32.2695ZM18.2798 51.2695H114.28V63.2695H18.2798V51.2695ZM114.28 70.2695H18.2798V82.2695H114.28V70.2695ZM18.2798 89.2695H114.28V101.27H18.2798V89.2695ZM114.28 108.27H18.2798V120.27H114.28V108.27Z" fill="white"/>
<path d="M179.968 41.3018L236.528 97.8618M248.247 69.5781C248.247 91.6695 230.338 109.578 208.247 109.578C186.156 109.578 168.247 91.6695 168.247 69.5781C168.247 47.4867 186.156 29.5781 208.247 29.5781C230.338 29.5781 248.247 47.4867 248.247 69.5781Z" stroke="white" stroke-width="13" stroke-linecap="round" stroke-linejoin="round"/>
</svg>
