<svg width="155" height="170" viewBox="0 0 155 170" fill="none" xmlns="http://www.w3.org/2000/svg">
<path d="M145 10V55H100M10 84.9971C10.0119 71.972 13.792 59.2285 20.8844 48.3037C27.9768 37.3788 38.0786 28.7394 49.9713 23.4273C61.864 18.1152 75.0396 16.3575 87.909 18.366C100.778 20.3746 112.792 26.0637 122.5 34.7471L145 54.9971M10 160V115M10 115H55M10 115L32.5 135.25C42.2084 143.933 54.2217 149.623 67.091 151.631C79.9604 153.64 93.136 151.882 105.029 146.57C116.921 141.258 127.023 132.618 134.116 121.693C141.208 110.769 144.988 98.0251 145 85" stroke="white" stroke-width="20" stroke-linecap="round" stroke-linejoin="round"/>
</svg>
