<svg id="Layer_1" data-name="Layer 1" xmlns="http://www.w3.org/2000/svg" viewBox="0 0 49.51 42.33"><defs><style>.cls-1{fill:black;}</style></defs><path class="cls-1" d="M45.92,11.89H35.45c1.85-.51,3.57-.86,5.2-1.45A5.18,5.18,0,0,0,44,5.36a5.46,5.46,0,0,0-3.49-5,5.26,5.26,0,0,0-5.91,1.4,45.51,45.51,0,0,0-2.79,3.92c-.39.58-.69,1.23-1.11,2-.3-.54-.49-1-.73-1.33C29,4.9,28.11,3.41,27.05,2.06A5.34,5.34,0,0,0,20.92.35a5.42,5.42,0,0,0-3.54,5.21,5.25,5.25,0,0,0,3.81,5.08c1.47.48,3,.78,4.49,1.16a.44.44,0,0,0,0,.1H24.24c-3,0-6,0-9,0a3.24,3.24,0,0,0-3.45,3.38q0,3.11,0,6.21a3,3,0,0,0,2.12,3c.6.22.69.51.69,1.06,0,4.2,0,8.39,0,12.59a4.87,4.87,0,0,0,.57,2.5v.18h.12a4,4,0,0,0,3.5,1.49H42.54c2.74,0,4.15-1.41,4.15-4.13V25.52c0-.38-.08-.74.48-.93a3.13,3.13,0,0,0,2.33-3.33c0-1.92,0-3.85,0-5.77A3.28,3.28,0,0,0,45.92,11.89ZM36.7,3.6A2.44,2.44,0,0,1,39.48,3a2.59,2.59,0,0,1,1.66,2.4A2.3,2.3,0,0,1,39.6,7.81c-2,.6-4.14,1-6.22,1.51-.05-.12-.11-.23-.16-.35A21.06,21.06,0,0,1,36.7,3.6ZM21.6,7.76a2.33,2.33,0,0,1-1.4-2.29,2.49,2.49,0,0,1,1.47-2.35,2.33,2.33,0,0,1,2.74.3,19.12,19.12,0,0,1,3.78,5.72A21.42,21.42,0,0,1,21.6,7.76ZM35.82,23H32.5a2.37,2.37,0,0,1,.76.71,2.84,2.84,0,0,1,.39.89h2.17V26.4H33.64A3.57,3.57,0,0,1,32.75,28,4.49,4.49,0,0,1,31,29.11a2.23,2.23,0,0,1,.56.36A2.37,2.37,0,0,1,32,30l3.54,5.21H33.17a1.05,1.05,0,0,1-1-.52l-3-4.52a1,1,0,0,0-.36-.36,1.32,1.32,0,0,0-.59-.11H26.43V27.92h1.93a3.3,3.3,0,0,0,1.78-.42,2.25,2.25,0,0,0,.95-1.1H26.42V24.55h4.72a2,2,0,0,0-.91-1.12A3.54,3.54,0,0,0,28.4,23h-2V21.1h9.39Z"/><path class="cls-1" d="M23.79,41.07H3.52a1.68,1.68,0,0,1-1.68-1.68V28a1.69,1.69,0,0,1,1.68-1.69H23.79A1.69,1.69,0,0,1,25.47,28V39.39A1.68,1.68,0,0,1,23.79,41.07ZM3.52,27a1,1,0,0,0-1,1V39.39a1,1,0,0,0,1,1H23.79a1,1,0,0,0,1-1V28a1,1,0,0,0-1-1Z"/><rect class="cls-1" y="31.18" width="5.56" height="4.24" rx="0.41"/></svg>