<svg id="Layer_1" data-name="Layer 1" xmlns="http://www.w3.org/2000/svg" viewBox="0 0 36.78 36.79"><defs><style>.cls-1{fill:#dd1c24;}.cls-2{fill:none;stroke:#dd1c24;stroke-miterlimit:10;}</style></defs><path class="cls-1" d="M3.1,16.55H16.88A3.12,3.12,0,0,1,20,19.66v6.66a3.12,3.12,0,0,1-3.11,3.11H6L4,32.94,2.18,29.27A3.1,3.1,0,0,1,0,26.32V19.66A3.12,3.12,0,0,1,3.1,16.55Z"/><path class="cls-2" d="M26.32.5H10.05a3.28,3.28,0,0,0-3.49,3v6.9a3.28,3.28,0,0,0,3.49,3h14l1.71,2.49,1.46-2.6a3.12,3.12,0,0,0,2.57-2.89V3.5A3.28,3.28,0,0,0,26.32.5Z"/><path class="cls-1" d="M20.67,9a15.19,15.19,0,0,1,1.56-1.19,11.37,11.37,0,0,1,1.83-1,11.06,11.06,0,0,1,2.13-.66,12.09,12.09,0,0,1,2.49-.24,10.5,10.5,0,0,1,3.31.5,7.61,7.61,0,0,1,2.56,1.44,6.34,6.34,0,0,1,1.65,2.24,7.19,7.19,0,0,1,.58,3,7.4,7.4,0,0,1-.46,2.75,7.8,7.8,0,0,1-1.14,2,8.91,8.91,0,0,1-1.52,1.49L32.1,20.5a13.2,13.2,0,0,0-1.26,1.08,2.15,2.15,0,0,0-.64,1.21l-.48,3.05H26.19l-.36-3.41a2.72,2.72,0,0,1,.29-1.72,5.14,5.14,0,0,1,1.08-1.36,14.58,14.58,0,0,1,1.52-1.19,13.63,13.63,0,0,0,1.56-1.26,6.62,6.62,0,0,0,1.23-1.52,4.05,4.05,0,0,0,.49-2A3.26,3.26,0,0,0,31.72,12a3,3,0,0,0-.79-1,3.32,3.32,0,0,0-1.2-.66,4.92,4.92,0,0,0-1.51-.23,6.89,6.89,0,0,0-2,.26,7.46,7.46,0,0,0-1.4.59c-.38.21-.71.41-1,.58a1.3,1.3,0,0,1-.71.26A1.14,1.14,0,0,1,22,11.17Zm3.95,24.64a3.21,3.21,0,0,1,.24-1.23,3,3,0,0,1,.66-1,3.19,3.19,0,0,1,1-.67,3.12,3.12,0,0,1,1.26-.25,3,3,0,0,1,1.24.25,3.31,3.31,0,0,1,1,.67,2.91,2.91,0,0,1,.68,1,3.2,3.2,0,0,1,0,2.48,3,3,0,0,1-.68,1,3.11,3.11,0,0,1-1,.66,3.19,3.19,0,0,1-1.24.24,3.29,3.29,0,0,1-1.26-.24,3,3,0,0,1-1-.66,3.07,3.07,0,0,1-.66-1A3.24,3.24,0,0,1,24.62,33.65Z"/></svg>