<svg id="Layer_1" data-name="Layer 1" xmlns="http://www.w3.org/2000/svg" viewBox="0 0 28.09 40.07"><defs><style>.cls-1{fill:#dd1c24;}</style></defs><path class="cls-1" d="M13.82,10.68a3.55,3.55,0,1,0,3.54,3.54A3.58,3.58,0,0,0,13.82,10.68Z"/><path class="cls-1" d="M28,11.9A14.08,14.08,0,0,0,2.55,6,12.9,12.9,0,0,0,.14,15.53a24.1,24.1,0,0,0,2.73,7.28A113.14,113.14,0,0,0,11.73,37c.73,1,1.5,2,2.29,3.12.17-.19.27-.3.35-.41,2.24-3.24,4.55-6.45,6.71-9.74a61.51,61.51,0,0,0,5.78-10.64A13.38,13.38,0,0,0,28,11.9Zm-6.32,3.76a1.88,1.88,0,0,0-1.26,1.17A2.06,2.06,0,0,0,20.47,19c.44.76.4.79-.24,1.42-.29.28-.56.75-.89.8s-.76-.29-1.15-.46a.69.69,0,0,1-.15-.07.91.91,0,0,0-1.16,0,1.74,1.74,0,0,1-.7.29.93.93,0,0,0-.81.83,2.34,2.34,0,0,1-.09.24c-.15.36-.2.87-.47,1.05s-.76.07-1.16.07c-.9,0-1,0-1.2-.86a2,2,0,0,0-1.37-1.51,1.92,1.92,0,0,0-1.86.07c-.91.5-.94.46-1.66-.27s-.84-.81-.3-1.79a1.93,1.93,0,0,0,0-1.75,2.09,2.09,0,0,0-1.6-1.44c-.8-.22-.8-.27-.79-1.13,0-.42-.11-.94.09-1.24s.72-.32,1.1-.47h0a1.08,1.08,0,0,0,1-1,.48.48,0,0,1,.1-.23,1.59,1.59,0,0,0,0-1.94c-.48-.85-.44-.87.27-1.58.21-.21.41-.43.63-.64a1.77,1.77,0,0,1,.22-.16,7,7,0,0,1,.82.4,1.88,1.88,0,0,0,2,.09,2,2,0,0,0,1.29-1.41c.28-1,.32-.94,1.32-.94s1.16,0,1.52,1.08a2,2,0,0,0,1.1,1.22,2.22,2.22,0,0,0,2.37-.16c.73-.39.5-.41,1.08.17l.18.18c.28.29.73.54.78.86s-.27.74-.43,1.12l-.06.11a1,1,0,0,0,0,1.31.66.66,0,0,1,.13.31c.12.8.68,1.09,1.38,1.3.95.29.94.32.94,1.33S22.72,15.32,21.65,15.66Z"/></svg>