<svg id="Layer_1" data-name="Layer 1" xmlns="http://www.w3.org/2000/svg" viewBox="0 0 37.49 33.76"><defs><style>.cls-1{fill:#dd1c24;}</style></defs><path class="cls-1" d="M37.45,11.9A5.08,5.08,0,0,0,37,10.23C36.3,8.47,35.57,6.72,34.85,5l-1.38-3.3A10.4,10.4,0,0,0,33,2.75c-.51,1.63-1,3.26-1.5,4.89S30.4,10.89,30,12.54a15.08,15.08,0,0,0-.54,3.52c-.06,5.41,0,10.81,0,16.22v1.09a1.73,1.73,0,0,0,.44,0L36.46,31c.56-.2,1-.31,1-1.15C37.45,23.83,37.48,17.87,37.45,11.9Z"/><path class="cls-1" d="M7.44,10.14c1.79.18,3.59.22,5.38.41,3.65.38,7.32.76,10.89-.44A25.39,25.39,0,0,0,28.12,8a7.3,7.3,0,0,0,3.29-4.6c.31-1.1.66-2.19,1-3.42H5.49a1,1,0,0,0-1,.8C3.92,2.36,3.3,3.9,2.66,5.42A2.77,2.77,0,0,0,3.2,8.24,6.89,6.89,0,0,0,7.44,10.14ZM8.55,2.33A1.32,1.32,0,0,1,9,1.84C10.66.6,13,.67,14.94.66l2,0h.85a21.57,21.57,0,0,1,6,.62c.59.18,1.51.47,1.69,1.16.3,1.15-1.31,1.9-2.14,2.11a15.53,15.53,0,0,1-2.26.3,36.79,36.79,0,0,1-4.81.11c-2.25-.06-4.53.15-6.63-.83a2.4,2.4,0,0,1-.94-.68A1.08,1.08,0,0,1,8.55,2.33Z"/><path class="cls-1" d="M28.71,8.89a18.94,18.94,0,0,1-11.07,2.9c-2.67,0-5.33-.34-8-.55-.93-.07-1.86-.15-2.77-.3A8.31,8.31,0,0,1,1.63,8.16c-.23.48-.4.77-.52,1.08a9.48,9.48,0,0,0-1,2.91C0,18.21,0,24.28,0,30.35a1.07,1.07,0,0,0,.67.76c1.94.25,3.89.42,5.83.6,2.91.27,5.81.51,8.72.79,3.45.35,6.9.73,10.36,1.09.78.08,1.58.11,2.47.17V32.55c0-5.85-.05-11.7,0-17.54a16.72,16.72,0,0,1,.8-3.64c.23-.92.5-1.83.82-3A10.77,10.77,0,0,0,28.71,8.89Zm-8,8.74a2.89,2.89,0,0,1-.74,1.11c-.43.46-.86.91-1.32,1.34a2.19,2.19,0,0,1-1.7.64,2.86,2.86,0,0,1-.58-.13.17.17,0,0,0-.2,0L13.91,23l.53.55,3.74,3.55a.38.38,0,0,1,.12.43,1.46,1.46,0,0,1-1,1,.29.29,0,0,1-.32-.1c-1.19-1.27-2.4-2.53-3.6-3.8l-.48-.5-2.41,2.56c-.54.56-1.08,1.12-1.61,1.7a.38.38,0,0,1-.46.12,1.46,1.46,0,0,1-.93-1,.37.37,0,0,1,.12-.41L11.85,23l-.5-.57L9.68,20.68c0-.05-.08-.1-.17-.05a2,2,0,0,1-2.1-.21,4.28,4.28,0,0,1-1.87-3.16,1.39,1.39,0,0,1,.52-1.36,1.58,1.58,0,0,1,1.06-.29,3.83,3.83,0,0,1,1.58.48,4.19,4.19,0,0,1,1.55,1.28,2.18,2.18,0,0,1,.22,2.37c.6.58,1.76,1.59,2.46,2.25l2.3-2.18c.06-.06.1-.11,0-.2a2,2,0,0,1,.22-2.15,1.6,1.6,0,0,1,.28-.35,16.88,16.88,0,0,1,1.9-1.78,1.45,1.45,0,0,1,.49-.22.66.66,0,0,1,.59.17l-.11.13-1.95,2c-.16.17-.17.31,0,.44a.26.26,0,0,0,.41,0l1.12-1,1.22-1,.37.4-.08.1-1.87,2.2c-.16.19-.16.33,0,.46a.23.23,0,0,0,.31,0l.13-.1,2-1.94.14-.13c.09.17.17.32.24.47Z"/></svg>