<svg id="Layer_1" data-name="Layer 1" xmlns="http://www.w3.org/2000/svg" viewBox="0 0 30.95 31.05"><defs><style>.cls-1{fill:#fff;}</style></defs><title>advance order</title><path class="cls-1" d="M21.76,26.48a13.12,13.12,0,0,0,3.1-20.06C20,1.18,11.5.71,6.68,5.48c.11.14.2.3.32.43L8.06,7.07c4.12-3.13,8.47-3.75,12.92-1a10.15,10.15,0,0,1,5,10.08,10.42,10.42,0,0,1-5.26,8.28L19.87,23l-2.49,3.83,5.2,1.23Zm-.57-11.77H16.67c-1,0-1.32-.31-1.32-1.3,0-2.15,0-4.29,0-6.44a3.59,3.59,0,0,0-.07-.49l-.87.06c0,2.33,0,4.6,0,6.86a1.77,1.77,0,0,1-.37,1,1.25,1.25,0,0,0-.17,1.74,1.33,1.33,0,0,0,1.73.36A4.43,4.43,0,0,1,17,16.16c1.38-.05,2.75,0,4.16,0ZM2.44,12.27l2.17.61,1.75-4L4.55,7.57Zm2.33,5.45L4.43,14.8H2.21l.51,3.89Zm.46,1.54L3.39,20.54l1.92,3L7,22.11Zm5.34,8.07.81-2.06L8.75,23.79,7.47,25.61Zm5.75.83c-.48-2.32-.78-2.53-2.93-2.25L13.06,28Z"/><path class="cls-1" d="M21.76,26.48l.82,1.62-5.2-1.23L19.87,23l.82,1.4A10.42,10.42,0,0,0,26,16.16,10.15,10.15,0,0,0,21,6.08c-4.45-2.76-8.8-2.14-12.92,1L7,5.91c-.12-.13-.21-.29-.32-.43C11.5.71,20,1.18,24.86,6.42A13.12,13.12,0,0,1,21.76,26.48Z"/><path class="cls-1" d="M21.19,14.71v1.43c-1.41,0-2.78,0-4.16,0a4.43,4.43,0,0,0-1.45.37,1.33,1.33,0,0,1-1.73-.36A1.25,1.25,0,0,1,14,14.43a1.77,1.77,0,0,0,.37-1c0-2.26,0-4.53,0-6.86l.87-.06a3.59,3.59,0,0,1,.07.49c0,2.15,0,4.29,0,6.44,0,1,.3,1.29,1.32,1.3Z"/><path class="cls-1" d="M2.44,12.27l2.11-4.7L6.36,8.85l-1.75,4Z"/><path class="cls-1" d="M4.77,17.72l-2,1L2.21,14.8H4.43Z"/><path class="cls-1" d="M5.23,19.26,7,22.11,5.31,23.56l-1.92-3Z"/><path class="cls-1" d="M10.57,27.33l-3.1-1.72,1.28-1.82,2.63,1.48Z"/><path class="cls-1" d="M16.32,28.16,13.06,28l.33-2.1C15.54,25.63,15.84,25.84,16.32,28.16Z"/></svg>