<svg id="Layer_1" data-name="Layer 1" xmlns="http://www.w3.org/2000/svg" viewBox="0 0 33.25 29.08"><defs><style>.cls-1{fill:#e62841;stroke:#fff;stroke-miterlimit:10;stroke-width:0.25px;}</style></defs><title>fav</title><path class="cls-1" d="M16.79,6.61c.3-.39.56-.77.86-1.13a9.43,9.43,0,0,1,4.49-3.14,6.76,6.76,0,0,1,8.33,3.58,10.85,10.85,0,0,1,.15,9.44,18.19,18.19,0,0,1-3.9,5.54A39.53,39.53,0,0,1,17.05,28a.49.49,0,0,1-.51,0,41.08,41.08,0,0,1-8.1-5.61,22.74,22.74,0,0,1-4.85-5.8,11.38,11.38,0,0,1-1-9.49A7.35,7.35,0,0,1,5.4,3.22a6.92,6.92,0,0,1,6.93-.55,10.16,10.16,0,0,1,4.29,3.69Z"/></svg>