<svg id="Layer_1" data-name="Layer 1" xmlns="http://www.w3.org/2000/svg" viewBox="0 0 35 31.42"><defs><style>.cls-1{fill:none;stroke:#e62841;stroke-miterlimit:10;stroke-width:2px;}</style></defs><title>fav</title><path class="cls-1" d="M17.55,7.61c.3-.39.56-.77.86-1.13A9.38,9.38,0,0,1,22.9,3.34a6.76,6.76,0,0,1,8.33,3.58,10.82,10.82,0,0,1,.14,9.44,18,18,0,0,1-3.89,5.54A39.53,39.53,0,0,1,17.81,29a.49.49,0,0,1-.51,0A41.08,41.08,0,0,1,9.2,23.4a22.54,22.54,0,0,1-4.85-5.8,11.34,11.34,0,0,1-1-9.49A7.35,7.35,0,0,1,6.16,4.22a6.9,6.9,0,0,1,6.92-.55,10.13,10.13,0,0,1,4.3,3.69C17.43,7.43,17.47,7.51,17.55,7.61Z"/></svg>