<svg xmlns="http://www.w3.org/2000/svg" xmlns:xlink="http://www.w3.org/1999/xlink" viewBox="0 0 464.29 487.64"><defs><style>.cls-1{fill:none;}.cls-2{fill:#325f66;}.cls-3{isolation:isolate;}.cls-4{fill:url(#Emerald);}.cls-5{fill:url(#Emerald-2);}.cls-6{fill:#006837;}.cls-7{fill:#009245;}.cls-8{fill:#39b54a;}.cls-9{fill:#20383b;}.cls-10{clip-path:url(#clip-path);}.cls-11,.cls-18{fill:#fff;}.cls-11{opacity:0.3;}.cls-12{fill:#d8caca;opacity:0.8;}.cls-12,.cls-19{mix-blend-mode:multiply;}.cls-13{clip-path:url(#clip-path-2);}.cls-14{fill:#8baab8;}.cls-15{fill:#98bdcd;}.cls-16{clip-path:url(#clip-path-3);}.cls-17{fill:#7d9aa4;}.cls-19{fill:#7e868a;}.cls-20{clip-path:url(#clip-path-4);}.cls-21{fill:#d4d848;}.cls-22{fill:#f5c800;}.cls-23{fill:#fedc00;}.cls-24{fill:#b9241a;}.cls-25{fill:#e0ceb5;}.cls-26{fill:#f5e9da;}</style><linearGradient id="Emerald" x1="-1161.11" y1="608.35" x2="-717.15" y2="608.35" gradientTransform="translate(-764.98 -266.2) rotate(-119.78)" gradientUnits="userSpaceOnUse"><stop offset="0" stop-color="#008145"/><stop offset="0.09" stop-color="#048346"/><stop offset="0.18" stop-color="#108a4b"/><stop offset="0.27" stop-color="#249552"/><stop offset="0.36" stop-color="#40a45d"/><stop offset="0.44" stop-color="#63b86a"/><stop offset="0.49" stop-color="#78c372"/><stop offset="0.53" stop-color="#64b86b"/><stop offset="0.63" stop-color="#40a45d"/><stop offset="0.72" stop-color="#249553"/><stop offset="0.81" stop-color="#108a4b"/><stop offset="0.91" stop-color="#048347"/><stop offset="1" stop-color="#008145"/></linearGradient><linearGradient id="Emerald-2" x1="-730.13" y1="459.88" x2="-775.5" y2="488.75" xlink:href="#Emerald"/><clipPath id="clip-path"><path id="SVGID" class="cls-1" d="M270.67,309.32c0,20.23-15.47,44.64-50,44.64-31,0-50-24.41-50-44.64s22.39-36.63,50-36.63S270.67,289.09,270.67,309.32Z"/></clipPath><clipPath id="clip-path-2"><path id="SVGID-2" data-name="SVGID" class="cls-2" d="M270.67,309.32c0,20.23-22.4,36.63-50,36.63s-50-16.4-50-36.63,22.39-36.63,50-36.63S270.67,289.09,270.67,309.32Z"/></clipPath><clipPath id="clip-path-3"><path id="SVGID-3" data-name="SVGID" class="cls-1" d="M270.67,306.46c0,20.23-22.4,36.62-50,36.62s-50-16.39-50-36.62,22.39-36.63,50-36.63S270.67,286.23,270.67,306.46Z"/></clipPath><clipPath id="clip-path-4"><path id="SVGID-4" data-name="SVGID" class="cls-1" d="M221.12,273.65c-26,0-47.23,15.09-48.26,34,1,18.91,22.24,34,48.26,34s47.24-15.09,48.27-34C268.36,288.74,247.15,273.65,221.12,273.65Z"/></clipPath></defs><title>fav</title><g class="cls-3"><g id="Layer_1" data-name="Layer 1"><path class="cls-4" d="M399.09,403.81c-20.32,10.83-44.58,11.79-63.62,25.07-8.37,5.83-15.35,13.81-23.84,19.41-11.38,7.52-24.8,10.34-37.89,13-5.82,1.2-11.81,2.4-17.62,1.16s-10.87-4.76-15.55-8.6c-6.36-5.21-12.52-11.63-14.41-20-2.48-11.07,3.08-22.31,9.35-31.45s13.67-18.07,15.71-29.25c.36-1.95.51-4.1-.41-5.82a7.73,7.73,0,0,0-3.73-3.09c-14.56-6.85-31,1.94-44.74,10.55s-30.09,17.52-44.73,10.89c-6.91-3.13-12.19-9.32-17.24-15.33l-15.52-18.46c-2.76-3.29-5.62-6.77-6.58-11.09s.14-8.89-.51-13.27c-1.76-11.87-14.32-17-24.16-22.57-9.36-5.25-18-13.12-21.89-23.72s-2.1-24.17,6.16-31.26c2.94-2.52,6.6-4.24,8.67-7.63,3.46-5.65.83-13.71-4-18.06s-11.12-6-17.13-7.91S53.17,212,49.35,206.65c-4.12-5.78-4.54-13.61-4.79-20.9l-.68-20c-.16-4.64,0-10,3.39-12.85s8.3-1.52,12.4-.09l13,4.54c1,.35,2.2,1,2.15,2.13s-2.23.6-1.48-.19c-1.64-4.83-10-8.92-13-12.92-5.16-6.93-.21-17,4.7-24.17l38.23-55.61a27.07,27.07,0,0,1,5.21-6.17c6.34-5,15.13-2.79,22.65-.37l27,8.67c9.48,3,19.84,6.81,24.87,16,3.45,6.34,3.67,14.09,5.71,21.1s7.41,14.16,14.16,13.36c4.32-.52,7.7-4.13,10.68-7.55,7-8,14.75-16.73,24.86-17.8,14.8-1.57,26.17,13.61,33.28,27.77A280.78,280.78,0,0,1,293,179.07c1.14,4.53,2.71,9.77,6.8,11.34,2.25.87,4.75.35,7-.51,9.3-3.54,16-12.22,23.68-18.88s18.77-11.43,27.22-5.92c3.54,2.3,6,6.08,8.35,9.78,38.15,61,59.64,137.63,44,209.32C408.6,390.84,404.61,407.1,399.09,403.81Z"/><path class="cls-5" d="M363.41,429.05q-7.23,3.52-14.23,7.55c-15.86,9.12-30.93,20.18-47.94,26.39a86.6,86.6,0,0,1-30.65,5.37c-27.77-.33-53.89-16.93-71.91-38.5,8.21-10.35,17.11-20,26-29.7,5.48-6,18.36-24.39.1-16.58-15.27,6.52-23.6,26.89-39.65,30.59C174.61,416.59,164,411,155,404.55c-23.68-16.95-40.25-37.29-52.41-64.88a10.71,10.71,0,0,0-2.18-3.59c-1.58-1.46-3.82-1.61-5.86-2-7.59-1.27-14.42-5.94-19.9-11.78a220.15,220.15,0,0,1-24.87-31.95c-4.41-7-8.72-14.56-9.61-23s2.63-18,9.95-21.11c-12.31-10.07-25.65-22.05-27.22-38.68-.81-8.49,1.68-16.92,2.25-25.43,1.08-15.93-4.47-32.7,1-47.52,6-16.07,22.4-23.65,35.57-33.45a110.13,110.13,0,0,0,32.65-40c3.45-7.07,6.7-15,13.25-18.71,5.73-3.2,12.6-2.28,19-1.12a403.86,403.86,0,0,1,45,10.89c10.39,3.16,22,8,25.71,19,3.19,9.42-.37,21.21,5.31,29.14,12.37-.21,11-25.91,23.13-28.64,2.79-.63,5.67.24,8.41,1.11,18.46,5.83,38.59,13,48.65,30.77,10.33,18.23,6.91,42.5,16.36,61.28,17-1.27,11.91-40.16,28.94-40.77,3.31-.12,6.43,1.56,9.35,3.25,22.42,12.92,43.5,29.3,59.45,50.71s26.52,48.21,26.48,75.75c0,26.47-3.6,51.34-1.49,78.15,1.58,20,5.06,43.21,1.47,63.09-3.09,17.09-12,16.18-26.41,20.66A233.68,233.68,0,0,0,363.41,429.05Z"/><path class="cls-6" d="M200.26,97.82a306.48,306.48,0,0,0,15.61,121.31c1.45,4.24,8.21,2.42,6.75-1.86A301.25,301.25,0,0,1,207.26,97.82c.33-4.5-6.67-4.48-7,0Z"/><path class="cls-7" d="M368.2,426c-9,1.14-17.71,3.46-26.6,5.61a160.45,160.45,0,0,1-33.44,4.85c-12.22.34-25.92-2.81-36-10.69-10.47-8.2-17.19-20.44-19.64-34.13-.71-4-1-8.05-1.65-12.06a106.55,106.55,0,0,0-18.13-.11c-11.32,1.15-22.59,2.73-34,3.54a59.12,59.12,0,0,1-37.58-8.45c-8.65-5.07-15.75-13.21-22.17-21.17a247,247,0,0,0-17.36-19.91C107.78,321.3,91.32,311.63,81,295.51c-9.59-15-11.48-32.84-16.45-49.79-4.7-12.5-11.29-24.06-15-37-5-17.43.05-35,3.09-52.19q-.69,4-1.39,8c1.77-10.2,4.26-20.2,6.24-30.34,0-.28.08-.55.11-.83-5-6.21-9.77-12.7-14.46-19.22-7.27,5.46-13.65,11.71-16.91,20.48-5.5,14.82.05,31.59-1,47.52-.57,8.51-3.06,16.94-2.25,25.43,1.57,16.63,14.91,28.61,27.22,38.68-7.32,3.06-10.84,12.66-9.95,21.11s5.2,16,9.61,23a220.15,220.15,0,0,0,24.87,31.95c5.48,5.84,12.31,10.51,19.9,11.78,2,.35,4.28.5,5.86,2a10.71,10.71,0,0,1,2.18,3.59c12.16,27.59,28.73,47.93,52.41,64.88,9,6.41,19.57,12,30.08,9.62,16-3.7,24.38-24.07,39.65-30.59,18.26-7.81,5.38,10.61-.1,16.58-8.88,9.68-17.78,19.35-26,29.7,18,21.57,44.14,38.17,71.91,38.5A86.6,86.6,0,0,0,301.24,463c17-6.21,32.08-17.27,47.94-26.39q7-4,14.23-7.55,3.38-1.65,6.79-3.18Z"/><path class="cls-8" d="M280.93,240.57l-1.12-1.92c-.7-1.22-1.37-2.46-2-3.7a32.46,32.46,0,0,1-2.06,2.56Z"/><path class="cls-6" d="M156,98.87a291.4,291.4,0,0,0,24,88.84c1.85,4.1,7.88.54,6-3.53A281,281,0,0,1,163,98.87c-.48-4.44-7.48-4.48-7,0Z"/><path class="cls-6" d="M229.35,100.64a231.07,231.07,0,0,0,12.43,123.13c1.63,4.14,8.4,2.34,6.75-1.86A224.2,224.2,0,0,1,236.1,102.5c.75-4.41-6-6.3-6.75-1.86Z"/><path class="cls-6" d="M66.58,127.13c9.26,4.88,18.33,10,27.33,15.25s17.92,10.57,26.81,16c17.74,10.82,35.23,22,52.59,33.33,34.65,22.75,68.84,46.4,101.86,71.91,16.46,12.83,32.67,26,48.34,39.93s30.94,28.27,45.33,43.55c7.32,7.52,14.24,15.43,21.15,23.32,1.74,1.95,3.39,4,5.06,6s3.34,4,5,6.09c3.29,4.09,6.63,8.12,9.73,12.36l9.35,12.64c3,4.3,5.92,8.65,8.82,13,1.44,2.19,2.9,4.35,4.32,6.55s2.72,4.48,4.07,6.72c2.66,4.51,5.31,9,7.84,13.58-3.78-3.65-7.42-7.37-11.07-11.07-1.82-1.85-3.59-3.74-5.43-5.57l-5.56-5.44c-3.73-3.61-7.31-7.32-11-10.9l-11.2-10.66c-1.88-1.76-3.65-3.62-5.58-5.32l-5.7-5.21c-3.82-3.45-7.46-7.05-11.33-10.43s-7.67-6.82-11.48-10.24L362.93,370l-2.93-2.5c-2-1.66-3.88-3.35-5.81-5-3.89-3.34-7.68-6.77-11.67-10l-11.74-9.91c-1.93-1.67-4-3.25-5.94-4.88s-4-3.25-5.94-4.87l-5.92-4.9c-2-1.63-4-3.2-6-4.8-4-3.17-8-6.44-12-9.66l-12.11-9.5-6-4.79-6.1-4.71-12.14-9.49c-32.53-25.17-65.42-50.16-97.78-76.14-16.14-13-32.15-26.22-47.91-39.76-7.87-6.79-15.71-13.62-23.44-20.59S74.08,134.43,66.58,127.13Z"/><path class="cls-6" d="M110.36,50.45A154.75,154.75,0,0,0,129.14,147c2.23,3.92,8.28.39,6-3.53a148.65,148.65,0,0,1-17.82-93c.59-4.45-6.42-4.41-7,0Z"/><path class="cls-6" d="M136.32,61.31A309.57,309.57,0,0,0,156.06,187c1.59,4.16,8.36,2.36,6.75-1.86A304.38,304.38,0,0,1,143.32,61.31c.23-4.5-6.78-4.49-7,0Z"/><path class="cls-6" d="M258.91,137.9a215.93,215.93,0,0,0,15.18,103c1.7,4.1,8.47,2.3,6.75-1.86A211.4,211.4,0,0,1,265.91,137.9c.44-4.48-6.57-4.45-7,0Z"/><path class="cls-6" d="M297,163.45a256.84,256.84,0,0,0,28,150.21c2.12,4,8.17.45,6.05-3.53-23.84-44.74-33-96.42-27-146.68.53-4.47-6.48-4.43-7,0Z"/><path class="cls-6" d="M329.76,137c-16.89,67.72-12.39,140.54,13.37,205.46,1.64,4.14,8.41,2.33,6.75-1.86a332.29,332.29,0,0,1-13.37-201.74c1.09-4.37-5.66-6.24-6.75-1.86Z"/><path class="cls-6" d="M352.11,152.6a467.87,467.87,0,0,0,22.81,216.2c1.5,4.22,8.27,2.4,6.75-1.86A463.26,463.26,0,0,1,359.11,152.6c.58-4.45-6.42-4.41-7,0Z"/><path class="cls-6" d="M380.91,192.7a409.27,409.27,0,0,0,16,181.48c1.39,4.26,8.15,2.44,6.75-1.86a401.41,401.41,0,0,1-16-177.76c.6-4.41-6.14-6.31-6.75-1.86Z"/><path class="cls-6" d="M32.39,193.09a424.92,424.92,0,0,1,63.67-22.15c4.36-1.14,2.51-7.89-1.86-6.75a433.84,433.84,0,0,0-65.34,22.86c-4.12,1.81-.56,7.85,3.53,6Z"/><path class="cls-6" d="M30.54,228.25c36-26.1,79.86-39.47,124.31-36.51,4.5.3,4.48-6.7,0-7-45.53-3-91,10.72-127.85,37.47-3.61,2.62-.12,8.7,3.54,6Z"/><path class="cls-6" d="M72.23,318.26a318.15,318.15,0,0,1,149.34-66.67c4.44-.7,2.55-7.44-1.86-6.75-55.92,8.83-108.41,33-152.43,68.47-3.51,2.83,1.47,7.75,5,4.95Z"/><path class="cls-6" d="M103.66,322.12A921.21,921.21,0,0,1,222.19,273.5c4.26-1.4,2.44-8.17-1.86-6.75a933.49,933.49,0,0,0-120.2,49.33c-4,2-.5,8,3.53,6Z"/><path class="cls-6" d="M130.32,353.41c39.08-36.64,87.79-62.15,140.53-72,4.42-.83,2.55-7.58-1.86-6.75C215.11,284.73,165.28,311,125.37,348.46c-3.29,3.09,1.67,8,4.95,5Z"/><path class="cls-6" d="M154.51,375.11c37.31-40.29,88.93-66.56,144-70,4.47-.28,4.51-7.28,0-7-56.89,3.57-110.35,30.39-148.94,72.06-3.06,3.31,1.88,8.27,4.95,4.95Z"/><path class="cls-6" d="M178.16,403.48c41.59-39.76,94.54-66.64,151.57-75.1,4.44-.66,2.55-7.4-1.86-6.75-58.16,8.63-112.26,36.37-154.66,76.9-3.26,3.11,1.69,8.06,4.95,5Z"/><path class="cls-6" d="M219.41,433.78c27.3-42.93,71.7-74.25,122.24-82.35,4.43-.71,2.55-7.46-1.86-6.75-52.29,8.38-98.22,41.22-126.43,85.56-2.42,3.82,3.63,7.33,6,3.54Z"/><path class="cls-6" d="M239.52,441.61a287.41,287.41,0,0,1,105.35-61.38c4.28-1.37,2.45-8.14-1.86-6.75a295.85,295.85,0,0,0-108.44,63.18c-3.34,3,1.63,8,5,4.95Z"/><path class="cls-6" d="M285.63,455.32a239.18,239.18,0,0,1,102.86-53.47c4.38-1,2.53-7.78-1.86-6.75-39.36,9.28-75.62,28.6-105.95,55.27-3.39,3,1.58,7.91,4.95,4.95Z"/><path class="cls-9" d="M270.67,309.32c0,20.23-15.47,44.64-50,44.64-31,0-50-24.41-50-44.64s22.39-36.63,50-36.63S270.67,289.09,270.67,309.32Z"/><g class="cls-10"><path class="cls-11" d="M282.12,306.91c-7.77-7.88-24.52-4-37.42,8.77s-17,29.42-9.27,37.3,24.53,3.95,37.42-8.77S289.9,314.79,282.12,306.91Z"/><path class="cls-11" d="M284.31,296.71c-7.77-7.88-24.53-4-37.42,8.76s-17,29.42-9.27,37.3,24.52,4,37.42-8.76S292.08,304.59,284.31,296.71Z"/><path class="cls-11" d="M288,290.88c-7.77-7.88-24.52-4-37.42,8.76s-17,29.42-9.27,37.3,24.53,4,37.42-8.76S295.73,298.76,288,290.88Z"/><path class="cls-12" d="M209.47,363.3c-15.55,3.87-35.54-5.24-47.7-28.36s1.25-37.85,13.62-48c33.26-27.39-5.17,8.28,3.24,33C194.86,367.63,267.19,348.93,209.47,363.3Z"/></g><path id="SVGID-5" data-name="SVGID" class="cls-2" d="M270.67,309.32c0,20.23-22.4,36.63-50,36.63s-50-16.4-50-36.63,22.39-36.63,50-36.63S270.67,289.09,270.67,309.32Z"/><g class="cls-13"><path class="cls-11" d="M209.16,339.57c6.44,12.63,27,15.06,45.92,5.42s29-27.7,22.62-40.33-27-15.06-45.92-5.42S202.73,326.94,209.16,339.57Z"/><path class="cls-11" d="M214.32,329.26c6.43,12.63,27,15.06,45.91,5.42s29.06-27.69,22.62-40.33-27-15.06-45.92-5.42S207.88,316.63,214.32,329.26Z"/><path class="cls-12" d="M201.16,343.78c-14-9.11-13-22.18-19.47-38.17C180.63,303,202.49,274,201,271.44c-10.9-18.22-28.28-5.45-40.45,1.83s-13.19,28-2.28,46.18S215.85,353.32,201.16,343.78Z"/><path class="cls-12" d="M193.14,343.78c-14-9.11-12.95-22.18-19.47-38.17C172.61,303,194.48,274,193,271.44,182,253.22,164.66,266,152.5,273.27s-13.19,28-2.29,46.18S207.84,353.32,193.14,343.78Z"/></g><path class="cls-14" d="M270.67,306.46c0,20.23-22.4,36.62-50,36.62s-50-16.39-50-36.62,22.39-36.63,50-36.63S270.67,286.23,270.67,306.46Z"/><path class="cls-15" d="M269.43,306.22c0,19.57-21.63,35.43-48.31,35.43s-48.3-15.86-48.3-35.43,21.62-35.44,48.3-35.44S269.43,286.65,269.43,306.22Z"/><g class="cls-16"><path class="cls-11" d="M273.94,298.28c2.26,20.7-14.51,39.5-37.46,42s-43.38-12.24-45.64-32.94,14.51-39.5,37.46-42S271.68,277.59,273.94,298.28Z"/><path class="cls-11" d="M261.62,276.15c11.39,14.78,11.54,33.75.35,42.37s-29.49,3.62-40.87-11.16-11.54-33.75-.35-42.37S250.24,261.37,261.62,276.15Z"/><path class="cls-12" d="M202.68,344.16c-13-7.45-21.75-21.76-22.07-35.6-.07-2.81,23.6-31.77,15.45-36.05-18.81-9.87-28.71-2.35-40,6.21s-10.08,29.22,2.74,46.16S217.88,352.87,202.68,344.16Z"/><path class="cls-12" d="M196.13,345.27c-24.37-13.9-9.86-21.92-14.63-37.18-.84-2.69,13.55-30,6.59-34.71-17.55-12-28.71-2.35-40,6.21s-10.08,29.22,2.74,46.16S211.35,354,196.13,345.27Z"/></g><path class="cls-17" d="M221.12,273.65c-26,0-47.23,15.09-48.26,34,1,18.91,22.24,34,48.26,34s47.24-15.09,48.27-34C268.36,288.74,247.15,273.65,221.12,273.65Z"/><path class="cls-18" d="M270.67,306.46c-2.52-23.57-26.18-35.78-51.19-35.78s-46,14.12-48.68,35.78c0-20.23,22.2-36.63,49.84-36.63S270.67,286.23,270.67,306.46Z"/><path class="cls-19" d="M270.48,306.28c-2.52,23.56-26.75,35.78-51.77,35.78s-45-14.12-47.72-35.78c0,20.23,21.25,36.63,48.89,36.63S270.48,326.51,270.48,306.28Z"/><g class="cls-20"><path class="cls-21" d="M275.27,314.11c0,20.62-24.11,37.34-53.84,37.34s-53.85-16.72-53.85-37.34,24.11-37.33,53.85-37.33S275.27,293.49,275.27,314.11Z"/><path class="cls-12" d="M209.47,355.29c-15.55,3.87-35.54-5.24-47.7-28.37s1.25-37.85,13.62-48c33.26-27.39-5.17,8.28,3.24,33C194.86,359.62,267.19,340.91,209.47,355.29Z"/></g><path class="cls-11" d="M252.87,290.53a10.18,10.18,0,0,1,7.57,4.72c2.13,4.1-2.35,3-3.25,5.89-.57,1.89.7,1.23,1.91,2.44.83.82,1.46,3.06,1.63,4.24.34,2.33.94,7.5-.08,9.44-1.41,2.65-6.07,5.72-8.57,7.37a44,44,0,0,1-9,4.81A75.6,75.6,0,0,1,232.71,333a93.4,93.4,0,0,1-11.26,1.2c-3.89.32-6.28-.87-9.85-1.89-3-.86-6.3-1.53-9-3.33a18.63,18.63,0,0,0-3.23-2.17c-1.54-.61-3.42-.52-4.94-1.36a22,22,0,0,1-7.46-7.46c-2.56-4.7-3-12.91-2-18.37.84-4.53,5-7.08,8.26-9.84a28.15,28.15,0,0,1,8.95-5,47.28,47.28,0,0,1,11.7-2.07c4.26-.29,8.71-.75,13-.07,6.32,1,13.84,4.74,15.82,11.08a18.09,18.09,0,0,1,1.16,4.73c0,1.78-.79,3.3-.11,5.11s1.83,2,.82,4.24a13,13,0,0,1-3.05,3.52c-5.48,5-11.41,6-18.47,7.17-4,.67-7,.67-10.63-1.27s-8.26-2.11-8.25-7c0-3.75,1.16-5.66,4.71-6.67,1.16-.33,9.53-1.85,7.59,1.68-.7,1.27-2.8-.08-3.27,1.84s1.36,2.25,2.76,2.76a13.55,13.55,0,0,0,9-.08c3.2-1,4.48-3.66,6.66-5.91,1.75-1.81,1.72-1.3.43-3.53-.83-1.43-1.74-2.58-2-4.23s.39-2.91-.75-4.34c-1-1.28-3.22-1.9-4.74-2.44-3.07-1.11-7.22-.95-10.53-.69a28.55,28.55,0,0,0-11.7,3.24,21,21,0,0,0-4.41,3.13c-2,2.09-1.53,2.77-.57,5,1.59,3.76-1.43,4.64-2.36,8.24-.85,3.26-.34,7,2.43,9.14,7,5.37,15.62,7.75,24.29,7.76,7.19,0,16.9-3.41,22.82-7.57,2.13-1.5,4.05-3.52,4.42-6.17.39-2.82-1.79-5.92-.13-8.38s3.72-2.27,2.94-5.87c-.73-3.43-3.5-5.89-5.89-8.28-1.23-1.23-2.75-2.31-4-3.43s-2.48-1.31,0-2,6.91,2.15,8.26,3.94Z"/><path class="cls-22" d="M205.43,294.84c.14,1.14,1.14,1.3,2.25,1.38a5.11,5.11,0,0,0,1.57.12c1.14-.22,1.84-.84,1.83-1.95a2.58,2.58,0,0,0-2.88-2.5,3,3,0,0,0-2.79,2.67A2.46,2.46,0,0,0,205.43,294.84Z"/><path class="cls-23" d="M206.79,294.19a1.76,1.76,0,0,0,2,1.71,2.08,2.08,0,0,0,1.94-2,1.77,1.77,0,0,0-2-1.72A2.1,2.1,0,0,0,206.79,294.19Z"/><path class="cls-22" d="M221.31,294.54a2.32,2.32,0,0,0,3.38,0c1.54-2-1.64-3.84-3.33-2.09A1.39,1.39,0,0,0,221.31,294.54Z"/><path class="cls-23" d="M221.85,293.8a1.36,1.36,0,0,0,1.9.34,1.35,1.35,0,0,0,.5-1.85,1.38,1.38,0,0,0-1.9-.34A1.34,1.34,0,0,0,221.85,293.8Z"/><path class="cls-22" d="M232.83,290.34a.66.66,0,0,0,.15,0c.31,0,.53-.15.87-.17a2.57,2.57,0,0,1,.88.2c2.79.66,3.59-2.58,1.74-4a3,3,0,0,0-4,.54C231.61,287.9,231.3,290,232.83,290.34Z"/><path class="cls-23" d="M233.22,289.35A2,2,0,0,0,236,289a1.79,1.79,0,0,0-.18-2.63,2.06,2.06,0,0,0-2.76.37A1.78,1.78,0,0,0,233.22,289.35Z"/><path class="cls-22" d="M203.08,310.38a2,2,0,0,0,2.4,1.68,2.31,2.31,0,0,0,1.94-2.43A2,2,0,0,0,205,308,2.29,2.29,0,0,0,203.08,310.38Z"/><path class="cls-23" d="M204.12,309.78a1.36,1.36,0,0,0,1.65,1.15,1.57,1.57,0,0,0,1.32-1.67,1.36,1.36,0,0,0-1.64-1.15A1.58,1.58,0,0,0,204.12,309.78Z"/><path class="cls-22" d="M219.64,304.87a2.45,2.45,0,0,0,1,0c1.25-.2,2.57-1.14,1.13-2.24C220,301.27,217.88,304.43,219.64,304.87Z"/><path class="cls-23" d="M219.83,304.37a1.22,1.22,0,0,0,1.64-.22,1.06,1.06,0,0,0-.11-1.55,1.21,1.21,0,0,0-1.63.22A1,1,0,0,0,219.83,304.37Z"/><path class="cls-22" d="M212.72,325.58a1.58,1.58,0,0,0,1.23,0c1.12-.41,1.91-1.62.89-2.41a1.77,1.77,0,0,0-2.38.32A1.26,1.26,0,0,0,212.72,325.58Z"/><path class="cls-23" d="M212.92,324.91a1.21,1.21,0,0,0,1.63-.22,1,1,0,0,0-.1-1.55,1.22,1.22,0,0,0-1.64.22A1.06,1.06,0,0,0,212.92,324.91Z"/><path class="cls-22" d="M188,299.67a2.71,2.71,0,0,0,.88.23c.75.07,1.23,0,1.54-.75a1.32,1.32,0,0,0-.37-1.72,1.78,1.78,0,0,0-2.39.31A1.11,1.11,0,0,0,188,299.67Z"/><path class="cls-23" d="M188.11,299.17a1.22,1.22,0,0,0,1.64-.22,1.06,1.06,0,0,0-.11-1.55,1.21,1.21,0,0,0-1.63.21A1.06,1.06,0,0,0,188.11,299.17Z"/><path class="cls-22" d="M197.92,293a6,6,0,0,0,2.42,0,1.87,1.87,0,0,0-.37-2.22,1.83,1.83,0,0,0-2.81,1.24A.92.92,0,0,0,197.92,293Z"/><path class="cls-23" d="M198.05,292.52a1.21,1.21,0,0,0,1.63-.22,1,1,0,0,0-.1-1.55,1.22,1.22,0,0,0-1.64.22A1.06,1.06,0,0,0,198.05,292.52Z"/><path class="cls-22" d="M234.11,301.5a2.82,2.82,0,0,0,1.6,0c1.22-.38,1.56-1.54.53-2.32a1.78,1.78,0,0,0-2.39.31C232.93,300.54,233.32,301.24,234.11,301.5Z"/><path class="cls-23" d="M234.31,300.9a1.22,1.22,0,0,0,1.64-.22,1.06,1.06,0,0,0-.11-1.55,1.2,1.2,0,0,0-1.63.21A1.06,1.06,0,0,0,234.31,300.9Z"/><path class="cls-22" d="M244.18,318.79a6.66,6.66,0,0,0,1.41-.14c1.24-.15,1.74-1.39.77-2.13a1.78,1.78,0,0,0-2.39.31c-.35.41-.67,1.37-.24,1.79A.73.73,0,0,0,244.18,318.79Z"/><path class="cls-23" d="M244.43,318.26a1.22,1.22,0,0,0,1.64-.22,1.06,1.06,0,0,0-.11-1.55,1.21,1.21,0,0,0-1.63.21A1.06,1.06,0,0,0,244.43,318.26Z"/><path class="cls-22" d="M235.34,312.3a1.78,1.78,0,0,0,.47,1.64c.61.51,1.14.07,1.91.06,1.81,0,3.82.33,3.79-1.95a2.78,2.78,0,0,0-3.07-2.9A3.36,3.36,0,0,0,235.7,311,4.41,4.41,0,0,0,235.34,312.3Z"/><path class="cls-23" d="M237,311.6a1.88,1.88,0,0,0,2.11,1.82,2.21,2.21,0,0,0,2.06-2.16,1.87,1.87,0,0,0-2.1-1.82A2.21,2.21,0,0,0,237,311.6Z"/><path class="cls-22" d="M254.64,298.68c.44,0,.92-.06,1.31,0a1.62,1.62,0,0,0,.85-3.09,2.19,2.19,0,0,0-2.82.8c-.41.65-.71,1.8,0,2.16A1.56,1.56,0,0,0,254.64,298.68Z"/><path class="cls-23" d="M254.81,298a1.49,1.49,0,0,0,1.94-.55,1.25,1.25,0,0,0-.43-1.81,1.49,1.49,0,0,0-1.94.55A1.25,1.25,0,0,0,254.81,298Z"/><path class="cls-24" d="M238.86,291a.45.45,0,0,0,.51.44.53.53,0,0,0,.49-.52.44.44,0,0,0-.5-.43A.53.53,0,0,0,238.86,291Z"/><path class="cls-24" d="M245.18,297.17a.44.44,0,0,0,.5.43.53.53,0,0,0,.5-.51.46.46,0,0,0-.51-.44A.52.52,0,0,0,245.18,297.17Z"/><path class="cls-24" d="M230.55,297.75a.46.46,0,0,0,.51.44.55.55,0,0,0,.49-.52.45.45,0,0,0-.5-.44A.53.53,0,0,0,230.55,297.75Z"/><path class="cls-24" d="M225.77,307.32a.45.45,0,0,0,.51.44.53.53,0,0,0,.49-.52.45.45,0,0,0-.5-.44A.55.55,0,0,0,225.77,307.32Z"/><path class="cls-24" d="M212.07,300.79a.45.45,0,0,0,.51.43.53.53,0,0,0,.5-.51.46.46,0,0,0-.51-.44A.55.55,0,0,0,212.07,300.79Z"/><path class="cls-24" d="M216.63,293.26a.44.44,0,0,0,.5.44.53.53,0,0,0,.5-.52.45.45,0,0,0-.51-.43A.52.52,0,0,0,216.63,293.26Z"/><path class="cls-24" d="M204.55,294.35a.45.45,0,0,0,.51.44.53.53,0,0,0,.49-.52.44.44,0,0,0-.5-.43A.53.53,0,0,0,204.55,294.35Z"/><path class="cls-24" d="M222.54,287.87a.45.45,0,0,0,.51.43.52.52,0,0,0,.49-.52.45.45,0,0,0-.5-.43A.53.53,0,0,0,222.54,287.87Z"/><path class="cls-24" d="M226,284.46a.25.25,0,0,0,.28.24.3.3,0,0,0,.28-.29.26.26,0,0,0-.29-.25A.31.31,0,0,0,226,284.46Z"/><path class="cls-24" d="M223.89,288.5a.25.25,0,0,0,.29.24.3.3,0,0,0,.28-.28.26.26,0,0,0-.29-.25A.3.3,0,0,0,223.89,288.5Z"/><path class="cls-24" d="M220.56,289.25a.25.25,0,0,0,.28.24.3.3,0,0,0,.28-.29.26.26,0,0,0-.29-.25A.3.3,0,0,0,220.56,289.25Z"/><path class="cls-24" d="M224.52,297.76a.25.25,0,0,0,.28.24.29.29,0,0,0,.28-.29.24.24,0,0,0-.28-.24A.29.29,0,0,0,224.52,297.76Z"/><path class="cls-24" d="M227.52,298.23a.26.26,0,0,0,.29.25.32.32,0,0,0,.28-.29.26.26,0,0,0-.29-.25A.3.3,0,0,0,227.52,298.23Z"/><path class="cls-24" d="M227.88,296.68a.26.26,0,0,0,.29.25.32.32,0,0,0,.28-.29.26.26,0,0,0-.29-.25A.3.3,0,0,0,227.88,296.68Z"/><path class="cls-24" d="M228.78,298.37a.24.24,0,0,0,.28.24.29.29,0,0,0,.28-.28.26.26,0,0,0-.29-.25A.29.29,0,0,0,228.78,298.37Z"/><path class="cls-24" d="M236.51,305.38a.26.26,0,0,0,.28.25.29.29,0,0,0,.28-.29.26.26,0,0,0-.29-.25A.3.3,0,0,0,236.51,305.38Z"/><path class="cls-24" d="M234.14,304.38a.26.26,0,0,0,.29.25.3.3,0,0,0,.28-.3.26.26,0,0,0-.29-.24A.29.29,0,0,0,234.14,304.38Z"/><path class="cls-24" d="M235.21,303.46a.25.25,0,0,0,.28.25.31.31,0,0,0,.28-.3.26.26,0,0,0-.29-.24A.29.29,0,0,0,235.21,303.46Z"/><path class="cls-24" d="M206.61,298.72a.27.27,0,0,0,.29.25.3.3,0,0,0,.28-.29.26.26,0,0,0-.29-.25A.3.3,0,0,0,206.61,298.72Z"/><path class="cls-24" d="M203.28,299.47a.26.26,0,0,0,.28.25.31.31,0,0,0,.28-.29.26.26,0,0,0-.28-.25A.29.29,0,0,0,203.28,299.47Z"/><path class="cls-24" d="M210.25,308.46a.25.25,0,0,0,.28.24.29.29,0,0,0,.28-.29.26.26,0,0,0-.29-.25A.31.31,0,0,0,210.25,308.46Z"/><path class="cls-24" d="M210.32,306.93a.26.26,0,0,0,.3.24.3.3,0,0,0,.28-.29.25.25,0,0,0-.29-.24A.3.3,0,0,0,210.32,306.93Z"/><path class="cls-24" d="M217.93,313.68a.26.26,0,0,0,.28.25.29.29,0,0,0,.28-.29.26.26,0,0,0-.28-.25A.31.31,0,0,0,217.93,313.68Z"/><path class="cls-24" d="M203.75,292.51a.25.25,0,0,0,.29.24.29.29,0,0,0,.27-.29.25.25,0,0,0-.28-.24A.29.29,0,0,0,203.75,292.51Z"/><path class="cls-24" d="M200.41,293.25a.26.26,0,0,0,.29.25.3.3,0,0,0,.28-.29.26.26,0,0,0-.29-.25A.32.32,0,0,0,200.41,293.25Z"/><path class="cls-24" d="M212.81,293a.45.45,0,0,0,.5.44.55.55,0,0,0,.5-.52.46.46,0,0,0-.51-.44A.53.53,0,0,0,212.81,293Z"/><path class="cls-24" d="M212,291.19a.25.25,0,0,0,.28.24.29.29,0,0,0,.28-.29.26.26,0,0,0-.29-.25A.31.31,0,0,0,212,291.19Z"/><path class="cls-24" d="M208.67,291.93a.26.26,0,0,0,.28.25.31.31,0,0,0,.28-.29.26.26,0,0,0-.28-.25A.29.29,0,0,0,208.67,291.93Z"/><path class="cls-24" d="M209.59,292.05a.45.45,0,0,0,.5.44.53.53,0,0,0,.5-.52.46.46,0,0,0-.51-.44A.55.55,0,0,0,209.59,292.05Z"/><path class="cls-24" d="M208.79,290.21a.25.25,0,0,0,.28.24.29.29,0,0,0,.28-.29.24.24,0,0,0-.28-.24A.29.29,0,0,0,208.79,290.21Z"/><path class="cls-24" d="M205.45,291a.26.26,0,0,0,.29.25.29.29,0,0,0,.27-.29.26.26,0,0,0-.28-.25A.3.3,0,0,0,205.45,291Z"/><path class="cls-24" d="M241.13,307.89a.25.25,0,0,0,.29.24.3.3,0,0,0,.28-.29.25.25,0,0,0-.29-.24A.3.3,0,0,0,241.13,307.89Z"/><path class="cls-24" d="M237.8,308.63a.26.26,0,0,0,.28.25.29.29,0,0,0,.28-.29.26.26,0,0,0-.29-.25A.31.31,0,0,0,237.8,308.63Z"/><path class="cls-24" d="M250.19,308.41a.44.44,0,0,0,.51.43.53.53,0,0,0,.49-.51.45.45,0,0,0-.51-.44A.53.53,0,0,0,250.19,308.41Z"/><path class="cls-24" d="M249.39,306.56a.26.26,0,0,0,.28.25.29.29,0,0,0,.28-.29.26.26,0,0,0-.28-.25A.3.3,0,0,0,249.39,306.56Z"/><path class="cls-24" d="M246.05,307.31a.26.26,0,0,0,.29.25.3.3,0,0,0,.27-.3.25.25,0,0,0-.28-.24A.3.3,0,0,0,246.05,307.31Z"/><path class="cls-24" d="M247,307.43a.45.45,0,0,0,.51.44.54.54,0,0,0,.49-.52.45.45,0,0,0-.5-.44A.55.55,0,0,0,247,307.43Z"/><path class="cls-24" d="M246.17,305.59a.26.26,0,0,0,.29.24.29.29,0,0,0,.27-.29.25.25,0,0,0-.28-.25A.32.32,0,0,0,246.17,305.59Z"/><path class="cls-24" d="M242.83,306.33a.26.26,0,0,0,.29.25.3.3,0,0,0,.28-.29.26.26,0,0,0-.29-.25A.3.3,0,0,0,242.83,306.33Z"/><path class="cls-24" d="M247,321.64a.26.26,0,0,0,.28.25.29.29,0,0,0,.28-.29.26.26,0,0,0-.28-.25A.3.3,0,0,0,247,321.64Z"/><path class="cls-24" d="M243.69,322.39a.26.26,0,0,0,.29.25.32.32,0,0,0,.28-.3.26.26,0,0,0-.29-.24A.3.3,0,0,0,243.69,322.39Z"/><path class="cls-24" d="M244.61,303.5a.46.46,0,0,0,.51.44.52.52,0,0,0,.49-.52.45.45,0,0,0-.5-.44A.55.55,0,0,0,244.61,303.5Z"/><path class="cls-24" d="M243.81,301.66a.25.25,0,0,0,.29.24.3.3,0,0,0,.28-.29.25.25,0,0,0-.29-.24A.3.3,0,0,0,243.81,301.66Z"/><path class="cls-24" d="M252,321.07a.25.25,0,0,0,.28.24.29.29,0,0,0,.28-.29.26.26,0,0,0-.28-.25A.31.31,0,0,0,252,321.07Z"/><path class="cls-24" d="M241.4,302.52a.44.44,0,0,0,.5.44.52.52,0,0,0,.49-.52.44.44,0,0,0-.5-.43A.51.51,0,0,0,241.4,302.52Z"/><path class="cls-24" d="M252.07,319.34a.26.26,0,0,0,.28.25.29.29,0,0,0,.28-.29.26.26,0,0,0-.28-.25A.29.29,0,0,0,252.07,319.34Z"/><path class="cls-24" d="M248.73,320.09a.26.26,0,0,0,.28.25.31.31,0,0,0,.28-.3.25.25,0,0,0-.28-.24A.29.29,0,0,0,248.73,320.09Z"/><path class="cls-24" d="M248.5,313.82a.25.25,0,0,0,.28.25.3.3,0,0,0,.28-.29.26.26,0,0,0-.29-.25A.29.29,0,0,0,248.5,313.82Z"/><path class="cls-24" d="M245.16,314.57a.26.26,0,0,0,.28.25.31.31,0,0,0,.28-.29.26.26,0,0,0-.28-.25A.29.29,0,0,0,245.16,314.57Z"/><path class="cls-24" d="M253.41,313.25a.26.26,0,0,0,.29.24.3.3,0,0,0,.28-.29.26.26,0,0,0-.29-.25A.32.32,0,0,0,253.41,313.25Z"/><path class="cls-24" d="M250.2,312.27a.25.25,0,0,0,.28.25.32.32,0,0,0,.28-.3.25.25,0,0,0-.29-.24A.29.29,0,0,0,250.2,312.27Z"/><path class="cls-24" d="M215.83,307.18a.46.46,0,0,0,.08.67.54.54,0,0,0,.72-.06.45.45,0,0,0-.09-.66A.53.53,0,0,0,215.83,307.18Z"/><path class="cls-24" d="M216.47,305.28a.24.24,0,0,0,.05.37.29.29,0,0,0,.4,0,.24.24,0,0,0,0-.37A.29.29,0,0,0,216.47,305.28Z"/><path class="cls-24" d="M213.49,303.6a.24.24,0,0,0,0,.37.29.29,0,0,0,.4,0,.24.24,0,0,0-.05-.37A.29.29,0,0,0,213.49,303.6Z"/><path class="cls-24" d="M225.74,313.71a.45.45,0,0,0,.09.66.52.52,0,0,0,.71-.05.45.45,0,0,0-.08-.66A.54.54,0,0,0,225.74,313.71Z"/><path class="cls-24" d="M226.38,311.8a.27.27,0,0,0,.05.38.3.3,0,0,0,.4,0,.26.26,0,0,0,0-.38A.32.32,0,0,0,226.38,311.8Z"/><path class="cls-24" d="M223.4,310.12a.27.27,0,0,0,0,.38.3.3,0,0,0,.4,0,.25.25,0,0,0,0-.37A.31.31,0,0,0,223.4,310.12Z"/><path class="cls-24" d="M238.33,318.39a.45.45,0,0,0,.51.43.51.51,0,0,0,.49-.51.45.45,0,0,0-.5-.44A.53.53,0,0,0,238.33,318.39Z"/><path class="cls-24" d="M222.81,319.52a.24.24,0,0,0,.28.24.29.29,0,0,0,.28-.29.25.25,0,0,0-.28-.24A.29.29,0,0,0,222.81,319.52Z"/><path class="cls-24" d="M222.89,318a.25.25,0,0,0,.29.24.29.29,0,0,0,.28-.29.26.26,0,0,0-.29-.24A.29.29,0,0,0,222.89,318Z"/><path class="cls-24" d="M230.49,324.75a.24.24,0,0,0,.28.24.29.29,0,0,0,.28-.29.24.24,0,0,0-.28-.24A.29.29,0,0,0,230.49,324.75Z"/><path class="cls-24" d="M228.39,318.25a.45.45,0,0,0,.08.66.55.55,0,0,0,.72-.05.46.46,0,0,0-.08-.67A.54.54,0,0,0,228.39,318.25Z"/><path class="cls-24" d="M231.77,314.5a.25.25,0,0,0,.28.25.29.29,0,0,0,.28-.29.26.26,0,0,0-.29-.25A.29.29,0,0,0,231.77,314.5Z"/><path class="cls-24" d="M229.67,308a.44.44,0,0,0,.08.66.52.52,0,0,0,.71-.05.44.44,0,0,0-.08-.66A.52.52,0,0,0,229.67,308Z"/><path class="cls-24" d="M238.31,324.77a.45.45,0,0,0,.08.67.53.53,0,0,0,.71-.06.44.44,0,0,0-.08-.66A.53.53,0,0,0,238.31,324.77Z"/><path class="cls-24" d="M239,322.87a.25.25,0,0,0,0,.37.3.3,0,0,0,.4,0,.25.25,0,0,0,0-.37A.29.29,0,0,0,239,322.87Z"/><path class="cls-24" d="M236,321.19a.25.25,0,0,0,0,.37.3.3,0,0,0,.4,0,.25.25,0,0,0,0-.37A.29.29,0,0,0,236,321.19Z"/><path class="cls-24" d="M208.07,314.06a.45.45,0,0,0,.51.44.53.53,0,0,0,.49-.52.45.45,0,0,0-.5-.44A.55.55,0,0,0,208.07,314.06Z"/><path class="cls-24" d="M192.55,315.2a.25.25,0,0,0,.28.24.29.29,0,0,0,.28-.29.26.26,0,0,0-.28-.25A.3.3,0,0,0,192.55,315.2Z"/><path class="cls-24" d="M192.62,313.67a.27.27,0,0,0,.3.24.3.3,0,0,0,.28-.29.25.25,0,0,0-.29-.24A.3.3,0,0,0,192.62,313.67Z"/><path class="cls-24" d="M200.23,320.42a.26.26,0,0,0,.28.25.29.29,0,0,0,.28-.29.26.26,0,0,0-.29-.25A.31.31,0,0,0,200.23,320.42Z"/><path class="cls-24" d="M198.13,313.92a.45.45,0,0,0,.08.67.55.55,0,0,0,.72-.06.45.45,0,0,0-.09-.66A.52.52,0,0,0,198.13,313.92Z"/><path class="cls-24" d="M208,320.45a.45.45,0,0,0,.09.66.52.52,0,0,0,.71-.05.45.45,0,0,0-.08-.66A.54.54,0,0,0,208,320.45Z"/><path class="cls-24" d="M208.68,318.54a.27.27,0,0,0,0,.38.3.3,0,0,0,.4,0,.26.26,0,0,0,0-.38A.3.3,0,0,0,208.68,318.54Z"/><path class="cls-24" d="M205.7,316.86a.27.27,0,0,0,.05.38.3.3,0,0,0,.4,0,.26.26,0,0,0-.05-.38A.3.3,0,0,0,205.7,316.86Z"/><path class="cls-24" d="M253.38,303.62a.44.44,0,0,0,.08.66.54.54,0,0,0,.72,0,.45.45,0,0,0-.09-.66A.52.52,0,0,0,253.38,303.62Z"/><path class="cls-24" d="M254,301.72a.25.25,0,0,0,0,.37.3.3,0,0,0,.4,0,.25.25,0,0,0-.05-.37A.28.28,0,0,0,254,301.72Z"/><path class="cls-24" d="M251,300a.25.25,0,0,0,.05.37.3.3,0,0,0,.4,0,.25.25,0,0,0-.05-.37A.29.29,0,0,0,251,300Z"/><path class="cls-24" d="M239.46,284.65a.46.46,0,0,0,.51.44.52.52,0,0,0,.49-.52.45.45,0,0,0-.5-.44A.55.55,0,0,0,239.46,284.65Z"/><path class="cls-24" d="M245.78,290.83a.44.44,0,0,0,.5.43.53.53,0,0,0,.5-.51.46.46,0,0,0-.51-.44A.52.52,0,0,0,245.78,290.83Z"/><path class="cls-24" d="M254.62,295.38a.25.25,0,0,0,0,.37.3.3,0,0,0,.4,0,.26.26,0,0,0,0-.38A.29.29,0,0,0,254.62,295.38Z"/><path class="cls-24" d="M251.64,293.7a.25.25,0,0,0,.05.37.3.3,0,0,0,.4,0,.24.24,0,0,0-.05-.37A.29.29,0,0,0,251.64,293.7Z"/><path class="cls-24" d="M199.33,310.31a.45.45,0,0,0,.09.66.53.53,0,0,0,.71-.05.46.46,0,0,0-.08-.67A.54.54,0,0,0,199.33,310.31Z"/><path class="cls-24" d="M200,308.4a.26.26,0,0,0,.05.37.28.28,0,0,0,.4,0,.25.25,0,0,0,0-.37A.32.32,0,0,0,200,308.4Z"/><path class="cls-24" d="M197,306.72a.26.26,0,0,0,0,.37.29.29,0,0,0,.4,0,.25.25,0,0,0,0-.37A.32.32,0,0,0,197,306.72Z"/><path class="cls-24" d="M196.55,302a.46.46,0,0,0,.51.44.52.52,0,0,0,.49-.52.45.45,0,0,0-.5-.44A.55.55,0,0,0,196.55,302Z"/><path class="cls-24" d="M195.75,300.13a.26.26,0,0,0,.29.24.3.3,0,0,0,.28-.29.25.25,0,0,0-.29-.24A.3.3,0,0,0,195.75,300.13Z"/><path class="cls-24" d="M192.42,300.87a.26.26,0,0,0,.28.25.29.29,0,0,0,.28-.29.26.26,0,0,0-.29-.25A.29.29,0,0,0,192.42,300.87Z"/><path class="cls-24" d="M211.54,297.13a.26.26,0,0,0,.28.25.29.29,0,0,0,.28-.29.26.26,0,0,0-.28-.25A.29.29,0,0,0,211.54,297.13Z"/><path class="cls-24" d="M211.9,295.58a.26.26,0,0,0,.28.25.29.29,0,0,0,.28-.29.26.26,0,0,0-.28-.25A.3.3,0,0,0,211.9,295.58Z"/><path class="cls-24" d="M219.22,302.36a.26.26,0,0,0,.28.25.3.3,0,0,0,.28-.29.26.26,0,0,0-.28-.25A.29.29,0,0,0,219.22,302.36Z"/><path class="cls-25" d="M105,162a30.8,30.8,0,0,1,23.55-1c1.07.38,1.42.18,1.85-.86,4.89-11.91,13.71-18.81,26.36-19.79s22.91,4.42,29.91,15.58a31.72,31.72,0,0,1,3.2,28.33c-5.18,15.08-10.48,30.11-15.76,45.16-3.21,9.16-12.24,13.31-21.3,9.79-14.48-5.62-28.93-11.34-43.43-16.88a34.21,34.21,0,0,1-17-13.51c-10.14-15.5-5.15-37.18,10.55-45.73Z"/><path class="cls-26" d="M108.05,163.38a27.84,27.84,0,0,1,21.25-.9c1,.35,1.28.16,1.67-.77,4.41-10.75,12.36-17,23.77-17.85s20.66,4,27,14a28.6,28.6,0,0,1,2.89,25.55c-4.67,13.6-9.46,27.16-14.22,40.73-2.9,8.26-11,12-19.21,8.84C138.12,228,125.09,222.8,112,217.8a30.85,30.85,0,0,1-15.28-12.19c-9.15-14-4.64-33.53,9.52-41.24Z"/><path class="cls-25" d="M135.29,206.53a1.8,1.8,0,0,0-1.5-3.26,1.8,1.8,0,0,0,1.5,3.26Z"/><path class="cls-25" d="M143,217a1.8,1.8,0,0,0-1.5-3.26A1.8,1.8,0,0,0,143,217Z"/><path class="cls-25" d="M147.49,190.16c2.69-1.24.77-5.43-1.93-4.19s-.77,5.43,1.93,4.19Z"/><path class="cls-25" d="M119.25,184.67c2.69-1.25.77-5.44-1.93-4.19s-.77,5.43,1.93,4.19Z"/><path class="cls-25" d="M117.49,200.49c2.7-1.24.77-5.43-1.93-4.19s-.77,5.43,1.93,4.19Z"/><path class="cls-25" d="M131.78,187.32c2.7-1.24.77-5.43-1.93-4.19s-.77,5.43,1.93,4.19Z"/><path class="cls-25" d="M114.14,179.82c2.69-1.24.77-5.43-1.93-4.19s-.77,5.44,1.93,4.19Z"/><path class="cls-25" d="M157.22,160.4c3.59-1.66,1-7.24-2.58-5.58s-1,7.24,2.58,5.58Z"/><path class="cls-25" d="M163.81,200.14c3.6-1.66,1-7.24-2.57-5.58s-1,7.24,2.57,5.58Z"/><path class="cls-25" d="M161.2,161.45c3.59-1.66,1-7.25-2.58-5.59s-1,7.24,2.58,5.59Z"/><path class="cls-25" d="M113.29,198.52c2.7-1.25.77-5.44-1.93-4.19s-.77,5.43,1.93,4.19Z"/><path class="cls-25" d="M103.83,188.69c2.69-1.24.77-5.43-1.93-4.19s-.77,5.43,1.93,4.19Z"/><path class="cls-25" d="M112.51,207.52c2.69-1.24.76-5.43-1.93-4.19s-.77,5.43,1.93,4.19Z"/><path class="cls-25" d="M159.4,207.08c2.7-1.24.77-5.43-1.93-4.18s-.77,5.43,1.93,4.18Z"/><path class="cls-25" d="M160.64,218.24c2.69-1.24.77-5.43-1.93-4.19s-.77,5.43,1.93,4.19Z"/><path class="cls-25" d="M148.72,204c2.7-1.25.77-5.44-1.93-4.19s-.77,5.43,1.93,4.19Z"/><path class="cls-25" d="M185.3,173.14c2.7-1.24.77-5.43-1.93-4.19s-.77,5.43,1.93,4.19Z"/><path class="cls-25" d="M145.26,165.68c2.69-1.24.77-5.43-1.93-4.18s-.77,5.43,1.93,4.18Z"/><path class="cls-25" d="M159.72,181.44c2.69-1.25.77-5.44-1.93-4.19s-.77,5.43,1.93,4.19Z"/><path class="cls-25" d="M143.17,171c2.69-1.25.77-5.44-1.93-4.19s-.77,5.43,1.93,4.19Z"/><path class="cls-25" d="M145.14,158.74c2.7-1.24.77-5.43-1.93-4.18s-.77,5.43,1.93,4.18Z"/><path class="cls-25" d="M165.22,176.43c2.7-1.24.77-5.43-1.93-4.19s-.77,5.43,1.93,4.19Z"/><path class="cls-25" d="M168.26,159.81c2.69-1.24.77-5.43-1.93-4.19s-.77,5.44,1.93,4.19Z"/><path class="cls-25" d="M138,195c2.69-1.24.77-5.43-1.93-4.18s-.77,5.43,1.93,4.18Z"/><path class="cls-25" d="M137.32,205.13c2.69-1.24.77-5.43-1.93-4.19s-.77,5.43,1.93,4.19Z"/><path class="cls-25" d="M135.87,203.33c2.7-1.24.77-5.43-1.93-4.19s-.77,5.43,1.93,4.19Z"/><path class="cls-25" d="M131.4,207.45c2.69-1.24.76-5.43-1.94-4.19s-.76,5.43,1.94,4.19Z"/><path class="cls-25" d="M171.59,188.46c3.29-1.52.94-6.64-2.36-5.12s-.94,6.64,2.36,5.12Z"/><path class="cls-25" d="M154.7,224.55c3-1.38.86-6-2.14-4.66s-.86,6,2.14,4.66Z"/><path class="cls-25" d="M125.68,214.68c3-1.38.86-6-2.14-4.65s-.86,6,2.14,4.65Z"/><path class="cls-25" d="M141.4,180.08c3-1.38.86-6-2.14-4.65s-.85,6,2.14,4.65Z"/><path class="cls-25" d="M117.65,170.05c3-1.38.86-6-2.14-4.65s-.86,6,2.14,4.65Z"/><path class="cls-25" d="M183,142.9a30.84,30.84,0,0,1,21.82,8.95c.8.79,1.21.76,2,0,9.43-8.78,20.33-11.35,32.22-6.94s19,13.6,20.65,26.67a31.73,31.73,0,0,1-9,27.06c-11,11.53-22.13,23-33.22,34.42-6.76,7-16.69,7-23.45,0-10.8-11.17-21.52-22.41-32.38-33.52a34.3,34.3,0,0,1-9.73-19.36c-2.72-18.32,10.89-35.92,28.73-37.12Z"/><path class="cls-26" d="M185.19,145.46a27.86,27.86,0,0,1,19.68,8.08c.72.72,1.09.68,1.83,0,8.51-7.92,18.33-10.24,29.06-6.26s17.1,12.27,18.63,24.05a28.63,28.63,0,0,1-8.08,24.41c-9.94,10.4-20,20.71-30,31-6.09,6.29-15,6.28-21.15,0-9.74-10.08-19.41-20.22-29.2-30.23a30.91,30.91,0,0,1-8.78-17.47c-2.46-16.52,9.82-32.39,25.91-33.47Z"/><path class="cls-25" d="M191.87,196.05a1.8,1.8,0,0,0,0-3.59,1.8,1.8,0,0,0,0,3.59Z"/><path class="cls-25" d="M194.48,208.75a1.8,1.8,0,0,0,0-3.59,1.8,1.8,0,0,0,0,3.59Z"/><path class="cls-25" d="M209.8,186.29c3,0,3-4.61,0-4.61s-3,4.61,0,4.61Z"/><path class="cls-25" d="M186.45,169.48c3,0,3-4.61,0-4.61s-3,4.61,0,4.61Z"/><path class="cls-25" d="M178.23,183.11c3,0,3-4.61,0-4.61s-3,4.61,0,4.61Z"/><path class="cls-25" d="M196.72,177.14c3,0,3-4.61,0-4.61s-3,4.61,0,4.61Z"/><path class="cls-25" d="M183.83,162.94c3,0,3-4.61,0-4.61s-3,4.61,0,4.61Z"/><path class="cls-25" d="M231.09,163.34c4,0,4-6.15,0-6.15s-4,6.15,0,6.15Z"/><path class="cls-25" d="M220.44,202.19c4,0,4-6.15,0-6.15s-4,6.15,0,6.15Z"/><path class="cls-25" d="M234.27,166c3.95,0,4-6.15,0-6.15s-4,6.15,0,6.15Z"/><path class="cls-25" d="M175.24,179.56c3,0,3-4.61,0-4.61s-3,4.61,0,4.61Z"/><path class="cls-25" d="M170.76,166.68c3,0,3-4.61,0-4.61s-3,4.61,0,4.61Z"/><path class="cls-25" d="M170.76,187.41c3,0,3-4.61,0-4.61s-3,4.61,0,4.61Z"/><path class="cls-25" d="M213.53,206.65c3,0,3-4.61,0-4.61s-3,4.61,0,4.61Z"/><path class="cls-25" d="M210,217.29c3,0,3-4.61,0-4.61s-3,4.61,0,4.61Z"/><path class="cls-25" d="M205.13,199.36c3,0,3-4.61,0-4.61s-3,4.61,0,4.61Z"/><path class="cls-25" d="M251.26,186.66c3,0,3-4.61,0-4.61s-3,4.61,0,4.61Z"/><path class="cls-25" d="M218,163.13c3,0,3-4.61,0-4.61s-3,4.61,0,4.61Z"/><path class="cls-25" d="M224.55,183.49c3,0,3-4.61,0-4.61s-3,4.61,0,4.61Z"/><path class="cls-25" d="M213.91,167.05c3,0,3-4.61,0-4.61s-3,4.61,0,4.61Z"/><path class="cls-25" d="M220.82,156.78c3,0,3-4.61,0-4.61s-3,4.61,0,4.61Z"/><path class="cls-25" d="M231.65,181.25c3,0,3-4.62,0-4.62s-3,4.62,0,4.62Z"/><path class="cls-25" d="M241.36,167.42c3,0,3-4.61,0-4.61s-3,4.61,0,4.61Z"/><path class="cls-25" d="M199.15,186.66c3,0,3-4.61,0-4.61s-3,4.61,0,4.61Z"/><path class="cls-25" d="M194.29,195.63c3,0,3-4.61,0-4.61s-3,4.61,0,4.61Z"/><path class="cls-25" d="M193.73,193.39c3,0,3-4.61,0-4.61s-3,4.61,0,4.61Z"/><path class="cls-25" d="M187.94,195.25c3,0,3-4.61,0-4.61s-3,4.61,0,4.61Z"/><path class="cls-25" d="M232.4,194.83c3.62,0,3.63-5.63,0-5.63s-3.64,5.63,0,5.63Z"/><path class="cls-25" d="M202,220.54c3.3,0,3.3-5.12,0-5.12s-3.3,5.12,0,5.12Z"/><path class="cls-25" d="M179.73,199.43c3.29,0,3.3-5.12,0-5.12s-3.31,5.12,0,5.12Z"/><path class="cls-25" d="M208.49,174.59c3.3,0,3.3-5.12,0-5.12s-3.3,5.12,0,5.12Z"/><path class="cls-25" d="M191.12,155.54c3.3,0,3.3-5.12,0-5.12s-3.3,5.12,0,5.12Z"/><path class="cls-25" d="M290.71,173.17a30.83,30.83,0,0,1,21.81,9c.81.79,1.21.76,2,0,9.43-8.78,20.33-11.36,32.23-6.94s19,13.6,20.64,26.66a31.74,31.74,0,0,1-8.95,27.07c-11,11.53-22.13,23-33.22,34.42-6.75,7-16.69,7-23.45,0-10.79-11.16-21.52-22.4-32.37-33.51a34.17,34.17,0,0,1-9.73-19.36c-2.73-18.32,10.88-35.92,28.72-37.12Z"/><path class="cls-26" d="M293,175.73a27.84,27.84,0,0,1,19.67,8.08c.73.71,1.1.68,1.83,0,8.51-7.92,18.34-10.24,29.07-6.26s17.09,12.27,18.62,24A28.62,28.62,0,0,1,354.07,226c-9.94,10.4-20,20.71-30,31-6.09,6.29-15.05,6.29-21.15,0-9.74-10.07-19.41-20.21-29.2-30.22A30.84,30.84,0,0,1,265,209.34c-2.46-16.52,9.81-32.39,25.91-33.47Z"/><path class="cls-25" d="M299.62,226.32a1.8,1.8,0,0,0,0-3.59,1.8,1.8,0,0,0,0,3.59Z"/><path class="cls-25" d="M302.23,239a1.8,1.8,0,0,0,0-3.59,1.8,1.8,0,0,0,0,3.59Z"/><path class="cls-25" d="M317.55,216.56c3,0,3-4.61,0-4.61s-3,4.61,0,4.61Z"/><path class="cls-25" d="M294.2,199.75c3,0,3-4.61,0-4.61s-3,4.61,0,4.61Z"/><path class="cls-25" d="M286,213.38c3,0,3-4.61,0-4.61s-3,4.61,0,4.61Z"/><path class="cls-25" d="M304.47,207.41c3,0,3-4.62,0-4.62s-3,4.62,0,4.62Z"/><path class="cls-25" d="M291.59,193.21c3,0,3-4.61,0-4.61s-3,4.61,0,4.61Z"/><path class="cls-25" d="M338.84,193.61c4,0,4-6.15,0-6.15s-4,6.15,0,6.15Z"/><path class="cls-25" d="M328.2,232.46c3.95,0,4-6.15,0-6.15s-4,6.15,0,6.15Z"/><path class="cls-25" d="M342,196.22c4,0,4-6.15,0-6.15s-4,6.15,0,6.15Z"/><path class="cls-25" d="M283,209.83c3,0,3-4.61,0-4.61s-3,4.61,0,4.61Z"/><path class="cls-25" d="M278.51,197c3,0,3-4.62,0-4.62s-3,4.62,0,4.62Z"/><path class="cls-25" d="M278.51,217.68c3,0,3-4.61,0-4.61s-3,4.61,0,4.61Z"/><path class="cls-25" d="M321.28,236.92c3,0,3-4.61,0-4.61s-3,4.61,0,4.61Z"/><path class="cls-25" d="M317.74,247.56c3,0,3-4.61,0-4.61s-3,4.61,0,4.61Z"/><path class="cls-25" d="M312.88,229.63c3,0,3-4.61,0-4.61s-3,4.61,0,4.61Z"/><path class="cls-25" d="M359,216.93c3,0,3-4.61,0-4.61s-3,4.61,0,4.61Z"/><path class="cls-25" d="M325.77,193.4c3,0,3-4.61,0-4.61s-3,4.61,0,4.61Z"/><path class="cls-25" d="M332.31,213.76c3,0,3-4.62,0-4.62s-3,4.62,0,4.62Z"/><path class="cls-25" d="M321.66,197.32c3,0,3-4.61,0-4.61s-3,4.61,0,4.61Z"/><path class="cls-25" d="M328.57,187.05c3,0,3-4.61,0-4.61s-3,4.61,0,4.61Z"/><path class="cls-25" d="M339.4,211.52c3,0,3-4.62,0-4.62s-3,4.62,0,4.62Z"/><path class="cls-25" d="M349.12,197.69c3,0,3-4.61,0-4.61s-3,4.61,0,4.61Z"/><path class="cls-25" d="M306.9,216.93c3,0,3-4.61,0-4.61s-3,4.61,0,4.61Z"/><path class="cls-25" d="M302.05,225.9c3,0,3-4.61,0-4.61s-3,4.61,0,4.61Z"/><path class="cls-25" d="M301.49,223.66c3,0,3-4.62,0-4.62s-3,4.62,0,4.62Z"/><path class="cls-25" d="M295.7,225.52c3,0,3-4.61,0-4.61s-3,4.61,0,4.61Z"/><path class="cls-25" d="M340.15,225.1c3.63,0,3.63-5.63,0-5.63s-3.63,5.63,0,5.63Z"/><path class="cls-25" d="M309.7,250.81c3.3,0,3.31-5.13,0-5.13s-3.3,5.13,0,5.13Z"/><path class="cls-25" d="M287.48,229.7c3.29,0,3.3-5.12,0-5.12s-3.3,5.12,0,5.12Z"/><path class="cls-25" d="M316.24,204.86c3.3,0,3.3-5.12,0-5.12s-3.3,5.12,0,5.12Z"/><path class="cls-25" d="M298.87,185.81c3.3,0,3.3-5.13,0-5.13s-3.3,5.13,0,5.13Z"/></g></g></svg>