<svg id="Layer_1" data-name="Layer 1" xmlns="http://www.w3.org/2000/svg" viewBox="0 0 26.73 22.94"><defs><style>.cls-1{fill:#de1c24;}.cls-2{fill:none;stroke:#e2e2e2;stroke-miterlimit:10;}</style></defs><title>sortfilter</title><path class="cls-1" d="M17,8.9a.89.89,0,0,1-1.15-.09l-.23.2c-.34.28-.59.24-.81-.14l-.26-.46c-.42.13-.83.37-1.23-.05a2.14,2.14,0,0,0-.51,1,14.54,14.54,0,0,1-.75,2.43,9,9,0,0,1-3.05,4,12.14,12.14,0,0,1-2.66,1.36,3.33,3.33,0,0,0-.5.25.28.28,0,0,0-.1.19c0,.06.09.14.16.15a6.5,6.5,0,0,0,.75.12,11.25,11.25,0,0,0,4.16-.59,9.14,9.14,0,0,0,6.34-7A2,2,0,0,0,17,8.9"/><path class="cls-1" d="M13.87,8.32a1.86,1.86,0,0,0,.46-.13c.27-.09.36-.06.5.19l.24.42c.08.14.18.16.3,0l.3-.25c.13-.11.25-.14.38,0a.56.56,0,0,0,.82,0c.09-.09.11-.17,0-.26a6.4,6.4,0,0,1-.51-.4.78.78,0,0,1-.28-.73c.06-.5.09-1,.14-1.49h0a2.41,2.41,0,0,0,0-.38A7.81,7.81,0,0,0,16,4.56c-.05-.18-.14-.2-.3-.1a1.31,1.31,0,0,0-.53.61.62.62,0,0,0,.05.59,1.51,1.51,0,0,1,.24.94c0,.69-.2.86-.88,1a6.42,6.42,0,0,0-.86.23.3.3,0,0,0-.2.35c0,.17.19.17.32.15"/><rect class="cls-2" x="0.43" y="0.48" width="25.71" height="22.11" rx="6.49"/></svg>