<svg id="Layer_1" data-name="Layer 1" xmlns="http://www.w3.org/2000/svg" xmlns:xlink="http://www.w3.org/1999/xlink" viewBox="0 0 32.95 32.04"><defs><style>.cls-1{fill:none;}.cls-2{clip-path:url(#clip-path);}.cls-3{fill:#fff;}.cls-4{fill:#ddd;}</style><clipPath id="clip-path"><rect class="cls-1" x="-80.71" y="-277.93" width="638.84" height="255.44"/></clipPath></defs><title>icon</title><g class="cls-2"><path class="cls-3" d="M99.14,14.63a244.08,244.08,0,0,1-7.31-29.57,156.29,156.29,0,0,1-2.32-21.17c-.31-8.1.09-16.21.5-24.31.63-12.73,2.1-25.76,1.92-38.5-.08-5.63-1.64-11.23-2.91-16.61-1.19-5-4-9.69-8.18-12.22a28.69,28.69,0,0,0-6-2.5c-5.27-1.73-9.19-2.63-11.94-6.39a21.49,21.49,0,0,1-9.1,4.6,24.06,24.06,0,0,1-8.08,2.11l0,.09-.75,0a23.49,23.49,0,0,1-3.55-.09,24.09,24.09,0,0,1-6.13-1.51c-1.62-.63-3.31-1-4.9-1.71a15.6,15.6,0,0,0-3.93-1.72c-1.7-.27-2.85.76-4.3,1.59L12-127.55a28.86,28.86,0,0,0-6.1,4.2c-2.75,2.71-2.67,4.9-2.46,8.27.12,2,0,4.07.12,6.08.06,1.47.68,4.81-.19,6.09l3.18-4.71c-1,8.28-1.43,16.78-2,24.87-1.14,15.93-1,32.17-2.36,48C.89-19.92-1.11-4.59-8,8.51a2.36,2.36,0,0,0-.37,2.06,2.07,2.07,0,0,0,.68.7A47.16,47.16,0,0,0,8.61,18.73c4.31,1,7.23-1.79,11.4-1,5.45,1,10.72,2.17,16.28,2.17,13.58,0,26.64-.21,40.15-2.4,4.28-.7,9.44-2.6,13.75-2.14C90.94,15.41,99.93,17.23,99.14,14.63Z"/></g><path class="cls-4" d="M28.11,25.45l-4.79-4.8a10,10,0,0,0,2-6.1,10.1,10.1,0,0,0-10-10.17h-.12A10.11,10.11,0,0,0,5,14.43v.12a10.11,10.11,0,0,0,10,10.18h.13a10,10,0,0,0,6.1-2l4.79,4.8ZM7.92,14.55A7.19,7.19,0,0,1,15,7.29h.14a7.2,7.2,0,0,1,7.27,7.12v.14a7.2,7.2,0,0,1-7.13,7.27h-.14a7.19,7.19,0,0,1-7.26-7.13Z"/><rect id="SVGID" class="cls-1" x="5.01" y="4.38" width="23.1" height="23.1"/></svg>