<svg id="Layer_1" data-name="Layer 1" xmlns="http://www.w3.org/2000/svg" xmlns:xlink="http://www.w3.org/1999/xlink" viewBox="0 0 536.47 235.19"><defs><style>.cls-1{fill:none;}.cls-2{clip-path:url(#clip-path);}.cls-3{fill:url(#linear-gradient);}.cls-4{clip-path:url(#clip-path-2);}.cls-5{fill:#eb3c53;}.cls-6{fill:#ff808c;}</style><clipPath id="clip-path"><path class="cls-1" d="M536.47,141.69V146a4.36,4.36,0,1,0,0,8.71v4.4a4.36,4.36,0,0,0,0,8.72v4.39a4.36,4.36,0,0,0,0,8.72v4.39a4.36,4.36,0,0,0,0,8.72v4.4a4.36,4.36,0,1,0,0,8.71v4.4a4.36,4.36,0,1,0,0,8.71v4.18a10.72,10.72,0,0,0-10.73,10.72H142.83a10.68,10.68,0,0,0-9.93-10.64v-4.26a4.36,4.36,0,1,0,0-8.71v-4.4a4.36,4.36,0,1,0,0-8.71v-4.4a4.36,4.36,0,0,0,0-8.72V181a4.36,4.36,0,1,0,0-8.72v-4.39a4.36,4.36,0,0,0,0-8.72v-4.4a4.36,4.36,0,1,0,0-8.71v-4.4a4.36,4.36,0,1,0,0-8.71v-4.4a4.36,4.36,0,0,0,0-8.72V115.4a4.36,4.36,0,0,0,0-8.72v-4.39a4.36,4.36,0,0,0,0-8.72v-4.4a4.36,4.36,0,1,0,0-8.71v-4.4a4.36,4.36,0,1,0,0-8.71V63a4.36,4.36,0,1,0,0-8.71v-4.4a4.36,4.36,0,0,0,0-8.72V36.73a4.36,4.36,0,0,0,0-8.72v-4.4a4.36,4.36,0,1,0,0-8.71V11A10.69,10.69,0,0,0,142.82.34c0-.12,0-.23,0-.34h383a10.73,10.73,0,0,0,10.73,10.73V14.9a4.36,4.36,0,1,0,0,8.71V28a4.36,4.36,0,0,0,0,8.72v4.39a4.36,4.36,0,0,0,0,8.72v4.4a4.36,4.36,0,1,0,0,8.71v4.4a4.36,4.36,0,1,0,0,8.71v4.4a4.36,4.36,0,1,0,0,8.71V93.5a24.1,24.1,0,1,0,0,48.19ZM131.28,14.9V11a10.7,10.7,0,0,1-10-10.65c0-.12,0-.23,0-.34H12A10.73,10.73,0,0,1,1.23,10.73V14.9a4.36,4.36,0,1,1,0,8.71V28a4.36,4.36,0,0,1,0,8.72v4.39a4.36,4.36,0,0,1,0,8.72v4.4a4.36,4.36,0,1,1,0,8.71v4.4a4.36,4.36,0,1,1,0,8.71v4.4a4.36,4.36,0,1,1,0,8.71V93.5a24.1,24.1,0,1,1,0,48.19V146a4.36,4.36,0,1,1,0,8.71v4.4a4.36,4.36,0,1,1,0,8.72v4.39a4.36,4.36,0,1,1,0,8.72v4.39a4.36,4.36,0,1,1,0,8.72v4.4a4.36,4.36,0,1,1,0,8.71v4.4a4.36,4.36,0,1,1,0,8.71v4.18A10.72,10.72,0,0,1,12,235.19H121.33a10.69,10.69,0,0,1,10-10.65v-4.25a4.36,4.36,0,0,1,0-8.71v-4.4a4.36,4.36,0,0,1,0-8.71v-4.4a4.36,4.36,0,0,1,0-8.72V181a4.36,4.36,0,0,1,0-8.72v-4.39a4.36,4.36,0,0,1,0-8.72v-4.4a4.36,4.36,0,0,1,0-8.71v-4.4a4.36,4.36,0,0,1,0-8.71v-4.4a4.36,4.36,0,0,1,0-8.72V115.4a4.36,4.36,0,0,1,0-8.72v-4.39a4.36,4.36,0,0,1,0-8.72v-4.4a4.36,4.36,0,0,1,0-8.71v-4.4a4.36,4.36,0,0,1,0-8.71V63a4.36,4.36,0,0,1,0-8.71v-4.4a4.36,4.36,0,0,1,0-8.72V36.73a4.36,4.36,0,0,1,0-8.72v-4.4a4.36,4.36,0,0,1,0-8.71Z"/></clipPath><linearGradient id="linear-gradient" x1="272.89" y1="-19.43" x2="275.24" y2="235.26" gradientUnits="userSpaceOnUse"><stop offset="0" stop-color="#ff808c"/><stop offset="1" stop-color="#e62841"/></linearGradient><clipPath id="clip-path-2"><rect id="SVGID" class="cls-1" y="-8.98" width="548.31" height="253.94"/></clipPath></defs><title>coupons</title><g class="cls-2"><rect class="cls-3" y="-8.98" width="548.31" height="253.94"/><g class="cls-4"><path class="cls-5" d="M394.3,237.34V219.45H379.55c-.38,5.49-.79,11.25-1.22,17.4h-499c0-10.86.23-21.25-.08-31.62-.24-8.43-4.59-12.72-11.24-11.75-6.17.9-8.4,5.1-8.43,10.82-.05,10.68,0,21.36,0,33H-280.9c-15.24,0-17.54-3.28-13-17.73,1.68-5.39,3.69-11,3.7-16.55,0-18.43-1.73-36.91-.9-55.28.44-9.79,2.1-20.62,12.07-26.94,1.42-.9,2.38-2.53,3.31-3.54,9.25,6,13.61,15,14.83,25.43.72,6.21-.2,12.6-.14,18.9q.27,26.33.81,52.64c0,1.17,1,2.31,2.64,3.46,2.63-24,.22-49,19.1-71,5.24,12.42,10,23.69,14.94,35.44.75-2.52,1.74-5.39,2.46-8.32,4.32-17.38,8.44-34.81,13-52.14.75-2.85,3.2-5.26,3.68-8.28l8.73-22.84c-1.44,10.44,12.14,14.44,5.83,22.23,2.24,3.77,4.55,6.25,5.29,9.14,6,23.12,11.61,46.32,17.36,69.49.31,1.25.68,2.49.83,3l7.38-44.64c19.21-12.84,36.65-13.84,52.87-2.32,15,16.72,5.48,38.45,12.58,57.49.24-2.61.51-5.22.71-7.84s.33-5.37.49-8c.93-15.67,1.74-31.35,2.8-47,2-29,4.08-58.07,6.15-87.39h6.27c1.29,20.37,2.53,40.41,3.83,60.44,1,14.9,1.83,29.8,3.08,44.68.73,8.72,2.12,17.38,3.11,25.28,2.21-9.4,4.06-20,7.43-30,1.08-3.22,6.18-5.1,9.09-7.33,10.15,4,12.13,11.7,12.76,21.1.41,6.15,3.67,12.12,5.95,19.06.63-4.65,1.2-8.84,1.76-13l2.23-.53,11.1,17.24c.45-14,.72-26.9,1.47-39.8.08-1.47,2.78-2.78,4.7-4.58,0,10.24-.17,18.5.05,26.75.17,6.64,5.12,9.58,11.39,6,.65,3.59,1.25,6.83,1.67,9.17.72-2.42,1.68-5.68,2.41-8.15,5.2.47,9.47,1.25,13.71,1.15,6-.15,12.07-1.61,18-1.28,5.17.3,7.93-.84,8.06-6.23.22-8.29.06-16.59.06-28.17,2.37,3.16,4.67,4.82,4.74,6.58.31,7.14-.4,14.33,0,21.47.15,2.91,2,5.73,3.15,8.59,2.63-2.16,5.28-4.31,7.88-6.5.64-.53,1.16-1.22,3.44-3.67,1.16,5.75,2,9.93,2.85,14.11-3.92-8.83,10.45-13.84,4.7-24.35-1.33-2.45,7.39-10.39,11.21-15.45,11.32,4.41,13.43,12,14,21.54.4,6.12,3.93,12,6.06,18.06.67-3.7,1.45-8,2.22-12.28l3.34.05q1,14.32,2,28.64l2.08-.05V144.62l9.94-.5c.9,21.14,1.77,41.83,2.65,62.52l2.85.35c.94-1.3,1.89-2.59,4.32-5.92,1.09,7.81,1.87,13.46,2.66,19.1l1.66.21c.35-3.46.95-6.9,1-10.36.32-15.13.32-30.26.89-45.37.08-2.21,2.61-4.32,4-6.48l3.41,1.26v60.95H165V162.43l2.38,0c1.7,4.22,3.41,8.44,5.43,13.47,3.42-.29,9.44,4.52,10.74-4.58l2.28,5c2.55-11.51-2.32-25.12,12.38-30.3l8.18,9.1c-4.72-18.09,6.5-26,15.58-34.88,5.6-5.45,12.12-10.09,8.31-19.53C230,99.91,232,98.25,233,97c.8,1.34,2.61,3.09,2.25,4-3.45,8.56,1.95,13.29,7.29,18.24,3.94,3.65,8.58,7,11.22,11.45,3.72,6.29,5.87,13.5,8.76,20.49l5.3-5.76c11.9,6.32,11.65,18.23,8.69,31.06l2.71-.15,1.89-2.84,11.19,3.78L298,162.43l2.23,0v58h18.79V159.94l8.87-.77v61.37h13.79V144.59h10.69v39.24l2.41.74c1.72-4,3.72-7.89,5.12-12,3.37-9.88,6.64-19.81,9.49-29.85.6-2.09-1-4.72-1.2-7.13a36.58,36.58,0,0,1,.35-5.7c1.56.57,3.13,1.12,4.68,1.7,1.08.41,2.16,1.26,3.21,1.2,9.21-.46,18.42-1.09,29.27-1.77-1.21-.91-.28-.4-.34-.24-5.52,15.36,5.6,27.63,7.88,41.55,1.25,7.58,5.11,14.73,8.4,23.76.48-3.51,1-5.59,1-7.67-.16-30.06-.19-60.12-.7-90.17-.23-13.22-1.66-26.42-2-39.65,0-1.72,3-4.29,5.07-5.09,2.64-1,5.82-.7,8.75-.66,6.64.1,8.41,1.82,6.4,9.5-2.06,7.87.18,16.8.08,25.26-.07,6.09-1.27,12.16-1.29,18.24-.14,32-.07,63.9.86,96.28,5.5-10,18.23-15,17-29.85-1.23-14.64,0-29.49.43-44.24.09-3.11,1.6-6.18,2.46-9.26l4,.12c.88,6.47,1.77,12.94,2.78,20.33,4.66-7.28-5-21.29,11.61-20.27,2.1-13.57-4.48-29.82,13.61-37.07,16.77,6.92,11.71,22.48,12.74,33.82,4.25,3.8,8.69,6.07,10.2,9.6,1.58,3.71.35,8.62,2.33,13q1.14-9.68,2.27-19.35l3.92-.18c.86,2.73,2.38,5.45,2.47,8.21.51,15.63,1,31.28.8,46.91-.1,7,.53,12.77,8,15.62q9.12-31.41,18.25-62.91c15.46,23.77,17.27,51.11,26.65,76,0-17.16.38-34.33-.12-51.48-.37-12.52,1.76-23.49,12.82-31.1.86-.59,1.14-2,1.47-2.66C604,123,607.55,132.82,609,143.53c.69,5.05-.16,10.3-.12,15.45.1,17.86,0,35.72.61,53.56.2,5.89,2,11.82,3.69,17.55,1.82,6.21-1.28,7.3-6.31,7.26-8.06-.07-16.13,0-24.19,0H394.3ZM495.5,121l5.15,8.25c1.75-9.73,2.44-18.37.41-26.89h-2.62l-2.92,18.71c.24-3.21,1.16-6.55.54-9.59-.68-3.35-2.77-6.43-4.25-9.62-1.54,3-3.48,5.92-4.46,9.12-.63,2.08.14,4.59.27,6.72C490.49,118.91,493,120,495.5,121Zm108.58,96.45c0-20.26,0-39.51,0-58.75,0-6.05-3.78-9.45-8.8-8.79-3.9.51-10.42,4.21-10.52,6.72-.87,20.24-.49,40.54-.49,60.82Zm-869.7-.17c0-19.86,0-39.08,0-58.3,0-6.92-4.37-9.54-10.44-9.36-5.69.18-9.5,2.9-9.47,9.41.09,19.25,0,38.5,0,58.25ZM-148,149.81l.24,2.48h34.22c0-.83,0-1.66,0-2.48Zm630.16-11.53,2.56.23V102.43l-2.56-.05ZM195.06,167v9.41l9.41-.52v-8.08Zm66.06,9.1h9.94c-.25-3.24-.48-6.18-.72-9.27L261.12,168Z"/><path class="cls-6" d="M-57.21,227.78c.44-.56,1.15-1.07,1.26-1.68a19.58,19.58,0,0,0,.07-3.43c.14-14.86-.06-29.73.58-44.57.27-6.28.86-12.82,5.28-18.25,1.48-1.81,1.54-4.77,2.24-7.19.11.4.23,1,.44,1.62.81,2.39,1.23,5.05,2.58,7.09a21.88,21.88,0,0,1,3.7,11.78c.46,17.41.83,34.82,1.24,52.22,0,.62.09,1.24.15,2.09h6.13c0-1.05.14-2.15.14-3.25,0-7.71,0-15.41,0-23.11s-.24-15.61.48-23.33c.55-6,.82-12.2,5-17.44,1.64-2.08,1.85-5.29,2.69-7.89-.21-.2.13,0,.11.12-.47,4.75,2.35,8.17,4.58,11.91a17.58,17.58,0,0,1,1.8,6,61.53,61.53,0,0,1,.87,8.87c.22,15.38.32,30.76.47,46.14,0,.61.14,1.21.23,2H2V214.37l-4.12,1.15L-2.8,215c4.62-4.68,6.23-10.58,7.52-16.66.65-3.06,3.54-5,6.77-5.49,3.43-.47,6.8-1.42,10.24-1.73a15.2,15.2,0,0,1,5.41,1,10.61,10.61,0,0,0,8.13-.49c3.5-1.7,10,.65,12.66,4.43,1.64,2.35,2.86,5,4.5,7.9a15.93,15.93,0,0,0,2-3.48c1.06-3.68,1.84-7.45,2.74-11.18A9.3,9.3,0,0,1,65.41,182c3.29-.36,6.91,0,9.8-1.26,4.72-2.07,8.68.32,13,.78a9.37,9.37,0,0,0,4.45-.39c6.5-2.77,14-1.11,17.9,4.86,2.43,3.75,3.8,8.17,5.81,12.22a88.43,88.43,0,0,0,4.57,8.1c.61,1,1.75,1.59,3.42,3-.12-5.31,1.41-9.66-.58-14a2.15,2.15,0,0,1-.2-1.49c2.36-5.82,1.52-11.68.74-17.66-.33-2.61.82-5.38,1.14-8.1.37-3.1.66-6.22.77-9.33,0-1-.63-2-.42-2.87.19-2.14.7-4.31.5-6.41-.3-3,.64-5,3-5.86,4,.9,3.6,3.69,3.56,6.48a19.44,19.44,0,0,0,.94,5.65,16.62,16.62,0,0,0-.69,3.82,111.55,111.55,0,0,0,.92,12.13c.92,6.05-.42,12.1.34,18.12a26.67,26.67,0,0,0,1.07,3.62c.14.48.43,1.11.24,1.46-2.69,5.16-.38,10.45-.84,15.82h10.58c-.41-3-.92-5.9-1.14-8.83-.08-.93.91-1.93.9-2.89,0-4-.46-8-.37-12,.07-3,.8-6.08,1.05-9.13.3-3.57.41-7.15.55-10.73.12-2.81-1-6,3.25-7.12,2.51,1.14,2.32,3.72,2.42,6.62.24,6.4,1.22,12.76,1.65,19.16.18,2.74-.45,5.52-.39,8.28s.74,5.45.75,8.18-.48,5.57-.77,8.52h11v-3.4c0-11.25,0-22.49.05-33.73,0-1.65-1-3.56,1.53-4.94.86-.47.33-3.47,1.11-5.37a27.57,27.57,0,0,0,0,3.28,13,13,0,0,0,.76,2.36l1.58-2,3,8c4.4.14,1.64-3.77,3.41-5.75a40.38,40.38,0,0,0,0,4.21c0,.45.61.84.94,1.26.34-.42,1-.87,1-1.25-.19-1.88-1.11-3.85-.74-5.57.57-2.65,1.39-5.65,3.15-7.54,3.35-3.61,4.14-3.38,8.67-1.09,0-3.07-.15-6.33,0-9.57a13.49,13.49,0,0,1,4.56-9.29c4.49-4.17,8.94-8.39,13.4-12.59a4.83,4.83,0,0,0,1.73-4.43c-.27-2.78.28-5.65.53-9.16.52,3,1.71,5.44,1.19,7.49-1.42,5.56,3.07,7.46,5.77,10.34,3.05,3.25,6.71,5.91,9.82,9.1,4.8,4.92,4.83,11,3.54,17.25-.14.69-.32,1.36-.56,2.37a15.15,15.15,0,0,1,1.86-1.13c1.72-.68,3.84-2.26,5.11-1.75,3.14,1.25,6.16,3.26,6.17,7.41a46.68,46.68,0,0,0,.58,8.87c.12-1.49.24-3,.37-4.63,2.14,1.25-1.28,5.5,3.21,5.42l3.2-8.39c.11.51.3,1.35.49,2.19l1.06.15c.29-2,.58-4,.88-6l.44-.1c.08.9.1,1.81.26,2.69.26,1.36-1.05,3.36,1.58,3.88.28.06.32,1.71.32,2.61q0,18.74,0,37.48c0,.31.07.62.13,1.16h10.57c-.35-3-.85-5.91-1-8.85-.06-1.39.91-2.8.91-4.2,0-3.9-.56-7.82-.42-11.71a87.76,87.76,0,0,1,1.37-11c.44-2.7-.45-5.34.19-8.11s-.75-6,3.13-7.13c3.33,1.36,2.62,4.59,2.7,7.59.14,4.58.24,9.16.7,13.71.51,5-.23,10.13.52,15.07s-.59,9.79.34,14.77h9.87c-.21-5.23,1.86-10.46-.66-15.63a1.71,1.71,0,0,1,0-1.22c2.31-5.71,1.47-11.49.81-17.37-.32-2.84.75-5.81,1.08-8.74s.65-6,.75-9c0-1-.6-2-.23-2.88a77,77,0,0,1,.39-7.9,5.62,5.62,0,0,1,1.93-3.48c.7-.51,2.26,0,3.37.28a2,2,0,0,1,1.05,1.39c.52,3.26,2,6.84,1.14,9.74-1.44,5-.36,9.77.25,14.5.8,6.25-.51,12.44.23,18.63a35.33,35.33,0,0,0,1.25,4.52c.13.48.33,1.12.13,1.48-2.62,4.72-1.84,10.12-.43,14.39,2,6,1.47,11.9,1.95,18H306c-.22-2.34-.42-4.51-.61-6.68,0-.5-.32-1.2-.09-1.49,5.57-7,3.85-15.06,2.55-22.67a14.45,14.45,0,0,1,.48-7.75c.58-1.7.22-3.69.64-5.47,1.15-4.83,2.55-9.59,3.74-14.41,1.53-6.17,3-12.37,4.44-18.56.38-1.6.49-3.37,1.26-4.76,2.17-4,3.26-8,2.41-12.49a5.8,5.8,0,0,1,0-2.78c.24-.72,1-1.26,1.6-1.87.38.57.79,1.14,1.15,1.73s.77,1.37,1.45,2.58l1.53-3.25,1.2,2.66,1.25-2.61c.43,1.06.68,1.68,1.1,2.74.51-1,.85-1.7,1.38-2.74l1.18,2.68,1.19-2.72c.51,1.08.82,1.72,1.32,2.79l1-2.49,1.43,2.11,1.08-2.13,1.36,2.36c.41-.88.7-1.52,1.17-2.54l1.53,3a22.09,22.09,0,0,1,1-2.72,9.55,9.55,0,0,1,1.25-1.47c.53.53,1.46,1,1.53,1.58.17,1.52-.17,3.1,0,4.64a42,42,0,0,0,1,7.62c1.83,6.84,3.95,13.59,5.89,20.39q2.44,8.58,4.72,17.22c.29,1.08.12,2.28.37,3.38.66,3,1.71,5.91,2.05,8.92.19,1.69-.94,3.49-1.08,5.27-.32,4.37-.58,8.76-.53,13.14a32.67,32.67,0,0,0,1.26,6.7c.11.48.74.82,1,1.31a5.37,5.37,0,0,1,.7,2.23c-.07,2.11-.33,4.21-.54,6.54h7.1V195.19h4.8c.11,1.79.22,3.52.34,5.58,1-.2,2.19-.1,2.44-.54,1.7-3,4.83-2.4,7.43-2.92.79-.16,1.83.93,2.75,1.45.41.23,1,.78,1.19.66a1.83,1.83,0,0,0,1-1.25c.11-1.85.05-3.7.05-5.82,5.76.27,10.57-1.77,15.56-3.8,2.13.37,4.76,1,7.42,1.27,2,.21,3.88.26,5.53-1.57,2.73-3,6.16,0,9.22-.65.43,3,3.81,1.61,5.23,3.48.61.81,2.66.53,4.46.8v10.83h10.86c-.22-4.74-.43-9.37-.66-14.26.23,0,1.14-.48,1.56-.2,3.42,2.37,6.15-.78,6.94-2.36,1.78-3.55,2.37-4.28,4.64-.49.43.71,3.06.53,4.5.13,3.59-1,5.47,1.82,8,3.24a14.73,14.73,0,0,1,2.69,2.49c-3.55,2.64-1,6.58-1.9,10.18h10.38V169.73l-3.79-1.07c7-5,2.23-12.82,5.27-18.79,4.68.68,5.93,4.75,8.3,7.57,2.88,3.42.84,7.41,1.07,11.56h21.89v6.13c2.84,1.73,4.39-.36,5.74-1.78.63-.66,0-2.43.11-3.68a25.92,25.92,0,0,1,.78-3.33,13.76,13.76,0,0,1,3,1.15c2.49,1.67,4.26,3.84,4.48,7,0,.44,1.13,1.06,1.79,1.14a42.38,42.38,0,0,0,4.71,0v14.08c4.43,4.39,9.64,2.07,14.54,3.05v7.26h4.3c.08-1.41.17-2.9.27-4.57,4.5-.36,7.66,2.06,10.48,5.28l.64-.7V187.74h8.51l.11-.61-2-1.16.1-.66h32.21v42.36l1.2.07c.12-.89.29-1.77.35-2.66s0-1.85,0-2.06c2.81-1.38,5.39-2.22,7.44-3.76,3.16-2.37,6.69-2.31,11.27-2.1l-9.4-14.22,13.76,1.52c6.48-12,13.21-24.09,27.36-29.29l1.3,4c5.23-5.46,9.67-11.37,17-14.85l-2.9,6.57.22.1c1.94-2.53,3.87-5.06,6.19-8.07l6,7.58.29-.15-2.67-6c7.37,3.5,11.91,9.29,17,14.92.5-1.63.86-2.81,1.32-4.33,5.14,2.36,10.21,5,13.72,9.3,4.65,5.64,8.51,11.95,12.48,18.12,1.06,1.65,1.78,2.27,3.84,1.86,3.44-.68,7-.83,11-1.26-3.07,4.72-5.93,9.1-8.79,13.48l.44.82c5.3-1.24,9.28,1.23,13.26,4,1.09.75,2.74.7,4.41,1.08.12,1.58.24,3.29.38,5.18l3.14.26v20a16.72,16.72,0,0,0-1.86-.18q-62.44-.08-124.89-.12c-33.61,0-67.22.1-100.83.11q-112.39,0-224.78,0-67.29,0-134.58-.12c-33.5,0-67,.1-100.51.12q-60.42,0-120.85,0c-1.24,0-2.49.11-3.73.18Zm398.6-.24V200H326v27.54ZM57.75,218.07c-.08.7-.24,1.53-.26,2.35a6.77,6.77,0,0,0,7,7.28c1.45,0,2.91.07,4.36,0,2.05-.11,4.81-3.05,4.27-4.8-1.85-5.93-1.37-11.85-.26-17.8.57-3.07-.92-4.92-3.55-6.1s-9.19,2-9.69,4.75c-.65,3.45-1,6.95-1.51,10.4L62,215.81Zm23.88,9.62c4.13,0,8.37,0,12.61,0a2.16,2.16,0,0,0,1.41-.89c3.55-4.91,3.71-10.69,4.52-15.95L82.47,207c-.84,2.93-2.48,6.32-2.65,9.79S80.93,223.83,81.63,227.69Zm-64.16,0a68.49,68.49,0,0,1-1-7.66,57.78,57.78,0,0,1,.66-7.4c.36-3.16-.88-5.43-3.38-6.08-1.65-.44-7,2.35-7.3,4.08-.73,4.72-1.33,9.46-1.72,14.22-.07.89,1,2.66,1.71,2.71C10.06,227.82,13.69,227.68,17.47,227.68ZM634.4,222v5.48h38.88V222ZM685,227.48H723.9V222H685ZM25,213.36a88.36,88.36,0,0,0-2.22,9.5c-.41,3.17,1.49,4.83,4.66,4.84a52.63,52.63,0,0,1,6.53.06c2.5.31,3.71-.82,4.15-3,.58-2.82,1-5.67,1.46-8.23Zm89.55-13.44-.76.17c-.19,1.88-.81,3.84-.5,5.64a155.61,155.61,0,0,0,3.53,16.58c.69,2.41.67,3.95-1.93,5.2h7.19c0-3.91,0-7.63,0-11.35,0-1.62.67-3.59,0-4.8C119.84,207.4,117.11,203.71,114.57,199.92Zm-3,27.78c-.61-.81-2.21-2.34-2-2.72,2.5-4-.31-6.49-2.09-9.55-1.14,2.89-2.22,5.46-3.18,8.09-.89,2.41.26,4.1,2.77,4.17C108.82,227.74,110.58,227.7,111.54,227.7Zm-56.2.22c-.52-4.73-1-8.89-1.44-13a13,13,0,0,0-.47-3.63c-.38-.86-1.49-1.4-2.28-2.08-.31.89-1,1.85-.85,2.66.87,4.86,1.87,9.71,3,14.52C53.49,227.05,54.76,227.49,55.34,227.92Zm-12.88.37c2.24-.69,5.07-1.15,5.08-1.65,0-2-.81-4.1-1.32-6.15l-.87.12Z"/></g></g></svg>