<svg xmlns="http://www.w3.org/2000/svg" xmlns:xlink="http://www.w3.org/1999/xlink" width="96" height="40" viewBox="0 0 96 40">
  <defs>
    <style>
      .cls-1 {
        clip-path: url(#clip-Artboard_3);
      }

      .cls-2 {
        fill: #ffd674;
      }

      .cls-3 {
        fill: #404040;
        font-size: 8px;
        font-family: Lato-Bold, Lato;
        font-weight: 700;
      }

      .cls-4 {
        fill: #1c1c1c;
      }

      .cls-5 {
        fill: #fff;
      }

      .cls-6 {
        filter: url(#Ellipse_113);
      }

      .cls-7 {
        filter: url(#Path_85);
      }
    </style>
    <filter id="Path_85" x="16" y="4.561" width="83.833" height="38.972" filterUnits="userSpaceOnUse">
      <feOffset dy="3" input="SourceAlpha"/>
      <feGaussianBlur stdDeviation="3" result="blur"/>
      <feFlood flood-opacity="0.161"/>
      <feComposite operator="in" in2="blur"/>
      <feComposite in="SourceGraphic"/>
    </filter>
    <filter id="Ellipse_113" x="3" y="0" width="48" height="48" filterUnits="userSpaceOnUse">
      <feOffset dy="3" input="SourceAlpha"/>
      <feGaussianBlur stdDeviation="3" result="blur-2"/>
      <feFlood flood-opacity="0.161"/>
      <feComposite operator="in" in2="blur-2"/>
      <feComposite in="SourceGraphic"/>
    </filter>
    <clipPath id="clip-Artboard_3">
      <rect width="96" height="40"/>
    </clipPath>
  </defs>
  <g id="Artboard_3" data-name="Artboard – 3" class="cls-1">
    <rect class="cls-5" width="96" height="40"/>
    <g id="Group_130" data-name="Group 130" transform="translate(-38 -458)">
      <g id="Group_129" data-name="Group 129">
        <g id="Group_128" data-name="Group 128" transform="translate(38 486.561)">
          <g class="cls-7" transform="matrix(1, 0, 0, 1, 0, -28.56)">
            <path id="Path_85-2" data-name="Path 85" class="cls-2" d="M4.805,0H61.028a4.735,4.735,0,0,1,4.805,4.66V16.312a4.735,4.735,0,0,1-4.805,4.66H4.805A4.735,4.735,0,0,1,0,16.312V4.66A4.735,4.735,0,0,1,4.805,0Z" transform="translate(25 10.56)"/>
          </g>
        </g>
        <text id="HOME" class="cls-3" transform="translate(89 474)"><tspan x="0" y="8">HOME</tspan></text>
      </g>
      <g id="Group_119" data-name="Group 119" transform="translate(50 463.6)">
        <g class="cls-6" transform="matrix(1, 0, 0, 1, -12, -5.6)">
          <circle id="Ellipse_113-2" data-name="Ellipse 113" class="cls-2" cx="15" cy="15" r="15" transform="translate(12 6)"/>
        </g>
        <g id="noun_Home_3860844" transform="translate(7.773 7.627)">
          <path id="Path_116" data-name="Path 116" class="cls-4" d="M16.108,9.835a.489.489,0,0,1-.345-.144l-6.505-6.5-6.505,6.5A.489.489,0,1,1,2.062,9l6.85-6.85a.489.489,0,0,1,.69,0L16.453,9a.489.489,0,0,1-.345.834ZM9.257,4.208,3.385,10.08v4.741a.886.886,0,0,0,.888.886H7.055v-3.2h4.4v3.2h2.784a.886.886,0,0,0,.886-.886V10.08Z" transform="translate(-1.891 -2.008)"/>
        </g>
      </g>
    </g>
  </g>
</svg>
