<?xml version="1.0" encoding="UTF-8"?>
<svg xmlns="http://www.w3.org/2000/svg" xmlns:xlink="http://www.w3.org/1999/xlink" width="30pt" height="39pt" viewBox="0 0 30 39" version="1.1">
<g id="surface1">
<path style=" stroke:none;fill-rule:nonzero;fill:rgb(87.058824%,15.686275%,25.490196%);fill-opacity:1;" d="M 28.214844 12.515625 C 27.417969 8.210938 23.640625 4.730469 18.648438 3.761719 C 13.660156 2.769531 8.453125 4.449219 5.5 8 C 3.679688 10.078125 2.90625 12.707031 3.339844 15.261719 C 3.800781 17.199219 4.628906 19.070312 5.789062 20.773438 C 8.113281 24.511719 10.753906 28.085938 13.710938 31.492188 C 14.363281 32.273438 15.042969 33.007812 15.742188 33.859375 C 15.863281 33.761719 15.960938 33.667969 16.058594 33.550781 C 18.070312 31.042969 20.125 28.652344 22.039062 26.144531 C 24.101562 23.613281 25.820312 20.914062 27.222656 18.078125 C 28.167969 16.347656 28.507812 14.410156 28.214844 12.515625 Z M 21.917969 14.125 C 21.871094 14.550781 21.726562 14.953125 21.484375 15.308594 C 21.144531 15.804688 20.707031 16.253906 20.222656 16.65625 L 15.960938 20.183594 C 15.839844 20.300781 15.671875 20.347656 15.5 20.300781 C 15.425781 20.277344 15.355469 20.253906 15.28125 20.207031 L 13.320312 18.550781 C 12.496094 17.910156 11.699219 17.25 10.921875 16.585938 C 10.488281 16.230469 10.101562 15.828125 9.785156 15.402344 C 9.132812 14.433594 9.132812 13.226562 9.785156 12.234375 C 10.148438 11.785156 10.65625 11.429688 11.285156 11.238281 C 11.941406 11.074219 12.640625 11 13.320312 11.121094 C 13.5625 11.144531 13.804688 11.214844 14.023438 11.308594 C 14.605469 11.570312 15.164062 11.902344 15.621094 12.300781 L 15.695312 12.300781 L 16.082031 11.996094 C 16.421875 11.757812 16.785156 11.570312 17.195312 11.378906 C 17.753906 11.144531 18.359375 11.050781 18.988281 11.121094 C 19.402344 11.144531 19.8125 11.214844 20.175781 11.335938 C 21.023438 11.640625 21.628906 12.277344 21.820312 13.011719 C 21.917969 13.390625 21.96875 13.769531 21.917969 14.171875 Z M 21.917969 14.125 "/>
</g>
</svg>
