<svg id="Layer_1" data-name="Layer 1" xmlns="http://www.w3.org/2000/svg" xmlns:xlink="http://www.w3.org/1999/xlink" viewBox="0 0 33.18 29.66"><defs><style>.cls-1{fill:none;}.cls-2{clip-path:url(#clip-path);}.cls-3{clip-path:url(#clip-path-2);}.cls-4{fill:#dd9f72;}.cls-5{fill:#d3455b;}</style><clipPath id="clip-path"><path class="cls-1" d="M-348-102.93q69,0,138.09,0c15.52,0,24.42,6.63,24.46,19.4q.34,87.62,0,175.23c-.06,12.78-9.36,20.21-24,20.22q-136.79.12-273.57,0c-16.24,0-26.07-8.81-26-22.7q.57-84.75,1.24-169.5c.12-16.62,6.73-22.69,25.63-22.74,44.73-.11,89.45,0,134.18,0ZM-235.5,48.81c-.08,7.36.43,13.74,9.9,14.72,10,1,12.75-5.34,13-13.14.5-16.26.5-32.54.35-48.81-.14-15.51-1-31-1-46.53-.06-8.46-5.36-10.22-11.92-10.17s-10.39,3.62-10.34,10.74c.11,15.91,0,31.82,0,47.73h.08C-235.45,18.51-235.33,33.66-235.5,48.81Z"/></clipPath><clipPath id="clip-path-2"><path id="SVGID" class="cls-1" d="M-502.6-83.32l-.17,13.46c-1.76,17.65-14.69,39.14-35.13,42.27-24,3.67-42.46-14-65.54-13.93-43.8.13-63.82,48.09-31,75.14,35.45,29.23,60.2-7.26,95.8-.88,20.34,3.64,32.73,25.45,34,43.14l-.17,13.46c-.16,12.63,10.66,23,24.18,23.18L-206.52,116c13.52.17,24.6-9.93,24.76-22.56L-179.61-77c.16-12.63-10.63-25.29-24.15-25.46l-274.08-3.46C-491.36-106-502.44-95.95-502.6-83.32ZM-595.46,1.85c-.11,8.84-7.87,15.91-17.34,15.79s-17-7.38-16.92-16.22,7.87-15.91,17.33-15.79S-595.35-7-595.46,1.85Z"/></clipPath></defs><title>logout icon - new</title><g class="cls-2"><g class="cls-3"><path class="cls-4" d="M-515.41-7.88c-52.19-.59-105.2,4.51-157.17-1.73a9,9,0,0,0-6.91-9.17c-4.74-1.28-11.15,1.33-12.12,6.24,0,.1,0,.2,0,.3-4.42,0-8.47,2-9.83,6.43s1.44,10.44,6.7,11.34c2.8.48,5.59.92,8.4,1.33a24.44,24.44,0,0,0,8.49,5.22c9.68,3.68,21.12,3.14,31.34,2.64,27.8-1.33,55.52-.44,83.36-.34,62.9.24,125.79-.72,188.68.17,48.08,2.07,96.13,4.63,144.18,7.14l12.71.66C-140.55,30-64.43,44.8,6.8,73.86c4.9,2,10.79-1.91,12.12-6.23,1.62-5.26-1.81-9.34-6.7-11.34A658.6,658.6,0,0,0-70.33,29q19.34.69,38.67,1.23c12.63.34,12.84-18,.23-18.3C-92.67,10.29-153.85,7.3-215,4.12-267.68-1.09-320.8-3-373.23-3.76-420.6-5.8-468-7.35-515.41-7.88Z"/></g></g><path class="cls-5" d="M32.59,11.53,28,7.54c-.5-.43-1-.88-1.49-1.28a.85.85,0,0,0-1.26.11.86.86,0,0,0,.07,1.27,3.49,3.49,0,0,0,.35.32l3.91,3.41-.05.15H17.84v1.86H29.71c-.28.26-.42.42-.58.56C27.92,15,26.72,16,25.52,17.09c-.56.49-.64,1-.26,1.46s.92.4,1.49-.09l5.85-5.1c.77-.68.77-1.15,0-1.83"/><path class="cls-5" d="M21.73,27.75H1.34A1.34,1.34,0,0,1,0,26.41V1.34A1.34,1.34,0,0,1,1.34,0H21.73a1.34,1.34,0,0,1,1.34,1.34V8a1.34,1.34,0,1,1-2.68,0V2.69H2.69V25.06h17.7V16.77a1.34,1.34,0,1,1,2.68,0v9.64A1.34,1.34,0,0,1,21.73,27.75Z"/><path class="cls-5" d="M1,1.53l12.48,3a2.07,2.07,0,0,1,1.6,2V27.6a2.09,2.09,0,0,1-2.46,2L2.31,27.87a2.08,2.08,0,0,1-1.75-2L.63,1.34"/></svg>