<svg id="Layer_1" data-name="Layer 1" xmlns="http://www.w3.org/2000/svg" viewBox="0 0 46.38 33.46"><defs><style>.cls-1{fill:#de2841;}</style></defs><path class="cls-1" d="M23.63,23.4A15.87,15.87,0,0,1,20,22.9a.61.61,0,0,1-.45-.74.62.62,0,0,1,.74-.46c3.11.76,5.4.58,6.63-.52a3.67,3.67,0,0,0,1.06-2.93.62.62,0,0,1,1.23-.16,4.92,4.92,0,0,1-1.47,4A5.87,5.87,0,0,1,23.63,23.4Z"/><path class="cls-1" d="M29.68,12.2a8.81,8.81,0,0,0-15.78,2,5,5,0,0,0-1.86.42l1.41,2.09h0l.28.41h0l.36.54a.44.44,0,0,1-.09.65c-.08.07-.14.13-.06.25s0,.12,0,.18-.06.07-.09.12l.09.07a5.32,5.32,0,0,1,1.09.92,2.58,2.58,0,0,1,.36.6.66.66,0,0,1-.24.79,1.59,1.59,0,0,1-.43.26.76.76,0,0,1-.9-.3,3.93,3.93,0,0,1-.6-1.43c0-.13-.07-.27-.1-.41l-.12,0c-.09,0-.18,0-.24-.06s-.11-.06-.18,0a1.58,1.58,0,0,1-.31.09.31.31,0,0,1-.31-.15c-.1-.16-.21-.32-.32-.47L10,16.38a4.83,4.83,0,0,0-.83,2.73,4.9,4.9,0,1,0,9.79,0,4.77,4.77,0,0,0-.29-1.65l9.17-1.26A2.62,2.62,0,0,0,29.68,12.2Z"/><path class="cls-1" d="M36.31,33.46H6.16A6.17,6.17,0,0,1,0,27.3V6.16A6.17,6.17,0,0,1,6.16,0H36.31a6.17,6.17,0,0,1,6.16,6.16V27.3A6.17,6.17,0,0,1,36.31,33.46ZM6.16,2A4.17,4.17,0,0,0,2,6.16V27.3a4.16,4.16,0,0,0,4.16,4.16H36.31a4.16,4.16,0,0,0,4.16-4.16V6.16A4.17,4.17,0,0,0,36.31,2Z"/><rect class="cls-1" x="35.91" y="12.05" width="10.47" height="9.6" rx="2.4"/></svg>