<svg id="Layer_1" data-name="Layer 1" xmlns="http://www.w3.org/2000/svg" viewBox="0 0 46.38 33.46"><defs><style>.cls-1{fill:#de2841;}</style></defs><path class="cls-1" d="M36.31,33.46H6.16A6.17,6.17,0,0,1,0,27.3V6.16A6.18,6.18,0,0,1,6.16,0H36.31a6.18,6.18,0,0,1,6.16,6.16V27.3A6.17,6.17,0,0,1,36.31,33.46ZM6.16,2A4.17,4.17,0,0,0,2,6.16V27.3a4.16,4.16,0,0,0,4.16,4.16H36.31a4.16,4.16,0,0,0,4.16-4.16V6.16A4.17,4.17,0,0,0,36.31,2Z"/><rect class="cls-1" x="35.91" y="12.05" width="10.47" height="9.6" rx="2.4"/><path class="cls-1" d="M25.73,13.26H22.87a2,2,0,0,1,.52.52,2.41,2.41,0,0,1,.3.6h2v2.09h-2a3.48,3.48,0,0,1-.77,1.32,4.11,4.11,0,0,1-1.39,1,3,3,0,0,1,.69.4,2.47,2.47,0,0,1,.55.64l2.82,4.6H22.81a1.19,1.19,0,0,1-1.11-.58L19.5,20a.91.91,0,0,0-.34-.36,1,1,0,0,0-.54-.12H16.74v-2h1.88a2.61,2.61,0,0,0,1.3-.29,1.89,1.89,0,0,0,.76-.75H16.74V14.38h4a1.74,1.74,0,0,0-.76-.76,2.86,2.86,0,0,0-1.36-.28H16.74V11.17h9Z"/></svg>