<svg id="Layer_1" data-name="Layer 1" xmlns="http://www.w3.org/2000/svg" xmlns:xlink="http://www.w3.org/1999/xlink" viewBox="0 0 63 118"><defs><style>.cls-1{fill:#159787;}.cls-2{fill:url(#linear-gradient);}.cls-3{fill:#60bdb1;}.cls-4{fill:#404040;}.cls-5{fill:#df917d;}.cls-6{fill:#ffbe47;}.cls-7{fill:#f5c94a;}.cls-8{fill:#ffcb74;}.cls-9{fill:#dc463a;}.cls-10{fill:url(#linear-gradient-2);}</style><linearGradient id="linear-gradient" x1="-409.83" y1="-1412.17" x2="-408.65" y2="-1389.97" gradientTransform="translate(442.77 1475.14) rotate(-0.06)" gradientUnits="userSpaceOnUse"><stop offset="0" stop-color="#db2841"/><stop offset="0.21" stop-color="#dd2c44"/><stop offset="0.42" stop-color="#e1384f"/><stop offset="0.63" stop-color="#e94b60"/><stop offset="0.83" stop-color="#f46778"/><stop offset="1" stop-color="#ff8391"/></linearGradient><linearGradient id="linear-gradient-2" x1="-403.27" y1="-1415.75" x2="-414.45" y2="-1404.65" gradientTransform="translate(442.77 1475.14) rotate(-0.06)" gradientUnits="userSpaceOnUse"><stop offset="0.29" stop-color="#db2841"/><stop offset="0.42" stop-color="#dd2e46"/><stop offset="0.59" stop-color="#e43f55"/><stop offset="0.78" stop-color="#ef5b6e"/><stop offset="0.99" stop-color="#fe8290"/><stop offset="1" stop-color="#ff8391"/></linearGradient></defs><title>partner</title><path class="cls-1" d="M17.92,43.42l2.75-2c2.28-.82,4.51-1.71,5.67-4.09h10a6.5,6.5,0,0,0,2.92,2.92c.92.43,1.84.83,2.76,1.25l2.86,1.93.52.86c.15.69.26,1.39.47,2.07.07.24.38.42.58.63,0,1.27-.18,1.63-1,1.79-1.1.12-2.16.61-3.31.26A5.47,5.47,0,0,0,40.91,49c-1.55-.2-3.1-.43-4.65-.58-.31,0-.66.23-1,.36a13.07,13.07,0,0,1-8,0c-.28-.11-.58-.33-.85-.31-1.7.19-3.4.44-5.11.66-1.13-.1-2.3.55-3.41-.16-1.44-.36-1.52-.47-1.52-2a13.45,13.45,0,0,0,.65-1.32,7.88,7.88,0,0,0,.26-1.19Z"/><path class="cls-2" d="M44.35,66c-.38.54-.77,1.07-1.16,1.61a31.37,31.37,0,0,1-2.61,2,3.64,3.64,0,0,0-1.78,2.72c-.32,2.23-.7,4.46-.85,6.7A2.71,2.71,0,0,1,36,81.64a12.36,12.36,0,0,1-9.09-.06A2.73,2.73,0,0,1,25.05,79c-.21-2.38-.63-4.74-1.05-7.1a3,3,0,0,0-.87-1.58c-1.05-.93-2.21-1.73-3.33-2.58a6.47,6.47,0,0,1-.91-1.06,3.84,3.84,0,0,1-.23-1.1A8.84,8.84,0,0,1,22,62.87l1.4.39,1.18,1a12.16,12.16,0,0,0,0,1.35,2,2,0,0,0,2,2.14,11.65,11.65,0,0,0,1,1.71c1.26,1.48,3.87,2.58,6,1.16a7,7,0,0,0,2.51-2.88,1.67,1.67,0,0,0,1.67-1.37A13.18,13.18,0,0,0,38,64.51l1.36-1.12c.34-.22.67-.45,1-.68l.66.12a3.53,3.53,0,0,0,.34.24A5.34,5.34,0,0,1,44.35,66Z"/><path class="cls-3" d="M42.71,73.86a12.12,12.12,0,0,1,.81,2.4,25.31,25.31,0,0,1,.34,5.2c-.35,4.26-1.11,8.47-3.75,12.33a12.48,12.48,0,0,1-4.47,4,8.12,8.12,0,0,1-1,.38l1.19-3.57-.24-.19a14.06,14.06,0,0,1-8.42,0l-.24.2,1.3,3.63a26.47,26.47,0,0,1-3.63-2.24,15.26,15.26,0,0,1-4.27-6.92A27.47,27.47,0,0,1,18.85,78,31,31,0,0,1,19.72,74c.08-.37.18-.75.27-1.12.14.39.27.79.43,1.17.52,1.25,1,2.5,1.58,3.74L21.64,81a13.62,13.62,0,0,0,1.74,9,6.43,6.43,0,0,0,4.8,3.13A18.67,18.67,0,0,0,35.05,93a5.15,5.15,0,0,0,3.45-1.93,17.39,17.39,0,0,0,2.27-4.43A21.76,21.76,0,0,0,40.7,78Z"/><path class="cls-4" d="M42.71,74.18l-2,5.43a11.54,11.54,0,0,1-4.4,5.32,8.59,8.59,0,0,1-3.06,1,9,9,0,0,1-8.32-2.47,15.09,15.09,0,0,1-2-2.7c-.33-.46-.6-1-.9-1.45q-.8-2.46-1.58-4.9c-.16-.51-.29-1-.43-1.54-.12-1.39-.26-2.78-.35-4.17a3.71,3.71,0,0,1,.16-1c1.12.85,2.28,1.65,3.33,2.58A3,3,0,0,1,24,71.87c.42,2.36.84,4.72,1.05,7.1a2.73,2.73,0,0,0,1.88,2.61,12.36,12.36,0,0,0,9.09.06A2.71,2.71,0,0,0,38,79.07c.15-2.24.53-4.47.85-6.7a3.64,3.64,0,0,1,1.78-2.72,31.37,31.37,0,0,0,2.61-2c.5,2,0,3.83-.35,5.72C42.79,73.63,42.75,73.9,42.71,74.18Z"/><path class="cls-3" d="M42,41.53c-.92-.42-1.84-.82-2.76-1.25a6.5,6.5,0,0,1-2.92-2.92,1.62,1.62,0,0,0-1.66-1.17H28.07a1.66,1.66,0,0,0-1.73,1.18c-1.16,2.38-3.39,3.27-5.67,4.09-.08-.87-.15-1.74-.26-2.61a2.19,2.19,0,0,1,1-2.27c1.6-1,3.22-2.07,4.83-3.1.85-.42,1.74-.78,2.55-1.28a4.46,4.46,0,0,1,5.07,0c.79.48,1.66.84,2.49,1.25,1.68,1.07,3.38,2.12,5,3.21a2.09,2.09,0,0,1,.92,2.14Z"/><path class="cls-5" d="M22,62.87a8.84,8.84,0,0,0-3.35,2.68,32.68,32.68,0,0,1-5.29-10c-.45-1.33-.79-2.7-1.2-4a2.32,2.32,0,0,0-.35-.55,1.79,1.79,0,0,0-.32-2,4.34,4.34,0,0,0,.26-.53,3.35,3.35,0,0,1,3.63-2.27c.37.08.68.48,1,.73,0,1.55.08,1.66,1.52,2a2.63,2.63,0,0,0-.37.13c.19,1-.61,1.14-1.27,1.42-.93.38-1.13.68-.73,1.61,1,2.23,2,4.42,3,6.59a11.51,11.51,0,0,0,3.16,4L22,62.1Z"/><path class="cls-5" d="M44.35,66a5.34,5.34,0,0,0-3-2.95,3.53,3.53,0,0,1-.34-.24,21.75,21.75,0,0,0,2.2-2.42,37.28,37.28,0,0,0,4.1-8.3c.4-1.1.26-1.53-.84-1.77a1.2,1.2,0,0,1-1.1-1.53c.86-.16,1.07-.52,1-1.79.29-.3.54-.76.89-.86a3.09,3.09,0,0,1,3.88,2.73L51,51.05c-.35,1-.73,2-1,3.08A36.86,36.86,0,0,1,44.8,64.88,5.21,5.21,0,0,0,44.35,66Z"/><path class="cls-1" d="M36.34,33.41c-.83-.41-1.7-.77-2.49-1.25a4.46,4.46,0,0,0-5.07,0c-.81.5-1.7.86-2.55,1.28a19.84,19.84,0,0,1,3-7.44c1.13-1.53,2.56-1.54,3.84-.21A11.18,11.18,0,0,1,35.36,30C35.74,31.13,36,32.28,36.34,33.41Z"/><path class="cls-6" d="M28.18,98.31l-1.3-3.63.24-.2a14.06,14.06,0,0,0,8.42,0l.24.19-1.19,3.57c-.88,1.34-2.42,1.52-4.15,1.38A3.06,3.06,0,0,1,28.18,98.31Z"/><path class="cls-1" d="M51,51.05l.15-2.16,1.65.53-.79,2Z"/><path class="cls-1" d="M24.59,64.29l-1.18-1a14.63,14.63,0,0,0,3.15-7.51c.27-2.35.49-4.69.74-7a13.07,13.07,0,0,0,8,0c.22,1.95.49,3.9.64,5.86a15.21,15.21,0,0,0,3.44,8.79L38,64.51c-.32-.83-.51-1.76-1.56-2L35.06,60a2.54,2.54,0,0,0-1.37-1.8,9.88,9.88,0,0,1-1.56-1.24,1,1,0,0,0-1.51-.06,12.92,12.92,0,0,1-1.7,1.35,2.13,2.13,0,0,0-1.13,1.57l-1.55,2.67C25.23,62.66,24.92,63.48,24.59,64.29Z"/><path class="cls-3" d="M27.3,48.7c-.25,2.35-.47,4.69-.74,7a14.63,14.63,0,0,1-3.15,7.51L22,62.87,22,62.1q-.3-6.52-.61-13.05c1.71-.22,3.41-.47,5.11-.66C26.72,48.37,27,48.59,27.3,48.7Z"/><path class="cls-3" d="M40.91,49q-.28,6.87-.56,13.76l-1,.67a15.21,15.21,0,0,1-3.44-8.79c-.15-2-.42-3.91-.64-5.86.33-.13.68-.39,1-.36C37.81,48.53,39.36,48.76,40.91,49Z"/><path class="cls-7" d="M26.34,37.37a1.66,1.66,0,0,1,1.73-1.18h6.57a1.62,1.62,0,0,1,1.66,1.17Z"/><ellipse class="cls-5" cx="31.68" cy="63.09" rx="5.94" ry="6.7" transform="translate(-0.07 0.04) rotate(-0.06)"/><path class="cls-8" d="M22,77.76c.3.37.57.76.89,1.11a13.17,13.17,0,0,0,2,2.06,10.89,10.89,0,0,0,8.32,1.88,10.26,10.26,0,0,0,3-.75,9.91,9.91,0,0,0,4.41-4,21.76,21.76,0,0,1,.07,8.62,17.39,17.39,0,0,1-2.27,4.43A5.15,5.15,0,0,1,35.05,93a18.67,18.67,0,0,1-6.87.12A6.43,6.43,0,0,1,23.38,90a13.62,13.62,0,0,1-1.74-9Z"/><circle class="cls-9" cx="31.69" cy="65.55" r="7.46"/><circle class="cls-10" cx="31.69" cy="66.06" r="7.97"/></svg>