<svg xmlns="http://www.w3.org/2000/svg" xmlns:xlink="http://www.w3.org/1999/xlink" width="89" height="40" viewBox="0 0 89 40">
  <defs>
    <style>
      .cls-1 {
        clip-path: url(#clip-Artboard_4);
      }

      .cls-2 {
        fill: #ffd674;
      }

      .cls-3 {
        fill: #31292a;
        font-size: 8px;
        font-family: Lato-Bold, Lato;
        font-weight: 700;
      }

      .cls-4 {
        fill: #404040;
      }

      .cls-5, .cls-7 {
        fill: none;
      }

      .cls-5 {
        stroke: #404040;
      }

      .cls-6 {
        stroke: none;
      }

      .cls-8 {
        fill: #fff;
      }

      .cls-9 {
        filter: url(#Ellipse_113);
      }

      .cls-10 {
        filter: url(#Path_85);
      }
    </style>
    <filter id="Path_85" x="15.45" y="4.561" width="75.966" height="38.972" filterUnits="userSpaceOnUse">
      <feOffset dy="3" input="SourceAlpha"/>
      <feGaussianBlur stdDeviation="3" result="blur"/>
      <feFlood flood-opacity="0.161"/>
      <feComposite operator="in" in2="blur"/>
      <feComposite in="SourceGraphic"/>
    </filter>
    <filter id="Ellipse_113" x="-5" y="0" width="48" height="48" filterUnits="userSpaceOnUse">
      <feOffset dy="3" input="SourceAlpha"/>
      <feGaussianBlur stdDeviation="3" result="blur-2"/>
      <feFlood flood-opacity="0.161"/>
      <feComposite operator="in" in2="blur-2"/>
      <feComposite in="SourceGraphic"/>
    </filter>
    <clipPath id="clip-Artboard_4">
      <rect width="89" height="40"/>
    </clipPath>
  </defs>
  <g id="Artboard_4" data-name="Artboard – 4" class="cls-1">
    <rect class="cls-8" width="89" height="40"/>
    <g id="Group_128" data-name="Group 128" transform="translate(24.45 10.561)">
      <g class="cls-10" transform="matrix(1, 0, 0, 1, -24.45, -10.56)">
        <path id="Path_85-2" data-name="Path 85" class="cls-2" d="M4.231,0h49.5a4.461,4.461,0,0,1,4.231,4.66V16.312a4.461,4.461,0,0,1-4.231,4.66H4.231A4.461,4.461,0,0,1,0,16.312V4.66A4.461,4.461,0,0,1,4.231,0Z" transform="translate(24.45 10.56)"/>
      </g>
    </g>
    <text id="WORK" class="cls-3" transform="translate(41.583 16.047)"><tspan x="0" y="8">WORK</tspan></text>
    <g id="Group_120" data-name="Group 120" transform="translate(3.738 5.6)">
      <g class="cls-9" transform="matrix(1, 0, 0, 1, -3.74, -5.6)">
        <circle id="Ellipse_113-2" data-name="Ellipse 113" class="cls-2" cx="15" cy="15" r="15" transform="translate(4 6)"/>
      </g>
    </g>
    <path id="Path_129" data-name="Path 129" class="cls-4" d="M16.925,9.716v4.477a2.2,2.2,0,0,1-2.239,2.239H4.239A2.2,2.2,0,0,1,2,14.194V9.716a3.522,3.522,0,0,0,2.239.746H14.686A3.522,3.522,0,0,0,16.925,9.716ZM2,7.1A2.315,2.315,0,0,1,4.239,5.239H6.477A2.2,2.2,0,0,1,8.716,3h1.492a2.2,2.2,0,0,1,2.239,2.239h2.239A2.189,2.189,0,0,1,16.925,7.1,2.189,2.189,0,0,1,14.686,8.97H4.239A2.315,2.315,0,0,1,2,7.1ZM7.97,5.239h2.985a.705.705,0,0,0-.746-.746H8.716A.705.705,0,0,0,7.97,5.239Z" transform="translate(9.356 10.434)"/>
    <g id="Rectangle_1874" data-name="Rectangle 1874" class="cls-5" transform="translate(14 18)">
      <rect class="cls-6" width="9" height="5"/>
      <rect class="cls-7" x="0.5" y="0.5" width="8" height="4"/>
    </g>
  </g>
</svg>
