<svg id="Layer_1" data-name="Layer 1" xmlns="http://www.w3.org/2000/svg" viewBox="0 0 63.87 22.27"><defs><style>.cls-1{fill:#ff808d;}.cls-2{fill:#fff;}</style></defs><title>sortfilter</title><path class="cls-1" d="M55.58,22.27H8.29A8.11,8.11,0,0,1,0,14.4V7.71A8.11,8.11,0,0,1,8.29-.16H55.58a8.11,8.11,0,0,1,8.29,7.87V14.4A8.11,8.11,0,0,1,55.58,22.27Z"/><path class="cls-2" d="M22.17,8.62A.88.88,0,0,1,21,8.52l-.23.21C20.45,9,20.2,9,20,8.59c-.09-.16-.17-.32-.26-.46-.42.12-.83.36-1.23-.06a2.22,2.22,0,0,0-.51,1,14.84,14.84,0,0,1-.75,2.43,9,9,0,0,1-3.05,4,11.68,11.68,0,0,1-2.66,1.35,4.66,4.66,0,0,0-.5.25.28.28,0,0,0-.1.2s.09.13.16.14a4.88,4.88,0,0,0,.75.12A11.05,11.05,0,0,0,16,17a9.13,9.13,0,0,0,6.34-7,1.94,1.94,0,0,0-.16-1.33"/><path class="cls-2" d="M19.05,8a2.39,2.39,0,0,0,.46-.12c.27-.1.36-.07.5.18l.24.42c.08.14.18.17.3.06l.3-.26a.23.23,0,0,1,.38,0,.56.56,0,0,0,.82,0c.09-.09.11-.17,0-.26a6.26,6.26,0,0,1-.51-.39A.8.8,0,0,1,21.24,7c.06-.5.09-1,.14-1.49h0a2.28,2.28,0,0,0,0-.37,7.56,7.56,0,0,0-.14-.83c-.05-.18-.14-.2-.3-.1a1.29,1.29,0,0,0-.53.62.6.6,0,0,0,.05.58,1.52,1.52,0,0,1,.24,1c0,.68-.2.85-.88,1a8.37,8.37,0,0,0-.86.23.3.3,0,0,0-.2.35c0,.17.19.18.32.15"/><path class="cls-2" d="M34.76,9a.88.88,0,0,1-1.15-.1l-.23.21c-.34.28-.59.24-.81-.14l-.25-.46c-.43.12-.84.37-1.23-.06a2.15,2.15,0,0,0-.52,1,14.8,14.8,0,0,1-.74,2.43,9,9,0,0,1-3.06,4,11.48,11.48,0,0,1-2.66,1.35,2.87,2.87,0,0,0-.49.26.17.17,0,0,0,.05.33,3.88,3.88,0,0,0,.76.12,11.11,11.11,0,0,0,4.16-.59,9.1,9.1,0,0,0,6.33-7A2,2,0,0,0,34.76,9"/><path class="cls-2" d="M31.64,8.44a2.52,2.52,0,0,0,.47-.13c.26-.1.36-.07.5.18l.23.43a.18.18,0,0,0,.31.05,3.47,3.47,0,0,1,.29-.25c.14-.12.25-.14.39,0a.55.55,0,0,0,.81,0c.09-.1.11-.18,0-.26l-.52-.4a.76.76,0,0,1-.27-.74c0-.49.09-1,.13-1.49h0a2.29,2.29,0,0,0,0-.37,5.75,5.75,0,0,0-.14-.83c0-.18-.14-.19-.3-.09a1.32,1.32,0,0,0-.53.61.6.6,0,0,0,.06.59,1.47,1.47,0,0,1,.23.94c0,.69-.2.86-.88,1a5.2,5.2,0,0,0-.86.23.28.28,0,0,0-.19.34c0,.17.18.18.31.16"/><path class="cls-2" d="M47.18,9A.87.87,0,0,1,46,8.92c-.09.08-.16.15-.24.21-.34.28-.59.24-.81-.14l-.25-.46c-.43.12-.84.37-1.23-.06a2.15,2.15,0,0,0-.52,1,14.8,14.8,0,0,1-.74,2.43,9,9,0,0,1-3.06,4,11.41,11.41,0,0,1-2.65,1.35,3,3,0,0,0-.5.26.17.17,0,0,0,.05.33,4,4,0,0,0,.76.12A11.11,11.11,0,0,0,41,17.35a9.13,9.13,0,0,0,6.34-7A2,2,0,0,0,47.18,9"/><path class="cls-2" d="M44.06,8.44a2.52,2.52,0,0,0,.47-.13c.26-.1.36-.07.5.18l.23.43a.18.18,0,0,0,.31.05,3.61,3.61,0,0,1,.3-.25.23.23,0,0,1,.38,0,.55.55,0,0,0,.81,0c.1-.1.11-.18,0-.26l-.52-.4a.79.79,0,0,1-.27-.74c.05-.49.09-1,.13-1.49h0a2.29,2.29,0,0,0,0-.37,5.75,5.75,0,0,0-.14-.83c0-.18-.14-.19-.29-.09a1.22,1.22,0,0,0-.53.61.57.57,0,0,0,.05.59,1.47,1.47,0,0,1,.23.94c0,.69-.2.86-.88,1a5.2,5.2,0,0,0-.86.23.28.28,0,0,0-.19.34c0,.17.18.18.31.16"/></svg>