<svg id="Layer_1" data-name="Layer 1" xmlns="http://www.w3.org/2000/svg" viewBox="0 0 25.71 22.11"><defs><style>.cls-1{fill:#ff808d;}.cls-2,.cls-3{fill:#fff;}.cls-3{stroke:#160e09;stroke-miterlimit:10;}</style></defs><title>sortfilter</title><rect class="cls-1" width="25.71" height="22.11" rx="6.49"/><path class="cls-2" d="M16.56,8.43a.88.88,0,0,1-1.15-.1l-.23.21c-.34.28-.59.23-.81-.15l-.26-.46c-.42.13-.83.37-1.23,0a2.22,2.22,0,0,0-.51,1,14.4,14.4,0,0,1-.74,2.42,9.12,9.12,0,0,1-3.06,4,12.1,12.1,0,0,1-2.66,1.35,4.66,4.66,0,0,0-.5.25.28.28,0,0,0-.1.2.25.25,0,0,0,.16.14,6.33,6.33,0,0,0,.76.12,11.23,11.23,0,0,0,4.15-.59,9.11,9.11,0,0,0,6.34-7,1.93,1.93,0,0,0-.16-1.33"/><path class="cls-2" d="M13.44,7.84a2.39,2.39,0,0,0,.46-.12c.27-.1.36-.07.5.18l.24.42c.08.14.18.17.3.06l.3-.26a.23.23,0,0,1,.38,0,.56.56,0,0,0,.82,0c.09-.09.11-.17,0-.26a6.26,6.26,0,0,1-.51-.39.8.8,0,0,1-.28-.74c.06-.5.09-1,.14-1.49h0a2.41,2.41,0,0,0,0-.38,7.81,7.81,0,0,0-.14-.82c0-.18-.14-.2-.3-.1a1.31,1.31,0,0,0-.53.61.62.62,0,0,0,.05.59,1.52,1.52,0,0,1,.24,1c0,.68-.2.85-.88,1a8.37,8.37,0,0,0-.86.23.3.3,0,0,0-.2.35c0,.17.19.18.32.15"/><line class="cls-3" x1="6.05" y1="6.95" x2="19.65" y2="17.59"/></svg>