<svg width="19" height="18" viewBox="0 0 19 18" fill="none" xmlns="http://www.w3.org/2000/svg">
<g clip-path="url(#clip0_758_30721)">
<path d="M17.5 9C17.5 13.4183 13.9183 17 9.5 17C5.08172 17 1.5 13.4183 1.5 9C1.5 4.58172 5.08172 1 9.5 1C13.9183 1 17.5 4.58172 17.5 9Z" stroke="#F85266" stroke-width="1.3" stroke-miterlimit="3.8637"/>
<path d="M15.2451 5.16131C15.7414 5.9026 16.098 6.74529 16.2773 7.65172L15.6397 7.77787C15.7178 8.17265 15.7588 8.58127 15.7588 9.00011C15.7588 9.41896 15.7178 9.82758 15.6397 10.2223L16.2773 10.3485C16.098 11.2549 15.7414 12.0976 15.2451 12.8389L14.7049 12.4773C14.2478 13.1601 13.6597 13.7482 12.9769 14.2053L13.3385 14.7455C12.5972 15.2417 11.7545 15.5984 10.8481 15.7777L10.722 15.14C10.3272 15.2181 9.9186 15.2592 9.49975 15.2592C9.0809 15.2592 8.67229 15.2181 8.2775 15.14L8.15136 15.7777C7.24492 15.5984 6.40224 15.2417 5.66095 14.7455L6.02256 14.2053C5.33972 13.7482 4.75167 13.1601 4.29452 12.4773L3.75439 12.8389C3.25811 12.0976 2.90149 11.2549 2.72217 10.3485L3.35981 10.2223C3.28171 9.82758 3.24066 9.41896 3.24066 9.00011C3.24066 8.58127 3.28171 8.17265 3.35981 7.77787L2.72217 7.65172C2.90149 6.74529 3.25811 5.9026 3.75439 5.16132L4.29452 5.52292C4.75167 4.84008 5.33972 4.25204 6.02256 3.79488L5.66095 3.25475C6.40224 2.75847 7.24492 2.40185 8.15136 2.22253L8.2775 2.86017C8.67229 2.78207 9.0809 2.74102 9.49975 2.74102C9.9186 2.74102 10.3272 2.78207 10.722 2.86017L10.8481 2.22253C11.7545 2.40185 12.5972 2.75847 13.3385 3.25475L12.9769 3.79488C13.6597 4.25203 14.2478 4.84008 14.7049 5.52292L15.2451 5.16131Z" stroke="#F85266" stroke-width="1.3" stroke-miterlimit="3.8637" stroke-dasharray="3 3"/>
<path d="M11.2922 6.28796C11.8469 6.28796 12.2869 6.45596 12.6122 6.79196C12.9429 7.12796 13.1082 7.59462 13.1082 8.19196V10.8H11.7482V8.37596C11.7482 8.08796 11.6709 7.86662 11.5162 7.71196C11.3669 7.55196 11.1589 7.47196 10.8922 7.47196C10.6255 7.47196 10.4149 7.55196 10.2602 7.71196C10.1109 7.86662 10.0362 8.08796 10.0362 8.37596V10.8H8.67619V8.37596C8.67619 8.08796 8.59885 7.86662 8.44419 7.71196C8.29485 7.55196 8.08685 7.47196 7.82019 7.47196C7.55352 7.47196 7.34285 7.55196 7.18819 7.71196C7.03885 7.86662 6.96419 8.08796 6.96419 8.37596V10.8H5.59619V6.33596H6.96419V6.89596C7.10285 6.70929 7.28419 6.56262 7.50819 6.45596C7.73219 6.34396 7.98552 6.28796 8.26819 6.28796C8.60419 6.28796 8.90285 6.35996 9.16419 6.50396C9.43085 6.64796 9.63885 6.85329 9.78819 7.11996C9.94285 6.87462 10.1535 6.67462 10.4202 6.51996C10.6869 6.36529 10.9775 6.28796 11.2922 6.28796Z" fill="#F85266"/>
</g>
<defs>
<clipPath id="clip0_758_30721">
<rect width="19" height="18" fill="white"/>
</clipPath>
</defs>
</svg>
