<svg xmlns="http://www.w3.org/2000/svg" xmlns:xlink="http://www.w3.org/1999/xlink" width="126" height="42" viewBox="0 0 126 42">
  <defs>
    <style>
      .cls-1 {
        clip-path: url(#clip-Artboard_5);
      }

      .cls-2 {
        fill: #ffd674;
      }

      .cls-3 {
        fill: #31292a;
        font-size: 8px;
        font-family: Lato-Bold, Lato;
        font-weight: 700;
      }

      .cls-4 {
        fill: none;
      }

      .cls-5 {
        fill: #1c1c1c;
        fill-rule: evenodd;
      }

      .cls-6 {
        fill: #fff;
      }

      .cls-7 {
        filter: url(#Ellipse_113);
      }

      .cls-8 {
        filter: url(#Path_85);
      }
    </style>
    <filter id="Path_85" x="19.45" y="5.561" width="85.95" height="38.972" filterUnits="userSpaceOnUse">
      <feOffset dy="3" input="SourceAlpha"/>
      <feGaussianBlur stdDeviation="3" result="blur"/>
      <feFlood flood-opacity="0.161"/>
      <feComposite operator="in" in2="blur"/>
      <feComposite in="SourceGraphic"/>
    </filter>
    <filter id="Ellipse_113" x="-1" y="1" width="48" height="48" filterUnits="userSpaceOnUse">
      <feOffset dy="3" input="SourceAlpha"/>
      <feGaussianBlur stdDeviation="3" result="blur-2"/>
      <feFlood flood-opacity="0.161"/>
      <feComposite operator="in" in2="blur-2"/>
      <feComposite in="SourceGraphic"/>
    </filter>
    <clipPath id="clip-Artboard_5">
      <rect width="126" height="42"/>
    </clipPath>
  </defs>
  <g id="Artboard_5" data-name="Artboard – 5" class="cls-1">
    <rect class="cls-6" width="126" height="42"/>
    <g id="Group_170" data-name="Group 170" transform="translate(28.45 11.561)">
      <g class="cls-8" transform="matrix(1, 0, 0, 1, -28.45, -11.56)">
        <path id="Path_85-2" data-name="Path 85" class="cls-2" d="M4.96,0H62.99a4.817,4.817,0,0,1,4.96,4.66V16.312a4.817,4.817,0,0,1-4.96,4.66H4.96A4.817,4.817,0,0,1,0,16.312V4.66A4.817,4.817,0,0,1,4.96,0Z" transform="translate(28.45 11.56)"/>
      </g>
    </g>
    <text id="OTHER" class="cls-3" transform="translate(45.583 17.047)"><tspan x="0" y="8">OTHER</tspan></text>
    <g id="Group_171" data-name="Group 171" transform="translate(7.738 6.6)">
      <g class="cls-7" transform="matrix(1, 0, 0, 1, -7.74, -6.6)">
        <circle id="Ellipse_113-2" data-name="Ellipse 113" class="cls-2" cx="15" cy="15" r="15" transform="translate(8 7)"/>
      </g>
    </g>
    <g id="Places" transform="translate(15.16 13.929)">
      <rect id="Rectangle_305" data-name="Rectangle 305" class="cls-4" width="15.68" height="15.68"/>
      <path id="Path_114" data-name="Path 114" class="cls-5" d="M6.494,9.429A2.762,2.762,0,0,0,9.249,6.65,2.848,2.848,0,0,0,6.494,3.771,2.762,2.762,0,0,0,3.739,6.551,2.918,2.918,0,0,0,6.494,9.429ZM1.87,1.885a6.492,6.492,0,0,1,9.248,0,6.631,6.631,0,0,1,0,9.33L6.494,15.881,1.87,11.216A6.821,6.821,0,0,1,1.87,1.885Z" transform="translate(0.96 0.356)"/>
    </g>
  </g>
</svg>
