<svg width="200" height="200" viewBox="0 0 200 200" fill="none" xmlns="http://www.w3.org/2000/svg">
<path d="M98.351 158.083C87.0528 158.083 76.0086 154.677 66.6144 148.295C57.2203 141.913 49.897 132.84 45.5734 122.227C41.2497 111.614 40.1181 99.9358 42.3223 88.6688C44.5265 77.4017 49.9679 67.0521 57.9569 58.929C65.946 50.806 76.1249 45.2746 87.206 43.0335C98.2872 40.7923 109.774 41.9416 120.212 46.3378C130.65 50.7339 139.57 58.1788 145.847 67.7305C152.124 77.2822 155.475 88.5129 155.475 100.001C155.481 107.63 154.008 115.185 151.139 122.235C148.27 129.284 144.061 135.689 138.755 141.084C133.45 146.479 127.15 150.756 120.217 153.673C113.284 156.59 105.854 158.089 98.351 158.083ZM183.306 91.6844C176.472 91.6743 170.863 86.4773 169.052 79.8868C165.675 67.6004 159.232 56.343 150.26 47.2206C141.374 38.1854 130.428 31.6717 118.478 28.2122C111.81 26.2817 106.54 20.5854 106.53 13.6435L106.522 8.15951C106.516 3.65128 102.859 0 98.351 0C93.8428 0 90.1863 3.65128 90.18 8.15952L90.1723 13.6435C90.1625 20.5854 84.8919 26.2817 78.2238 28.2122C66.2745 31.6717 55.3279 38.1854 46.4417 47.2206C37.4695 56.3433 31.0248 67.6012 27.6478 79.8881C25.8366 86.4778 20.2284 91.6743 13.3943 91.6844L8.58426 91.6916C3.84125 91.6986 0 95.5455 0 100.289C0 104.8 3.48708 108.544 7.98699 108.864L13.3988 109.249C20.3482 109.743 25.7789 115.2 27.7234 121.89C31.1205 133.578 37.536 143.726 46.4417 152.781C54.9123 161.393 65.2551 167.715 76.554 171.284C83.6325 173.52 90.1659 180.158 90.1756 187.582C90.1775 189.037 90.1794 190.482 90.1811 191.844C90.1869 196.352 93.8433 200 98.3517 200C102.86 200 106.516 196.349 106.522 191.841L106.53 186.357C106.54 179.416 111.81 173.72 118.478 171.789C130.427 168.33 141.374 161.816 150.26 152.781C159.232 143.658 165.675 132.4 169.052 120.113C170.863 113.523 176.472 108.326 183.306 108.316L188.406 108.308C192.99 108.301 196.702 104.584 196.702 100C196.702 95.4164 192.99 91.6988 188.406 91.692L183.306 91.6844ZM98.351 66.8164C91.8961 66.8164 85.5858 68.762 80.2187 72.4084C74.8516 76.0547 70.668 81.238 68.1978 87.3016C65.7276 93.3652 65.0819 100.037 66.3412 106.474C67.6005 112.911 70.7076 118.825 75.272 123.466C79.8363 128.106 85.6534 131.266 91.9843 132.546C98.3152 133.827 104.876 133.17 110.839 130.658C116.803 128.147 121.902 123.893 125.488 118.436C129.074 112.979 130.987 106.564 130.987 100.001C130.987 91.1996 127.548 82.7591 121.428 76.5358C115.307 70.3125 107.007 66.8164 98.351 66.8164Z" fill="#F85266"/>
<rect x="32.7837" y="33.3086" width="131.135" height="133.333" rx="65.5673" fill="#F85266"/>
<rect x="49.1763" y="49.9922" width="98.351" height="100" rx="49.1755" fill="white"/>
<path fill-rule="evenodd" clip-rule="evenodd" d="M101.632 79.9935C101.632 78.1525 100.164 76.6602 98.3532 76.6602C96.5427 76.6602 95.0749 78.1525 95.0749 79.9935V92.5313C95.0749 93.5852 94.4808 94.5233 93.7384 95.2712C92.9905 96.0246 92.0433 96.6327 90.9817 96.6327H78.6822C76.8716 96.6327 75.4038 98.1251 75.4038 99.9661C75.4038 101.807 76.8716 103.299 78.6822 103.299H90.8734C91.9707 103.299 92.9464 103.937 93.7157 104.72C94.4687 105.486 95.0749 106.441 95.0749 107.516V119.993C95.0749 121.834 96.5426 123.327 98.3532 123.327C100.164 123.327 101.632 121.834 101.632 119.993V107.515C101.632 106.441 102.238 105.486 102.991 104.72C103.76 103.937 104.735 103.299 105.833 103.299H118.023C119.833 103.299 121.301 101.807 121.301 99.9661C121.301 98.1251 119.833 96.6327 118.023 96.6327H105.724C104.663 96.6327 103.716 96.0247 102.968 95.2713C102.226 94.5234 101.632 93.5854 101.632 92.5317V79.9935Z" fill="#F85266"/>
</svg>
