<svg id="Layer_1" data-name="Layer 1" xmlns="http://www.w3.org/2000/svg" xmlns:xlink="http://www.w3.org/1999/xlink" viewBox="0 0 174.84 119.92"><defs><style>.cls-1{fill:#ffc974;}.cls-2{fill:#15a292;}.cls-3{fill:#fff;stroke:#15a292;stroke-miterlimit:10;stroke-width:3.31px;}.cls-4{fill:#15a292;}.cls-5{fill:#e4b021;}.cls-6{fill:#fff34d;}.cls-7{clip-path:url(#clip-path);}.cls-8{fill:#e99e2e;}.cls-9{clip-path:url(#clip-path-2);}.cls-10{clip-path:url(#clip-path-3);}.cls-11{clip-path:url(#clip-path-4);}.cls-12{clip-path:url(#clip-path-5);}.cls-13{fill:#e0a224;}</style><clipPath id="clip-path"><path id="SVGID" class="cls-1" d="M4.91,118.75a2.77,2.77,0,0,1,0-5.47l30.21.09a2.78,2.78,0,0,1,0,5.47Z"/></clipPath><clipPath id="clip-path-2"><path id="SVGID-2" data-name="SVGID" class="cls-1" d="M4.88,111.9a2.77,2.77,0,0,1,0-5.47l30.21.09a2.78,2.78,0,0,1,0,5.47Z"/></clipPath><clipPath id="clip-path-3"><path id="SVGID-3" data-name="SVGID" class="cls-1" d="M4,104.35a2.54,2.54,0,0,1-2.3-2.74A2.56,2.56,0,0,1,4,98.88l30.21.1a2.77,2.77,0,0,1,0,5.46Z"/></clipPath><clipPath id="clip-path-4"><path id="SVGID-4" data-name="SVGID" class="cls-1" d="M4.84,97.32a2.54,2.54,0,0,1-2.29-2.74,2.56,2.56,0,0,1,2.32-2.73l30.21.09a2.78,2.78,0,0,1,0,5.47Z"/></clipPath><clipPath id="clip-path-5"><path id="SVGID-5" data-name="SVGID" class="cls-1" d="M3.91,90a2.54,2.54,0,0,1-2.29-2.74,2.56,2.56,0,0,1,2.32-2.73l30.21.09a2.78,2.78,0,0,1,0,5.47Z"/></clipPath></defs><title>Artboard 37</title><rect class="cls-2" x="42.01" y="17.98" width="113.02" height="77.79" rx="11.05" transform="translate(-11.72 28.8) rotate(-15.71)"/><rect class="cls-3" x="46.56" y="14.33" width="92.68" height="77.87" rx="12.21" transform="translate(-14.08 48.52) rotate(-27.29)"/><rect class="cls-4" x="30.93" y="24.9" width="133.18" height="87.12" rx="10.31"/><rect class="cls-3" x="130.26" y="56.89" width="42.93" height="27.76" rx="7.81"/><circle class="cls-2" cx="145.5" cy="70.79" r="7.32"/><path class="cls-5" d="M38.91,117.3a2.64,2.64,0,0,1-2.65,2.62h0a2.62,2.62,0,0,1-2.62-2.63v-2.38a2.65,2.65,0,0,1,2.65-2.62h0a2.63,2.63,0,0,1,2.62,2.63Z"/><path class="cls-5" d="M6.26,117.21a2.65,2.65,0,0,1-2.65,2.61h0A2.61,2.61,0,0,1,1,117.19v-2.38a2.65,2.65,0,0,1,2.65-2.62h0a2.63,2.63,0,0,1,2.62,2.63Z"/><path class="cls-1" d="M38.64,116.11c0,2.11-1.34,3.81-3,3.81l-31.51-.1c-1.64,0-2.95-1.71-2.94-3.82h0c0-2.11,1.34-3.81,3-3.8l31.51.09c1.64,0,2.95,1.72,2.94,3.82Z"/><path class="cls-6" d="M38,116.11a3.08,3.08,0,0,1-2.85,3.25L4.9,119.27A3.06,3.06,0,0,1,2.09,116h0a3.08,3.08,0,0,1,2.85-3.25l30.2.09A3.06,3.06,0,0,1,38,116.11Z"/><path id="SVGID-6" data-name="SVGID" class="cls-1" d="M4.91,118.75a2.77,2.77,0,0,1,0-5.47l30.21.09a2.78,2.78,0,0,1,0,5.47Z"/><g class="cls-7"><polygon class="cls-8" points="3.43 118.86 2.64 118.86 2.67 113.09 3.46 113.1 3.43 118.86"/><polygon class="cls-8" points="5.86 118.87 5.07 118.87 5.1 113.1 5.89 113.1 5.86 118.87"/><polygon class="cls-8" points="8.29 118.88 7.5 118.88 7.53 113.11 8.32 113.11 8.29 118.88"/><rect class="cls-8" x="7.46" y="115.61" width="5.77" height="0.79" transform="translate(-105.68 126.04) rotate(-89.85)"/><polygon class="cls-8" points="13.16 118.89 12.37 118.89 12.4 113.12 13.19 113.13 13.16 118.89"/><polygon class="cls-8" points="15.59 118.9 14.8 118.9 14.83 113.13 15.62 113.13 15.59 118.9"/><polygon class="cls-8" points="18.02 118.91 17.23 118.91 17.27 113.14 18.05 113.14 18.02 118.91"/><rect class="cls-8" x="17.19" y="115.64" width="5.77" height="0.79" transform="translate(-96.02 135.72) rotate(-89.81)"/><polygon class="cls-8" points="22.89 118.92 22.1 118.92 22.13 113.15 22.92 113.16 22.89 118.92"/><polygon class="cls-8" points="25.32 118.93 24.53 118.93 24.56 113.16 25.35 113.16 25.32 118.93"/><polygon class="cls-8" points="27.75 118.94 26.96 118.94 27 113.17 27.79 113.17 27.75 118.94"/><polygon class="cls-8" points="30.19 118.94 29.4 118.94 29.43 113.17 30.22 113.18 30.19 118.94"/><polygon class="cls-8" points="32.62 118.95 31.83 118.95 31.86 113.18 32.65 113.19 32.62 118.95"/><polygon class="cls-8" points="35.05 118.96 34.26 118.96 34.29 113.19 35.08 113.19 35.05 118.96"/><polygon class="cls-8" points="37.48 118.97 36.69 118.97 36.72 113.2 37.51 113.2 37.48 118.97"/></g><path class="cls-5" d="M38.88,110.46a2.63,2.63,0,0,1-2.65,2.61h0a2.62,2.62,0,0,1-2.62-2.63v-2.38a2.63,2.63,0,0,1,2.65-2.61h0a2.62,2.62,0,0,1,2.62,2.63Z"/><path class="cls-5" d="M6.23,110.36A2.63,2.63,0,0,1,3.58,113h0A2.61,2.61,0,0,1,1,110.34V108a2.63,2.63,0,0,1,2.65-2.61h0A2.62,2.62,0,0,1,6.24,108Z"/><path class="cls-1" d="M38.61,109.27c0,2.1-1.34,3.81-3,3.8L4.12,113c-1.64,0-2.95-1.72-2.94-3.83h0c0-2.1,1.34-3.81,3-3.8l31.51.09c1.64,0,2.95,1.72,2.94,3.83Z"/><path class="cls-6" d="M37.93,109.26a3.08,3.08,0,0,1-2.85,3.25l-30.21-.09a3.05,3.05,0,0,1-2.81-3.26h0a3.07,3.07,0,0,1,2.85-3.25l30.2.09a3,3,0,0,1,2.82,3.26Z"/><path id="SVGID-7" data-name="SVGID" class="cls-1" d="M4.88,111.9a2.77,2.77,0,0,1,0-5.47l30.21.09a2.78,2.78,0,0,1,0,5.47Z"/><g class="cls-9"><polygon class="cls-8" points="3.4 112.02 2.61 112.02 2.64 106.25 3.43 106.25 3.4 112.02"/><polygon class="cls-8" points="5.83 112.03 5.04 112.02 5.07 106.25 5.86 106.26 5.83 112.03"/><polygon class="cls-8" points="8.26 112.03 7.47 112.03 7.5 106.26 8.29 106.27 8.26 112.03"/><rect class="cls-8" x="7.43" y="108.76" width="5.77" height="0.79" transform="translate(-98.87 119.18) rotate(-89.85)"/><polygon class="cls-8" points="13.13 112.05 12.34 112.05 12.37 106.28 13.16 106.28 13.13 112.05"/><polygon class="cls-8" points="15.56 112.05 14.77 112.05 14.8 106.28 15.59 106.29 15.56 112.05"/><polygon class="cls-8" points="17.99 112.06 17.2 112.06 17.23 106.29 18.02 106.29 17.99 112.06"/><rect class="cls-8" x="17.16" y="108.79" width="5.77" height="0.79" transform="translate(-89.2 128.87) rotate(-89.81)"/><polygon class="cls-8" points="22.86 112.08 22.07 112.07 22.1 106.31 22.89 106.31 22.86 112.08"/><polygon class="cls-8" points="25.29 112.08 24.5 112.08 24.53 106.31 25.32 106.32 25.29 112.08"/><polygon class="cls-8" points="27.72 112.09 26.93 112.09 26.96 106.32 27.75 106.32 27.72 112.09"/><polygon class="cls-8" points="30.16 112.1 29.37 112.1 29.4 106.33 30.19 106.33 30.16 112.1"/><polygon class="cls-8" points="32.59 112.11 31.8 112.1 31.83 106.34 32.62 106.34 32.59 112.11"/><polygon class="cls-8" points="35.02 112.11 34.23 112.11 34.26 106.34 35.05 106.35 35.02 112.11"/><polygon class="cls-8" points="37.45 112.12 36.66 112.12 36.69 106.35 37.48 106.35 37.45 112.12"/></g><path class="cls-5" d="M38,102.91a2.65,2.65,0,0,1-2.65,2.62h0a2.63,2.63,0,0,1-2.62-2.63v-2.38a2.65,2.65,0,0,1,2.65-2.62h0A2.62,2.62,0,0,1,38,100.53Z"/><path class="cls-5" d="M5.3,102.81a2.65,2.65,0,0,1-2.65,2.62h0A2.62,2.62,0,0,1,0,102.8v-2.38A2.65,2.65,0,0,1,2.69,97.8h0a2.62,2.62,0,0,1,2.62,2.63Z"/><path class="cls-1" d="M37.68,101.72c0,2.11-1.34,3.81-3,3.8l-31.51-.09c-1.64,0-2.95-1.72-2.94-3.82h0c0-2.11,1.34-3.81,3-3.81l31.51.1c1.64,0,2.95,1.72,2.94,3.82Z"/><path class="cls-6" d="M37,101.72A3.08,3.08,0,0,1,34.15,105l-30.21-.09a3.06,3.06,0,0,1-2.81-3.27h0A3.08,3.08,0,0,1,4,98.36l30.2.09A3.06,3.06,0,0,1,37,101.72Z"/><path id="SVGID-8" data-name="SVGID" class="cls-1" d="M4,104.35a2.54,2.54,0,0,1-2.3-2.74A2.56,2.56,0,0,1,4,98.88l30.21.1a2.77,2.77,0,0,1,0,5.46Z"/><g class="cls-10"><polygon class="cls-8" points="2.47 104.47 1.68 104.47 1.71 98.7 2.5 98.7 2.47 104.47"/><polygon class="cls-8" points="4.9 104.48 4.11 104.48 4.14 98.71 4.93 98.71 4.9 104.48"/><polygon class="cls-8" points="7.33 104.49 6.54 104.48 6.57 98.72 7.36 98.72 7.33 104.49"/><rect class="cls-8" x="6.5" y="101.21" width="5.77" height="0.79" transform="translate(-92.25 110.72) rotate(-89.85)"/><polygon class="cls-8" points="12.2 104.5 11.41 104.5 11.44 98.73 12.23 98.73 12.2 104.5"/><polygon class="cls-8" points="14.63 104.51 13.84 104.51 13.87 98.74 14.66 98.74 14.63 104.51"/><polygon class="cls-8" points="17.07 104.52 16.27 104.51 16.3 98.75 17.09 98.75 17.07 104.52"/><rect class="cls-8" x="16.23" y="101.24" width="5.77" height="0.79" transform="translate(-82.59 120.42) rotate(-89.81)"/><polygon class="cls-8" points="21.93 104.53 21.14 104.53 21.17 98.76 21.96 98.76 21.93 104.53"/><polygon class="cls-8" points="24.36 104.54 23.57 104.54 23.6 98.77 24.39 98.77 24.36 104.54"/><polygon class="cls-8" points="26.79 104.55 26 104.54 26.03 98.78 26.82 98.78 26.79 104.55"/><polygon class="cls-8" points="29.23 104.55 28.44 104.55 28.47 98.78 29.26 98.78 29.23 104.55"/><polygon class="cls-8" points="31.66 104.56 30.87 104.56 30.9 98.79 31.69 98.79 31.66 104.56"/><polygon class="cls-8" points="34.09 104.57 33.3 104.56 33.33 98.8 34.12 98.8 34.09 104.57"/><polygon class="cls-8" points="36.52 104.57 35.73 104.57 35.76 98.81 36.55 98.81 36.52 104.57"/></g><path class="cls-5" d="M38.85,95.88A2.65,2.65,0,0,1,36.2,98.5h0a2.63,2.63,0,0,1-2.62-2.63V93.48a2.64,2.64,0,0,1,2.65-2.61h0a2.62,2.62,0,0,1,2.62,2.63Z"/><path class="cls-5" d="M6.2,95.78A2.65,2.65,0,0,1,3.55,98.4h0A2.62,2.62,0,0,1,.93,95.77V93.38a2.64,2.64,0,0,1,2.65-2.61h0A2.62,2.62,0,0,1,6.21,93.4Z"/><path class="cls-1" d="M38.58,94.69c0,2.1-1.34,3.81-3,3.8L4.09,98.4c-1.64,0-2.95-1.72-2.94-3.82h0c0-2.11,1.34-3.81,3-3.81l31.51.1c1.64,0,3,1.71,2.94,3.82Z"/><path class="cls-6" d="M37.9,94.69a3.08,3.08,0,0,1-2.85,3.25L4.84,97.85A3.06,3.06,0,0,1,2,94.58H2a3.07,3.07,0,0,1,2.85-3.25l30.2.09a3.06,3.06,0,0,1,2.82,3.27Z"/><path id="SVGID-9" data-name="SVGID" class="cls-1" d="M4.84,97.32a2.54,2.54,0,0,1-2.29-2.74,2.56,2.56,0,0,1,2.32-2.73l30.21.09a2.78,2.78,0,0,1,0,5.47Z"/><g class="cls-11"><polygon class="cls-8" points="3.37 97.44 2.58 97.44 2.61 91.67 3.4 91.67 3.37 97.44"/><polygon class="cls-8" points="5.8 97.45 5.01 97.44 5.04 91.68 5.83 91.68 5.8 97.45"/><polygon class="cls-8" points="8.23 97.45 7.44 97.45 7.47 91.69 8.26 91.69 8.23 97.45"/><rect class="cls-8" x="7.4" y="94.18" width="5.77" height="0.79" transform="translate(-84.32 104.61) rotate(-89.85)"/><polygon class="cls-8" points="13.1 97.47 12.31 97.47 12.34 91.7 13.13 91.7 13.1 97.47"/><polygon class="cls-8" points="15.53 97.48 14.74 97.47 14.77 91.71 15.56 91.71 15.53 97.48"/><polygon class="cls-8" points="17.96 97.48 17.17 97.48 17.2 91.71 17.99 91.72 17.96 97.48"/><rect class="cls-8" x="17.13" y="94.21" width="5.77" height="0.79" transform="translate(-74.66 114.31) rotate(-89.81)"/><polygon class="cls-8" points="22.83 97.5 22.04 97.5 22.07 91.73 22.86 91.73 22.83 97.5"/><polygon class="cls-8" points="25.26 97.51 24.47 97.5 24.5 91.74 25.29 91.74 25.26 97.51"/><polygon class="cls-8" points="27.69 97.51 26.9 97.51 26.93 91.74 27.72 91.75 27.69 97.51"/><polygon class="cls-8" points="30.13 97.52 29.34 97.52 29.37 91.75 30.16 91.75 30.13 97.52"/><polygon class="cls-8" points="32.56 97.53 31.77 97.53 31.8 91.76 32.59 91.76 32.56 97.53"/><polygon class="cls-8" points="34.99 97.54 34.2 97.53 34.23 91.77 35.02 91.77 34.99 97.54"/><polygon class="cls-8" points="37.42 97.54 36.63 97.54 36.66 91.77 37.45 91.78 37.42 97.54"/></g><path class="cls-5" d="M37.92,88.52a2.63,2.63,0,0,1-2.65,2.61h0a2.62,2.62,0,0,1-2.62-2.63V86.12a2.63,2.63,0,0,1,2.65-2.61h0a2.62,2.62,0,0,1,2.62,2.63Z"/><path class="cls-5" d="M5.27,88.42A2.65,2.65,0,0,1,2.62,91h0A2.62,2.62,0,0,1,0,88.41V86a2.63,2.63,0,0,1,2.65-2.61h0A2.62,2.62,0,0,1,5.28,86Z"/><path class="cls-1" d="M37.65,87.33c0,2.1-1.34,3.81-3,3.8L3.16,91C1.52,91,.21,89.32.22,87.22h0c0-2.11,1.34-3.81,3-3.81l31.51.1c1.64,0,2.95,1.71,2.94,3.82Z"/><path class="cls-6" d="M37,87.33a3.08,3.08,0,0,1-2.85,3.25l-30.21-.1A3,3,0,0,1,1.1,87.22h0A3.07,3.07,0,0,1,4,84l30.2.09A3.06,3.06,0,0,1,37,87.33Z"/><path id="SVGID-10" data-name="SVGID" class="cls-1" d="M3.91,90a2.54,2.54,0,0,1-2.29-2.74,2.56,2.56,0,0,1,2.32-2.73l30.21.09a2.78,2.78,0,0,1,0,5.47Z"/><g class="cls-12"><polygon class="cls-8" points="2.44 90.08 1.65 90.08 1.68 84.31 2.47 84.31 2.44 90.08"/><polygon class="cls-8" points="4.87 90.09 4.08 90.08 4.11 84.32 4.9 84.32 4.87 90.09"/><polygon class="cls-8" points="7.3 90.09 6.51 90.09 6.54 84.32 7.33 84.33 7.3 90.09"/><rect class="cls-8" x="6.47" y="86.82" width="5.77" height="0.79" transform="translate(-77.88 96.34) rotate(-89.85)"/><polygon class="cls-8" points="12.17 90.11 11.38 90.11 11.41 84.34 12.2 84.34 12.17 90.11"/><polygon class="cls-8" points="14.6 90.12 13.81 90.11 13.84 84.35 14.63 84.35 14.6 90.12"/><polygon class="cls-8" points="17.03 90.12 16.24 90.12 16.27 84.35 17.06 84.36 17.03 90.12"/><rect class="cls-8" x="16.2" y="86.85" width="5.77" height="0.79" transform="translate(-68.22 106.04) rotate(-89.81)"/><polygon class="cls-8" points="21.9 90.14 21.11 90.14 21.14 84.37 21.93 84.37 21.9 90.14"/><polygon class="cls-8" points="24.33 90.15 23.54 90.14 23.57 84.38 24.36 84.38 24.33 90.15"/><polygon class="cls-8" points="26.76 90.15 25.97 90.15 26 84.38 26.79 84.39 26.76 90.15"/><polygon class="cls-8" points="29.2 90.16 28.41 90.16 28.44 84.39 29.23 84.39 29.2 90.16"/><polygon class="cls-8" points="31.63 90.17 30.84 90.17 30.87 84.4 31.66 84.4 31.63 90.17"/><polygon class="cls-8" points="34.06 90.17 33.27 90.17 33.3 84.41 34.09 84.41 34.06 90.17"/><polygon class="cls-8" points="36.49 90.18 35.7 90.18 35.73 84.41 36.52 84.42 36.49 90.18"/></g><path class="cls-1" d="M67.9,102.79A17.93,17.93,0,1,1,51.19,83.72,17.93,17.93,0,0,1,67.9,102.79Z"/><path class="cls-13" d="M65.77,102.65a15.79,15.79,0,1,1-14.72-16.8A15.79,15.79,0,0,1,65.77,102.65Z"/><path class="cls-8" d="M64.92,102.6A14.94,14.94,0,1,1,51,86.71,14.94,14.94,0,0,1,64.92,102.6Z"/><path class="cls-1" d="M56.86,97.16a.44.44,0,0,0-.33-.16L54,96.83a5,5,0,0,0-.81-2.19l3.46.22a.43.43,0,0,0,.35-.11.4.4,0,0,0,.15-.33l.1-1.51a.4.4,0,0,0-.11-.35.44.44,0,0,0-.33-.16l-12.34-.81a.46.46,0,0,0-.35.11A.44.44,0,0,0,44,92l-.13,2a.48.48,0,0,0,.44.5l2.16.14c2.08.14,3.37.79,3.86,1.94l-6.13-.4a.49.49,0,0,0-.35.11.47.47,0,0,0-.15.33l-.1,1.52a.45.45,0,0,0,.11.35.47.47,0,0,0,.33.15l6.34.42a2.9,2.9,0,0,1-1.65,1.75,6.54,6.54,0,0,1-3.19.43l-1.66-.11a.57.57,0,0,0-.35.12.47.47,0,0,0-.16.33l-.12,1.88a.47.47,0,0,0,.11.34q2.65,3.21,6.83,9a.44.44,0,0,0,.36.2l2.9.19a.44.44,0,0,0,.44-.24.41.41,0,0,0,0-.51q-4-5.59-6.29-8.4a7.58,7.58,0,0,0,4.2-1.36,5.54,5.54,0,0,0,2.14-3.35l2.5.17a.48.48,0,0,0,.35-.12.47.47,0,0,0,.15-.33l.1-1.51A.46.46,0,0,0,56.86,97.16Z"/></svg>