<svg id="Layer_1" data-name="Layer 1" xmlns="http://www.w3.org/2000/svg" viewBox="0 0 109 109"><defs><style>.cls-1{fill:#f2f2f2;}.cls-2{fill:#60bdb1;}</style></defs><title>tracking</title><rect class="cls-1" width="109" height="109" rx="22.23"/><path class="cls-2" d="M54.55,67.45a3.09,3.09,0,0,1-2.28-1.27c-.94-1.08-1.62-1.86-2-1.94a6.5,6.5,0,0,0-2.38,1,3.21,3.21,0,0,1-2.68.37,3.35,3.35,0,0,1-1.68-2.26,7.3,7.3,0,0,0-1-2.46,6.59,6.59,0,0,0-2.42.07,3.43,3.43,0,0,1-2.91-.7,3.34,3.34,0,0,1-.61-2.9A5.57,5.57,0,0,0,36.71,55a6.22,6.22,0,0,0-2.33-.91A3.42,3.42,0,0,1,32,52.4a3.48,3.48,0,0,1,.51-3,6.13,6.13,0,0,0,1-2.23c-.07-.35-1-1.05-1.76-1.67A3.41,3.41,0,0,1,30.1,43a3.45,3.45,0,0,1,1.59-2.52c.8-.63,1.7-1.35,1.78-1.71a6,6,0,0,0-1-2.2A3.44,3.44,0,0,1,32,33.67,3.37,3.37,0,0,1,34.38,32c2.62-.75,2.62-.75,2.24-3.28a3.38,3.38,0,0,1,.62-2.9,3.39,3.39,0,0,1,2.89-.7,6.21,6.21,0,0,0,2.47.05,6.1,6.1,0,0,0,.9-2.24,3.47,3.47,0,0,1,1.72-2.47,3.39,3.39,0,0,1,2.89.5,7,7,0,0,0,2.27,1c.31-.06,1-.91,1.63-1.74a3.47,3.47,0,0,1,2.56-1.64,3.58,3.58,0,0,1,2.59,1.71c1.51,2,1.51,2,3.74.71a3.54,3.54,0,0,1,3-.55A3.55,3.55,0,0,1,65.66,23c.68,2.45.67,2.45,3.19,2.13a3.56,3.56,0,0,1,3,.67,3.48,3.48,0,0,1,.6,3c-.37,2.49-.37,2.49,2.12,3.15a3.53,3.53,0,0,1,2.55,1.71,3.57,3.57,0,0,1-.58,3c-1.27,2.21-1.27,2.21.74,3.76A3.49,3.49,0,0,1,79,43a3.54,3.54,0,0,1-1.68,2.58c-2,1.57-2,1.57-.76,3.76a3.51,3.51,0,0,1,.57,3,3.49,3.49,0,0,1-2.52,1.74,5.7,5.7,0,0,0-2.17.82,6.85,6.85,0,0,0,.07,2.53,3.33,3.33,0,0,1-.62,2.76,3,3,0,0,1-2.58.76h0a7.31,7.31,0,0,0-2.73.06,6.5,6.5,0,0,0-1,2.4,3.11,3.11,0,0,1-1.66,2.12,3,3,0,0,1-2.58-.29,7.16,7.16,0,0,0-2.55-1c-.35.07-1,.81-1.85,1.84a3.17,3.17,0,0,1-2.33,1.36Zm-4.3-5.21c1.1,0,2,.81,3.53,2.63.37.43.64.58.77.58h0c.13,0,.42-.17.81-.64,2.62-3.1,3.13-3.2,6.85-1.3.61.31.85.25.91.23s.28-.17.52-.9C64.86,59,65.3,58.75,69.41,59l0,1,.06-1c.79,0,1-.11,1-.14s.19-.26.08-1.15c-.47-3.92-.07-4.54,3.56-5.52,1.06-.29,1.19-.54,1.2-.57s.11-.31-.45-1.28C73,47.17,73.19,46.28,76.09,44c.9-.7.91-1,.91-1s0-.29-.91-1c-2.88-2.22-3.07-3.17-1.26-6.34.57-1,.47-1.26.47-1.27s-.12-.26-1.22-.55c-3.54-.94-4.11-1.8-3.58-5.38.16-1.06,0-1.28,0-1.31s-.25-.21-1.35-.07c-3.64.46-4.39-.05-5.37-3.59-.29-1.08-.56-1.22-.59-1.23s-.3-.1-1.25.44c-3.26,1.85-4.08,1.69-6.32-1.23-.69-.9-1-.93-1-.93h0s-.31,0-1,.87c-2.39,3-3,3.16-6.46,1.24-.89-.5-1.14-.41-1.15-.4s-.26.12-.56,1.17c-1.06,3.68-1.68,4.08-5.52,3.63-1-.12-1.21.08-1.23.1s-.21.25-.07,1.22c.55,3.71.07,4.43-3.68,5.49-1,.28-1.1.53-1.11.54s-.1.26.43,1.2c1.88,3.32,1.74,4-1.31,6.46-.82.65-.83.93-.83.94s0,.29.84.93c3,2.37,3.18,3.09,1.3,6.46-.5.9-.41,1.19-.4,1.22s.14.28,1.08.54c3.78,1.06,4.22,1.73,3.68,5.46-.14,1,0,1.2.08,1.22s.24.23,1.24.12c3.87-.44,4.34-.12,5.54,3.78.26.87.5,1,.53,1s.26.09,1-.29A8,8,0,0,1,50.25,62.24Zm4.3-1.87a17.36,17.36,0,0,1-.07-34.72h0A17.29,17.29,0,0,1,71.88,43h0A17.37,17.37,0,0,1,54.63,60.37Zm-.06-32.72h0a15.36,15.36,0,0,0,.07,30.72h.07a15.36,15.36,0,0,0-.13-30.72Z"/><path class="cls-2" d="M48.19,93.84,43.43,84l-9,6.19,7.43-27.75,1.15.76c.41.27.8.58,1.18.88a4.89,4.89,0,0,0,2,1.18,5.33,5.33,0,0,0,2.37-.71c.42-.19.83-.38,1.22-.51l.69-.25,2.81,3.74,2.46-1.73Zm-4-12.79,3.43,7.08,4.88-18.21-2.79-3.71-.39.17a6.79,6.79,0,0,1-3.4.88A5.84,5.84,0,0,1,43,65.74L37.72,85.5Z"/><path class="cls-2" d="M60.93,93.83,54.09,68.35l.34-.59a1.33,1.33,0,0,1,.29-.4l.37-.34c1.9-1.78,4.27-4,8.1-1.6a.49.49,0,0,0,.46.08c.43-.14,1.18-.92,1.87-2.65L66.63,60l8.08,30.14-9-6.15ZM56.25,68.67l5.22,19.46,3.42-7.07,6.49,4.42L66.13,65.91a3.93,3.93,0,0,1-1.86,1.49,2.48,2.48,0,0,1-2.14-.28c-2.41-1.51-3.61-.57-5.68,1.36Z"/><path class="cls-2" d="M51.35,52.43a3.52,3.52,0,0,1-2.53-1.18c-2-2.13-3.91-4.14-5.7-6.15a3.18,3.18,0,0,1,.17-4.76,3.23,3.23,0,0,1,4.75.22c.91.93,1.8,1.88,2.86,3l.9,1L53.22,43c2.33-2.49,4.59-4.89,6.85-7.29a14.28,14.28,0,0,1,1.23-1.19,3.2,3.2,0,0,1,4.72.23,3.12,3.12,0,0,1-.08,4.59C61.17,44.12,57.25,48,53.6,51.47A3.19,3.19,0,0,1,51.35,52.43Zm-5.82-11a1.34,1.34,0,0,0-.89.42,1.21,1.21,0,0,0,0,2c1.77,2,3.62,4,5.65,6.09.68.71,1.34.76,2,.17,3.65-3.5,7.56-7.34,12.32-12.09a1.14,1.14,0,0,0,0-1.81c-.46-.49-1-.84-2,0a11.68,11.68,0,0,0-1.06,1l-6.84,7.28L51.8,47.46l-.73-.78-1.64-1.74c-1-1.12-1.91-2.06-2.82-3A1.55,1.55,0,0,0,45.53,41.4Z"/></svg>