<svg id="Layer_1" data-name="Layer 1" xmlns="http://www.w3.org/2000/svg" viewBox="0 0 110 109"><defs><style>.cls-1{fill:#60bdb1;}.cls-2{fill:none;stroke:#fff;stroke-miterlimit:10;stroke-width:2px;}</style></defs><title>tracking</title><rect class="cls-1" x="1" width="109" height="109" rx="22.23"/><path class="cls-2" d="M70.37,60c-3.67-.22-3.69-.23-4.78,3.15-.49,1.52-1.32,2-2.83,1.25-3.32-1.69-3.33-1.67-5.63,1.06-1.1,1.3-2,1.32-3.1.06-2.46-2.81-2.46-2.81-5.6-1.17-1.57.83-2.39.46-2.93-1.3C44.43,59.59,44.43,59.59,41,60c-2,.23-2.7-.48-2.42-2.47.47-3.22.33-3.43-3-4.35-1.93-.54-2.28-1.43-1.28-3.22C36,47,36,46.81,33.32,44.75c-1.62-1.26-1.62-2.17,0-3.44C36,39.2,36,39,34.37,36.12c-1-1.81-.7-2.63,1.28-3.19,3.25-.92,3.43-1.19,3-4.38-.29-2,.41-2.7,2.4-2.46,3.36.39,3.53.28,4.45-2.92.58-2,1.37-2.36,3.16-1.37,3,1.68,3.11,1.66,5.18-1,1.32-1.69,2.23-1.67,3.57.07,1.93,2.52,2.2,2.58,5,1,1.88-1.07,2.72-.71,3.3,1.4.84,3.06,1.13,3.25,4.28,2.85,2.16-.27,2.83.41,2.51,2.53-.46,3.07-.2,3.45,2.85,4.27,2.12.56,2.45,1.36,1.36,3.27-1.57,2.75-1.5,3.13,1,5,1.73,1.33,1.73,2.23,0,3.57-2.51,2-2.58,2.31-1,5.05,1.08,1.89.73,2.75-1.35,3.31-3.15.85-3.24,1-2.83,4.44C72.74,59.43,72.13,60.11,70.37,60Zm1.51-17A16.34,16.34,0,1,0,55.63,59.37,16.3,16.3,0,0,0,71.88,43Z"/><path class="cls-2" d="M48.92,91l-4.1-8.45-7.76,5.32c2.23-8.36,4.35-16.25,6.37-23.8,1.2.79,2.35,2.09,3.61,2.22s2.79-.85,4-1.28L54,68.92l1-.7C53,75.63,51,83.05,48.92,91Z"/><path class="cls-2" d="M56.16,68.49a2.4,2.4,0,0,1,.24-.39c2.07-1.92,3.88-3.94,7.26-1.83,1.53,1,2.93-.88,3.79-3.06l6.6,24.61-7.76-5.28L62.2,91C60.08,83.09,58.1,75.7,56.16,68.49Z"/><path class="cls-2" d="M52.8,46c3.1-3.31,6-6.45,9-9.58a11.9,11.9,0,0,1,1.15-1.1,2.21,2.21,0,0,1,3.35.13,2.13,2.13,0,0,1-.05,3.2q-6.12,6.1-12.33,12.1a2.22,2.22,0,0,1-3.37-.2q-2.9-3-5.67-6.11a2.2,2.2,0,0,1,.1-3.36,2.23,2.23,0,0,1,3.36.18C49.67,42.63,51,44,52.8,46Z"/></svg>