<svg id="Layer_1" data-name="Layer 1" xmlns="http://www.w3.org/2000/svg" viewBox="0 0 110 109"><defs><style>.cls-1{fill:#f2f2f2;}.cls-2{fill:#60bdb1;}</style></defs><title>tracking</title><rect class="cls-1" x="1" width="109" height="109" rx="22.23"/><path class="cls-2" d="M94.49,43a26.37,26.37,0,0,1-2.92,12.06,24.19,24.19,0,0,1-4.79,6.55,17.43,17.43,0,0,1-1.72,1.5A12.31,12.31,0,0,0,83.16,65,46.26,46.26,0,0,1,69,76.32a29.3,29.3,0,0,1-10,3.05,27,27,0,0,1-10-.78,36.9,36.9,0,0,1-12.58-6.24A48.47,48.47,0,0,1,27.59,64a3.24,3.24,0,0,0-.5-.48,24.31,24.31,0,0,1-6.69-8,26.92,26.92,0,0,1-2.7-7.68,23.64,23.64,0,0,1-.38-6.87,4.93,4.93,0,0,1,.23-1,2,2,0,0,1,2.69-1.39A7.31,7.31,0,0,1,22.75,40c1.5,1.22,3,2.47,4.45,3.7.64.52,1.3,1,2,1.52a.61.61,0,0,0,.44.09c2.57-.59,5.13-1.23,7.71-1.78,3.6-.76,7.2-1.52,10.82-2.15,2.37-.4,4.78-.61,7.18-.81a14.23,14.23,0,0,1,2.59.22c4,.44,8,1.31,11.91,2.14S77.93,44.59,82,45.45a.62.62,0,0,0,.56-.2l3.74-3c1.21-1,2.41-2,3.67-2.9a5.49,5.49,0,0,1,1.65-.8,2,2,0,0,1,2.6,1.37,6.81,6.81,0,0,1,.28,1.56C94.53,42,94.49,42.5,94.49,43ZM29,47.5v.28q.09,7.36.2,14.75a.69.69,0,0,0,.15.41,46.55,46.55,0,0,0,7.22,7,39.56,39.56,0,0,0,6,3.92,30.15,30.15,0,0,0,10.93,3.51,24.22,24.22,0,0,0,8.77-.67,32.33,32.33,0,0,0,9.95-4.6,46.08,46.08,0,0,0,10-9.17.69.69,0,0,0,.15-.44c0-4.9-.06-9.8-.09-14.69,0-.2,0-.28-.26-.32L71.3,45.26c-2-.41-4-.82-6-1.25-2.58-.55-5.19-1-7.81-1.27a17.79,17.79,0,0,0-2.42-.18c-.89,0-1.79.14-2.68.23a89.24,89.24,0,0,0-9.46,1.56c-3.48.75-7,1.53-10.44,2.3C31.34,46.91,30.18,47.22,29,47.5ZM84.37,61.09c.1-.07.14-.08.16-.11a22.06,22.06,0,0,0,4-4.63,25.06,25.06,0,0,0,3.4-8,23.31,23.31,0,0,0,.61-6.17,10,10,0,0,0-.15-1.34c-.07-.41-.15-.46-.5-.25a16.3,16.3,0,0,0-2,1.34c-1.82,1.46-3.6,3-5.39,4.45a.55.55,0,0,0-.14.37l.06,11.11C84.38,58.88,84.37,60,84.37,61.09Zm-57.26-.15c0-1.48,0-2.86,0-4.23,0-3.46-.08-6.92-.14-10.38a.54.54,0,0,0-.15-.37L23,42.76a17.13,17.13,0,0,0-2.94-2.14c-.56-.28-.64-.24-.74.37,0,.11,0,.22-.05.34a21.79,21.79,0,0,0,.18,5A24.67,24.67,0,0,0,25.18,58.9C25.78,59.59,26.44,60.23,27.11,60.94Z"/><path class="cls-2" d="M55.68,55.59a44,44,0,0,1-10.94-1.47,45.27,45.27,0,0,1-7.81-2.83c-.42-.2-.84-.42-1.25-.65a1.16,1.16,0,0,1-.51-1.6,1.18,1.18,0,0,1,1.65-.45,40.44,40.44,0,0,0,9,3.38,41.06,41.06,0,0,0,8.89,1.25,36.51,36.51,0,0,0,7.81-.64,48.75,48.75,0,0,0,12-4,1.18,1.18,0,0,1,1.78,1,1.12,1.12,0,0,1-.67,1.09,50.83,50.83,0,0,1-12.57,4.21A40.26,40.26,0,0,1,55.68,55.59Z"/><path class="cls-2" d="M55.18,62.62A39.4,39.4,0,0,1,39.39,59.2c-.82-.37-1.62-.8-2.41-1.24a1.09,1.09,0,0,1,1.12-1.87,33.56,33.56,0,0,0,8.83,3.34,35.6,35.6,0,0,0,9.31,1,35.16,35.16,0,0,0,7-1,60.67,60.67,0,0,0,10.1-3.34,1.1,1.1,0,0,1,1.36.29,1,1,0,0,1,0,1.29,1.5,1.5,0,0,1-.56.44,59,59,0,0,1-13.19,4A34.37,34.37,0,0,1,55.18,62.62Z"/><path class="cls-2" d="M55.07,69.43a35.14,35.14,0,0,1-11.69-2.29c-1-.36-1.92-.8-2.87-1.22a8.86,8.86,0,0,1-.92-.47.95.95,0,1,1,.91-1.66,33.21,33.21,0,0,0,10.85,3.43,25.76,25.76,0,0,0,6.08.24,34.75,34.75,0,0,0,6.32-1.21,72.45,72.45,0,0,0,7.18-2.48A.92.92,0,0,1,72.1,64a.9.9,0,0,1,0,1.12,1.17,1.17,0,0,1-.45.35,60,60,0,0,1-10.81,3.39A29,29,0,0,1,55.07,69.43Z"/></svg>