<svg id="Layer_1" data-name="Layer 1" xmlns="http://www.w3.org/2000/svg" viewBox="0 0 109 109"><defs><style>.cls-1{fill:#f2f2f2;}.cls-2{fill:#60bdb1;}.cls-3{fill:#e21c24;}</style></defs><title>tracking</title><rect class="cls-1" width="109" height="109" rx="22.23"/><path class="cls-2" d="M24.27,39.38,24.81,38l.15-.4,0,0,0,0c.17-.45.34-.89.5-1.34h0c.09-.15.17-.3.25-.45A1.36,1.36,0,0,1,27.5,35l1.5.45a.06.06,0,0,0,.07,0l2,.75a.09.09,0,0,0,.08,0l.18.1h0l.38.29h0c0,.61,0,1.21,0,1.82,0,0,0,0,0,.07l-.62,1.64-1.85,5-1,2.77a.08.08,0,0,0,0,.09l-.94,2.49h0l-.07.17L26.34,53c-.46,1.19-.91,2.38-1.39,3.56a1.69,1.69,0,0,1-2,1.23l-2.63-.93-1.6-1.07c0-.49,0-1,0-1.48a6.74,6.74,0,0,1,.15-.88l.25-.39s0,0,0-.08l.22-.58a.07.07,0,0,0,0-.1l.26-.69h0l.24-.65a.07.07,0,0,0,0-.1l.26-.68a1.27,1.27,0,0,0,.13-.22l1.59-4.36.65-1.72L24,40h0l.12-.27h0Z"/><path class="cls-2" d="M45.56,37l.53-.25.66-.28.37-.17.32-.08.2,0,.4-.11h.13l2.87.17h0l1.06.51h0l.14.11h0l.11.09.17.18.09.14a.48.48,0,0,0,0,.12l-1.19.78a.17.17,0,0,0-.12,0h-.65a.2.2,0,0,0-.13,0l-2.82.07-.88.31-.25.11L43.3,40.43h0l-.53.27h0l-.57.25a.06.06,0,0,0-.08,0l-.68.24a.11.11,0,0,0-.11,0l-.3.1a.08.08,0,0,0-.1,0l-.46.11h-2l0,0,0,0-.19-.08-.27,0-.4-.12s0,0-.08,0L36.88,41h0l-.51-.28h0l-.15-.12-1.08-.77-.84,2.36a.11.11,0,0,0,0,.11.11.11,0,0,0,0,.12l-.11.28a.07.07,0,0,0,0,.09l-.26.69h0q-.84,2.23-1.69,4.48s0,.06,0,.1l-.11.29s0,0,0,.07l-.23.58-.29.78-.1.27a.09.09,0,0,0,0,.12l-.41,1-1.69,4.35-.14.39h0a1.35,1.35,0,0,0,0,1.6h0l.29.35,0,0,.1.11.14.15.12.13h0l.13.14h0l.93,1h0l.12.12h0l.12.13h0l.13.14h0l.13.14h0l.14.14h0l.14.14h0l.42.49,0,0,.09.1.15.16,1.14,1.22.26.6-.13.13-.13.14-.9.92-.25-.12-.14-.13h0L32,63.66h0l-1.18-1.32h0l-.17-.22,0,0-.1-.1-.14-.16-.12-.13-.13-.14-.13-.14h0l-.14-.15h0l-.14-.14h0l-.28-.27-1.32-1.56h0l-.14-.14h0L28,59l-.2-.24-.08-.09-.14-.16-.12-.13h0A2.31,2.31,0,0,1,27,56.08l1.17-3a.09.09,0,0,0,0-.09c.3-.8.61-1.6.92-2.4L30,48.14l2.09-5.48L33,40.45l.11-.28,0-.12.32-.81a.11.11,0,0,0,0-.12.07.07,0,0,0,0-.1,7.94,7.94,0,0,1,.94-1.13,1.61,1.61,0,0,1,1.67,0,12.55,12.55,0,0,0,1.39,1.25,3,3,0,0,0,2.7.42l.65-.15.29-.1a.19.19,0,0,0,.1,0l.17-.08h0l.62-.29h0l.53-.27h0l.52-.27h0l.52-.27h0L45,37.31Z"/><path class="cls-2" d="M55.91,37.53l1.74-.62a.12.12,0,0,0,.1,0,9,9,0,0,1,5.33.7h0l.17.11h0l.26.14h0l.4.24a.07.07,0,0,0,.08,0l.19.11h0l.26.15.5.27h0l.41.27h0l.41.25h0l.78.54h0l.39.28h0a5,5,0,0,0,3.3,1.29,3.64,3.64,0,0,0,2.77-1h.11l.39.57s0,.06,0,.07l.77,1.46h0l1.56,3,1.37,2.62.8,1.56.59,1.07.41.79.27.52.27.52,1.93,3.43c.42.86,1,1.7.52,2.73l-.09.14-.37.53-.31.34-.14.16h0l-.13.14h0l-.13.14h0l-.13.14h0l-.13.12L78.9,62h0l-.13.13-.14.14-.12.12-.14.15-.11.12-.15.14-.84.85-.13.14-.13.13-.13.13-.13.14-.13.13-.13.13-.26.26L76,65l-.26.27-.27.26c-.41.25-.7,0-1-.26L74.2,65l-.12-.15-.18-.21-.75-.82L73,63.63l-.18-.22c-.26-.27-.51-.54-.76-.82l-.24-.27c-.07-.07-.13-.15-.19-.22L71.54,62l-.75-.82L70.66,61l-1-1h0l-.27-.27h0l-.13-.15h0l-.17-.22L69,59.21l-.76-.81h0l-.13-.15-.56-.6-.14-.15-.12-.12h0l-.12-.13h0l-.13-.14h0L67,57h0l-.14-.14h0l-.26-.28-.16-.21,0,0-.1-.1-.15-.16L66,55.94l-.13-.15-.92-1-.27-.29-.12-.13h0l-.13-.13h0l-.13-.14h0l-.14-.14h0l-.39-.42v0l-.17-.22-.14-.16-1.17-1.28-.15-.16-.11-.12h0L62,51.47h0l-.12-.13h0l-.13-.14h0l-.14-.14h0l-.14-.15-.1-.11-.16-.15,0,0L59.71,49l-.14-.16-.11-.12-.14-.15-.12-.13h0l-.13-.14h0l-.13-.14h0L58.81,48h0L57.1,46.26c-.87-.63-1.63-.21-2.38.26l-.12.08h0L52,48a.08.08,0,0,0-.1,0l-2.24,1.16-.24.13h0l-.16.1h0l-2,1.05a.08.08,0,0,0-.09,0l-.18.1a.08.08,0,0,0-.08,0l-.17.11a.09.09,0,0,0-.09,0l-1.2.63-.52.26L44,52.1l-2.1.15a.05.05,0,0,0-.08,0l-.18-.09a.14.14,0,0,0-.12,0L41.34,52a.07.07,0,0,0-.09,0l-.17-.13h0L41,51.72h0l-.13-.13h0l-.13-.17a.09.09,0,0,0,0-.1l-.09-.13h0l-.13-.27h0c0-.74,0-1.48,0-2.23a.13.13,0,0,0,0-.12l1.17-1.45h0l.15-.13h0l.38-.28h0l.15-.12.25-.17.12-.1h0l.15-.12h0l.38-.28h0l.15-.13.25-.17.13-.1h0l.14-.11.39-.28,1-.78.39-.27.14-.12,1.83-1.32h0l.93-.65h0l.4-.27h0l.17-.12s.07,0,.08,0l2.27-1.53a.1.1,0,0,0,.1-.05l.15-.1h0l2.75-1.59Z"/><path class="cls-2" d="M80.85,35.73l.25.37.15.27h0l.13.27h0l.14.26h0l.13.26h0l1.83,3.55,1,2,2.1,4.06.26.52.41.78,1.44,2.77h0l.27.52h0l.13.26.14.26.26.52h0l.13.25h0l.1.2.16.32c.43.94.7,1.85-.31,2.61a.1.1,0,0,0-.1,0l-.16.1-.76.4L86,57.64a1.51,1.51,0,0,1-2.15-.87c-.1-.2-.23-.39-.34-.59l-.2-.4-1.37-2.62-1.18-2.25a.11.11,0,0,0,0-.11l-.1-.16a.13.13,0,0,0,0-.1l-1.38-2.63L78.2,46l-.36-.67L76.5,42.67l-1-2h0l-.1-.19a.08.08,0,0,0,0-.07l-.1-.18a.07.07,0,0,0,0-.08l-.1-.16h0l-.55-1.81,0,0,0,0,.09-.19a.1.1,0,0,0,0-.1l.13-.17.12-.13.14-.13.13-.11.18-.13a.07.07,0,0,0,.08,0l2.63-1.41c.25-.11.51-.21.76-.33a1.57,1.57,0,0,1,1.85.19h0Z"/><path class="cls-2" d="M51.06,80l-.27-.41a2.81,2.81,0,0,1,.15-2.6l.9-1.23,1.46-1.55L54.75,73a2.38,2.38,0,0,1,2.34.39l.65.79a2.43,2.43,0,0,1,0,2.62L57.1,78l-1.31,1.45h0l-.14.13h0l-.13.13h0l-.13.13h0l-.13.13h0l-.14.13h0l-.13.13h0l-.14.13h0l-.38.28h0a2.85,2.85,0,0,1-2.35.23h0l-.26-.14h0l-.15-.13h0l-.15-.12h0l-.13-.13h0l-.12-.13h0l-.12-.14h0Z"/><path class="cls-2" d="M62.23,79a5.76,5.76,0,0,1-3,.34c-.23,0-.47,0-.71,0a1.93,1.93,0,0,1,.93-1.73,3.49,3.49,0,0,0,1,0,9.28,9.28,0,0,0,1.28-.6l.12-.15.12-.15h0l.29-.51h0a2.26,2.26,0,0,0,.3-1.89c-.11-.25-.21-.51-.31-.76h0L62,73.12h0L61.83,73h0l-.14-.15h0l-.17-.23-.13-.15-.12-.14h0l-.13-.15h0l-.29-.36,0,0-.1-.12-.13-.15-.92-1-.13-.14-.12-.13-.41-.51-.13-.14-.13-.13-.13-.13-.12-.14-.4-.41-.91-1c0-.47,0-.94,0-1.41s.21-.46.53-.41h0l.67.24.22.15,1.09,1.18h0l.14.14h0l.14.14h0l.42.48.14.16.12.13h0l.13.12h0l.12.14h0l.13.14h0l1.32,1.45h0l.42.49,0,0,.11.12.13.14.13.14h0l.13.14h0l.13.14h0l.12.16,1.33,1.41c1.09.87,1.93,1,2.76.27a2.12,2.12,0,0,0,1.07-1.7,5.27,5.27,0,0,0,0-1.19c-.31-1.37-1.39-2.2-2.27-3.16l-.13-.14-.12-.14L66,66.94l-.12-.14-.13-.14-.8-.9a.86.86,0,0,1-.13-.14l-1.32-1.44-.12-.13-.12-.15-.13-.13-.12-.12a1.8,1.8,0,0,1-.28-2.11,1.69,1.69,0,0,1,1.73.77,3.27,3.27,0,0,0,.47.44l.13.14.13.13.13.14.53.65.12.13.14.13h0l.13.14h0l.14.15h0l.14.16.18.22.1.1L67,65l.12.13h0l.12.14h0l.13.14h0l.13.14h0l.14.15h0l.29.36.14.15.12.13h0l.12.15h0l.13.14h0l.14.14h0l.29.35,0,0,.1.11.13.16.12.13h0l.13.14h0l.13.15h0l.14.14h0l.29.35,0,0,.1.14.13.13.14.12.13.14.13.13.13.13.14.13h0l.12.1a1.82,1.82,0,0,0,2,.57l1.29-.93h0l.1-.12,1.23-1.43.9-.58v2.14l-.92,1.56-1.83,1.06-.26,0c-.67,0-1.34,0-2,.1a1.06,1.06,0,0,0-.63.32,8.78,8.78,0,0,0-.68,1.1h0l-.12.16-.52.77-.13.15-.28.37-.12.14-.13.14-.13.13-.14.13-.14.12a3.87,3.87,0,0,1-3,.42.12.12,0,0,0-.1,0l-.8-.3L64,76.78h0l-.1.15-.16.39h0l-.41.65h0l-.13.14h0l-.13.14h0l-.13.13h0l-.13.13h0l-.15.12-.13.11Z"/><path class="cls-2" d="M45.17,77.17,45,77.05l-.14-.13-.12-.13c-1.11-1.78-1-3.09.56-4.58.21-.21.41-.44.62-.66l.67-.61,2.22-2,.4-.37,2.35-1.62h.78l0,0h.05l.68.27h0l.4.27h0l.15.13h0l.14.14h0l.14.14h0l.27.39.12.27.27,1.81a9.77,9.77,0,0,1-2.24,2.87c-1.49,1.31-3,2.65-4.44,4h0l-.29.25a.22.22,0,0,0-.11,0l-.78.14-1.16-.18Z"/><path class="cls-2" d="M33.33,66l0,0v0a4.67,4.67,0,0,1,1.82-2.18l.4-.23h0l.42-.26a.13.13,0,0,0,.1,0l.14-.1.51,0,.26,0,1.31.53h0l.15.12h0l.14.12h0l.13.13h0l.12.15h0l.13.15h0l.4.92v1.3a.06.06,0,0,0,0,.07l-.23.59a.08.08,0,0,0,0,.07l-.38.57h0l-.13.13-1,.94-1.21.64-1.3,0h0l-.53-.26h0l-.15-.12h0l-.13-.12-.15-.14-.37-.41h0l-.39-.93h0Z"/><path class="cls-2" d="M43.83,72.07a3.65,3.65,0,0,1-2.49,1.08,3,3,0,0,1-2-1.6c0-.78-.07-1.55-.11-2.32l.09-.18,0-.12h0l.26-.4h0l.13-.14h0L41.21,67l.13-.12.54-.52h0l.14-.14h0l.63-.55h0l.14-.12.13-.12.14-.13h0l.79-.66h0l.14-.13h0l1.17-.72c1.91-.31,2.88.3,3.41,2.18a2.13,2.13,0,0,0,.14.35l-1.32,2.5-.92.91L44.6,71.39Z"/><line class="cls-3" x1="19" y1="22" x2="82" y2="84"/><rect class="cls-2" x="46" y="8.8" width="9" height="88.39" transform="translate(-22.7 51.82) rotate(-45.46)"/></svg>