<svg id="Layer_1" data-name="Layer 1" xmlns="http://www.w3.org/2000/svg" viewBox="0 0 110 109"><defs><style>.cls-1{fill:#60bdb1;}.cls-2{fill:#f2f2f2;}</style></defs><title>tracking</title><rect class="cls-1" x="1" width="109" height="109" rx="22.23"/><path class="cls-2" d="M75,83.15a2.81,2.81,0,0,1-2.09-1l-10.4-11-6.15-6.47-11.39,12C43.28,78.5,41.63,80.23,40,82a3.2,3.2,0,0,1-3.62.92,8,8,0,0,1-4.93-5.1,3.05,3.05,0,0,1,.9-3.33q8.73-8.28,17.43-16.57L48.6,56.57l-6.43-6.8-.44-.47A10.2,10.2,0,0,1,31.8,48a20.18,20.18,0,0,1-8.72-14.72A7.48,7.48,0,0,1,25.9,26a8,8,0,0,1,5.57-1.55A17.61,17.61,0,0,1,39,26.72a19.3,19.3,0,0,1,7.22,6c2.46,3.57,3,7.17,1.53,10.74,1.36,1.26,3.15,2.87,4.89,4.44,1.37,1.24,2.75,2.48,3.94,3.57l8.56-8.14c-1.42-3.31-1-6.75,1.3-10.23a10.81,10.81,0,0,1,1.41-1.73c.61-.61,1.22-1.23,1.82-1.85a52.84,52.84,0,0,1,6.56-6,8.44,8.44,0,0,1,2.6-1.22,4.38,4.38,0,0,1,3.87,1l1.34,1-1.3,1.43-.34.38-4.92,5.14,7.25-6.2,3.48,3.76L87.26,30c-.09.1-.19.24-.3.37L82.18,36,87.32,31l.5-.47,1.58-1.46,2.1,4.13V35l-.07.22a14.26,14.26,0,0,1-3.55,5.35c-1.79,1.91-3.71,3.95-5.78,5.87a10.91,10.91,0,0,1-8.52,3.16,11.63,11.63,0,0,1-2.43-.51L62.87,57.8c.64.68,1.17,1.24,1.27,1.33l3.69,3.52Q74,68.56,80.26,74.46a3,3,0,0,1,.91,3.41A7.73,7.73,0,0,1,75.74,83,2.74,2.74,0,0,1,75,83.15ZM42,46.09a2,2,0,0,1,1.51.74l.83.88,6.43,6.8c.16.17,1.53,1.72,2.22,2.51l.94,1.08-1,1q-9.23,8.79-18.47,17.56a.72.72,0,0,0-.15.17,4.93,4.93,0,0,0,3.15,3.27A.24.24,0,0,0,37.8,80c1.63-1.77,3.29-3.51,5-5.25L56.27,60.41l3.19,3.26,5.18,5.48q5.19,5.49,10.39,11a4.89,4.89,0,0,0,3.32-3.26s0-.1-.15-.24L65.76,64.82l-3.71-3.53-1.82-1.9-1.5-1.58L69.27,46.67a2.16,2.16,0,0,1,2.42-.6,9.59,9.59,0,0,0,2.12.5,8.08,8.08,0,0,0,6.25-2.37c2-1.85,3.87-3.84,5.62-5.72a12,12,0,0,0,2.82-4V34l-7.83,7.52a5.94,5.94,0,0,1-.74.63A2.52,2.52,0,0,1,76.78,42a2.69,2.69,0,0,1-1-1.86,3,3,0,0,1,.86-2.24l6-7.1L78.91,34c-1.17,1-2.33,2-3.51,3a2.58,2.58,0,0,1-3.78-.13,2.68,2.68,0,0,1,.16-4l7-7.35A4.84,4.84,0,0,0,78,26a50.28,50.28,0,0,0-6.18,5.66l-1.86,1.88a7.84,7.84,0,0,0-1,1.26c-1.84,2.79-2.11,5.28-.86,7.81a2.06,2.06,0,0,1-.54,2.61L56.57,55.6l-1-1c-1.38-1.28-3.17-2.89-4.95-4.49-2.11-1.9-4.29-3.86-5.73-5.23l-.81-.78.51-1c1.5-2.92,1.23-5.69-.85-8.7a16.29,16.29,0,0,0-6.15-5.07,14.72,14.72,0,0,0-6.23-1.89,5.08,5.08,0,0,0-3.59.91,4.54,4.54,0,0,0-1.69,4.51A17.27,17.27,0,0,0,33.5,45.53a7.28,7.28,0,0,0,7.61.78A2.1,2.1,0,0,1,42,46.09Zm23.36-2.16Zm8-9.17Z"/></svg>