<svg id="Layer_1" data-name="Layer 1" xmlns="http://www.w3.org/2000/svg" viewBox="0 0 434.26 600.47"><defs><style>.cls-1{fill:#d2d3ce;}.cls-2{fill:#9e9c9b;}.cls-3{opacity:0.48;}.cls-4{fill:#ffda73;}.cls-5{opacity:0.51;}</style></defs><title>payment</title><path class="cls-1" d="M356.12,407.27a3.43,3.43,0,0,1,1.61-.57c1.9,0,2.32,2.33,1.91,3.94-3.32,13.24-14.82,24.38-16.18,37.91,10.53-11.93,20.36-26.62,24.37-41.4,1.11-4.09,2.79-12.36-1.45-15.6-4.41-3.37-12,4.93-14.9,7.1a133.62,133.62,0,0,0-14.66,12.93c-.48.5-1,1.09-.84,1.72s1,1.06,1.68,1.42a12.84,12.84,0,0,1,5.06,5C346.39,414.86,350.3,410.64,356.12,407.27Z"/><path class="cls-1" d="M80,405.58a3.76,3.76,0,0,0-1.73-.64c-2-.06-2.41,2.44-2,4.13,2.4,8.86,7.12,17.15,12.26,25.06,5,7.73,11.3,15.06,14.82,23.41.26.62.45,1.42-.14,1.82a1.9,1.9,0,0,1-1.23.16,13.35,13.35,0,0,1-6.16-3c-14.87-11.13-25.42-26.49-29.53-43a124.43,124.43,0,0,1-2.73-18.06,8.1,8.1,0,0,1,.45-4.63c1.86-3.55,8.59-3.05,11.8-1.27,3.4,1.9,5.88,4.7,8.9,7a147.78,147.78,0,0,1,15.87,13.86c.52.53,1.07,1.16.92,1.83s-1,1.1-1.75,1.46a13,13,0,0,0-5.28,5.23C90.5,413.72,86.25,409.21,80,405.58Z"/><path class="cls-1" d="M348.19,431.61c6.58,30.91-50.75,109.11-131.8,107.1C140.11,541.57,93.05,474.32,91.62,443S153,403.67,217.55,402.25,342.33,404.06,348.19,431.61Z"/><path class="cls-2" d="M335.16,464a251.31,251.31,0,0,1-53.88,30.76c-21,8.87-43.43,16.13-66.72,18.92a254.39,254.39,0,0,1-69.76-1.57c-4.08-.64-8.11-1.44-12.08-2.43,21,17.43,49.37,30.31,83.67,29C280,540.28,329,492.44,344,456.83Q339.71,460.55,335.16,464Z"/><path class="cls-2" d="M114.46,462.83c4.31,6.58,8.82,13.15,14.84,18.48a48.2,48.2,0,0,0,10,6.84,55.08,55.08,0,0,0,5.65,2.51c2,.73,4,1.38,6,2a113.58,113.58,0,0,0,25.19,3.95,200,200,0,0,0,25.78-.44c8.61-.58,17.17-1.56,25.66-2.87,2.13-.29,4.24-.66,6.36-1,1.06-.19,2.12-.35,3.17-.55l3.16-.62,3.15-.61,3.14-.69,3.14-.66c1-.23,2.09-.49,3.13-.73a339.86,339.86,0,0,0,48.64-15.51,233,233,0,0,1-47.54,18.6l-3.13.86-3.15.79-3.16.77-3.19.7-3.19.69c-1.06.23-2.13.42-3.2.64-2.14.41-4.28.84-6.44,1.18-8.61,1.45-17.33,2.48-26.09,3.14a193.56,193.56,0,0,1-26.5.21,130.86,130.86,0,0,1-13.23-1.61,91.4,91.4,0,0,1-12.9-3.2c-2.1-.69-4.16-1.45-6.19-2.3a50.47,50.47,0,0,1-5.89-2.93,48.92,48.92,0,0,1-10.07-7.77,58.92,58.92,0,0,1-7.47-9.54A98.38,98.38,0,0,1,114.46,462.83Z"/><ellipse class="cls-1" cx="219.74" cy="426.9" rx="124.9" ry="32.06"/><ellipse class="cls-2" cx="222.33" cy="434.58" rx="113.49" ry="27.08"/><g class="cls-3"><path class="cls-4" d="M156.7,371.45c-15.29-6.23-28.43-18.65-36.7-33.68a112.77,112.77,0,0,1-9.86-23.71c-.55-2.06-1.19-4.11-1.66-6.19s-1-4.16-1.37-6.26-.81-4.19-1.12-6.29l-.5-3.16-.38-3.17a225.15,225.15,0,0,1,.07-50.65c.86-8.37,2.2-16.72,3.8-24.94.8-4.08,1.67-8.15,2.58-12.18s1.82-8,2.74-12c1.9-8,3.86-15.87,5.63-23.72,1-3.93,1.77-7.84,2.65-11.75.42-2,.77-3.91,1.16-5.86s.8-3.91,1.12-5.86l1-5.85c.32-1.95.56-3.89.84-5.84l.41-2.93c.14-1,.2-1.94.31-2.91l.62-5.85c.15-1.94.23-3.88.35-5.83l.17-2.92c0-1,0-1.94,0-2.91l.06-5.83-.28-5.8-.15-2.91-.31-2.88-.63-5.79-1-5.72-.5-2.88c-.18-1-.43-1.84-.64-2.76a90.25,90.25,0,0,0-8.46-21.44c-.89-1.75-1.92-3.44-2.9-5.17s-2.06-3.4-3.17-5.07c-2.14-3.39-4.52-6.66-6.87-10-4.79-6.56-9.86-13-14.85-19.58,6.46,5.11,12.81,10.36,18.83,16.08a143.33,143.33,0,0,1,16.84,18.7c1.27,1.71,2.5,3.46,3.65,5.28s2.26,3.66,3.36,5.53a83.87,83.87,0,0,1,5.49,11.93c.37,1,.79,2.08,1.12,3.11l.9,3.09c.58,2.07,1.19,4.14,1.76,6.22l1.33,6.32c.22,1,.46,2.11.65,3.17l.43,3.19c.28,2.14.58,4.27.83,6.41l.47,6.43c.07,1.07.16,2.15.19,3.22l0,3.21c0,2.14,0,4.28,0,6.42-.2,4.25-.23,8.55-.72,12.75-.2,2.11-.36,4.23-.61,6.33l-.8,6.28c-.25,2.1-.59,4.17-.94,6.23s-.68,4.15-1.06,6.2c-.79,4.09-1.53,8.21-2.41,12.25-1.72,8.12-3.62,16.1-5.47,24.06s-3.78,15.79-5.45,23.62c-.9,3.92-1.65,7.78-2.38,11.69s-1.35,7.81-1.94,11.73c-1.18,7.84-2,15.72-2.6,23.6l-.33,5.92c0,2-.15,3.94-.18,5.91-.09,3.94-.1,7.88.06,11.8l.11,2.95.17,2.94c.09,2,.28,3.91.46,5.86.36,3.91.93,7.77,1.54,11.64a118.13,118.13,0,0,0,6.15,22.55c.64,1.85,1.48,3.6,2.26,5.4s1.76,3.49,2.61,5.27l1.47,2.54c.51.85,1,1.73,1.53,2.53,1.12,1.61,2.13,3.34,3.37,4.88A84.39,84.39,0,0,0,156.7,371.45Z"/></g><g class="cls-5"><path class="cls-4" d="M325.08,380.6c-.1-5.14-.46-10.22-1-15.24s-1.3-9.95-2.12-14.84c-1.63-9.79-3.76-19.16-5.82-28.6s-4.5-18.79-6.9-28.15c-1.23-4.67-2.52-9.33-3.82-14s-2.68-9.29-4.06-13.91c-5.54-18.43-11.47-36.18-15.48-53.95a269.93,269.93,0,0,1-4.77-26.82c-.29-2.25-.5-4.5-.73-6.76s-.38-4.51-.51-6.76c-.35-4.52-.43-9-.47-13.56a170.38,170.38,0,0,1,8.28-53.56,145.77,145.77,0,0,1,27.1-48.86c-2,1.36-4.09,2.63-6,4.14L305.9,62l-2.8,2.36c-1.9,1.56-3.61,3.31-5.42,5-.88.86-1.72,1.77-2.57,2.66s-1.71,1.79-2.5,2.73l-2.44,2.8c-.81.94-1.55,1.94-2.32,2.91-1.57,1.93-3,4-4.45,6a139.48,139.48,0,0,0-7.81,12.79,147.31,147.31,0,0,0-6.43,13.62c-.93,2.34-1.88,4.68-2.67,7.08-.4,1.19-.84,2.38-1.22,3.59l-1.11,3.62c-.38,1.21-.71,2.43-1,3.65s-.67,2.44-1,3.67c-.53,2.46-1.15,4.92-1.59,7.41l-.71,3.73-.59,3.74c-.44,2.5-.66,5-1,7.52a199.57,199.57,0,0,0-.82,30.23A230,230,0,0,0,260.86,217c3.52,19.76,9.19,38.52,14.66,56.68l4.06,13.6,4,13.62c2.69,9.06,5.2,18.18,7.76,27.3s5.05,18.29,7.36,27.21q1.68,6.71,3,13.37c.92,4.43,1.68,8.85,2.2,13.25a111.82,111.82,0,0,1,.42,26.22l-.4,3.26c-.11,1.09-.37,2.16-.55,3.24s-.36,2.18-.62,3.25l-.76,3.23-.37,1.62-.47,1.6-.93,3.22c-.73,2.1-1.45,4.23-2.26,6.33s-1.63,4.21-2.65,6.23l-1.45,3.09-1.6,3c-1,2.06-2.27,4-3.43,6-.57,1-1.27,1.91-1.89,2.89l-.08.12a93.56,93.56,0,0,1,10.84.76,109,109,0,0,0,12.13-16.13,104.34,104.34,0,0,0,11.93-28.41c.37-1.26.63-2.54.89-3.82l.78-3.85c.41-2.58.78-5.16,1-7.75A125.56,125.56,0,0,0,325.08,380.6Z"/></g></svg>