<svg id="Layer_1" data-name="Layer 1" xmlns="http://www.w3.org/2000/svg" xmlns:xlink="http://www.w3.org/1999/xlink" viewBox="0 0 270.69 283.49"><defs><style>.cls-1{fill:#ffc974;}.cls-2{fill:#159c8c;}.cls-3{fill:#80d5cb;}.cls-4{fill:#ffda73;}.cls-5{fill:#e4b021;}.cls-6{fill:#fff34d;}.cls-7{clip-path:url(#clip-path);}.cls-8{fill:#e99e2e;}.cls-9{clip-path:url(#clip-path-2);}.cls-10{clip-path:url(#clip-path-3);}.cls-11{clip-path:url(#clip-path-4);}.cls-12{clip-path:url(#clip-path-5);}.cls-13{fill:#e0a224;}</style><clipPath id="clip-path"><path id="SVGID" class="cls-1" d="M16,274.29a3.53,3.53,0,0,1,0-7l38.46.12a3.53,3.53,0,0,1,0,7Z"/></clipPath><clipPath id="clip-path-2"><path id="SVGID-2" data-name="SVGID" class="cls-1" d="M15.94,265.58a3.54,3.54,0,0,1,0-7l38.46.12a3.53,3.53,0,0,1,0,7Z"/></clipPath><clipPath id="clip-path-3"><path id="SVGID-3" data-name="SVGID" class="cls-1" d="M14.75,256a3.53,3.53,0,0,1,0-7l38.46.11a3.54,3.54,0,0,1,0,7Z"/></clipPath><clipPath id="clip-path-4"><path id="SVGID-4" data-name="SVGID" class="cls-1" d="M15.9,247a3.54,3.54,0,0,1,0-7l38.46.12a3.53,3.53,0,0,1,0,7Z"/></clipPath><clipPath id="clip-path-5"><path id="SVGID-5" data-name="SVGID" class="cls-1" d="M14.72,237.64a3.53,3.53,0,0,1,0-7l38.46.12a3.53,3.53,0,0,1,0,7Z"/></clipPath></defs><title>Artboard 38</title><polyline class="cls-2" points="193.3 86.56 210.72 82.79 228.04 144.56 221.64 266.28 198.56 280.1 62.25 266.74 64.13 137.45 81.52 92.64 124.72 131.03 178.4 123.19 203.36 92.64"/><path class="cls-3" d="M64,132.08c6.78,10,15.16,14.56,24.53,16.47a121.68,121.68,0,0,0,13,1.77c12.46,1.2,24.91,3,37.39,3.21,18.4.38,36.06-3.94,51.79-17.1a45.64,45.64,0,0,1,4.82-2.92c-1.48,6.74-2.78,12.1-3.83,17.54-1.4,7.14-3.65,14.33-3.73,21.53-.39,34.56-.17,69.14-.17,103.72v7.19c-4.17-.36-7.87-.55-11.56-1-16.15-2.1-32.31-4.39-48.47-6.41-13.59-1.7-27.18-3.08-40.77-4.67-9.11-1.07-18.22-2.1-27.29-3.59-1.22-.2-3.13-2.93-3.13-4.5-.18-35.86-.35-71.74.1-107.6.08-5.76,3.15-11.49,4.91-17.19.56-1.83,1.34-3.55,2.44-6.42"/><path class="cls-3" d="M212.88,93.68c2.34,7.09,4.42,13.32,6.46,19.57,3.37,10.35,6.78,20.68,10,31.09,1,3.16,2.12,6.55,2.13,9.85.15,35.3,0,70.59.21,105.89,0,4.93-2.18,5.61-4.8,6.81-10.33,4.71-20.64,9.52-31,14.25-.37.17-.83,0-2,0v-6.44c0-32-.14-63.94.12-95.91A112.42,112.42,0,0,1,196.58,158c1.95-9.76,4.58-19.31,6.92-28.95s4.64-19.29,7-28.91c.46-1.86,1.28-3.57,2.34-6.43"/><path class="cls-3" d="M208.1,83.84c-1.75,7.26-3.39,13.69-4.84,20.19-2.55,11.47-7.17,21.26-15.41,27.25-6.59,4.78-13.46,9.28-20.63,12.34-16.68,7.12-33.84,4.85-50.94,2.61-8.37-1.1-16.81-1.4-25.18-2.45a29.65,29.65,0,0,1-19.82-11.24c-3.24-4-4.22-11.45-2.51-16.65,3-9,5.89-18.08,8.33-27.34C78,85,79.37,83.74,82,83.83c.88,0,1.75,0,2.63,0H208.1Zm-72.38,3.8c-3.16,0-6.32.11-9.51.12-9.21,0-20-.39-27.77,6.92a6.93,6.93,0,0,0-1.34,9.42,12.14,12.14,0,0,0,4.38,4c9.84,5.82,20.52,4.6,31,4.95a143.73,143.73,0,0,0,22.53-.67c3.52-.44,7.11-.69,10.55-1.79,3.89-1.25,11.41-5.67,10-12.46-.83-4.09-5.15-5.82-7.92-6.86-8.93-3.38-18.77-3.61-28-3.67-1.32,0-2.64,0-3.95,0"/><path class="cls-4" d="M56.31,29.46c3,16.7,3.55,17.24,19.7,20-5.2.88-10.77.91-14.74,5s-4.21,9.58-4.84,15c-1-5.2-.91-10.81-5-14.9s-9.52-4.3-14.87-5c5.23-1,10.8-1,14.81-5.07S55.56,34.76,56.31,29.46Z"/><path class="cls-4" d="M231.71,116c9.73-1.18,11.46-2.91,12.66-11.63,1,2.37,1.51,6,3.6,8.14s5.7,2.8,7.57,3.63c-1.74.75-5.42,1.35-7.5,3.5s-2.72,5.93-3.68,8.26C243.23,119.24,242.38,118.36,231.71,116Z"/><path class="cls-4" d="M32.86,225.39c14-1.69,16.49-4.19,18.22-16.74,1.4,3.41,2.18,8.64,5.17,11.72s8.22,4,10.91,5.22c-2.51,1.08-7.8,1.95-10.79,5s-3.92,8.53-5.31,11.89C49.44,230.05,48.21,228.79,32.86,225.39Z"/><path class="cls-4" d="M67.65,171.8c.57,5.82,3.79,8.59,9.49,9-5.74.37-9,3.17-9.14,8.86-1-2.2-1.52-4.77-3.07-6.23s-4.26-2-6.19-2.84C63.67,180.32,67.36,178,67.65,171.8Z"/><path class="cls-4" d="M22,250.83c5.06-.54,7.91-3,8.08-8.31.53,5.19,3.21,8,8.52,8.3-5.24.26-8,3-8.48,8.15C29.8,253.8,27.11,251.21,22,250.83Z"/><path class="cls-4" d="M263.45,162.86c-1.14-5.05-2.19-6.06-7.43-7.11,4.37-.45,7.05-2.55,7.35-7.31.48,4.42,2.8,6.85,7.32,7.35C266.16,156.12,264,158.62,263.45,162.86Z"/><path class="cls-4" d="M255.63,59.75c-1.13-5-2.18-6.06-7.42-7.11,4.37-.45,7-2.55,7.35-7.31.48,4.42,2.8,6.85,7.32,7.35C258.35,53,256.14,55.51,255.63,59.75Z"/><path class="cls-4" d="M7.43,14.42C6.29,9.38,5.24,8.36,0,7.31,4.37,6.86,7.05,4.76,7.35,0c.48,4.43,2.8,6.86,7.32,7.35C10.14,7.68,7.93,10.18,7.43,14.42Z"/><path class="cls-5" d="M59.27,272.46a3.36,3.36,0,0,1-3.37,3.33h0a3.35,3.35,0,0,1-3.34-3.35l0-3A3.35,3.35,0,0,1,56,266.08h0a3.34,3.34,0,0,1,3.34,3.35Z"/><path class="cls-5" d="M17.7,272.33a3.35,3.35,0,0,1-3.37,3.33h0A3.33,3.33,0,0,1,11,272.31l0-3A3.36,3.36,0,0,1,14.38,266h0a3.34,3.34,0,0,1,3.33,3.35Z"/><path class="cls-1" d="M58.93,270.94c0,2.68-1.71,4.85-3.79,4.85L15,275.67c-2.08,0-3.75-2.19-3.74-4.87h0c0-2.68,1.71-4.85,3.79-4.84l40.13.12c2.08,0,3.75,2.18,3.74,4.86Z"/><path class="cls-6" d="M58.06,270.94a3.92,3.92,0,0,1-3.63,4.14L16,275a3.89,3.89,0,0,1-3.58-4.16h0A3.92,3.92,0,0,1,16,266.66l38.46.12a3.89,3.89,0,0,1,3.58,4.16Z"/><path id="SVGID-6" data-name="SVGID" class="cls-1" d="M16,274.29a3.53,3.53,0,0,1,0-7l38.46.12a3.53,3.53,0,0,1,0,7Z"/><g class="cls-7"><polygon class="cls-8" points="14.1 274.45 13.09 274.44 13.13 267.1 14.13 267.1 14.1 274.45"/><polygon class="cls-8" points="17.19 274.45 16.19 274.45 16.23 267.11 17.23 267.11 17.19 274.45"/><polygon class="cls-8" points="20.29 274.46 19.28 274.46 19.32 267.12 20.33 267.12 20.29 274.46"/><rect class="cls-8" x="19.23" y="270.3" width="7.34" height="1.01" transform="translate(-247.96 292.98) rotate(-89.85)"/><polygon class="cls-8" points="26.49 274.48 25.48 274.48 25.52 267.14 26.52 267.14 26.49 274.48"/><polygon class="cls-8" points="29.58 274.49 28.58 274.49 28.62 267.15 29.62 267.15 29.58 274.49"/><polygon class="cls-8" points="32.68 274.5 31.67 274.5 31.71 267.15 32.72 267.16 32.68 274.5"/><rect class="cls-8" x="31.62" y="270.34" width="7.34" height="1.01" transform="translate(-235.66 305.24) rotate(-89.81)"/><polygon class="cls-8" points="38.87 274.52 37.87 274.52 37.91 267.18 38.91 267.18 38.87 274.52"/><polygon class="cls-8" points="41.97 274.53 40.97 274.53 41.01 267.18 42.01 267.19 41.97 274.53"/><polygon class="cls-8" points="45.07 274.54 44.06 274.54 44.1 267.19 45.11 267.2 45.07 274.54"/><polygon class="cls-8" points="48.17 274.55 47.16 274.55 47.2 267.2 48.21 267.21 48.17 274.55"/><polygon class="cls-8" points="51.26 274.56 50.26 274.56 50.3 267.21 51.3 267.21 51.26 274.56"/><polygon class="cls-8" points="54.36 274.57 53.35 274.57 53.39 267.22 54.4 267.22 54.36 274.57"/><polygon class="cls-8" points="57.46 274.58 56.45 274.57 56.49 267.23 57.5 267.23 57.46 274.58"/></g><path class="cls-5" d="M59.23,263.74a3.35,3.35,0,0,1-3.37,3.33h0a3.33,3.33,0,0,1-3.33-3.35v-3a3.36,3.36,0,0,1,3.37-3.33h0a3.35,3.35,0,0,1,3.34,3.35Z"/><path class="cls-5" d="M17.66,263.62A3.36,3.36,0,0,1,14.29,267h0A3.35,3.35,0,0,1,11,263.6l0-3a3.35,3.35,0,0,1,3.37-3.32h0a3.32,3.32,0,0,1,3.33,3.34Z"/><path class="cls-1" d="M58.89,262.23c0,2.68-1.71,4.85-3.79,4.84L15,267c-2.08,0-3.75-2.19-3.74-4.87h0c0-2.68,1.71-4.85,3.79-4.84l40.13.12c2.08,0,3.76,2.19,3.74,4.87Z"/><path class="cls-6" d="M58,262.22a3.91,3.91,0,0,1-3.63,4.14l-38.46-.12a3.89,3.89,0,0,1-3.58-4.16h0A3.91,3.91,0,0,1,16,258l38.46.11A3.89,3.89,0,0,1,58,262.22Z"/><path id="SVGID-7" data-name="SVGID" class="cls-1" d="M15.94,265.58a3.54,3.54,0,0,1,0-7l38.46.12a3.53,3.53,0,0,1,0,7Z"/><g class="cls-9"><polygon class="cls-8" points="14.06 265.73 13.05 265.73 13.09 258.38 14.1 258.38 14.06 265.73"/><polygon class="cls-8" points="17.16 265.74 16.15 265.74 16.19 258.39 17.19 258.39 17.16 265.74"/><polygon class="cls-8" points="20.25 265.75 19.25 265.74 19.29 258.4 20.29 258.4 20.25 265.75"/><rect class="cls-8" x="19.19" y="261.58" width="7.34" height="1.01" transform="translate(-239.28 284.25) rotate(-89.85)"/><polygon class="cls-8" points="26.45 265.77 25.44 265.76 25.48 258.42 26.48 258.42 26.45 265.77"/><polygon class="cls-8" points="29.54 265.77 28.54 265.77 28.58 258.43 29.58 258.43 29.54 265.77"/><polygon class="cls-8" points="32.64 265.79 31.64 265.78 31.68 258.44 32.68 258.44 32.64 265.79"/><rect class="cls-8" x="31.58" y="261.62" width="7.34" height="1.01" transform="translate(-226.98 296.51) rotate(-89.81)"/><polygon class="cls-8" points="38.84 265.8 37.83 265.8 37.87 258.46 38.88 258.46 38.84 265.8"/><polygon class="cls-8" points="41.93 265.81 40.93 265.81 40.97 258.47 41.97 258.47 41.93 265.81"/><polygon class="cls-8" points="45.03 265.82 44.02 265.82 44.06 258.48 45.07 258.48 45.03 265.82"/><polygon class="cls-8" points="48.13 265.83 47.12 265.83 47.16 258.49 48.17 258.49 48.13 265.83"/><polygon class="cls-8" points="51.23 265.84 50.22 265.84 50.26 258.49 51.26 258.5 51.23 265.84"/><polygon class="cls-8" points="54.32 265.85 53.32 265.85 53.35 258.5 54.36 258.51 54.32 265.85"/><polygon class="cls-8" points="57.42 265.86 56.41 265.86 56.45 258.51 57.46 258.52 57.42 265.86"/></g><path class="cls-5" d="M58.05,254.14a3.35,3.35,0,0,1-3.37,3.32h0a3.33,3.33,0,0,1-3.34-3.34l0-3a3.36,3.36,0,0,1,3.37-3.33h0a3.34,3.34,0,0,1,3.33,3.35Z"/><path class="cls-5" d="M16.47,254a3.35,3.35,0,0,1-3.37,3.33h0A3.34,3.34,0,0,1,9.77,254l0-3a3.34,3.34,0,0,1,3.37-3.33h0A3.33,3.33,0,0,1,16.49,251Z"/><path class="cls-1" d="M57.71,252.62c0,2.68-1.71,4.85-3.79,4.84l-40.13-.12c-2.08,0-3.76-2.19-3.74-4.87h0c0-2.68,1.71-4.85,3.79-4.84l40.13.12c2.08,0,3.75,2.19,3.74,4.87Z"/><path class="cls-6" d="M56.84,252.62a3.91,3.91,0,0,1-3.63,4.13l-38.46-.11a3.91,3.91,0,0,1-3.59-4.16h0a3.92,3.92,0,0,1,3.63-4.14l38.47.12a3.89,3.89,0,0,1,3.58,4.16Z"/><path id="SVGID-8" data-name="SVGID" class="cls-1" d="M14.75,256a3.53,3.53,0,0,1,0-7l38.46.11a3.54,3.54,0,0,1,0,7Z"/><g class="cls-10"><polygon class="cls-8" points="12.87 256.12 11.87 256.12 11.91 248.77 12.91 248.78 12.87 256.12"/><polygon class="cls-8" points="15.97 256.13 14.96 256.13 15.01 248.78 16.01 248.79 15.97 256.13"/><polygon class="cls-8" points="19.07 256.14 18.06 256.14 18.1 248.79 19.11 248.8 19.07 256.14"/><rect class="cls-8" x="18.01" y="251.97" width="7.34" height="1.01" transform="translate(-230.85 273.48) rotate(-89.85)"/><polygon class="cls-8" points="25.26 256.16 24.26 256.15 24.3 248.81 25.3 248.81 25.26 256.16"/><polygon class="cls-8" points="28.36 256.17 27.35 256.17 27.39 248.82 28.4 248.82 28.36 256.17"/><polygon class="cls-8" points="31.46 256.18 30.45 256.17 30.49 248.83 31.5 248.83 31.46 256.18"/><rect class="cls-8" x="30.4" y="252.01" width="7.34" height="1.01" transform="translate(-218.55 285.75) rotate(-89.81)"/><polygon class="cls-8" points="37.65 256.2 36.65 256.19 36.69 248.85 37.69 248.85 37.65 256.2"/><polygon class="cls-8" points="40.75 256.21 39.74 256.2 39.78 248.86 40.79 248.86 40.75 256.21"/><polygon class="cls-8" points="43.85 256.21 42.84 256.21 42.88 248.87 43.89 248.87 43.85 256.21"/><polygon class="cls-8" points="46.94 256.22 45.94 256.22 45.98 248.88 46.98 248.88 46.94 256.22"/><polygon class="cls-8" points="50.04 256.23 49.04 256.23 49.07 248.89 50.08 248.89 50.04 256.23"/><polygon class="cls-8" points="53.14 256.24 52.13 256.24 52.17 248.9 53.18 248.9 53.14 256.24"/><polygon class="cls-8" points="56.23 256.25 55.23 256.25 55.27 248.91 56.27 248.91 56.23 256.25"/></g><path class="cls-5" d="M59.19,245.18a3.35,3.35,0,0,1-3.37,3.33h0a3.33,3.33,0,0,1-3.33-3.35v-3a3.36,3.36,0,0,1,3.37-3.33h0a3.34,3.34,0,0,1,3.34,3.35Z"/><path class="cls-5" d="M17.62,245.06a3.36,3.36,0,0,1-3.37,3.33h0A3.35,3.35,0,0,1,10.91,245l0-3a3.35,3.35,0,0,1,3.37-3.32h0A3.33,3.33,0,0,1,17.64,242Z"/><path class="cls-1" d="M58.85,243.67c0,2.68-1.71,4.85-3.79,4.84l-40.13-.12c-2.08,0-3.75-2.19-3.74-4.87h0c0-2.68,1.71-4.85,3.79-4.84l40.13.12c2.08,0,3.76,2.18,3.74,4.87Z"/><path class="cls-6" d="M58,243.66a3.92,3.92,0,0,1-3.63,4.14l-38.46-.12a3.89,3.89,0,0,1-3.59-4.16h0a3.91,3.91,0,0,1,3.63-4.13l38.46.11A3.91,3.91,0,0,1,58,243.66Z"/><path id="SVGID-9" data-name="SVGID" class="cls-1" d="M15.9,247a3.54,3.54,0,0,1,0-7l38.46.12a3.53,3.53,0,0,1,0,7Z"/><g class="cls-11"><polygon class="cls-8" points="14.02 247.17 13.01 247.16 13.05 239.82 14.06 239.82 14.02 247.17"/><polygon class="cls-8" points="17.12 247.18 16.11 247.17 16.15 239.83 17.16 239.83 17.12 247.18"/><polygon class="cls-8" points="20.21 247.19 19.21 247.18 19.25 239.84 20.25 239.84 20.21 247.19"/><rect class="cls-8" x="19.16" y="243.02" width="7.34" height="1.01" transform="translate(-220.76 265.7) rotate(-89.85)"/><polygon class="cls-8" points="26.41 247.21 25.4 247.2 25.44 239.86 26.45 239.86 26.41 247.21"/><polygon class="cls-8" points="29.5 247.22 28.5 247.21 28.54 239.87 29.54 239.87 29.5 247.22"/><polygon class="cls-8" points="32.6 247.22 31.6 247.22 31.64 239.88 32.64 239.88 32.6 247.22"/><rect class="cls-8" x="31.54" y="243.06" width="7.34" height="1.01" transform="matrix(0, -1, 1, 0, -208.46, 277.97)"/><polygon class="cls-8" points="38.8 247.24 37.79 247.24 37.83 239.9 38.84 239.9 38.8 247.24"/><polygon class="cls-8" points="41.89 247.25 40.89 247.25 40.93 239.91 41.93 239.91 41.89 247.25"/><polygon class="cls-8" points="44.99 247.26 43.99 247.26 44.02 239.91 45.03 239.92 44.99 247.26"/><polygon class="cls-8" points="48.09 247.27 47.08 247.27 47.12 239.92 48.13 239.93 48.09 247.27"/><polygon class="cls-8" points="51.19 247.28 50.18 247.28 50.22 239.93 51.23 239.94 51.19 247.28"/><polygon class="cls-8" points="54.28 247.29 53.28 247.29 53.31 239.94 54.32 239.95 54.28 247.29"/><polygon class="cls-8" points="57.38 247.3 56.38 247.3 56.41 239.95 57.42 239.96 57.38 247.3"/></g><path class="cls-5" d="M58,235.81a3.36,3.36,0,0,1-3.37,3.33h0a3.35,3.35,0,0,1-3.34-3.35l0-3a3.35,3.35,0,0,1,3.37-3.33h0A3.33,3.33,0,0,1,58,232.78Z"/><path class="cls-5" d="M16.44,235.68A3.35,3.35,0,0,1,13.07,239h0a3.33,3.33,0,0,1-3.34-3.35l0-3a3.36,3.36,0,0,1,3.37-3.33h0a3.34,3.34,0,0,1,3.33,3.35Z"/><path class="cls-1" d="M57.67,234.29c0,2.68-1.71,4.85-3.79,4.85L13.75,239c-2.08,0-3.75-2.19-3.74-4.87h0c0-2.68,1.71-4.85,3.79-4.84l40.13.12c2.08,0,3.75,2.18,3.74,4.86Z"/><path class="cls-6" d="M56.8,234.29a3.92,3.92,0,0,1-3.63,4.14l-38.46-.12a3.89,3.89,0,0,1-3.58-4.16h0A3.92,3.92,0,0,1,14.76,230l38.46.12a3.9,3.9,0,0,1,3.58,4.16Z"/><path id="SVGID-10" data-name="SVGID" class="cls-1" d="M14.72,237.64a3.53,3.53,0,0,1,0-7l38.46.12a3.53,3.53,0,0,1,0,7Z"/><g class="cls-12"><polygon class="cls-8" points="12.84 237.8 11.83 237.79 11.87 230.45 12.87 230.45 12.84 237.8"/><polygon class="cls-8" points="15.93 237.81 14.93 237.8 14.97 230.46 15.97 230.46 15.93 237.81"/><polygon class="cls-8" points="19.03 237.81 18.02 237.81 18.06 230.47 19.07 230.47 19.03 237.81"/><rect class="cls-8" x="17.97" y="233.65" width="7.34" height="1.01" transform="translate(-212.56 255.17) rotate(-89.85)"/><polygon class="cls-8" points="25.22 237.83 24.22 237.83 24.26 230.49 25.26 230.49 25.22 237.83"/><polygon class="cls-8" points="28.32 237.84 27.32 237.84 27.35 230.5 28.36 230.5 28.32 237.84"/><polygon class="cls-8" points="31.42 237.85 30.41 237.85 30.45 230.5 31.46 230.51 31.42 237.85"/><rect class="cls-8" x="30.36" y="233.69" width="7.34" height="1.01" transform="translate(-200.27 267.45) rotate(-89.81)"/><polygon class="cls-8" points="37.61 237.87 36.61 237.87 36.65 230.53 37.65 230.53 37.61 237.87"/><polygon class="cls-8" points="40.71 237.88 39.7 237.88 39.74 230.53 40.75 230.54 40.71 237.88"/><polygon class="cls-8" points="43.81 237.89 42.8 237.89 42.84 230.54 43.85 230.55 43.81 237.89"/><polygon class="cls-8" points="46.91 237.9 45.9 237.9 45.94 230.55 46.94 230.56 46.91 237.9"/><polygon class="cls-8" points="50 237.91 49 237.91 49.03 230.56 50.04 230.56 50 237.91"/><polygon class="cls-8" points="53.1 237.92 52.09 237.91 52.13 230.57 53.14 230.57 53.1 237.92"/><polygon class="cls-8" points="56.2 237.93 55.19 237.92 55.23 230.58 56.23 230.58 56.2 237.93"/></g><path class="cls-1" d="M96.19,254A22.83,22.83,0,1,1,74.9,229.7,22.83,22.83,0,0,1,96.19,254Z"/><path class="cls-13" d="M93.48,253.8a20.11,20.11,0,1,1-18.75-21.39A20.13,20.13,0,0,1,93.48,253.8Z"/><path class="cls-8" d="M92.39,253.73a19,19,0,1,1-17.73-20.22A19,19,0,0,1,92.39,253.73Z"/><path class="cls-1" d="M82.13,246.81a.6.6,0,0,0-.42-.2l-3.23-.21a6.47,6.47,0,0,0-1-2.8l4.41.29a.61.61,0,0,0,.44-.14.57.57,0,0,0,.2-.43l.13-1.93a.61.61,0,0,0-.14-.44.6.6,0,0,0-.42-.2l-15.73-1a.57.57,0,0,0-.44.14.58.58,0,0,0-.2.42l-.16,2.51a.56.56,0,0,0,.15.44.57.57,0,0,0,.41.21l2.74.18c2.66.17,4.3,1,4.92,2.47l-7.8-.52a.6.6,0,0,0-.45.15.56.56,0,0,0-.19.42l-.13,1.93a.57.57,0,0,0,.14.44.58.58,0,0,0,.42.2l8.07.53a3.72,3.72,0,0,1-2.09,2.24,8.62,8.62,0,0,1-4.07.54l-2.11-.14a.62.62,0,0,0-.65.57l-.16,2.4a.62.62,0,0,0,.14.43c2.26,2.72,5.15,6.52,8.71,11.4a.53.53,0,0,0,.45.26l3.69.24a.55.55,0,0,0,.57-.3.51.51,0,0,0,0-.65q-5.07-7.12-8-10.7a9.63,9.63,0,0,0,5.35-1.73,7.11,7.11,0,0,0,2.73-4.26l3.17.21a.59.59,0,0,0,.45-.15.6.6,0,0,0,.2-.42l.12-1.93A.57.57,0,0,0,82.13,246.81Z"/></svg>