<svg id="Layer_1" data-name="Layer 1" xmlns="http://www.w3.org/2000/svg" viewBox="0 0 220.42 200.5"><defs><style>.cls-1{fill:#d3455b;}.cls-2{fill:#1d120d;}.cls-3{fill:#df917d;}.cls-4{fill:#c6806b;}.cls-5{fill:#2f1d15;}.cls-6{fill:#db2841;}.cls-7{fill:#dd8774;}.cls-8{fill:#ffb300;}.cls-9{fill:#e62841;}.cls-10{fill:#60bdb1;}.cls-11{fill:#80dad0;}.cls-12{fill:#ffcb74;}.cls-13{fill:#eba02e;}.cls-14{fill:#de2841;}.cls-15{fill:#e6e5e5;}</style></defs><title>logout graphic pop up</title><path class="cls-1" d="M218.87,68.46l-12.1-10.54c-1.3-1.13-2.56-2.32-3.92-3.37a2.24,2.24,0,0,0-3.34.29,2.29,2.29,0,0,0,.2,3.36c.29.29.61.56.93.83L211,68l-.14.42H179.94v4.89h31.33c-.73.7-1.12,1.11-1.54,1.48-3.18,2.77-6.37,5.53-9.53,8.32-1.46,1.29-1.69,2.72-.67,3.85s2.42,1.06,3.92-.24q7.74-6.72,15.46-13.46c2-1.78,2-3,0-4.82"/><path class="cls-1" d="M190.21,111.27H136.38a3.55,3.55,0,0,1-3.54-3.55V41.56A3.54,3.54,0,0,1,136.38,38h53.83a3.54,3.54,0,0,1,3.54,3.54v17.5a3.55,3.55,0,1,1-7.09,0v-14H139.93v59.07h46.73V82.28a3.55,3.55,0,1,1,7.09,0v25.44A3.55,3.55,0,0,1,190.21,111.27Z"/><path class="cls-1" d="M135.57,42.05l33,7.83a5.45,5.45,0,0,1,4.24,5.28v55.73a5.52,5.52,0,0,1-6.51,5.35l-27.32-4.65a5.46,5.46,0,0,1-4.61-5.36l.17-64.67"/><ellipse class="cls-2" cx="72.07" cy="86.76" rx="29.09" ry="26.52"/><path class="cls-3" d="M80.56,77.61a.7.7,0,0,0-.61.54,31.11,31.11,0,0,0-.63,3.52,14,14,0,0,0-4.44-1.79,11.93,11.93,0,0,0-3.2-.28,7.63,7.63,0,0,0-1.53.21,8.24,8.24,0,0,0-2.17.78,7.14,7.14,0,0,0-3.26,3.58.68.68,0,0,0-.67-.53l-.12,0a.67.67,0,0,0-.42.34.68.68,0,0,0-.07.52,23.27,23.27,0,0,1,.47,2.59h0v.1a13.66,13.66,0,0,1-.07,3.22,9.68,9.68,0,0,1-2,4.55,13.92,13.92,0,0,1-2.42,2.36,24.62,24.62,0,0,1-5.18,2.82l-.09,0c-.55.22-1.11.43-1.67.63-1.09.39-2.21.74-3.3,1.08-.88.28-1.77.56-2.65.86a46.63,46.63,0,0,0-6,2.43,25.33,25.33,0,0,0-5.35,3.53A23.16,23.16,0,0,0,30.75,114a.78.78,0,0,0-.09.52A.72.72,0,0,0,31,115a.64.64,0,0,0,.41.1h0c1.55,1.27,3,2.71,4.42,4.09l.17.17a42.54,42.54,0,0,0,4.64,4.1,24.52,24.52,0,0,0,2.81,1.8c.88.47,1.84.95,3,1.47a61.42,61.42,0,0,0,6.18,2.52,41.42,41.42,0,0,0,15.08,2.38l1,0a76.81,76.81,0,0,0,13.85-2,69.7,69.7,0,0,0,14.26-5.08,62.1,62.1,0,0,0,6.62-3.73c1.06-.69,2.13-1.43,3.17-2.2s2.07-1.58,2.9-2.3a.67.67,0,0,0,.44.15.62.62,0,0,0,.45-.23.73.73,0,0,0,.18-.5.84.84,0,0,0-.2-.51c-.27-.33-.53-.67-.81-1a23.11,23.11,0,0,0-5-4.39,44.83,44.83,0,0,0-5.74-3.1l-2.31-1c-1.2-.54-2.44-1.1-3.64-1.69a33,33,0,0,1-5.58-3.29,18.12,18.12,0,0,1-3.11-3.14,19.07,19.07,0,0,1-2.27-4l.09.17a20.89,20.89,0,0,1-1.32-4.94,27.78,27.78,0,0,1,0-6.26,34.79,34.79,0,0,1,.7-4,.75.75,0,0,0-.08-.53.62.62,0,0,0-.4-.33.63.63,0,0,0-.19,0h0m-1.49,6.86c0-.46,0-.93.08-1.42,0,.48-.06,1-.08,1.42"/><path class="cls-4" d="M63.18,92.81a10.7,10.7,0,0,1-.91,1.65c.55.16,1.1.33,1.65.48a16.82,16.82,0,0,0,3.73.73,42.89,42.89,0,0,0,4.39.24h.25l.4,0a59.68,59.68,0,0,0,9.48-1.55l-.36-.79.09.17a20.89,20.89,0,0,1-1.32-4.94,27.78,27.78,0,0,1,0-6.26,34.79,34.79,0,0,1,.7-4,.75.75,0,0,0-.08-.53.62.62,0,0,0-.4-.33.63.63,0,0,0-.19,0,.7.7,0,0,0-.61.54,31.11,31.11,0,0,0-.63,3.52,14,14,0,0,0-4.44-1.79,11.93,11.93,0,0,0-3.2-.28,7.63,7.63,0,0,0-1.53.21,8.24,8.24,0,0,0-2.17.78,7.14,7.14,0,0,0-3.26,3.58.68.68,0,0,0-.67-.53l-.12,0a.67.67,0,0,0-.42.34.68.68,0,0,0-.07.52,23.27,23.27,0,0,1,.47,2.59h0v.1a13.66,13.66,0,0,1-.07,3.22A11,11,0,0,1,63.18,92.81Zm16-9.76c0,.48-.06,1-.08,1.42C79.08,84,79.11,83.54,79.15,83.05Z"/><path class="cls-2" d="M47.85,14.94c-3.47.32-6,3.31-7.93,6.23a59.54,59.54,0,0,0-8.75,22.3,19,19,0,0,0-.26,6.46A19.79,19.79,0,0,0,34,57c2.16,3.41,4.71,6.74,8.26,8.66A28.31,28.31,0,0,0,49.4,68c8,1.86,16,3.74,24.19,4.15s16.61-.7,23.86-4.53c7-3.7,13.94-9,17.43-16.33,3.71-7.78,2.75-16.54.23-24.52a40.43,40.43,0,0,0-2.23-5.94c-2.55-5.12-8.26-10.23-14.2-10.75-3-.27-5.4-.08-8.41-.94-3.57-1-7.09-2.27-10.75-3-10.23-2-20.88,1.08-30.07,6-2.27,1.21-4.65,2.74-5.42,5.19"/><path class="cls-3" d="M105.45,73.21a36.93,36.93,0,0,0,2.91-9.09c2.49-13.3.86-26.87-9.41-36.36-1.31-1.2-2.64-2.32-4-3.31a36,36,0,0,0-3.52-2.4,34.79,34.79,0,0,0-4.43-2.12,57.87,57.87,0,0,0-6-2.06,54.87,54.87,0,0,0-13.27-2l-1.2,0a36.48,36.48,0,0,0-11.74,1.76,25.8,25.8,0,0,0-5.68,2.69c-.46.3-.92.61-1.36.94l-.48.36c-.31.23-.63.46-.94.71A9,9,0,0,0,43.87,25a1.08,1.08,0,0,0-.08.19,39.89,39.89,0,0,0-3.67,9.35A68.71,68.71,0,0,0,38,46.89a73.35,73.35,0,0,0,.13,13,51.14,51.14,0,0,0,2.52,11.84,32.52,32.52,0,0,0,2.19,4.94,30,30,0,0,0,3.35,4.78,30.92,30.92,0,0,0,4.29,4.14,30.23,30.23,0,0,0,4.85,3.14,33.5,33.5,0,0,0,10.79,3.43,39.72,39.72,0,0,0,5.48.38,41.77,41.77,0,0,0,6-.44,44,44,0,0,0,11.17-3.2A31.77,31.77,0,0,0,105.45,73.21Z"/><path class="cls-3" d="M35.33,46.34a4.71,4.71,0,0,1,1.44.23.23.23,0,0,1,.1,0l.17,0a.72.72,0,0,1,.68.46,7.59,7.59,0,0,1,2,1.55.7.7,0,0,1-.5,1.2.65.65,0,0,1-.49-.2c-.19-.19-.37-.38-.57-.55.52,2.53.89,4.6,1.15,6.49a55.12,55.12,0,0,1,.58,8.73.71.71,0,0,1-.43.65l.71.1.77.07H41a.74.74,0,0,1,.5.21.7.7,0,0,1,.2.49.71.71,0,0,1-.66.71l-.29,0-.74-.06-.81-.13c-.51-.09-1-.21-1.58-.36a15.53,15.53,0,0,1-2.81-1.12,11.25,11.25,0,0,1-4.21-3.8,11.83,11.83,0,0,1-1.8-5.83A9.12,9.12,0,0,1,29.23,52a10.1,10.1,0,0,1,1.31-2.78,6.53,6.53,0,0,1,4-2.85,5.78,5.78,0,0,1,.81-.07"/><path class="cls-3" d="M111.35,43.89a4.75,4.75,0,0,0-1.44.22l-.09,0-.18,0a.71.71,0,0,0-.67.47,7.8,7.8,0,0,0-2,1.55.71.71,0,0,0,0,1,.72.72,0,0,0,.51.21.65.65,0,0,0,.49-.21c.18-.19.37-.37.56-.55-.52,2.53-.88,4.6-1.15,6.49a56.37,56.37,0,0,0-.58,8.74.73.73,0,0,0,.43.64l-.71.11-.76.06-.16,0a.69.69,0,0,0-.5.2.7.7,0,0,0-.2.5.72.72,0,0,0,.66.71l.3,0,.73-.07.82-.13a15.38,15.38,0,0,0,4.38-1.47,11.38,11.38,0,0,0,4.22-3.81,11.9,11.9,0,0,0,1.79-5.83,8.85,8.85,0,0,0-.39-3.06,9.57,9.57,0,0,0-1.31-2.78,6.5,6.5,0,0,0-4-2.85,4.51,4.51,0,0,0-.81-.07"/><path class="cls-5" d="M86.34,49.14c1.26,0,2.28,1.83,2.28,4.09s-1,4.1-2.28,4.1-2.28-1.84-2.28-4.1,1-4.09,2.28-4.09"/><path class="cls-5" d="M59,49.12c1.26,0,2.28,1.84,2.28,4.1s-1,4.1-2.28,4.1-2.27-1.84-2.27-4.1,1-4.1,2.27-4.1"/><path class="cls-6" d="M73.42,35h.06a2.37,2.37,0,0,1,1.86,1.26,5.29,5.29,0,0,1,.7,2.91c-.07,2.21-1.31,4-2.76,4a2.09,2.09,0,0,1-1.51-.72A4.87,4.87,0,0,1,70.66,39c.06-2.21,1.3-4,2.76-4"/><path class="cls-2" d="M60.81,44.43c-.76.75-2.1.58-3.23.44a15.88,15.88,0,0,0-7.75.82c.71-1.7,2.72-2.61,4.63-3.18a33.44,33.44,0,0,1,3.46-.81C59.74,41.39,63,42.26,60.81,44.43Z"/><path class="cls-2" d="M85.56,44c.69.82,2,.77,3.18.73a15.84,15.84,0,0,1,7.64,1.54c-.55-1.77-2.47-2.86-4.32-3.6a30.24,30.24,0,0,0-3.37-1.12C86.9,41,83.57,41.59,85.56,44Z"/><circle class="cls-7" cx="50.34" cy="66.38" r="6.63"/><circle class="cls-7" cx="94.04" cy="65.4" r="6.63"/><path class="cls-2" d="M69.54.1C68,.19,66.39.35,64.85.57A42.27,42.27,0,0,0,54.09,3.51,31.3,31.3,0,0,0,43,11.74C34.94,21,32.09,33.8,32.62,45.85c0,.29.06.64.32.77s.62-.07.89-.24c.78-.46,2.5-.69,3.21.08,1.2,1.3-1,2.34-.12,3.93.54.94,1.85,1,2.89,1.29a4.22,4.22,0,0,1,1.58.9A1.74,1.74,0,0,1,42.08,54c-.09.77-.93,1.18-1.56,1.63a3.85,3.85,0,0,0-1.43,1.9A1,1,0,0,0,39,58c.15.56,1.16.8,1,1.34a2.92,2.92,0,0,1,.08-2,2.78,2.78,0,0,1,.75-.78A15.09,15.09,0,0,0,42.72,55a3.26,3.26,0,0,0,1-2.21,3.34,3.34,0,0,0-1.27-2.3A23.17,23.17,0,0,0,40.17,49a1.94,1.94,0,0,1-.62-.59c-.63-1.1.94-2.41.58-3.62C39.91,44,39,43.65,38.67,43a2.23,2.23,0,0,1,.72-2.52,13.07,13.07,0,0,0,1.27-1.84,12,12,0,0,1,3-2.93c.57-.4,2.7-1.74,2.68-.07,0,.52-.47.9-.89,1.2L43,38.53a6,6,0,0,0-1.81,1.74,2.08,2.08,0,0,0,.05,2.36,3.87,3.87,0,0,0,1.76.89c.62.22,1.29.61,1.42,1.26.18.94-.85,1.63-1.73,2a3.8,3.8,0,0,0,1.7-.48,1.6,1.6,0,0,0,.79-1.48c-.18-1.27-2.1-1.56-2.51-2.77a2,2,0,0,1,1-2.15,17.3,17.3,0,0,1,2.33-1,4,4,0,0,0,2.29-2.44,15.58,15.58,0,0,1,.37-2.08c1.13-2.66,4.34-2.34,6.73-2.79a50.42,50.42,0,0,0,10.45-2.75,20.33,20.33,0,0,0,5-3c.75-.63,1.36-1.35,2-2,1.14-1.15.73-1.33,1.88-.22a24.66,24.66,0,0,0,9.53,5.85c3.44,1.25,6.85,2.62,10.19,4.12,2.92,1.31,3.94,3.65,5.82,6.18,1.51,2,2.63,5,1.64,7.57-.62,1.58-2,2.76-2.62,4.35a4.6,4.6,0,0,0-.25,1.8,3,3,0,0,0,.61,1.72,6.08,6.08,0,0,0,2,1.27,2.42,2.42,0,0,1,1.5,1.74c.09,1-.81,1.74-1.63,2.29s-1.75,1.26-1.73,2.25a2.35,2.35,0,0,0,1.3,1.8,19,19,0,0,1,2,1.13,1.87,1.87,0,0,1,.77,2,2,2,0,0,1-1.19,1,2.21,2.21,0,0,0,1-3.78c-.37-.34-.85-.55-1.23-.87a1.24,1.24,0,0,1-.48-1.32,1.53,1.53,0,0,1,.48-.56,5.84,5.84,0,0,0,1.91-2,3.91,3.91,0,0,0-.27-3,15.52,15.52,0,0,1-1.13-2.82,2.67,2.67,0,0,1,.86-2.74,5.2,5.2,0,0,1,2-.55c4.79-.83,7.24-6.65,8.33-10.78a30.58,30.58,0,0,0,.12-14.85c-.14-.6-.31-1.2-.49-1.79a28,28,0,0,0-2.56-5.84A28.08,28.08,0,0,0,108.62,14a33.87,33.87,0,0,0-8.74-7.18,47.75,47.75,0,0,0-11-4.62A58.66,58.66,0,0,0,69.54.1m10.6,1.78h0l.49.06-.62-.07h.09"/><path class="cls-3" d="M89.17,200.41h26.32c-.93-6-1.6-12-2.78-17.94-1.79-.33-3.55-1.39-5.33-1.44a10.75,10.75,0,0,0-5,1.35c-3.13,1.55-6,4.06-9.17,5.31-1.55.61-3.22,1.35-4,3.51a15.78,15.78,0,0,0-.34,5.53C89,198,89.09,199.18,89.17,200.41Z"/><path class="cls-3" d="M127.13,178.42c-.83,4.2-2.62,8.26-4.28,12.18-1.38,3.25-2.87,6.5-4.18,9.81h17.91l11.56-16.57a18.29,18.29,0,0,0,3.17-6.07c1.22-5.26-2-9.64-4-14.15q-3.7-8.3-7.39-16.59l-25.81,6.16q4.61,7.69,9.33,15.31C125.93,172.49,128.09,173.62,127.13,178.42Z"/><path class="cls-3" d="M10,200.5c.63-.05,1.27-.09,1.91-.09h19c-3.08-8.32-7.24-18.63-7.16-27.46s4.52-18.48,6-27.31l-26.4,2.63q-.78,9-1.55,18.09c-.66,7.69-3.35,10.29-.46,17.53C3.3,188.9,6.76,194.91,10,200.5Z"/><path class="cls-8" d="M41.68,103.76c1.9-.69,3.83-1.29,5.76-1.82a29.38,29.38,0,0,0,34.68,11.45c4.26-1.56,8.42-4.5,9.58-8.88,0,0,16.43,1.86,18,2.38,9.75,3.37,16.12,12.39,20.62,21.18,2.58,5,4.85,10.25,7.72,15.14,3,5.1,7.12,9.06,10.54,13.82,1.46,2,4.1,4.12,4.55,6.72.68,3.95-2,3.28-3.32,5.6.7-1.2-.09-2.83-1.32-3.49a6.42,6.42,0,0,0-4.07-.33c-5.87,1-7.22,3.94-11.15,7.67-1.29,1.21-6.44,4.5-4.11,6.62-3.39-3.08-5.64-6.65-8.27-10.32s-2.91,2.21-3.36,4.57c-.73,3.81-1.25,13.26-5.59,15-3.24,1.31-10.14-.31-13.69-.39q-6.69-.17-13.39-.17H54.09c-2,0-25.67.92-25.87.28a49.42,49.42,0,0,1-2-13.78,54.57,54.57,0,0,1,.3-7c.09-.75.07-4.92.27-5.12l-1.42,3.38c-2.08,5-1.93,8-7.41,8.14s-11.45-1.62-16.67-2.9c.11-12.09,1.77-24.33,6.55-35.45C14.09,121.61,26.81,109.12,41.68,103.76Z"/><path class="cls-9" d="M103,106.84a40.64,40.64,0,0,1-23.21,14.78c-11.18,2.48-22.57-.73-31.67-7.46A45.25,45.25,0,0,1,38.83,105l-.76.28A43.61,43.61,0,0,0,61,122.65c10.93,3.55,22.79,1.4,32.28-4.92A38.82,38.82,0,0,0,104,107.09Z"/><path class="cls-9" d="M96.8,105.13A36,36,0,0,1,75.68,117a31.6,31.6,0,0,1-25.44-7.2,30.54,30.54,0,0,1-6.06-6.93l-.42.18A31.64,31.64,0,0,0,60,116.55a32.25,32.25,0,0,0,27.56-2.85,35.43,35.43,0,0,0,9.74-8.44Z"/><path class="cls-6" d="M90.6,116.08a.86.86,0,0,0,0-1.72.86.86,0,0,0,0,1.72Z"/><path class="cls-10" d="M102.32,200.41a67.93,67.93,0,0,1-.32-10.69,80.76,80.76,0,0,1,5.16-23.51c2.61-6.79,4.28-12.68,9.25-18.22,2.54-2.83,5.31-5.43,7.89-8.23s4.46-6.09,6.53-9.28c.2-.3.51-.65.85-.53a3.66,3.66,0,0,1,.44,1.61,3.19,3.19,0,0,0,.4-3.45,9.15,9.15,0,0,0-2.3-2.85c-2.5-2.35-4.49-4.43-5.85-7.55-1.47-3.36-4.25-5.95-6.79-8.63a21.49,21.49,0,0,0-4.32-3.82,19.64,19.64,0,0,0-6-2.11c-4.84-1.13-9.87-2-14.78-1.17,1-.16-.2,14.42-.62,15.52a36.84,36.84,0,0,1-7.3,11A82.25,82.25,0,0,1,74.21,138c-11.5,8.95-24.72,15.72-35.38,25.75-7,6.61-13,14.8-15.88,24.07a36.19,36.19,0,0,0-1.86,12.62Z"/><path class="cls-11" d="M116.07,108.64a.65.65,0,0,0-.08.28c-.38,2.36-1.48,3.61-2.7,5.5-1.36,2.11-2.72,4.23-4.09,6.33-3.59,5.53-7.33,11-11,16.44-6.86,10.24-13.8,20.61-17.5,32.49a61.59,61.59,0,0,0-2.9,21.89c0,.29.12,2.11.66,2.1s.54-1.85.55-2.13a55.83,55.83,0,0,1,3.19-17.15,95.6,95.6,0,0,1,8-16.77c7-11.74,15.16-22.7,22.2-34.39,1.8-3,3.79-5.9,4.53-9.36.33-1.58.64-3.58-.26-5.05-.11-.19-.32-.38-.51-.28A.36.36,0,0,0,116.07,108.64Z"/><path class="cls-11" d="M105.54,104.51a1.46,1.46,0,0,0-.17-.24c-.5,1.83-.38,3.81-1,5.59s-1.2,3.36-1.84,5a44.05,44.05,0,0,1-4.77,8.8,74.14,74.14,0,0,1-13.93,14.76c-11.43,9.51-24.79,17-34.22,28.75a46.88,46.88,0,0,0-10,21.07,9.4,9.4,0,0,0,.1,4c.26.95.63,1,.88,0,3.47-14.24,15.41-24.57,26.62-33,12-9.07,25.52-17.55,33.22-31A43.71,43.71,0,0,0,105,117a36.86,36.86,0,0,0,.9-7.48C105.94,108.19,106.33,105.79,105.54,104.51Z"/><path class="cls-11" d="M72.91,159.6a52.1,52.1,0,0,0-17.07,40"/><path class="cls-11" d="M90.12,200.41,106.32,146a101.48,101.48,0,0,0-18.16,54.43Z"/><path class="cls-4" d="M72.07,66.78a5.42,5.42,0,0,0,2.77-.59A3.63,3.63,0,0,0,76.63,64a2.78,2.78,0,0,0-1.94.14c-.62.24-1.19.58-1.82.79a4.68,4.68,0,0,1-3.7-.33c-1.46-.8-1.55.17-.46,1A5.71,5.71,0,0,0,72.07,66.78Z"/><path class="cls-6" d="M73.6,29c-.17-3.36,1.24-7,1.53-10.4C73,20.64,73.47,26.29,73.6,29Z"/><path class="cls-2" d="M50.08,98.23c-1.79,1.84-2.18,4.34-2.5,6.77-.41,3.21-.69,6.43-.82,9.66a122.51,122.51,0,0,0,.73,19.15,140.81,140.81,0,0,0,3.44,18.66c1.32,5.22,2.64,10.88,5.61,15.45,2.68,4.15,6.91,6.73,12,5.94C74,173,78.11,168.77,81,164.24c6.41-10.08,10-22.05,12.24-33.69A164,164,0,0,0,96,110.21c.19-2.91,0-6.11-1.8-8.51-1.54-2-4.14-3.29-6.63-2.38-1.18.43-.67,2.33.52,1.9,2.32-.85,4.54,1,5.36,3.1,1,2.45.67,5.22.42,7.78-.54,5.57-1.26,11.12-2.28,16.63-2,10.76-5.11,21.4-10.3,31.08-2.42,4.53-5.52,9.38-10.49,11.39a9.83,9.83,0,0,1-12.17-3.69c-2.8-4-4-8.93-5.27-13.55a142.24,142.24,0,0,1-3.49-17,124.21,124.21,0,0,1-1.22-19.56c.06-3.15.24-6.3.56-9.44.28-2.68.26-6.31,2.27-8.37.88-.9-.51-2.29-1.39-1.39Z"/><path class="cls-12" d="M61.63,170.21a2.71,2.71,0,1,1-2.7-2.71,2.71,2.71,0,0,1,2.7,2.71"/><path class="cls-12" d="M68,172.42a2.71,2.71,0,1,1-2.71-2.71A2.72,2.72,0,0,1,68,172.42"/><path class="cls-12" d="M74.89,171.44a2.71,2.71,0,1,1-2.7-2.71,2.7,2.7,0,0,1,2.7,2.71"/><path class="cls-12" d="M83.48,162.35a2.71,2.71,0,1,1-2.7-2.7,2.7,2.7,0,0,1,2.7,2.7"/><path class="cls-12" d="M57.21,162.35a2.71,2.71,0,1,1-2.7-2.7,2.7,2.7,0,0,1,2.7,2.7"/><path class="cls-13" d="M39.78,64.76a3.57,3.57,0,1,1-3.56-3.57,3.56,3.56,0,0,1,3.56,3.57"/><path class="cls-13" d="M113.93,62.55A3.57,3.57,0,1,1,110.36,59a3.56,3.56,0,0,1,3.57,3.57"/><path class="cls-4" d="M35.94,48.81a5.11,5.11,0,0,0-4.39,3.58c-.87,2.49-.2,5.15.46,7.61a.37.37,0,0,0,.71-.2c-.89-3.34-1.94-9.84,3.22-10.25.47,0,.47-.78,0-.74Z"/><path class="cls-4" d="M34.17,53.24A4.07,4.07,0,0,1,36,58.37c-.17.44.54.63.71.19a4.8,4.8,0,0,0-2.17-6,.37.37,0,0,0-.37.64Z"/><path class="cls-6" d="M42.64,104.93v-.1a.86.86,0,0,0-1.72,0v.1a.86.86,0,0,0,1.72,0Z"/><path class="cls-6" d="M45.94,110.4h.11a.86.86,0,0,0,0-1.72h-.11a.86.86,0,1,0,0,1.72Z"/><path class="cls-6" d="M52.33,115.22a.86.86,0,0,0,0-1.72.86.86,0,0,0,0,1.72Z"/><path class="cls-6" d="M59.58,119.08a.86.86,0,0,0,0-1.72.86.86,0,0,0,0,1.72Z"/><path class="cls-6" d="M67.79,121.22a.86.86,0,0,0,0-1.72.86.86,0,0,0,0,1.72Z"/><path class="cls-6" d="M77.17,120.68a.86.86,0,0,0,0-1.71.86.86,0,0,0,0,1.71Z"/><path class="cls-6" d="M85.16,118.86a.86.86,0,0,0,0-1.72.86.86,0,0,0,0,1.72Z"/><path class="cls-12" d="M36,139.42A48.38,48.38,0,0,0,27.18,162a6.22,6.22,0,0,0,.2,2.91c.27.63.48.5.64-.19A63.08,63.08,0,0,1,36.37,144a5.07,5.07,0,0,0,.29-2.94c0-.19-.34-2.13-.68-1.65Z"/><path class="cls-12" d="M115.14,156.89a106.68,106.68,0,0,1,.92,11.84c.08,4-.16,8-.31,12,0,.69-.14,2.14.31,2.76s.55.18.64-.4a79.31,79.31,0,0,0,.63-14.37A112.28,112.28,0,0,0,116,154.4c-.08-.53-.23-1.58-.75-.87s-.21,2.58-.11,3.36Z"/><path class="cls-14" d="M68.56,78.91a47.74,47.74,0,0,1,5.86-.17c1.66.05,3.78-.16,5.23.81a1.31,1.31,0,0,0,.47.24s.07,0,.1,0a.16.16,0,0,0,0-.09,1.37,1.37,0,0,0,.12-.6,1.15,1.15,0,0,0-.33-.68,7.24,7.24,0,0,0-2.69-1.75,12.05,12.05,0,0,0-3.57-1.11,11.91,11.91,0,0,0-5,.37,10.43,10.43,0,0,0-4,2.14A2,2,0,0,0,64,79.25a.28.28,0,0,0,0,.18.24.24,0,0,0,.25.12.71.71,0,0,0,.28-.09A7.33,7.33,0,0,1,67.52,79C67.87,79,68.22,79,68.56,78.91Z"/><path class="cls-14" d="M66.62,77.74a4.85,4.85,0,0,0-1.21.69c-.3.25-.47.59-.82.83a.71.71,0,0,1-.45.16.43.43,0,0,1-.33-.27.82.82,0,0,1-.07-.44A7.65,7.65,0,0,1,64.32,77c.76-2.32,3.13-4.85,5.76-4.73.89,0,1.61.74,2.54.73,1.68,0,2.52-1.16,4.13-.06a7.9,7.9,0,0,1,2.54,3.2c.48,1,1.15,2,.87,3.13a.17.17,0,0,1-.08.14c-.1.06-.2-.06-.26-.15A5.22,5.22,0,0,0,78,77.81a11.13,11.13,0,0,0-9-1.38c-.8.22-1.56.6-2.34.89a8.17,8.17,0,0,1-2.5.9.18.18,0,0,1-.13,0,.19.19,0,0,1,0-.15c0-.24.12-.49.2-.75"/><path class="cls-15" d="M66.08,77.46a4.13,4.13,0,0,1,1.47-2.08,7.25,7.25,0,0,1,2.21-.93,8.09,8.09,0,0,1,6.16.54,6.33,6.33,0,0,1,2.63,2.27,13.7,13.7,0,0,0-3-.58,31.66,31.66,0,0,0-3.37-.27,17.8,17.8,0,0,0-3.42.27,11.43,11.43,0,0,0-1.42.26c-.22.06-1.2.34-1.26.58Z"/></svg>