<svg id="Layer_1" data-name="Layer 1" xmlns="http://www.w3.org/2000/svg" viewBox="0 0 154.21 221.11"><defs><style>.cls-1{fill:#db1f27;}.cls-2{fill:#fff;}.cls-3{fill:#eb4943;}.cls-4{fill:#c82127;}</style></defs><path class="cls-1" d="M143.6,76.83c0,36.9-66.81,134.26-66.81,134.26S10,113.73,10,76.83a66.81,66.81,0,1,1,133.62,0Z"/><circle class="cls-2" cx="76.79" cy="73.88" r="31.41" transform="translate(-22.43 35.01) rotate(-22.5)"/><path class="cls-3" d="M21.43,82.7a58,58,0,0,1,104-35.38,58,58,0,1,0-96.33,64.3A57.69,57.69,0,0,1,21.43,82.7Z"/><path class="cls-4" d="M61,185.54c9.11,15.25,15.76,25.55,15.76,25.55S143.6,113.73,143.6,76.83c0-1.94-.1-3.85-.26-5.75a163.07,163.07,0,0,1-10.94,29.76c-12.65,26.32-31.35,43.19-51.27,64.55C74.71,172.27,68,179.08,61,185.54Z"/></svg>