<svg width="40" height="40" viewBox="0 0 40 40" fill="none" xmlns="http://www.w3.org/2000/svg">
<rect x="0.2" y="0.199847" width="39.0545" height="39.5998" rx="19.5272" fill="white"/>
<path d="M12.764 17.4156C13.0051 15.969 14.2567 14.9088 15.7232 14.9088H23.7313C25.1978 14.9088 26.4494 15.969 26.6905 17.4156L27.8723 24.5065C28.1771 26.3351 26.7669 27.9997 24.9131 27.9997H14.5414C12.6876 27.9997 11.2774 26.3351 11.5822 24.5065L12.764 17.4156Z" fill="#8E95A5"/>
<path d="M21.363 16.8635C22.7438 16.8635 23.863 15.7442 23.863 14.3635L23.863 13.9999C23.863 12.6191 22.7437 11.4999 21.363 11.4999L18.0903 11.4999C16.7096 11.4999 15.5903 12.6192 15.5903 13.9999L15.5903 14.3635C15.5903 15.7442 16.7096 16.8635 18.0903 16.8635L21.363 16.8635Z" fill="#8E95A5" stroke="#8E95A5"/>
<path d="M21.9094 14.1815C21.9094 14.5832 21.5838 14.9088 21.1822 14.9088L18.2731 14.9088C17.8714 14.9088 17.5458 14.5832 17.5458 14.1815C17.5458 13.7799 17.8714 13.4543 18.2731 13.4543L21.1822 13.4543C21.5838 13.4543 21.9094 13.7799 21.9094 14.1815Z" fill="white"/>
<rect x="20.4546" y="20.7267" width="3.63635" height="1.45454" rx="0.72727" transform="rotate(90 20.4546 20.7267)" fill="white"/>
<rect x="0.2" y="0.199847" width="39.0545" height="39.5998" rx="19.5272" stroke="#8E95A5" stroke-width="0.4"/>
</svg>
