<svg id="Layer_1" data-name="Layer 1" xmlns="http://www.w3.org/2000/svg" viewBox="0 0 110 109"><defs><style>.cls-1{fill:#f2f2f2;}.cls-2{fill:#60bdb1;}</style></defs><title>tracking</title><rect class="cls-1" x="1" width="109" height="109" rx="22.23"/><path class="cls-2" d="M75.63,85.61,74,85.5l-1.4-.09c-1-.06-2-.12-2.94-.22l-7.28-.77c-3.56-.38-7.12-.76-10.69-1.11-3-.3-6-.56-9-.83q-3-.26-6.08-.54l-.78-.07c-3.08-.29-6.26-.58-9.4-1A3.2,3.2,0,0,1,24,78.08v-.19c-.06-10.29-.12-20.93,0-31.4a10.09,10.09,0,0,1,1.29-4.14c.22-.48.45-1,.64-1.42a12.56,12.56,0,0,1,.58-1.26l.37-.74,1-2,1.49,1.73a12.85,12.85,0,0,0,8.19,4.33c1.58.25,3.19.39,4.68.5l3.76.31c3.29.28,6.69.57,10,.63,7.33.12,13.33-1.44,18.35-4.77A8.22,8.22,0,0,1,75.53,39c.23-.1.5-.21.82-.37l3-1.41-.88,3.17c-.18.65-.35,1.25-.52,1.83-.33,1.16-.63,2.21-.89,3.27-.15.6-.32,1.21-.5,1.81a16.59,16.59,0,0,0-.84,4.17c-.1,7.45-.09,15-.07,22.38,0,2.67,0,5.35,0,8ZM27.05,77.94c3,.38,6.09.66,9.07.94l.77.07L43,79.5c3,.26,6,.53,9.06.83,3.57.35,7.14.73,10.71,1.11,2.42.26,4.85.52,7.27.76.86.09,1.72.15,2.63.2v-.51c0-2.67,0-5.34,0-8,0-7.35,0-15,.07-22.43a19,19,0,0,1,1-4.95c.17-.57.33-1.13.47-1.7s.3-1.17.47-1.77c-5.24,3-11.35,4.48-18.61,4.36-3.43-.06-6.89-.35-10.23-.64L42,46.43c-1.56-.11-3.24-.26-4.93-.53a16.39,16.39,0,0,1-8.42-3.75c-.2.5-.44,1-.68,1.49a8,8,0,0,0-1,2.9c-.16,10.43-.1,21,0,31.31Zm-.07.12h0Zm-.15-.15Z"/><path class="cls-2" d="M77,84.84H74.93V81.43q0-3.68,0-7.35c0-6.81,0-13.86.06-20.8a27.71,27.71,0,0,1,1-6.47c.52-2.05,1.17-4.08,1.79-6,.27-.84.54-1.68.8-2.52l.63-2.09c.66-2.13,1.31-4.27,2-6.4a8.79,8.79,0,0,1,.59-1.35l.35-.72,1.44-3.07L85.77,30l1.47,3.54.78,1.9c1,2.41,2,4.82,3,7.24l.06.15a9,9,0,0,1,.83,3.28c0,4.77,0,9.53,0,14.29,0,5.59,0,11.18,0,16.77a3.26,3.26,0,0,1-2.61,3.36l-.16.06L82.55,83l-4.86,1.77A2,2,0,0,1,77,84.84Zm6.5-52.52c-.48,1.57-1,3.14-1.45,4.72l-.64,2.09c-.26.85-.53,1.7-.8,2.55-.61,1.92-1.25,3.91-1.74,5.87A24.87,24.87,0,0,0,78,53.31c-.08,6.92-.07,14-.06,20.77q0,3.67,0,7.35h0l3.59-1.31,6.63-2.41.18-.06a4.2,4.2,0,0,0,.6-.25s0-.1,0-.27c0-5.59,0-11.19,0-16.79,0-4.75,0-9.51,0-14.27a6.91,6.91,0,0,0-.62-2.19l-.06-.16c-1-2.41-1.94-4.8-2.93-7.2l-.78-1.9Z"/><path class="cls-2" d="M57,45.88a89.22,89.22,0,0,1-9.43-.65c-1.62-.17-3.24-.27-4.81-.37s-3-.2-4.57-.35a13.5,13.5,0,0,1-8.25-3.71,6.23,6.23,0,0,1-1.27-6.54c1.22-2.92,2.21-5.39,3.05-7.92A3.11,3.11,0,0,1,35,23.94H83.71L82.56,27.7c-.44,1.41-.85,2.73-1.22,4.06-1.18,4.18-3.28,7.09-6.41,8.89A45.18,45.18,0,0,1,67,44.39,30.85,30.85,0,0,1,57,45.88ZM34.67,26.94s-.06.13-.13.35c-.87,2.62-1.88,5.14-3.13,8.13A3.26,3.26,0,0,0,32,38.65a10.46,10.46,0,0,0,6.46,2.88c1.47.14,3,.24,4.46.34s3.25.2,4.88.37c6.39.67,12.39,1.29,18.25-.69a42.76,42.76,0,0,0,7.38-3.5c2.42-1.39,4.07-3.71,5-7.1.37-1.32.78-2.63,1.2-4H69.09a3.72,3.72,0,0,1,2,2.32,3.38,3.38,0,0,1-.38,2.61,7.43,7.43,0,0,1-4.41,2.87,21.69,21.69,0,0,1-3.39.5l-.74.07a69.69,69.69,0,0,1-8.55.2c-.7,0-1.4,0-2.1,0-3.3,0-6.72,0-10-1.57a5.72,5.72,0,0,1-2.18-1.63,3.38,3.38,0,0,1-.46-3.46,3.94,3.94,0,0,1,1.25-1.42,7.92,7.92,0,0,1,.71-.47H34.67Zm15.9,1.15c-3,0-6.37,0-8.65,1.73a1.27,1.27,0,0,0-.34.31.78.78,0,0,0,.14.34,3.08,3.08,0,0,0,1.08.73c2.68,1.26,5.62,1.27,8.73,1.29.73,0,1.45,0,2.17,0a67.13,67.13,0,0,0,8.17-.19l.76-.07a17.67,17.67,0,0,0,2.93-.42,4.81,4.81,0,0,0,2.57-1.48.42.42,0,0,0,.06-.34c0-.16-.34-.48-1.92-1a34.92,34.92,0,0,0-10-1q-.72,0-1.44,0h0l-3.54,0h-.76Z"/></svg>