<svg id="Layer_1" data-name="Layer 1" xmlns="http://www.w3.org/2000/svg" viewBox="0 0 110 109"><defs><style>.cls-1{fill:#f2f2f2;}.cls-2{fill:none;stroke:#60bdb1;stroke-miterlimit:10;stroke-width:3px;}</style></defs><title>tracking</title><rect class="cls-1" x="1" y="1" width="109" height="109" rx="22.23"/><path class="cls-2" d="M89,32.53l-.6.57-8.73,8.38a4.6,4.6,0,0,1-.53.46,1,1,0,0,1-1.35-.08c-.7-.59-.71-1.17,0-2l8.08-9.51.37-.46-1.61-1.74-5.27,4.5c-1.62,1.39-3.23,2.78-4.86,4.16a1.12,1.12,0,0,1-1.75,0c-.56-.58-.51-1.17.18-1.89l8.4-8.8c.16-.16.31-.34.5-.55a2.94,2.94,0,0,0-2.58-.76,6.56,6.56,0,0,0-2.11,1c-3,2.22-5.55,5.05-8.22,7.69A9.11,9.11,0,0,0,67.66,35c-1.93,2.93-2.59,6-1,9.31.21.42,0,.6-.23.85l-9.92,9.43c-3-2.83-8.06-7.22-10.67-9.71,1.88-3.65,1.26-7-1-10.24a17.85,17.85,0,0,0-6.68-5.54A16.38,16.38,0,0,0,31.4,27a6.63,6.63,0,0,0-4.58,1.23,6.06,6.06,0,0,0-2.26,5.88,18.72,18.72,0,0,0,8.09,13.67,8.75,8.75,0,0,0,9.09.9c.4-.19.53,0,.74.24q3.6,3.81,7.21,7.63L51.87,59q-9.24,8.79-18.48,17.57a1.57,1.57,0,0,0-.5,1.77,6.37,6.37,0,0,0,4,4.16,1.69,1.69,0,0,0,2-.53c2.28-2.48,4.62-4.91,6.94-7.36l10.44-11,2.09,2.13L74,82.17a1.3,1.3,0,0,0,1.38.43,6.33,6.33,0,0,0,4.43-4.23,1.57,1.57,0,0,0-.53-1.82Q71.15,68.88,63.08,61.2L60.8,58.81,70.36,48.7a.69.69,0,0,1,.86-.21,10.17,10.17,0,0,0,2.47.57,9.52,9.52,0,0,0,7.39-2.76c2-1.84,3.85-3.82,5.7-5.8A12.92,12.92,0,0,0,90,35.72V34.57l-1-2"/></svg>