<svg id="Layer_1" data-name="Layer 1" xmlns="http://www.w3.org/2000/svg" viewBox="0 0 110 109"><defs><style>.cls-1{fill:#60bdb1;}.cls-2{fill:#fff;}</style></defs><title>tracking</title><rect class="cls-1" x="1" width="109" height="109" rx="22.23"/><path class="cls-2" d="M84.62,46.51a29.11,29.11,0,0,1-21.25,28c-1.27.37-1.89.83-2,2.29-.52,7.5-4.29,12.88-11.32,15.49-6.75,2.5-13.07,1.2-18.24-3.87-5.46-5.34-6.44-11.93-4.22-19a22.42,22.42,0,0,1,2.6-5.29A2.54,2.54,0,0,0,30.37,61,28.74,28.74,0,0,1,27,41.34c.61-3.54,1.65-4,4.86-2.44,15.74,7.8,31.5,7.72,47.25,0,3.26-1.59,4.31-1.14,4.89,2.39C84.28,43,84.41,44.77,84.62,46.51ZM73.51,63.59,72.72,63c-5.3-4.26-11.22-5.27-17.47-2.7-6.63,2.72-10,8-10.62,15.07-.12,1.46-.41,2.74-2.15,2.7-1.9,0-2.07-1.46-2-3a19.19,19.19,0,0,1,3.27-10.3c1.33-2,3-3.7,4.5-5.53-.06-.05-.16-.2-.27-.21-10.18-.69-19.27,10.13-16.85,20,1.55,6.38,7.75,10.88,14,10.19A13.35,13.35,0,0,0,57.23,76.4c.08-2.77-.14-5.57.13-8.32.08-.84,1.32-1.56,2-2.33a10.39,10.39,0,0,1,2,2.19,6.85,6.85,0,0,1,.18,2.55C65.29,70.22,70.41,67.26,73.51,63.59Zm6.54-20.32c-16.43,7.62-32.67,7.38-49,0-.63,6,.24,11.28,3.39,16.26C37.88,57,41.52,55,45.6,55c6.2.07,12.39,0,18.59,0,4.57,0,8.48,2.36,12.07,5.4A24.79,24.79,0,0,0,80.05,43.27Z"/><path class="cls-2" d="M82.16,26.49A13.66,13.66,0,0,1,95,39.25c.06,1.48-.27,2.74-1.93,2.89s-2.16-1.07-2.34-2.54c-.66-5.34-3.62-8.39-8.82-9-1.52-.16-2.68-.64-2.56-2.29S80.79,26.35,82.16,26.49Z"/><path class="cls-2" d="M28.91,26.49c1.42-.15,2.68.29,2.75,2s-1,2-2.48,2.13a9.26,9.26,0,0,0-8.88,8.67c-.17,1.49-.47,2.92-2.35,2.77-2-.16-2-1.76-1.9-3.29A13.61,13.61,0,0,1,28.91,26.49Z"/></svg>